<?xml version="1.0" encoding="UTF-8" standalone="no"?>
<!DOCTYPE svg  PUBLIC '-//W3C//DTD SVG 1.1//EN'  'http://www.w3.org/Graphics/SVG/1.1/DTD/svg11.dtd'>
<svg xmlns="http://www.w3.org/2000/svg">
<defs>
<font id="HelveticaNeue-UltraLight" horiz-adv-x="500">
<font-face underline-position="-75" font-weight="100" descent="-200" panose-1="2 0 2 6 0 0 0 2 0 4" units-per-em="1000" unicode-range="U+0020-25CA" bbox="-415 -219 1111 931" x-height="514" underline-thickness="50" font-family="HelveticaNeue" ascent="800" cap-height="714"/>
<missing-glyph horiz-adv-x="1000"/>
<glyph glyph-name=".notdef" horiz-adv-x="1000"/>
<glyph glyph-name=".null" horiz-adv-x="0"/>
<glyph glyph-name="nonmarkingreturn" horiz-adv-x="1000"/>
<glyph glyph-name="space" horiz-adv-x="278" unicode=" "/>
<glyph glyph-name="exclam" horiz-adv-x="185" unicode="!" d="M83 0v98h20v-98h-20zM83 182v532h20v-532h-20z"/>
<glyph glyph-name="quotedbl" horiz-adv-x="278" unicode='&quot;' d="M93 489h-20v225h20v-225zM205 489h-20v225h20v-225z"/>
<glyph glyph-name="numbersign" horiz-adv-x="556" unicode="#" d="M245 680l-31 -234h171l31 234h20l-31 -234h116v-20h-121l-24 -177h117v-20h-121l-31 -229h-20l31 229h-172l-31 -229h-20l31 229h-125v20h130l24 177h-126v20h131l31 234h20zM185 249h171l24 177h-171z"/>
<glyph glyph-name="dollar" horiz-adv-x="556" unicode="$" d="M265 711q-37 0 -76 -8t-71 -27q-32 -18 -51 -50q-20 -32 -20 -79q0 -45 18 -73q19 -28 49 -46t70 -28t81 -19v330zM26 237q0 -61 18 -105t48 -71q32 -27 76 -41t97 -16v356q-43 10 -85 21t-77 31q-34 20 -55 51q-21 32 -21 84q-1 51 21 87t56 58t76 30q42 9 85 9v43h20 v-44q51 -2 93 -14t74 -38t50 -66t21 -98h-20q-2 54 -19 90t-46 60t-68 34q-39 11 -85 12v-334l8 -2q51 -13 95 -25t77 -32t53 -53t19 -89q0 -51 -22 -87t-58 -60t-81 -34t-91 -10v-88h-20v89q-57 2 -105 17t-82 46q-34 32 -54 78q-18 44 -18 105v6h20zM285 3q41 -1 83 9 t75 31t53 54t21 79q1 51 -21 82q-22 32 -56 50t-74 28q-41 10 -81 19v-352z"/>
<glyph glyph-name="percent" horiz-adv-x="685" unicode="%" d="M377 157q0 -29 8 -57q9 -28 25 -48t41 -32t58 -12t59 12t42 32q18 20 26 48q8 27 8 57q0 69 -33 111t-102 42t-101 -44t-31 -109zM21 519q0 37 10 69q9 32 29 55t48 36t65 13q75 0 115 -48t40 -124q0 -34 -10 -65t-30 -55t-48 -36q-28 -14 -67 -14t-68 14t-47 38t-28 54 q-9 30 -9 63zM41 519q0 -29 8 -57q9 -28 25 -48t41 -32t58 -12t59 12t42 32q18 20 26 48q8 27 8 57q0 69 -33 111t-102 42t-101 -44t-31 -109zM357 157q0 37 10 69q9 32 29 55t48 36t65 13q75 0 115 -48t40 -124q0 -36 -10 -66t-30 -53t-48 -37t-67 -13q-39 -1 -68 13 t-47 38t-28 54q-9 30 -9 63zM564 714h23l-476 -747h-23z"/>
<glyph glyph-name="ampersand" horiz-adv-x="574" unicode="&amp;" d="M150 583q0 -17 6 -34t18 -37t32 -47q20 -26 47 -61q21 15 47 33q26 17 48 39t38 48t16 57q0 26 -10 47q-10 22 -28 36t-40 22t-47 8q-26 0 -49 -8q-22 -8 -40 -22t-28 -34t-10 -47zM248 378q-30 -19 -62 -40q-32 -20 -60 -46q-26 -26 -44 -58t-18 -74q0 -38 16 -68 t42 -49q26 -20 58 -30q34 -10 68 -10q72 0 120 36t76 93zM572 0h-26l-89 113q-29 -55 -81 -92t-128 -37q-37 0 -74 12q-38 12 -66 34t-46 56q-18 32 -18 74q0 44 18 78t46 63t62 51t66 42q-15 22 -33 44q-19 22 -35 46t-27 48t-11 49q0 35 13 60t33 41t47 24q26 8 53 8 q30 0 56 -9t47 -26q19 -17 31 -41t12 -57q0 -35 -16 -63t-38 -50q-23 -22 -51 -42q-28 -19 -52 -37l188 -238q10 22 18 54q6 26 6 56v16h20v-10q0 -39 -7 -67q-8 -32 -23 -67z"/>
<glyph glyph-name="quotesingle" horiz-adv-x="167" unicode="&apos;" d="M74 714h20v-225h-20v225z"/>
<glyph glyph-name="parenleft" horiz-adv-x="222" unicode="(" d="M204 731q-56 -103 -86 -217t-30 -232q0 -120 30 -236t87 -222h-20q-29 57 -51 111q-22 53 -36 109t-22 114t-8 124q0 118 30 232t86 217h20z"/>
<glyph glyph-name="parenright" horiz-adv-x="222" unicode=")" d="M18 -176q56 102 86 216t30 232q0 121 -30 237t-87 222h20q29 -57 51 -111t36 -110t22 -114t8 -124q0 -118 -30 -232t-86 -216h-20z"/>
<glyph glyph-name="asterisk" horiz-adv-x="352" unicode="*" d="M184 714v-140l132 43l4 -19l-130 -43l83 -109l-16 -12l-83 108l-84 -104l-16 13l88 104l-130 43l6 19l126 -43v140h20z"/>
<glyph glyph-name="plus" horiz-adv-x="600" unicode="+" d="M290 506h20v-243h242v-20h-242v-243h-20v243h-242v20h242v243z"/>
<glyph glyph-name="comma" horiz-adv-x="278" unicode="," d="M149 98v-98q1 -45 -9 -73t-35 -45v20q13 14 19 36t5 62v98h20z"/>
<glyph glyph-name="hyphen" horiz-adv-x="333" unicode="-" d="M79 278h175v-20h-175v20z"/>
<glyph glyph-name="period" horiz-adv-x="278" unicode="." d="M149 0h-20v98h20v-98z"/>
<glyph glyph-name="slash" horiz-adv-x="333" unicode="/" d="M-6 -16l326 747h20l-327 -747h-19z"/>
<glyph glyph-name="zero" horiz-adv-x="556" unicode="0" d="M515 340q0 57 -11 116t-38 107q-26 49 -72 79t-116 30t-116 -30t-72 -79q-27 -48 -38 -107t-11 -116t11 -116t38 -107q26 -49 72 -79t116 -30t116 30t72 79q27 48 38 107t11 116zM535 340q-1 -64 -13 -127t-42 -113t-79 -80t-123 -31q-72 1 -122 31t-80 80t-42 113 t-13 127q1 64 13 127t42 113t80 81t122 31q74 0 123 -31t79 -81t42 -113t13 -127z"/>
<glyph glyph-name="one" horiz-adv-x="556" unicode="1" d="M298 654h-2q-30 -42 -80 -74t-101 -46v20q31 10 55 22t45 27t41 34t40 43h22v-680h-20v654z"/>
<glyph glyph-name="two" horiz-adv-x="556" unicode="2" d="M513 20v-20h-458q-1 43 18 78q19 36 50 66t69 58t77 54q39 27 76 55q37 29 66 59t47 64t17 75t-15 71t-39 50t-59 32q-34 10 -76 10q-53 0 -91 -16t-62 -44t-35 -68t-11 -87h-20q1 111 55 173t164 62q44 0 82 -12t66 -34q28 -23 44 -57t17 -80q0 -56 -30 -102 q-29 -46 -75 -86q-46 -39 -99 -75t-99 -72t-80 -72q-33 -38 -37 -82h438z"/>
<glyph glyph-name="three" horiz-adv-x="556" unicode="3" d="M59 469v7q0 52 15 90q16 42 46 70t74 42t97 14q41 0 79 -9t68 -29t48 -52t18 -77q0 -72 -42 -112t-104 -46v-2q30 -3 58 -15t52 -32q22 -22 36 -54t13 -76q-1 -48 -19 -85t-50 -63t-72 -38q-42 -13 -89 -13q-58 0 -105 16q-47 17 -80 47q-34 30 -50 75q-13 36 -13 81 q0 11 1 22h20q-1 -11 -1 -22q0 -42 12 -74q15 -42 45 -69q30 -29 74 -43t97 -14q41 0 79 12t67 34t47 56t17 78t-15 75t-40 51t-62 30t-78 12h-49v20h49q34 0 66 8t58 24q26 18 42 46t16 71q-1 41 -18 69t-44 46t-61 24q-34 8 -70 8q-49 0 -89 -12t-67 -38q-29 -26 -43 -64 q-14 -36 -13 -82v-7h-20z"/>
<glyph glyph-name="four" horiz-adv-x="556" unicode="4" d="M379 652h-2l-323 -455h325v455zM34 177v24l340 479h25v-483h123v-20h-123v-177h-20v177h-345z"/>
<glyph glyph-name="five" horiz-adv-x="556" unicode="5" d="M147 660l-62 -291h2q29 48 77 70t109 22q53 1 96 -17t74 -49t48 -75t17 -94q0 -54 -17 -98t-48 -75t-74 -47t-96 -17t-97 15t-76 45t-48 71q-15 38 -15 87v11h20v-12q0 -43 13 -77q16 -39 44 -66t69 -41t90 -14t89 16t68 44t43 68t15 90q0 46 -16 86t-43 68 q-28 28 -68 45q-40 16 -88 16q-60 -1 -111 -27t-79 -77h-25l73 343h349v-20h-333z"/>
<glyph glyph-name="six" horiz-adv-x="556" unicode="6" d="M497 223q0 45 -17 84t-46 68t-68 46t-84 17t-84 -17t-68 -46t-46 -68t-17 -84t17 -84t46 -68t68 -46t84 -17t84 17t68 46t46 68t17 84zM485 520q-9 46 -31 76t-49 46q-27 18 -56 24t-55 6q-76 0 -123 -38t-73 -96t-33 -125q-7 -60 -7 -113v-13h2q8 36 28 67q20 30 50 54 t66 37q38 13 78 13q44 0 86 -17t76 -48q33 -31 53 -74t20 -96q0 -51 -19 -94q-20 -43 -52 -74t-74 -49t-90 -17q-36 0 -66 9t-55 24t-45 34t-32 39q-29 45 -37 103t-8 123q0 63 12 129q11 66 41 120t79 88t124 34q45 0 81 -14t63 -36t44 -54t22 -68h-20z"/>
<glyph glyph-name="seven" horiz-adv-x="556" unicode="7" d="M61 660v20h434v-27q-69 -69 -126 -142t-97 -153t-62 -168t-22 -190h-20v9q0 95 20 181q22 90 62 172t98 155q56 74 125 143h-412z"/>
<glyph glyph-name="eight" horiz-adv-x="556" unicode="8" d="M505 190q0 49 -19 82q-18 33 -50 53q-32 21 -73 29t-85 8t-85 -8t-73 -29q-32 -20 -50 -53q-19 -33 -19 -82q1 -50 19 -84t50 -56t72 -32q41 -10 86 -10t86 10q40 10 72 32t50 56t19 84zM351 373q81 -9 127 -57t47 -126q0 -53 -20 -91q-19 -39 -53 -63t-79 -36t-95 -11 q-50 -1 -95 11t-79 36t-53 63q-20 38 -20 91q1 78 47 126t127 57v2q-29 5 -55 17t-44 30q-19 18 -30 44q-11 25 -11 54q1 46 17 78t45 54q29 20 68 30t83 10t83 -10t68 -30q29 -22 45 -54t17 -78q0 -29 -11 -54q-11 -26 -30 -44q-18 -18 -44 -30t-55 -17v-2zM471 520 q-1 44 -17 73t-43 47t-61 24q-34 8 -72 8t-72 -8t-61 -24q-27 -18 -43 -47t-17 -73q-1 -36 17 -62t46 -44q28 -16 62 -24t68 -8t68 8t62 24t46 44q18 26 17 62z"/>
<glyph glyph-name="nine" horiz-adv-x="556" unicode="9" d="M71 160q9 -46 31 -76t49 -46q27 -18 57 -24t54 -6q50 0 88 18t64 47q26 30 44 69q16 39 26 82q10 42 12 86q2 33 2 63v20h-2q-8 -36 -28 -67q-20 -30 -50 -54t-66 -37q-37 -13 -78 -13q-44 0 -86 17t-76 48q-33 31 -53 75t-20 95t19 94q20 43 52 75t74 48q42 18 90 18 q36 0 66 -10t55 -24q25 -15 45 -34t32 -39q30 -45 38 -103t8 -123q0 -63 -12 -129t-42 -120t-78 -87q-50 -34 -125 -34q-45 0 -81 13t-63 36q-27 22 -44 54t-22 68h20zM489 457q0 45 -17 84t-46 68t-68 46t-84 17t-84 -17t-68 -46t-46 -68t-17 -84t17 -84t46 -68t68 -46 t84 -17t84 17t68 46t46 68t17 84z"/>
<glyph glyph-name="colon" horiz-adv-x="278" unicode=":" d="M129 0v98h20v-98h-20zM129 416v98h20v-98h-20z"/>
<glyph glyph-name="semicolon" horiz-adv-x="278" unicode=";" d="M149 0q1 -45 -9 -73t-35 -45v20q13 14 19 36t5 62v98h20v-98zM129 416v98h20v-98h-20z"/>
<glyph glyph-name="less" horiz-adv-x="600" unicode="&lt;" d="M554 -7l-508 248v24l508 249v-21l-490 -240l490 -240v-20z"/>
<glyph glyph-name="equal" horiz-adv-x="600" unicode="=" d="M48 340v20h504v-20h-504zM48 146v20h504v-20h-504z"/>
<glyph glyph-name="greater" horiz-adv-x="600" unicode="&gt;" d="M536 253l-490 240v21l508 -249v-24l-508 -248v20z"/>
<glyph glyph-name="question" d="M35 493v13q0 46 12 84q14 44 42 74q27 32 69 50t94 17q41 0 77 -11q37 -11 63 -32t42 -52t15 -71q-1 -39 -11 -67t-26 -50t-32 -36q-17 -15 -29 -26q-27 -26 -46 -48t-31 -44t-16 -49q-6 -27 -6 -63h-20q0 34 5 61t16 51t30 49q19 24 47 51q6 6 22 19t34 34t30 51 q13 30 13 67q1 35 -13 63t-38 46t-56 28t-70 9q-49 0 -87 -16q-38 -17 -63 -45t-37 -68q-10 -35 -10 -75v-14h-20zM232 0v98h20v-98h-20z" unicode="?"/>
<glyph glyph-name="at" horiz-adv-x="800" unicode="@" d="M559 456q-7 26 -21 43t-32 27t-40 16q-20 4 -39 4q-47 0 -87 -26t-67 -67q-27 -40 -43 -87t-16 -89q0 -27 9 -49t25 -40q16 -16 38 -26t48 -10q20 0 42 5t41 19q21 14 39 36q18 24 32 60zM594 547h21l-111 -288q-9 -21 -14 -41q-4 -14 -4 -26q0 -4 1 -8q2 -14 12 -24 q10 -8 30 -8q31 0 65 20t62 54t48 82q19 48 19 103q0 62 -23 114q-24 52 -64 89q-40 38 -96 58t-121 20q-73 0 -135 -26t-109 -73q-46 -45 -72 -107t-26 -133q-1 -85 27 -149t75 -108t109 -66t131 -22q46 0 88 12q41 12 79 34t69 50q31 29 54 62h23q-24 -40 -59 -73t-76 -56 t-87 -35t-91 -13q-67 0 -132 21q-65 22 -116 66t-83 113t-31 164q1 77 29 143t78 114t115 75q66 27 140 27q67 0 126 -21t103 -60t70 -95t25 -125q0 -59 -20 -109q-19 -50 -51 -88t-70 -60t-75 -22q-29 0 -47 18q-14 14 -13 33q0 6 1 12h-2q-28 -39 -64 -51t-72 -12 q-29 0 -54 12t-43 30q-19 20 -29 46t-10 57q0 47 17 97t48 94q31 42 75 70t97 28q48 0 86 -22t51 -63h2z"/>
<glyph glyph-name="A" horiz-adv-x="575" unicode="A" d="M462 255l-170 439h-2l-176 -439h348zM106 235l-95 -235h-22l289 714h26l282 -714h-22l-94 235h-364z"/>
<glyph glyph-name="B" horiz-adv-x="611" unicode="B" d="M67 20h284q43 0 81 10t66 32t43 54q16 32 16 77q1 47 -17 79t-46 52t-66 29q-36 9 -74 9h-287v-342zM47 714h307q42 0 78 -11t64 -33t44 -56q16 -33 15 -78q1 -32 -11 -61t-32 -51t-48 -36t-60 -15v-2q34 -1 66 -13t56 -36q24 -22 37 -54q14 -32 14 -74q1 -48 -17 -84 t-49 -61t-75 -37t-94 -12h-295v714zM67 382h287q36 0 68 10t58 28q25 20 40 49t15 67q0 40 -14 70q-15 30 -39 50t-57 28q-33 10 -71 10h-287v-312z"/>
<glyph glyph-name="C" horiz-adv-x="685" unicode="C" d="M662 280q-9 -66 -34 -120q-24 -54 -64 -93t-94 -61t-122 -22q-70 0 -130 28t-102 76t-67 116q-24 68 -24 147q1 65 19 133t58 122q40 55 104 90t155 35q71 1 124 -23t89 -60t53 -75q18 -40 19 -73h-20q-3 38 -23 76q-21 38 -55 68t-82 48t-105 19q-89 1 -149 -35t-97 -90 t-53 -116q-16 -63 -17 -119q0 -68 20 -131t59 -111q40 -48 96 -77t128 -29q64 0 115 21t88 58t60 88t31 110h20z"/>
<glyph glyph-name="D" horiz-adv-x="648" unicode="D" d="M54 714h250q54 0 108 -16t98 -58q44 -40 70 -109q28 -69 28 -174q0 -96 -28 -164q-28 -69 -75 -111t-107 -62t-125 -20h-219v714zM74 20h204q64 0 120 20t98 62t68 106q24 64 24 149q0 100 -25 165q-25 66 -66 104t-93 53t-105 15h-225v-674z"/>
<glyph glyph-name="E" horiz-adv-x="537" unicode="E" d="M74 20h458v-20h-478v714h474v-20h-454v-312h427v-20h-427v-342z"/>
<glyph glyph-name="F" horiz-adv-x="481" unicode="F" d="M74 382h380v-20h-380v-362h-20v714h440v-20h-420v-312z"/>
<glyph glyph-name="G" horiz-adv-x="722" unicode="G" d="M377 314v20h297v-334h-20v177h-2q-29 -91 -104 -142t-181 -51q-82 0 -145 30t-105 80q-41 50 -63 118t-22 145q0 79 23 147t66 118t105 80q62 29 141 29q61 0 111 -17q50 -16 88 -48t64 -76q24 -44 33 -99h-20q-9 51 -33 91t-58 69q-36 29 -82 45t-103 15q-75 0 -133 -28 t-100 -76q-40 -49 -61 -113t-21 -137t20 -137t60 -113q40 -48 100 -76t138 -28q59 1 111 21q53 20 91 56t60 88q22 50 22 109v37h-277z"/>
<glyph glyph-name="H" horiz-adv-x="648" unicode="H" d="M74 362v-362h-20v714h20v-332h500v332h20v-714h-20v362h-500z"/>
<glyph glyph-name="I" horiz-adv-x="128" unicode="I" d="M54 714h20v-714h-20v714z"/>
<glyph glyph-name="J" horiz-adv-x="463" unicode="J" d="M384 714h20v-528q0 -45 -10 -82t-34 -64q-22 -28 -60 -42t-92 -14q-51 0 -87 14t-59 41q-24 25 -34 61t-10 78v43h20v-43q0 -88 43 -132t127 -43q44 0 76 10t54 33t34 61t12 94v513z"/>
<glyph glyph-name="K" horiz-adv-x="593" unicode="K" d="M74 253v-253h-20v714h20v-434l495 434h30l-345 -304l365 -410h-27l-354 398z"/>
<glyph glyph-name="L" horiz-adv-x="481" unicode="L" d="M491 20v-20h-437v714h20v-694h417z"/>
<glyph glyph-name="M" horiz-adv-x="780" unicode="M" d="M693 714h33v-714h-20v689h-2l-303 -689h-22l-303 689h-2v-689h-20v714h33l302 -688h2z"/>
<glyph glyph-name="N" horiz-adv-x="648" unicode="N" d="M54 714h30l488 -689h2v689h20v-714h-30l-488 689h-2v-689h-20v714z"/>
<glyph glyph-name="O" horiz-adv-x="721" unicode="O" d="M52 357q0 -77 22 -142t62 -112t96 -73q57 -26 129 -27q72 1 129 27q56 26 96 73t62 112t22 142t-22 142t-62 112t-96 73q-57 26 -129 27q-72 -1 -129 -27q-56 -26 -96 -73t-62 -112t-22 -142zM32 357q0 76 22 144t62 119q42 51 104 81t141 30t141 -30t104 -81t62 -119 q22 -68 22 -144t-22 -144t-62 -119q-42 -50 -104 -80t-141 -30t-141 30t-104 80q-42 51 -62 119q-22 68 -22 144z"/>
<glyph glyph-name="P" horiz-adv-x="574" unicode="P" d="M74 345h269q42 -1 78 11q37 12 63 34t41 55q15 32 15 74q0 85 -48 130t-149 45h-269v-349zM74 0h-20v714h289q103 0 160 -49t57 -146q0 -47 -17 -83t-47 -62q-30 -24 -72 -36t-91 -13h-259v-325z"/>
<glyph glyph-name="Q" horiz-adv-x="721" unicode="Q" d="M427 156l11 16l129 -89q49 48 75 117t28 157q0 77 -22 142t-62 112t-96 73q-57 26 -129 27q-72 -1 -129 -27q-56 -26 -96 -73t-62 -112t-22 -142t22 -142t62 -112t96 -73q57 -26 129 -27q58 -1 106 17t86 50zM571 58q-40 -34 -92 -54t-118 -20q-79 0 -141 30t-104 80 q-42 51 -62 119q-22 68 -22 144t22 144t62 119q42 51 104 81t141 30t141 -30t104 -81t62 -119q22 -68 22 -144q0 -85 -26 -159t-80 -127l115 -78l-10 -14z"/>
<glyph glyph-name="R" horiz-adv-x="611" unicode="R" d="M74 355h267q41 0 77 10t64 32q28 21 45 55t17 81q-1 77 -46 119t-147 42h-277v-339zM74 0h-20v714h292q112 0 164 -44t54 -139v-7q0 -66 -38 -112q-40 -48 -115 -65v-2q45 -5 73 -21t43 -41t20 -59t5 -77q0 -15 1 -37t3 -45q2 -22 5 -40t8 -25h-22q-5 12 -8 30t-5 39 t-2 43v38q0 44 -6 78t-27 58q-20 24 -57 36t-99 13h-269v-335z"/>
<glyph glyph-name="S" horiz-adv-x="611" unicode="S" d="M531 514q-3 54 -21 92t-48 62t-73 33q-42 10 -90 10q-37 1 -77 -7t-72 -27t-54 -51q-21 -32 -21 -79q-1 -48 21 -77t56 -47t79 -28q44 -10 90 -21q51 -13 95 -25t77 -32t53 -53t19 -89q0 -51 -22 -87t-58 -60t-81 -34t-91 -10q-61 0 -113 14t-88 44q-38 30 -58 79 q-20 46 -20 110v6h20q0 -65 19 -109t53 -72t82 -40t105 -13q41 -1 83 9t75 31t53 54t21 79q1 54 -23 86t-60 50t-82 28q-44 10 -85 19q-43 10 -86 21q-43 10 -77 30t-56 52q-21 32 -21 85t22 89t57 56q34 21 78 30t87 9q53 1 97 -11t78 -38t54 -66q20 -42 23 -102h-20z"/>
<glyph glyph-name="T" d="M-16 694v20h533v-20h-257v-694h-20v694h-256z" unicode="T"/>
<glyph glyph-name="U" horiz-adv-x="632" unicode="U" d="M558 714h20v-448q0 -144 -67 -213t-195 -69t-195 69t-67 213v448h20v-448q0 -129 59 -196t183 -67t183 67t59 196v448z"/>
<glyph glyph-name="V" horiz-adv-x="538" unicode="V" d="M536 714h20l-272 -714h-22l-279 714h19l270 -688h2z"/>
<glyph glyph-name="W" horiz-adv-x="870" unicode="W" d="M860 714h20l-207 -714h-27l-210 689h-2l-206 -689h-27l-210 714h20l202 -689h2l206 689h29l209 -689h2z"/>
<glyph glyph-name="X" horiz-adv-x="520" unicode="X" d="M510 714h25l-260 -347l272 -367h-25l-261 351l-262 -351h-25l274 367l-259 347h25l247 -331z"/>
<glyph glyph-name="Y" horiz-adv-x="538" unicode="Y" d="M544 714h24l-289 -413v-301h-20v301l-288 413h25l273 -392z"/>
<glyph glyph-name="Z" d="M508 20v-20h-526v27l498 667h-471v20h491v-27l-499 -667h507z" unicode="Z"/>
<glyph glyph-name="bracketleft" horiz-adv-x="222" unicode="[" d="M209 731v-20h-93v-867h93v-20h-113v907h113z"/>
<glyph glyph-name="backslash" horiz-adv-x="333" unicode="\" d="M320 -16l-326 747h19l327 -747h-20z"/>
<glyph glyph-name="bracketright" horiz-adv-x="222" unicode="]" d="M13 -176v20h93v867h-93v20h113v-907h-113z"/>
<glyph glyph-name="asciicircum" horiz-adv-x="600" unicode="^" d="M541 227h-20l-221 433l-221 -433h-20l231 453h20z"/>
<glyph glyph-name="underscore" d="M0 -88h500v-20h-500v20z" unicode="_"/>
<glyph glyph-name="grave" horiz-adv-x="130" unicode="`" d="M-37 731h29l124 -144h-15z"/>
<glyph glyph-name="a" horiz-adv-x="481" unicode="a" d="M400 302h-2q-10 -14 -31 -22t-48 -11q-27 -4 -59 -5t-61 -3q-31 -1 -59 -7t-50 -20t-35 -40t-13 -67q0 -21 8 -43t25 -38q19 -16 47 -28q28 -10 70 -10q50 0 89 17t65 45t40 63q14 36 14 74v95zM54 355q2 35 15 67t37 55t60 36t84 13q34 0 64 -7t54 -25q23 -18 37 -45 q14 -28 15 -70v-327q0 -15 6 -22q6 -8 16 -10t22 -2t21 2v-20h-30q-23 0 -39 10t-16 40v67h-2q-8 -25 -26 -48t-44 -41t-60 -28t-74 -11q-78 1 -125 35t-47 103q0 48 16 77q16 30 40 46q25 16 57 22t64 9q53 3 91 5t62 10t36 24t12 44q0 23 -4 48t-20 46q-16 20 -45 34 q-30 14 -81 14q-81 0 -126 -40t-50 -111h-20z"/>
<glyph glyph-name="b" horiz-adv-x="537" unicode="b" d="M75 256q0 -50 14 -95q15 -45 41 -79t65 -54t88 -20t87 20t62 54t38 80q12 45 12 94q0 46 -12 90t-35 80t-61 58t-91 22q-94 0 -151 -64t-57 -186zM75 370h2q18 70 71 113t135 43q53 0 94 -22t69 -59t42 -86t14 -103q0 -58 -15 -107t-43 -85t-70 -55q-40 -20 -91 -20 q-79 0 -133 43t-73 112h-2v-144h-20v714h20v-344z"/>
<glyph glyph-name="c" d="M469 175q-4 -43 -21 -77q-16 -34 -44 -59q-28 -24 -64 -37t-81 -13q-55 1 -97 21t-72 55q-29 35 -44 81t-15 100q1 56 15 106t44 90q30 38 74 61q46 23 107 23q36 0 69 -11t59 -32q25 -21 43 -53t23 -72h-20q-6 38 -22 66t-39 46t-52 27t-61 9q-61 0 -103 -24t-68 -60 q-26 -38 -38 -84t-11 -92q-1 -47 13 -90t40 -76q26 -32 65 -52t90 -20q38 0 71 12q32 12 58 33q26 23 42 53t19 69h20z" unicode="c"/>
<glyph glyph-name="d" horiz-adv-x="537" unicode="d" d="M455 256q0 122 -57 186t-151 64q-52 0 -90 -22t-62 -58q-23 -36 -35 -80t-12 -90q0 -49 12 -94q12 -46 38 -80q24 -34 62 -54t87 -20q51 0 89 20t64 54t41 79q14 45 14 95zM455 714h20v-714h-20v144h-2q-19 -69 -73 -112t-133 -43q-51 0 -91 20q-40 19 -70 55 q-28 36 -43 85t-15 107q0 54 14 103t42 86t69 59t94 22q82 0 135 -43t71 -113h2v344z"/>
<glyph glyph-name="e" d="M455 273q0 47 -13 89q-12 42 -38 75t-64 51t-88 18q-42 0 -78 -16t-64 -46t-45 -74q-17 -43 -20 -97h410zM45 253q1 -53 13 -97t35 -77q24 -33 62 -52t93 -19q80 0 134 42t67 128h20q-11 -90 -71 -140t-148 -49h-6q-56 0 -96 19q-42 20 -70 56q-27 36 -40 86t-13 107 q0 64 19 114q19 51 50 85t72 52t84 18q60 0 104 -23t70 -61q28 -38 40 -87q11 -42 11 -87v-15h-430z" unicode="e"/>
<glyph glyph-name="f" horiz-adv-x="204" unicode="f" d="M0 494v20h87v114q-1 31 9 48q10 18 25 26t33 10t34 2q14 0 24 -2t19 -2v-20q-14 2 -25 3t-22 1q-48 0 -62 -18t-15 -55v-107h111v-20h-111v-494h-20v494h-87z"/>
<glyph glyph-name="g" horiz-adv-x="519" unicode="g" d="M445 274q-1 44 -13 86t-36 74t-62 52q-37 20 -85 20q-49 0 -87 -18t-64 -51q-26 -32 -38 -74t-12 -89q0 -48 12 -89t38 -71q24 -30 60 -48t83 -18q50 0 88 18q37 18 63 48t40 72t13 88zM446 172h-2q-8 -34 -28 -61t-48 -45t-60 -28t-66 -10q-54 0 -94 20t-66 54t-40 78 q-14 45 -14 94q0 52 14 98t42 80t70 54t95 20q37 0 69 -12t58 -31q26 -20 42 -47q18 -27 26 -59h2v137h20v-497q0 -105 -56 -155t-158 -50q-39 0 -74 9t-62 29t-43 50t-17 74h20q2 -38 16 -65t38 -44t56 -25t65 -8q95 0 145 44t50 141v155z"/>
<glyph glyph-name="h" d="M55 714h20v-327h2q7 30 23 55t38 44q24 20 55 30t69 10q40 0 74 -12t58 -36t38 -58t13 -79v-341h-20v338q0 44 -13 76q-14 32 -36 52t-52 30t-62 10q-46 0 -81 -18t-59 -46q-24 -30 -35 -69q-12 -39 -12 -82v-291h-20v714z" unicode="h"/>
<glyph glyph-name="i" horiz-adv-x="130" unicode="i" d="M75 0h-20v514h20v-514zM75 613h-20v101h20v-101z"/>
<glyph glyph-name="j" horiz-adv-x="130" unicode="j" d="M75 -74q0 -36 -8 -56t-24 -30t-39 -14q-23 -2 -52 -2v20q28 0 48 2t32 10t18 27q6 18 5 50v581h20v-588zM75 613h-20v101h20v-101z"/>
<glyph glyph-name="k" horiz-adv-x="444" unicode="k" d="M75 194v-194h-20v714h20v-495l355 295h29l-236 -196l253 -318h-27l-241 304z"/>
<glyph glyph-name="l" horiz-adv-x="130" unicode="l" d="M55 714h20v-714h-20v714z"/>
<glyph glyph-name="m" horiz-adv-x="778" unicode="m" d="M55 514h20v-127h2q7 30 22 55t37 44q22 20 48 30t57 10h7q56 0 94 -30q40 -32 53 -90h2q15 54 59 87t104 33q47 0 78 -14t50 -38t27 -60q8 -34 8 -76v-338h-20v338q-1 38 -7 69t-22 53t-44 34t-70 12q-37 0 -67 -14t-51 -40t-32 -58t-11 -68v-326h-20v330q1 36 -5 68 t-21 56t-42 38t-70 14q-38 0 -69 -18q-30 -18 -52 -46q-22 -30 -34 -69t-11 -82v-291h-20v514z"/>
<glyph glyph-name="n" d="M55 514h20v-127h2q7 30 23 55t38 44q24 20 55 30t69 10q40 0 74 -12t58 -36t38 -58t13 -79v-341h-20v338q0 44 -13 76q-14 32 -36 52t-52 30t-62 10q-46 0 -81 -18t-59 -46q-24 -30 -35 -69q-12 -39 -12 -82v-291h-20v514z" unicode="n"/>
<glyph glyph-name="o" horiz-adv-x="519" unicode="o" d="M28 257q0 53 15 101t45 86t72 60q43 22 100 22q56 0 99 -22t73 -60t44 -86q15 -48 15 -101t-15 -101q-14 -48 -44 -86q-30 -37 -73 -59t-100 -22q-56 0 -99 22q-42 22 -72 59q-30 38 -45 86t-15 101zM48 257q0 -49 14 -94t40 -79t66 -56q40 -20 92 -20q50 0 90 20t67 56 q27 34 41 79t13 94q1 48 -13 93q-14 46 -41 80t-67 55t-90 21q-52 0 -92 -21t-66 -55t-40 -80q-14 -45 -14 -93z"/>
<glyph glyph-name="p" horiz-adv-x="537" unicode="p" d="M283 8q53 0 91 22t61 58t35 80t12 90q0 50 -12 94t-38 80q-24 34 -62 54t-87 20t-88 -20t-65 -54t-41 -79q-14 -45 -14 -95q0 -122 57 -186t151 -64zM75 -176h-20v690h20v-144h2q10 34 29 62t45 50q25 20 59 32t73 12q51 0 91 -20t70 -56q28 -36 43 -85t15 -107 q0 -54 -14 -103t-42 -86t-69 -59t-94 -21q-82 1 -135 43t-71 112h-2v-320z"/>
<glyph glyph-name="q" horiz-adv-x="537" unicode="q" d="M455 514h20v-690h-20v320h-2q-18 -70 -71 -112t-135 -43q-53 -1 -94 21t-69 59t-42 86t-14 103q0 58 15 107t43 85t70 56q40 20 91 20q39 0 73 -12t60 -32q26 -22 44 -50t29 -62h2v144zM455 258q0 50 -14 95q-15 45 -41 79t-64 54t-89 20q-49 0 -87 -20t-62 -54t-38 -80 q-12 -44 -12 -94q0 -46 12 -90t35 -80q24 -36 62 -58t90 -22q94 0 151 64t57 186z"/>
<glyph glyph-name="r" horiz-adv-x="259" unicode="r" d="M75 0h-20v514h20v-127h2q7 29 22 55t40 44q25 19 59 30q32 10 73 10h8v-20h-15q-42 0 -76 -14q-38 -18 -64 -48q-25 -30 -37 -71q-12 -40 -12 -82v-291z"/>
<glyph glyph-name="s" horiz-adv-x="463" unicode="s" d="M390 362q0 39 -12 66q-12 26 -34 44t-52 26t-68 8q-54 0 -85 -14t-46 -34q-15 -18 -19 -36t-4 -25q0 -39 16 -59t41 -31q27 -11 59 -19t73 -19q29 -9 59 -17t54 -23t38 -38t14 -60q0 -39 -16 -66t-44 -44q-26 -17 -60 -25t-66 -7q-104 0 -156 45t-52 142h20 q0 -88 48 -128t140 -40q28 0 58 6t53 22q23 14 39 37t16 56q0 34 -16 55q-16 20 -40 34t-56 22t-65 16q-37 9 -65 17t-50 18q-32 14 -47 39t-15 67q0 21 9 44t30 42t54 31t81 12q86 0 136 -39t50 -125h-20z"/>
<glyph glyph-name="t" horiz-adv-x="241" unicode="t" d="M110 494v-394q0 -29 6 -45t17 -24q10 -7 22 -9t24 -2h27t17 3v-20q-9 -1 -17 -2t-32 -1q-36 0 -60 20t-24 76v398h-94v20h94v162h20v-162h116v-20h-116z"/>
<glyph glyph-name="u" d="M445 0h-20v127h-2q-13 -60 -61 -99t-124 -39q-40 -1 -74 11t-58 36t-38 58t-13 79v341h20v-338q0 -44 13 -76q14 -32 36 -52t52 -30t62 -10q46 0 81 18t59 46q24 30 35 69q12 39 12 82v291h20v-514z" unicode="u"/>
<glyph glyph-name="v" horiz-adv-x="407" unicode="v" d="M397 514h22l-194 -514h-25l-211 514h23l199 -494h2z"/>
<glyph glyph-name="w" horiz-adv-x="685" unicode="w" d="M673 514h20l-164 -514h-26l-160 494h-2l-161 -494h-28l-159 514h19l153 -494h2l159 494h31l158 -494h2z"/>
<glyph glyph-name="x" horiz-adv-x="407" unicode="x" d="M380 514h24l-188 -248l206 -266h-25l-194 251l-193 -251h-24l205 266l-187 248h26l173 -233z"/>
<glyph glyph-name="y" horiz-adv-x="407" unicode="y" d="M398 514h21l-237 -618q-10 -26 -24 -40t-31 -22q-17 -6 -37 -8t-44 -2v20q26 0 44 2t32 8t24 20t20 36l37 95l-214 509h21l204 -487z"/>
<glyph glyph-name="z" horiz-adv-x="407" unicode="z" d="M402 20v-20h-397v25l360 469h-333v20h354v-25l-360 -469h376z"/>
<glyph glyph-name="braceleft" horiz-adv-x="333" unicode="{" d="M230 -176q-42 0 -58 27t-15 84v162q0 61 -14 103t-58 70v20q17 3 30 18t23 38t14 52q5 29 5 59v165q-1 57 15 83t58 26h50v-20h-48q-30 -1 -42 -23t-13 -84v-164q0 -22 -4 -47t-13 -48q-8 -23 -22 -41t-33 -26q33 -16 53 -62t19 -102v-161q-1 -33 3 -55t10 -33 q6 -13 18 -17q10 -4 24 -4h48v-20h-50z"/>
<glyph glyph-name="bar" horiz-adv-x="222" unicode="|" d="M101 -213v999h20v-999h-20z"/>
<glyph glyph-name="braceright" horiz-adv-x="333" unicode="}" d="M103 731q41 0 57 -27t16 -84v-163q0 -61 14 -103t58 -70v-20q-16 -3 -30 -18t-22 -38q-10 -23 -15 -52t-5 -59v-164q0 -57 -16 -83t-57 -26h-50v20h48q31 0 43 22t12 85v163q0 22 4 47t13 48t23 41t32 26q-32 16 -52 62t-20 102v162q0 32 -4 54t-10 34t-16 16t-25 5h-48 v20h50z"/>
<glyph glyph-name="asciitilde" horiz-adv-x="600" unicode="~" d="M523 295q-10 -15 -21 -31t-24 -28q-12 -12 -28 -20t-36 -7q-25 1 -48 11t-49 21q-27 13 -55 25t-67 12q-34 0 -57 -20t-41 -53l-20 6q19 35 47 61t71 26h8q23 0 49 -9q30 -11 60 -25q30 -13 56 -24t47 -11q15 1 27 7t24 16q10 10 19 23l18 26z"/>
<glyph glyph-name="nonbreakingspace" horiz-adv-x="278" unicode=" "/>
<glyph glyph-name="exclamdown" horiz-adv-x="185" unicode="¡" d="M103 542v-98h-20v98h20zM103 360v-536h-20v536h20z"/>
<glyph glyph-name="cent" horiz-adv-x="556" unicode="¢" d="M272 505q-50 -2 -86 -24q-36 -23 -60 -57t-36 -78t-11 -88q-1 -46 11 -90t36 -79t60 -57t86 -24v497zM292 8h5q37 0 68 12t55 36q24 22 38 52q15 30 19 67h20q-11 -89 -67 -137t-138 -49v-109h-20v109q-54 2 -94 25t-66 60q-26 36 -40 84q-13 48 -13 100q-1 50 13 97 t40 84t67 61q40 24 93 25v88h20v-88q40 -1 74 -12t60 -32t44 -51q17 -30 22 -72h-20q-6 36 -22 64t-38 45q-24 17 -54 27t-66 11v-497z"/>
<glyph glyph-name="sterling" horiz-adv-x="556" unicode="£" d="M296 365v-20h-149q17 -31 23 -66t7 -70q-1 -57 -27 -105t-72 -86l2 -2q19 14 45 26t57 11q25 0 50 -8t49 -16q25 -10 49 -18t47 -8q24 0 44 6q20 5 38 17t35 27t36 33l13 -14q-44 -50 -82 -69t-84 -19q-25 0 -50 8l-50 16t-49 16t-46 9q-36 1 -66 -13t-59 -36l-18 19 q49 42 83 94t35 112q-1 38 -9 74t-23 62h-76v20h66q-10 19 -22 41q-13 22 -23 45t-18 47t-7 47q0 48 19 83q18 35 50 58t73 34t84 11q57 1 103 -17t76 -50t44 -80q9 -32 9 -69q0 -17 -2 -35h-20q1 15 1 29q0 38 -10 70q-14 43 -41 73q-28 30 -69 44q-41 15 -91 15 q-39 1 -76 -9t-66 -30t-47 -52t-17 -75q-1 -23 7 -47t20 -46q12 -23 24 -45t22 -42h158z"/>
<glyph glyph-name="currency" horiz-adv-x="556" unicode="¤" d="M503 579l14 -14l-57 -57q34 -34 50 -78t16 -90q0 -44 -16 -88t-50 -80l57 -57l-14 -14l-57 57q-34 -32 -78 -48t-90 -18q-44 0 -88 16t-80 50l-57 -57l-14 14l57 57q-34 36 -50 80t-16 88q2 46 18 90t48 78l-57 57l14 14l57 -57q36 34 80 50t88 16q46 0 90 -16t78 -50z M506 340q0 46 -18 88t-49 73t-73 49t-88 18t-88 -18t-73 -49t-49 -73t-18 -88t18 -88t49 -73t73 -49t88 -18t88 18t73 49t49 73t18 88z"/>
<glyph glyph-name="yen" horiz-adv-x="556" unicode="¥" d="M287 203h147v-20h-147v-183h-20v183h-147v20h147v102h-147v20h138l-237 389h22l234 -383h2l234 383h22l-237 -389h136v-20h-147v-102z"/>
<glyph glyph-name="brokenbar" horiz-adv-x="222" unicode="¦" d="M121 -88h-20v249h20v-249zM121 661v-250h-20v250h20z"/>
<glyph glyph-name="section" horiz-adv-x="556" unicode="§" d="M422 546q-2 78 -40 122t-113 43q-19 1 -43 -5t-46 -19q-21 -13 -35 -35q-12 -19 -12 -48v-8q2 -38 18 -60t39 -39q18 -13 34 -23t31 -18q17 -9 33 -18t37 -22q53 -34 87 -60t54 -51q20 -23 26 -47q7 -24 7 -54q-1 -27 -13 -50q-12 -22 -30 -40t-38 -30t-36 -16 q39 -32 50 -62q9 -25 9 -51v-9q-3 -35 -17 -60q-14 -26 -37 -42q-22 -16 -50 -24t-59 -8q-85 0 -131 50q-44 47 -44 135v8h20q-1 -76 35 -124t120 -49q39 0 66 12t44 28q17 17 25 37t8 37q-1 20 -3 36t-10 29q-8 14 -24 29t-43 34q-35 24 -83 54t-93 59q-36 25 -57 45 q-20 20 -32 40t-16 38q-4 19 -3 40q-1 24 9 46t25 40t35 32t40 21q-20 17 -36 42t-17 67q0 42 17 68t42 40t52 20q27 5 47 5q39 1 71 -13t54 -38t34 -58t12 -76h-20zM479 205q-1 25 -7 46t-24 43t-51 47q-32 25 -83 58q-12 8 -30 19q-18 12 -37 22t-36 20t-27 15 q-11 -3 -29 -13q-17 -10 -35 -25t-30 -39t-13 -56q1 -11 3 -26q2 -14 12 -32t30 -38t55 -43q21 -14 47 -30q26 -17 51 -33t48 -31t40 -27q15 3 35 13q20 9 38 25t30 38t13 47z"/>
<glyph glyph-name="dieresis" horiz-adv-x="130" unicode="¨" d="M-22 590v81h20v-81h-20zM133 590v81h20v-81h-20z"/>
<glyph glyph-name="copyright" horiz-adv-x="800" unicode="©" d="M573 428q-5 34 -20 58t-37 40t-50 25q-28 8 -58 8q-48 0 -84 -16q-36 -15 -62 -43t-38 -66q-13 -38 -13 -82q-1 -44 13 -82t40 -68t63 -46t84 -16q55 0 101 35t61 101h20q-17 -68 -65 -112t-117 -44q-50 0 -91 18q-42 18 -70 49t-44 73t-15 91q0 49 15 91q14 42 42 72 t68 48q40 17 92 17q34 0 66 -10t57 -29q25 -20 41 -48t21 -64h-20zM26 357q0 78 30 146q30 69 80 119t118 80t146 29q78 1 146 -29t118 -80t80 -119q30 -68 30 -146t-30 -146q-30 -69 -80 -119t-118 -79t-146 -29t-146 29t-118 79t-80 119q-30 68 -30 146zM46 357 q0 -75 28 -139t75 -112q49 -48 113 -76t138 -27q74 -1 138 27t112 76t76 112t28 139q0 73 -28 137t-76 113q-48 48 -112 76t-138 28t-138 -28t-113 -76q-47 -49 -75 -113t-28 -137z"/>
<glyph glyph-name="ordfeminine" horiz-adv-x="300" unicode="ª" d="M246 552h-2q-7 -12 -26 -16t-44 -6t-52 -4q-28 -2 -50 -8t-36 -22t-16 -45q0 -18 8 -30q8 -11 21 -19t29 -12t34 -3q66 0 100 34t34 83v48zM300 374h-19q-15 0 -25 7t-10 24v41h-2v-7q-10 -33 -44 -53t-88 -19q-22 1 -42 5t-36 14t-24 27q-10 16 -10 38q0 30 10 48t28 28 q18 9 40 13t45 6t45 2t40 4t28 12q10 9 10 27q0 45 -23 63t-74 18t-77 -22t-31 -62h-20q5 48 37 76t91 28q49 0 82 -20t35 -69v-190q0 -17 10 -19t24 0v-20z"/>
<glyph glyph-name="guillemotleft" horiz-adv-x="352" unicode="«" d="M169 121l-103 139v16l103 139v-35l-83 -112l83 -112v-35zM262 121l-103 139v16l103 139v-35l-83 -112l83 -112v-35z"/>
<glyph glyph-name="logicalnot" horiz-adv-x="600" unicode="¬" d="M532 340h-484v20h504v-267h-20v247z"/>
<glyph glyph-name="uni00AD" horiz-adv-x="333" unicode="­" d="M254 278v-20h-175v20h175z"/>
<glyph glyph-name="registered" horiz-adv-x="800" unicode="®" d="M274 565h141q73 -1 107 -31t35 -85q0 -27 -9 -47q-8 -20 -24 -34t-36 -22t-43 -9l132 -202h-25l-129 200q-4 -1 -8 -1h-8h-15h-98v-199h-20v430zM398 354q22 0 46 3t46 13q20 10 34 28q14 19 13 51q-1 31 -11 49t-27 28t-39 15q-22 4 -47 4h-119v-191h104zM26 357 q0 78 30 146q30 69 80 119t118 80t146 29q78 1 146 -29t118 -80t80 -119q30 -68 30 -146t-30 -146q-30 -69 -80 -119t-118 -79t-146 -29t-146 29t-118 79t-80 119q-30 68 -30 146zM46 357q0 -75 28 -139t75 -112q49 -48 113 -76t138 -27q74 -1 138 27t112 76t76 112t28 139 q0 73 -28 137t-76 113q-48 48 -112 76t-138 28t-138 -28t-113 -76q-47 -49 -75 -113t-28 -137z"/>
<glyph glyph-name="macron" horiz-adv-x="130" unicode="¯" d="M181 628h-231v20h231v-20z"/>
<glyph glyph-name="degree" horiz-adv-x="400" unicode="°" d="M323 549q0 25 -9 47q-10 22 -26 39t-38 27t-50 10q-25 0 -47 -10t-39 -28t-27 -39q-10 -22 -10 -46q0 -27 10 -50t27 -39t39 -26t47 -10q26 0 48 10t40 26q16 17 26 40t9 49zM343 549q0 -31 -11 -57t-30 -46q-20 -20 -46 -30q-26 -12 -56 -12t-56 11t-46 31t-30 46 q-11 26 -11 57q0 29 11 55q10 26 30 46t46 30q26 12 56 12t56 -12t46 -30q20 -20 30 -46q11 -26 11 -55z"/>
<glyph glyph-name="plusminus" horiz-adv-x="600" unicode="±" d="M290 506h20v-198h242v-20h-242v-198h-20v198h-242v20h242v198zM48 20h504v-20h-504v20z"/>
<glyph glyph-name="twosuperior" horiz-adv-x="333" unicode="²" d="M316 297v-20h-298q0 29 12 51t32 40t45 34t50 33t48 33t41 34t28 40q10 21 10 46q0 44 -32 64t-84 20q-66 0 -94 -32t-28 -89h-20q2 69 34 105t108 36q30 0 54 -6t42 -18t30 -33q10 -20 10 -47q0 -21 -5 -39q-5 -17 -19 -37t-41 -42q-26 -22 -67 -48q-25 -16 -48 -32 t-41 -31q-17 -15 -29 -31t-13 -31h275z"/>
<glyph glyph-name="threesuperior" horiz-adv-x="333" unicode="³" d="M24 559v5q0 30 10 52q12 24 32 42t48 26t61 8q25 0 49 -4t45 -16t33 -31t12 -49q0 -42 -28 -68t-74 -27v-2q22 -3 42 -9t35 -19t24 -32t9 -45q0 -28 -12 -50t-32 -38t-48 -24q-27 -8 -57 -8q-77 0 -121 38q-41 34 -41 96v11h20q-1 -7 -1 -14q0 -53 36 -80q40 -31 106 -31 q24 0 48 6t42 20q18 12 29 30t11 44q0 28 -11 46t-29 30t-42 16t-47 4h-24v21h26q23 1 44 5t38 14t27 26t10 40t-10 40t-28 25q-16 9 -38 12t-44 3q-62 0 -96 -26t-34 -87h-20z"/>
<glyph glyph-name="acute" horiz-adv-x="130" unicode="´" d="M171 731l-146 -144h-15l132 144h29z"/>
<glyph glyph-name="mu" horiz-adv-x="556" unicode="µ" d="M472 0h-20v127h-2q-14 -60 -62 -99t-123 -39q-51 1 -94 21t-66 71h-2v-257h-20v690h19v-338q0 -44 13 -76t35 -52t52 -30t63 -10q46 0 81 18q34 18 58 46q24 30 36 69t12 82v291h20v-514z"/>
<glyph glyph-name="paragraph" horiz-adv-x="600" unicode="¶" d="M491 714v-853h-20v833h-163v-833h-20v467q-49 0 -90 15q-40 15 -70 41t-46 60t-16 74q0 96 58 146t165 50h202z"/>
<glyph glyph-name="periodcentered" horiz-adv-x="278" unicode="·" d="M107 340q0 14 9 23t23 9t23 -9t9 -23t-9 -23t-23 -9t-23 9t-9 23z"/>
<glyph glyph-name="cedilla" horiz-adv-x="130" unicode="¸" d="M-15 -146q16 -6 34 -11t38 -5q14 0 28 2t25 9t18 17t7 25q0 10 -6 18q-6 9 -14 13q-7 4 -17 6t-18 3q-32 0 -54 -13l-15 10l57 72h20l-41 -55q7 1 13 3t20 3q29 1 52 -13t23 -47q0 -22 -8 -36q-7 -15 -21 -23t-32 -11t-37 -3q-27 0 -47 6t-34 11z"/>
<glyph glyph-name="onesuperior" horiz-adv-x="333" unicode="¹" d="M181 662h-2q-17 -26 -51 -44t-66 -28v19q40 11 65 29t52 47h22v-408h-20v385z"/>
<glyph glyph-name="ordmasculine" horiz-adv-x="300" unicode="º" d="M0 531q0 32 10 61t29 51q19 21 47 35t65 14t65 -14t47 -35q19 -22 29 -51t9 -61q1 -31 -9 -61t-29 -53t-47 -37t-66 -13q-36 -1 -64 13t-47 37t-29 53t-10 61zM20 531q0 -27 9 -53t25 -46t42 -32q24 -12 55 -13q31 1 55 13t40 32t26 46q9 26 9 53q0 25 -9 51 q-10 26 -26 46t-40 32t-55 12t-55 -12t-42 -32q-16 -20 -25 -46t-9 -51z"/>
<glyph glyph-name="guillemotright" horiz-adv-x="352" unicode="»" d="M183 415l103 -139v-16l-103 -139v35l83 112l-83 112v35zM90 415l103 -139v-16l-103 -139v35l83 112l-83 112v35z"/>
<glyph glyph-name="onequarter" horiz-adv-x="834" unicode="¼" d="M414 102v25l216 281h25v-286h76v-20h-76v-102h-20v102h-221zM635 381l-2 -2l-198 -257h200v259zM620 714h23l-476 -747h-23zM221 662h-2q-17 -26 -51 -44t-66 -28v19q40 11 65 29t52 47h22v-408h-20v385z"/>
<glyph glyph-name="onehalf" horiz-adv-x="834" unicode="½" d="M573 714h23l-476 -747h-23zM184 662h-2q-18 -26 -52 -44t-65 -28v19q40 11 65 29t52 47h22v-408h-20v385zM770 20v-20h-298q0 29 12 51t32 40t45 34t50 33q25 16 48 32t41 36q18 18 28 39t10 46q0 43 -32 63t-84 21q-66 0 -94 -32t-28 -89h-20q2 68 34 104t108 37 q30 0 54 -6q24 -7 42 -19t30 -32q10 -20 10 -47q0 -21 -5 -39t-19 -38t-41 -40q-26 -22 -67 -49q-25 -15 -48 -31t-41 -32q-17 -16 -29 -32t-13 -30h275z"/>
<glyph glyph-name="threequarters" horiz-adv-x="834" unicode="¾" d="M462 102v25l216 281h25v-286h76v-20h-76v-102h-20v102h-221zM683 381l-2 -2l-198 -257h200v259zM674 714h23l-476 -747h-23zM68 559v5q0 30 10 52q12 24 32 42t48 26t61 8q25 0 49 -4t45 -16t33 -31t12 -49q0 -42 -28 -68t-74 -27v-2q22 -3 42 -9t35 -19t24 -32t9 -45 q0 -28 -12 -50t-32 -38t-48 -24q-27 -8 -57 -8q-77 0 -121 38q-41 34 -41 96v11h20q-1 -7 -1 -14q0 -53 36 -80q40 -31 106 -31q24 0 48 6t42 20q18 12 29 30t11 44q0 28 -11 46t-29 30t-42 16t-47 5h-12q-8 0 -12 -1v21h26q23 1 44 5t38 14t27 26t10 40t-10 40t-28 25 q-16 9 -38 12t-44 3q-62 0 -96 -26t-34 -87h-20z"/>
<glyph glyph-name="questiondown" d="M465 49v-13q0 -44 -12 -82q-14 -44 -42 -76t-69 -48q-41 -18 -94 -18q-41 0 -77 11q-37 11 -63 32t-42 52t-15 71q1 38 11 66t26 49t32 37t28 26q27 26 46 48q18 22 30 44t18 49t5 63h20q0 -34 -5 -61t-16 -51t-30 -49q-19 -24 -47 -51q-6 -6 -22 -19t-33 -34t-30 -50 t-13 -67q-1 -34 13 -62t38 -46t56 -28t70 -10q50 0 88 16t62 44q25 28 37 69q10 34 10 74v14h20zM268 542v-98h-20v98h20z" unicode="¿"/>
<glyph glyph-name="Agrave" horiz-adv-x="575" unicode="À" d="M462 255l-170 439h-2l-176 -439h348zM106 235l-95 -235h-22l289 714h26l282 -714h-22l-94 235h-364zM185 909h29l125 -144h-15z"/>
<glyph glyph-name="Aacute" horiz-adv-x="575" unicode="Á" d="M462 255l-170 439h-2l-176 -439h348zM106 235l-95 -235h-22l289 714h26l282 -714h-22l-94 235h-364zM394 909l-146 -144h-15l132 144h29z"/>
<glyph glyph-name="Acircumflex" horiz-adv-x="575" unicode="Â" d="M462 255l-170 439h-2l-176 -439h348zM106 235l-95 -235h-22l289 714h26l282 -714h-22l-94 235h-364zM389 770l-103 123l-99 -123h-20l113 139h15l114 -139h-20z"/>
<glyph glyph-name="Atilde" horiz-adv-x="575" unicode="Ã" d="M462 255l-170 439h-2l-176 -439h348zM106 235l-95 -235h-22l289 714h26l282 -714h-22l-94 235h-364zM156 780q0 14 6 28t14 26q10 12 22 18q12 7 26 7q18 0 34 -9t32 -20t31 -20t30 -9q23 0 36 17t13 38h20q0 -29 -17 -52t-52 -23q-19 0 -35 9t-31 20t-30 20t-31 9 q-10 1 -19 -5t-15 -15t-10 -19t-4 -20h-20z"/>
<glyph glyph-name="Adieresis" horiz-adv-x="575" unicode="Ä" d="M462 255l-170 439h-2l-176 -439h348zM106 235l-95 -235h-22l289 714h26l282 -714h-22l-94 235h-364zM200 768v81h20v-81h-20zM356 768v81h20v-81h-20z"/>
<glyph glyph-name="Aring" horiz-adv-x="575" unicode="Å" d="M462 255l-170 439h-2l-176 -439h348zM106 235l-95 -235h-22l289 714h26l282 -714h-22l-94 235h-364zM376 824q0 -18 -7 -34t-19 -28t-28 -19t-34 -7t-34 7t-28 19t-19 28t-7 34t7 34t19 28t28 19t34 7t34 -7t28 -19t19 -28t7 -34zM356 824q0 28 -20 48t-48 20t-48 -20 t-20 -48t20 -48t48 -20t48 20t20 48z"/>
<glyph glyph-name="AE" horiz-adv-x="852" unicode="Æ" d="M155 274l-145 -274h-21l377 714h469v-20h-392v-312h360v-20h-360v-342h392v-20h-412v274h-268zM376 696l-211 -402h258v402h-47z"/>
<glyph glyph-name="Ccedilla" horiz-adv-x="685" unicode="Ç" d="M626 500q-3 38 -23 76q-21 38 -55 68t-82 48t-105 19q-89 1 -149 -35t-97 -90t-53 -116q-16 -63 -17 -119q0 -68 20 -131t59 -111q40 -48 96 -77t128 -29q64 0 115 21t88 58t60 88t31 110h20q-10 -65 -34 -119t-63 -93t-93 -61t-119 -23l-29 -39q7 1 13 3t20 3 q29 1 52 -13t23 -47q0 -22 -8 -36q-8 -15 -22 -23t-30 -11q-18 -3 -38 -3q-26 0 -47 6t-35 11l9 19q17 -6 35 -11t38 -5q14 0 28 2t25 9t18 17t7 25q0 10 -6 18q-6 9 -14 13t-18 6t-17 3q-32 0 -54 -13l-15 10l44 57q-68 3 -124 31t-98 76q-40 48 -62 115q-22 66 -23 144 q1 65 19 133t58 122q40 55 104 90t155 35q71 1 124 -23t89 -60t53 -75q18 -40 19 -73h-20z"/>
<glyph glyph-name="Egrave" horiz-adv-x="537" unicode="È" d="M74 20h458v-20h-478v714h474v-20h-454v-312h427v-20h-427v-342zM166 909h29l125 -144h-15z"/>
<glyph glyph-name="Eacute" horiz-adv-x="537" unicode="É" d="M74 20h458v-20h-478v714h474v-20h-454v-312h427v-20h-427v-342zM375 909l-146 -144h-15l132 144h29z"/>
<glyph glyph-name="Ecircumflex" horiz-adv-x="537" unicode="Ê" d="M74 20h458v-20h-478v714h474v-20h-454v-312h427v-20h-427v-342zM370 770l-103 123l-99 -123h-20l113 139h15l114 -139h-20z"/>
<glyph glyph-name="Edieresis" horiz-adv-x="537" unicode="Ë" d="M74 20h458v-20h-478v714h474v-20h-454v-312h427v-20h-427v-342zM181 768v81h20v-81h-20zM337 768v81h20v-81h-20z"/>
<glyph glyph-name="Igrave" horiz-adv-x="128" unicode="Ì" d="M54 714h20v-714h-20v714zM-38 909h29l124 -144h-15z"/>
<glyph glyph-name="Iacute" horiz-adv-x="128" unicode="Í" d="M54 714h20v-714h-20v714zM170 909l-146 -144h-15l132 144h29z"/>
<glyph glyph-name="Icircumflex" horiz-adv-x="128" unicode="Î" d="M54 714h20v-714h-20v714zM165 770l-103 123l-98 -123h-20l112 139h15l114 -139h-20z"/>
<glyph glyph-name="Idieresis" horiz-adv-x="128" unicode="Ï" d="M54 714h20v-714h-20v714zM-23 768v81h20v-81h-20zM132 768v81h20v-81h-20z"/>
<glyph glyph-name="Eth" horiz-adv-x="648" unicode="Ð" d="M-9 362v20h63v332h250q54 0 108 -16t98 -58q44 -40 70 -109q28 -69 28 -174q0 -96 -28 -164q-28 -69 -75 -111t-107 -62t-125 -20h-219v362h-63zM74 362v-342h204q64 0 120 20t98 62t68 106q24 64 24 149q0 100 -25 165q-25 66 -66 104t-93 53t-105 15h-225v-312h297v-20 h-297z"/>
<glyph glyph-name="Ntilde" horiz-adv-x="648" unicode="Ñ" d="M54 714h30l488 -689h2v689h20v-714h-30l-488 689h-2v-689h-20v714zM192 780q0 14 6 28t14 26q10 12 22 18q12 7 26 7q18 0 34 -9t32 -20t31 -20t30 -9q23 0 36 17t13 38h20q0 -29 -17 -52t-52 -23q-19 0 -35 9t-31 20t-30 20t-31 9q-10 1 -19 -5t-15 -15t-10 -19t-4 -20 h-20z"/>
<glyph glyph-name="Ograve" horiz-adv-x="721" unicode="Ò" d="M52 357q0 -77 22 -142t62 -112t96 -73q57 -26 129 -27q72 1 129 27q56 26 96 73t62 112t22 142t-22 142t-62 112t-96 73q-57 26 -129 27q-72 -1 -129 -27q-56 -26 -96 -73t-62 -112t-22 -142zM32 357q0 76 22 144t62 119q42 51 104 81t141 30t141 -30t104 -81t62 -119 q22 -68 22 -144t-22 -144t-62 -119q-42 -50 -104 -80t-141 -30t-141 30t-104 80q-42 51 -62 119q-22 68 -22 144zM258 909h29l125 -144h-15z"/>
<glyph glyph-name="Oacute" horiz-adv-x="721" unicode="Ó" d="M52 357q0 -77 22 -142t62 -112t96 -73q57 -26 129 -27q72 1 129 27q56 26 96 73t62 112t22 142t-22 142t-62 112t-96 73q-57 26 -129 27q-72 -1 -129 -27q-56 -26 -96 -73t-62 -112t-22 -142zM32 357q0 76 22 144t62 119q42 51 104 81t141 30t141 -30t104 -81t62 -119 q22 -68 22 -144t-22 -144t-62 -119q-42 -50 -104 -80t-141 -30t-141 30t-104 80q-42 51 -62 119q-22 68 -22 144zM467 909l-146 -144h-15l132 144h29z"/>
<glyph glyph-name="Ocircumflex" horiz-adv-x="721" unicode="Ô" d="M52 357q0 -77 22 -142t62 -112t96 -73q57 -26 129 -27q72 1 129 27q56 26 96 73t62 112t22 142t-22 142t-62 112t-96 73q-57 26 -129 27q-72 -1 -129 -27q-56 -26 -96 -73t-62 -112t-22 -142zM32 357q0 76 22 144t62 119q42 51 104 81t141 30t141 -30t104 -81t62 -119 q22 -68 22 -144t-22 -144t-62 -119q-42 -50 -104 -80t-141 -30t-141 30t-104 80q-42 51 -62 119q-22 68 -22 144zM462 770l-103 123l-99 -123h-20l113 139h15l114 -139h-20z"/>
<glyph glyph-name="Otilde" horiz-adv-x="721" unicode="Õ" d="M52 357q0 -77 22 -142t62 -112t96 -73q57 -26 129 -27q72 1 129 27q56 26 96 73t62 112t22 142t-22 142t-62 112t-96 73q-57 26 -129 27q-72 -1 -129 -27q-56 -26 -96 -73t-62 -112t-22 -142zM32 357q0 76 22 144t62 119q42 51 104 81t141 30t141 -30t104 -81t62 -119 q22 -68 22 -144t-22 -144t-62 -119q-42 -50 -104 -80t-141 -30t-141 30t-104 80q-42 51 -62 119q-22 68 -22 144zM229 780q-1 14 5 28t16 26t22 18q12 7 25 7q17 0 33 -9t33 -20q16 -11 31 -20t30 -9q23 0 36 17t13 38h20q0 -29 -17 -52t-52 -23q-19 0 -35 9t-31 20t-30 20 t-31 9q-10 1 -19 -5q-10 -6 -16 -15t-10 -19t-3 -20h-20z"/>
<glyph glyph-name="Odieresis" horiz-adv-x="721" unicode="Ö" d="M52 357q0 -77 22 -142t62 -112t96 -73q57 -26 129 -27q72 1 129 27q56 26 96 73t62 112t22 142t-22 142t-62 112t-96 73q-57 26 -129 27q-72 -1 -129 -27q-56 -26 -96 -73t-62 -112t-22 -142zM32 357q0 76 22 144t62 119q42 51 104 81t141 30t141 -30t104 -81t62 -119 q22 -68 22 -144t-22 -144t-62 -119q-42 -50 -104 -80t-141 -30t-141 30t-104 80q-42 51 -62 119q-22 68 -22 144zM273 768v81h20v-81h-20zM429 768v81h20v-81h-20z"/>
<glyph glyph-name="multiply" horiz-adv-x="600" unicode="×" d="M96 443l14 13l189 -191l191 191l14 -13l-191 -190l191 -190l-14 -14l-191 191l-189 -191l-14 14l190 190z"/>
<glyph glyph-name="Oslash" horiz-adv-x="721" unicode="Ø" d="M581 617q-40 45 -95 69t-125 25q-72 -1 -129 -27q-56 -26 -96 -73t-62 -112t-22 -142q2 -150 75 -243zM140 99q39 -46 94 -71t127 -25q72 1 129 27q56 26 96 73t62 112t22 142q-2 151 -76 244zM113 98q-41 52 -61 118t-20 141q0 76 22 144t62 119q42 51 104 81t141 30 q75 -1 133 -27t101 -72l59 65l15 -12l-61 -68q42 -51 62 -117t20 -143q0 -76 -22 -144t-62 -119q-42 -50 -104 -80t-141 -30q-77 0 -135 26t-100 74l-71 -79l-15 12z"/>
<glyph glyph-name="Ugrave" horiz-adv-x="632" unicode="Ù" d="M558 714h20v-448q0 -144 -67 -213t-195 -69t-195 69t-67 213v448h20v-448q0 -129 59 -196t183 -67t183 67t59 196v448zM213 909h29l125 -144h-15z"/>
<glyph glyph-name="Uacute" horiz-adv-x="632" unicode="Ú" d="M558 714h20v-448q0 -144 -67 -213t-195 -69t-195 69t-67 213v448h20v-448q0 -129 59 -196t183 -67t183 67t59 196v448zM422 909l-146 -144h-15l132 144h29z"/>
<glyph glyph-name="Ucircumflex" horiz-adv-x="632" unicode="Û" d="M558 714h20v-448q0 -144 -67 -213t-195 -69t-195 69t-67 213v448h20v-448q0 -129 59 -196t183 -67t183 67t59 196v448zM417 770l-103 123l-99 -123h-20l113 139h15l114 -139h-20z"/>
<glyph glyph-name="Udieresis" horiz-adv-x="632" unicode="Ü" d="M558 714h20v-448q0 -144 -67 -213t-195 -69t-195 69t-67 213v448h20v-448q0 -129 59 -196t183 -67t183 67t59 196v448zM228 768v81h20v-81h-20zM384 768v81h20v-81h-20z"/>
<glyph glyph-name="Yacute" horiz-adv-x="538" unicode="Ý" d="M544 714h24l-289 -413v-301h-20v301l-288 413h25l273 -392zM375 931l-146 -144h-15l132 144h29z"/>
<glyph glyph-name="Thorn" horiz-adv-x="574" unicode="Þ" d="M74 221h269q42 -1 78 11q37 12 63 34t41 55q15 32 15 74q0 85 -48 130t-149 45h-269v-349zM343 590q103 0 160 -49t57 -146q0 -47 -17 -83t-47 -62q-30 -24 -72 -36t-91 -13h-259v-201h-20v714h20v-124h269z"/>
<glyph glyph-name="germandbls" horiz-adv-x="481" unicode="ß" d="M202 407h9q33 1 64 7q35 8 61 25q26 18 43 48q16 30 16 74q0 34 -13 61q-13 28 -35 46t-52 28t-64 10q-19 0 -46 -4t-51 -20t-42 -46q-17 -30 -17 -83v-553h-20v556q-1 48 15 80t41 53t57 29t63 8q36 0 69 -11q32 -11 58 -33t42 -52t15 -69q1 -63 -31 -107t-96 -54v-2 q88 -8 126 -58t38 -130q0 -48 -12 -88t-42 -68q-29 -28 -77 -42q-42 -13 -102 -12h-17v20q14 -1 27 -1q35 0 66 6q43 8 73 30t47 60t17 95q0 56 -17 90t-47 54t-74 26q-42 7 -92 7v20z"/>
<glyph glyph-name="agrave" horiz-adv-x="481" unicode="à" d="M400 302h-2q-10 -14 -31 -22t-48 -11q-27 -4 -59 -5t-61 -3q-31 -1 -59 -7t-50 -20t-35 -40t-13 -67q0 -21 8 -43t25 -38q19 -16 47 -28q28 -10 70 -10q50 0 89 17t65 45t40 63q14 36 14 74v95zM54 355q2 35 15 67t37 55t60 36t84 13q34 0 64 -7t54 -25q23 -18 37 -45 q14 -28 15 -70v-327q0 -15 6 -22q6 -8 16 -10t22 -2t21 2v-20h-30q-23 0 -39 10t-16 40v67h-2q-8 -25 -26 -48t-44 -41t-60 -28t-74 -11q-78 1 -125 35t-47 103q0 48 16 77q16 30 40 46q25 16 57 22t64 9q53 3 91 5t62 10t36 24t12 44q0 23 -4 48t-20 46q-16 20 -45 34 q-30 14 -81 14q-81 0 -126 -40t-50 -111h-20zM138 709h29l125 -144h-15z"/>
<glyph glyph-name="aacute" horiz-adv-x="481" unicode="á" d="M400 302h-2q-10 -14 -31 -22t-48 -11q-27 -4 -59 -5t-61 -3q-31 -1 -59 -7t-50 -20t-35 -40t-13 -67q0 -21 8 -43t25 -38q19 -16 47 -28q28 -10 70 -10q50 0 89 17t65 45t40 63q14 36 14 74v95zM54 355q2 35 15 67t37 55t60 36t84 13q34 0 64 -7t54 -25q23 -18 37 -45 q14 -28 15 -70v-327q0 -15 6 -22q6 -8 16 -10t22 -2t21 2v-20h-30q-23 0 -39 10t-16 40v67h-2q-8 -25 -26 -48t-44 -41t-60 -28t-74 -11q-78 1 -125 35t-47 103q0 48 16 77q16 30 40 46q25 16 57 22t64 9q53 3 91 5t62 10t36 24t12 44q0 23 -4 48t-20 46q-16 20 -45 34 q-30 14 -81 14q-81 0 -126 -40t-50 -111h-20zM347 709l-146 -144h-15l132 144h29z"/>
<glyph glyph-name="acircumflex" horiz-adv-x="481" unicode="â" d="M400 302h-2q-10 -14 -31 -22t-48 -11q-27 -4 -59 -5t-61 -3q-31 -1 -59 -7t-50 -20t-35 -40t-13 -67q0 -21 8 -43t25 -38q19 -16 47 -28q28 -10 70 -10q50 0 89 17t65 45t40 63q14 36 14 74v95zM54 355q2 35 15 67t37 55t60 36t84 13q34 0 64 -7t54 -25q23 -18 37 -45 q14 -28 15 -70v-327q0 -15 6 -22q6 -8 16 -10t22 -2t21 2v-20h-30q-23 0 -39 10t-16 40v67h-2q-8 -25 -26 -48t-44 -41t-60 -28t-74 -11q-78 1 -125 35t-47 103q0 48 16 77q16 30 40 46q25 16 57 22t64 9q53 3 91 5t62 10t36 24t12 44q0 23 -4 48t-20 46q-16 20 -45 34 q-30 14 -81 14q-81 0 -126 -40t-50 -111h-20zM342 570l-103 123l-99 -123h-20l113 139h15l114 -139h-20z"/>
<glyph glyph-name="atilde" horiz-adv-x="481" unicode="ã" d="M400 302h-2q-10 -14 -31 -22t-48 -11q-27 -4 -59 -5t-61 -3q-31 -1 -59 -7t-50 -20t-35 -40t-13 -67q0 -21 8 -43t25 -38q19 -16 47 -28q28 -10 70 -10q50 0 89 17t65 45t40 63q14 36 14 74v95zM54 355q2 35 15 67t37 55t60 36t84 13q34 0 64 -7t54 -25q23 -18 37 -45 q14 -28 15 -70v-327q0 -15 6 -22q6 -8 16 -10t22 -2t21 2v-20h-30q-23 0 -39 10t-16 40v67h-2q-8 -25 -26 -48t-44 -41t-60 -28t-74 -11q-78 1 -125 35t-47 103q0 48 16 77q16 30 40 46q25 16 57 22t64 9q53 3 91 5t62 10t36 24t12 44q0 23 -4 48t-20 46q-16 20 -45 34 q-30 14 -81 14q-81 0 -126 -40t-50 -111h-20zM109 580q-1 14 5 28t16 26t22 18q12 7 25 7q17 0 33 -9t33 -20q16 -11 31 -20t30 -9q23 0 36 17t13 38h20q0 -29 -17 -52t-52 -23q-19 0 -35 9t-31 20t-30 20t-31 9q-10 1 -19 -5q-10 -6 -16 -15t-10 -19t-3 -20h-20z"/>
<glyph glyph-name="adieresis" horiz-adv-x="481" unicode="ä" d="M400 302h-2q-10 -14 -31 -22t-48 -11q-27 -4 -59 -5t-61 -3q-31 -1 -59 -7t-50 -20t-35 -40t-13 -67q0 -21 8 -43t25 -38q19 -16 47 -28q28 -10 70 -10q50 0 89 17t65 45t40 63q14 36 14 74v95zM54 355q2 35 15 67t37 55t60 36t84 13q34 0 64 -7t54 -25q23 -18 37 -45 q14 -28 15 -70v-327q0 -15 6 -22q6 -8 16 -10t22 -2t21 2v-20h-30q-23 0 -39 10t-16 40v67h-2q-8 -25 -26 -48t-44 -41t-60 -28t-74 -11q-78 1 -125 35t-47 103q0 48 16 77q16 30 40 46q25 16 57 22t64 9q53 3 91 5t62 10t36 24t12 44q0 23 -4 48t-20 46q-16 20 -45 34 q-30 14 -81 14q-81 0 -126 -40t-50 -111h-20zM153 568v81h20v-81h-20zM309 568v81h20v-81h-20z"/>
<glyph glyph-name="aring" horiz-adv-x="481" unicode="å" d="M400 302h-2q-10 -14 -31 -22t-48 -11q-27 -4 -59 -5t-61 -3q-31 -1 -59 -7t-50 -20t-35 -40t-13 -67q0 -21 8 -43t25 -38q19 -16 47 -28q28 -10 70 -10q50 0 89 17t65 45t40 63q14 36 14 74v95zM54 355q2 35 15 67t37 55t60 36t84 13q34 0 64 -7t54 -25q23 -18 37 -45 q14 -28 15 -70v-327q0 -15 6 -22q6 -8 16 -10t22 -2t21 2v-20h-30q-23 0 -39 10t-16 40v67h-2q-8 -25 -26 -48t-44 -41t-60 -28t-74 -11q-78 1 -125 35t-47 103q0 48 16 77q16 30 40 46q25 16 57 22t64 9q53 3 91 5t62 10t36 24t12 44q0 23 -4 48t-20 46q-16 20 -45 34 q-30 14 -81 14q-81 0 -126 -40t-50 -111h-20zM329 674q0 -18 -7 -34t-19 -28t-28 -19t-34 -7t-34 7t-28 19t-19 28t-7 34t7 34t19 28t28 19t34 7t34 -7t28 -19t19 -28t7 -34zM309 674q0 28 -20 48t-48 20t-48 -20t-20 -48t20 -48t48 -20t48 20t20 48z"/>
<glyph glyph-name="ae" horiz-adv-x="889" unicode="æ" d="M837 273q-1 49 -13 91t-36 74t-62 50t-89 18q-47 0 -84 -16t-63 -48q-26 -30 -41 -73t-19 -96h407zM410 302h-2q-10 -14 -31 -22t-48 -11q-27 -4 -59 -5t-61 -3q-31 -1 -59 -7t-50 -20t-35 -40t-13 -67q0 -21 8 -43t25 -38q19 -16 47 -28q28 -10 70 -10q50 0 89 17t65 45 t40 63q14 36 14 74v95zM64 355q2 35 15 67t37 55t60 36t84 13q34 0 64 -8t54 -24q23 -17 37 -46t15 -72h2q10 32 28 60t44 47t60 31t73 12q59 0 101 -22t69 -60t39 -88q11 -43 11 -88v-15h-427q2 -51 14 -95t35 -78q25 -34 63 -53t93 -19q38 0 72 11q35 11 61 33t44 52 q18 32 22 74h20q-4 -42 -22 -77t-46 -60t-68 -39q-38 -14 -83 -13h-4q-81 0 -134 42q-54 43 -74 124h-2q-7 -39 -27 -70t-48 -53t-65 -32q-36 -11 -77 -11q-78 1 -125 35t-47 103q0 48 16 77q16 30 40 46q25 16 57 22t64 9q53 3 91 5t62 10t36 24t12 44q0 23 -4 48t-20 46 q-16 20 -45 34q-30 14 -81 14q-81 0 -126 -40t-50 -111h-20z"/>
<glyph glyph-name="ccedilla" d="M469 175q-7 -87 -63 -135t-141 -50l-33 -45q7 1 13 3t20 3q29 1 52 -13t23 -47q0 -22 -8 -36q-8 -15 -22 -23t-30 -11q-18 -3 -38 -3q-26 0 -47 6t-35 11l9 19q17 -6 35 -11t38 -5q14 0 28 2t25 9t18 17t7 25q0 10 -6 18q-6 9 -14 13t-18 6t-17 3q-32 0 -54 -13l-15 10 l49 63q-51 2 -91 23q-40 22 -68 56t-41 80q-14 46 -14 96q1 56 15 106t44 90q30 38 74 61q46 23 107 23q36 0 69 -11t59 -32q25 -21 43 -53t23 -72h-20q-6 38 -22 66t-39 46t-52 27t-61 9q-61 0 -103 -24t-68 -60q-26 -38 -38 -84t-11 -92q-1 -47 13 -90t40 -76 q26 -32 65 -52t90 -20q38 0 71 12q32 12 58 33q26 23 42 53t19 69h20z" unicode="ç"/>
<glyph glyph-name="egrave" d="M455 273q0 47 -13 89q-12 42 -38 75t-64 51t-88 18q-42 0 -78 -16t-64 -46t-45 -74q-17 -43 -20 -97h410zM45 253q1 -53 13 -97t35 -77q24 -33 62 -52t93 -19q80 0 134 42t67 128h20q-11 -90 -71 -140t-148 -49h-6q-56 0 -96 19q-42 20 -70 56q-27 36 -40 86t-13 107 q0 64 19 114q19 51 50 85t72 52t84 18q60 0 104 -23t70 -61q28 -38 40 -87q11 -42 11 -87v-15h-430zM147 709h29l125 -144h-15z" unicode="è"/>
<glyph glyph-name="eacute" d="M455 273q0 47 -13 89q-12 42 -38 75t-64 51t-88 18q-42 0 -78 -16t-64 -46t-45 -74q-17 -43 -20 -97h410zM45 253q1 -53 13 -97t35 -77q24 -33 62 -52t93 -19q80 0 134 42t67 128h20q-11 -90 -71 -140t-148 -49h-6q-56 0 -96 19q-42 20 -70 56q-27 36 -40 86t-13 107 q0 64 19 114q19 51 50 85t72 52t84 18q60 0 104 -23t70 -61q28 -38 40 -87q11 -42 11 -87v-15h-430zM356 709l-146 -144h-15l132 144h29z" unicode="é"/>
<glyph glyph-name="ecircumflex" d="M455 273q0 47 -13 89q-12 42 -38 75t-64 51t-88 18q-42 0 -78 -16t-64 -46t-45 -74q-17 -43 -20 -97h410zM45 253q1 -53 13 -97t35 -77q24 -33 62 -52t93 -19q80 0 134 42t67 128h20q-11 -90 -71 -140t-148 -49h-6q-56 0 -96 19q-42 20 -70 56q-27 36 -40 86t-13 107 q0 64 19 114q19 51 50 85t72 52t84 18q60 0 104 -23t70 -61q28 -38 40 -87q11 -42 11 -87v-15h-430zM351 570l-103 123l-99 -123h-20l113 139h15l114 -139h-20z" unicode="ê"/>
<glyph glyph-name="edieresis" d="M455 273q0 47 -13 89q-12 42 -38 75t-64 51t-88 18q-42 0 -78 -16t-64 -46t-45 -74q-17 -43 -20 -97h410zM45 253q1 -53 13 -97t35 -77q24 -33 62 -52t93 -19q80 0 134 42t67 128h20q-11 -90 -71 -140t-148 -49h-6q-56 0 -96 19q-42 20 -70 56q-27 36 -40 86t-13 107 q0 64 19 114q19 51 50 85t72 52t84 18q60 0 104 -23t70 -61q28 -38 40 -87q11 -42 11 -87v-15h-430zM162 568v81h20v-81h-20zM318 568v81h20v-81h-20z" unicode="ë"/>
<glyph glyph-name="igrave" horiz-adv-x="130" unicode="ì" d="M55 0v514h20v-514h-20zM-37 709h29l124 -144h-15z"/>
<glyph glyph-name="iacute" horiz-adv-x="130" unicode="í" d="M55 0v514h20v-514h-20zM171 709l-146 -144h-15l132 144h29z"/>
<glyph glyph-name="icircumflex" horiz-adv-x="130" unicode="î" d="M55 0v514h20v-514h-20zM166 570l-103 123l-98 -123h-20l112 139h15l114 -139h-20z"/>
<glyph glyph-name="idieresis" horiz-adv-x="130" unicode="ï" d="M55 0v514h20v-514h-20zM-22 568v81h20v-81h-20zM133 568v81h20v-81h-20z"/>
<glyph glyph-name="eth" horiz-adv-x="519" unicode="ð" d="M249 648q-18 14 -41 30t-52 30l16 14q30 -15 54 -32t42 -32l123 68l15 -16l-120 -67q53 -49 92 -97t64 -95q25 -48 37 -98t12 -105q0 -51 -15 -98q-14 -46 -44 -82t-73 -57t-100 -21q-56 0 -99 21q-42 21 -72 57t-45 82q-15 47 -15 98q0 52 15 98t45 82t72 58 q43 22 100 21q46 0 90 -17t72 -55h4q-16 30 -36 59q-20 30 -42 56t-44 48t-39 36l-122 -68l-15 15zM48 248q0 -46 14 -90t40 -76q26 -33 66 -53t92 -20q50 0 90 20t67 53q27 32 41 76t13 90q1 46 -13 89t-41 77t-67 53q-40 20 -90 20q-52 0 -92 -20q-40 -19 -66 -53t-40 -77 t-14 -89z"/>
<glyph glyph-name="ntilde" d="M55 514h20v-127h2q7 30 23 55t38 44q24 20 55 30t69 10q40 0 74 -12t58 -36t38 -58t13 -79v-341h-20v338q0 44 -13 76q-14 32 -36 52t-52 30t-62 10q-46 0 -81 -18t-59 -46q-24 -30 -35 -69q-12 -39 -12 -82v-291h-20v514zM118 580q0 14 6 28t14 26q10 12 22 18 q12 7 26 7q18 0 34 -9t32 -20t31 -20t30 -9q23 0 36 17t13 38h20q0 -29 -17 -52t-52 -23q-19 0 -35 9t-31 20t-30 20t-31 9q-10 1 -19 -5t-15 -15t-10 -19t-4 -20h-20z" unicode="ñ"/>
<glyph glyph-name="ograve" horiz-adv-x="519" unicode="ò" d="M28 257q0 53 15 101t45 86t72 60q43 22 100 22q56 0 99 -22t73 -60t44 -86q15 -48 15 -101t-15 -101q-14 -48 -44 -86q-30 -37 -73 -59t-100 -22q-56 0 -99 22q-42 22 -72 59q-30 38 -45 86t-15 101zM48 257q0 -49 14 -94t40 -79t66 -56q40 -20 92 -20q50 0 90 20t67 56 q27 34 41 79t13 94q1 48 -13 93q-14 46 -41 80t-67 55t-90 21q-52 0 -92 -21t-66 -55t-40 -80q-14 -45 -14 -93zM157 709h29l125 -144h-15z"/>
<glyph glyph-name="oacute" horiz-adv-x="519" unicode="ó" d="M28 257q0 53 15 101t45 86t72 60q43 22 100 22q56 0 99 -22t73 -60t44 -86q15 -48 15 -101t-15 -101q-14 -48 -44 -86q-30 -37 -73 -59t-100 -22q-56 0 -99 22q-42 22 -72 59q-30 38 -45 86t-15 101zM48 257q0 -49 14 -94t40 -79t66 -56q40 -20 92 -20q50 0 90 20t67 56 q27 34 41 79t13 94q1 48 -13 93q-14 46 -41 80t-67 55t-90 21q-52 0 -92 -21t-66 -55t-40 -80q-14 -45 -14 -93zM366 709l-146 -144h-15l132 144h29z"/>
<glyph glyph-name="ocircumflex" horiz-adv-x="519" unicode="ô" d="M28 257q0 53 15 101t45 86t72 60q43 22 100 22q56 0 99 -22t73 -60t44 -86q15 -48 15 -101t-15 -101q-14 -48 -44 -86q-30 -37 -73 -59t-100 -22q-56 0 -99 22q-42 22 -72 59q-30 38 -45 86t-15 101zM48 257q0 -49 14 -94t40 -79t66 -56q40 -20 92 -20q50 0 90 20t67 56 q27 34 41 79t13 94q1 48 -13 93q-14 46 -41 80t-67 55t-90 21q-52 0 -92 -21t-66 -55t-40 -80q-14 -45 -14 -93zM361 570l-103 123l-99 -123h-20l113 139h15l114 -139h-20z"/>
<glyph glyph-name="otilde" horiz-adv-x="519" unicode="õ" d="M28 257q0 53 15 101t45 86t72 60q43 22 100 22q56 0 99 -22t73 -60t44 -86q15 -48 15 -101t-15 -101q-14 -48 -44 -86q-30 -37 -73 -59t-100 -22q-56 0 -99 22q-42 22 -72 59q-30 38 -45 86t-15 101zM48 257q0 -49 14 -94t40 -79t66 -56q40 -20 92 -20q50 0 90 20t67 56 q27 34 41 79t13 94q1 48 -13 93q-14 46 -41 80t-67 55t-90 21q-52 0 -92 -21t-66 -55t-40 -80q-14 -45 -14 -93zM128 580q0 14 6 28t14 26q10 12 22 18q12 7 26 7q18 0 34 -9t32 -20t31 -20t30 -9q23 0 36 17t13 38h20q0 -29 -17 -52t-52 -23q-19 0 -35 9t-31 20t-30 20 t-31 9q-10 1 -19 -5t-15 -15t-10 -19t-4 -20h-20z"/>
<glyph glyph-name="odieresis" horiz-adv-x="519" unicode="ö" d="M28 257q0 53 15 101t45 86t72 60q43 22 100 22q56 0 99 -22t73 -60t44 -86q15 -48 15 -101t-15 -101q-14 -48 -44 -86q-30 -37 -73 -59t-100 -22q-56 0 -99 22q-42 22 -72 59q-30 38 -45 86t-15 101zM48 257q0 -49 14 -94t40 -79t66 -56q40 -20 92 -20q50 0 90 20t67 56 q27 34 41 79t13 94q1 48 -13 93q-14 46 -41 80t-67 55t-90 21q-52 0 -92 -21t-66 -55t-40 -80q-14 -45 -14 -93zM172 568v81h20v-81h-20zM328 568v81h20v-81h-20z"/>
<glyph glyph-name="divide" horiz-adv-x="600" unicode="÷" d="M48 243v20h504v-20h-504zM300 424q-22 0 -32 12t-9 29q0 17 12 29t29 12t29 -12t12 -29t-9 -29t-32 -12zM300 0q-22 0 -32 12t-9 29q0 17 12 29t29 12t29 -12t12 -29t-9 -29t-32 -12z"/>
<glyph glyph-name="oslash" horiz-adv-x="519" unicode="ø" d="M412 434q-26 32 -64 52t-88 20q-52 0 -92 -21t-66 -55t-40 -80q-14 -45 -14 -93q0 -91 44 -158zM104 83q26 -35 65 -55t91 -20q50 0 90 20t67 56q27 34 41 79t13 94q0 45 -12 86t-35 75zM472 496l14 -14l-47 -49q26 -35 39 -80t13 -96q0 -53 -15 -101q-14 -48 -44 -86 q-30 -37 -73 -59t-100 -22t-99 21t-71 57l-57 -59l-14 14l60 62q-26 35 -38 80t-12 93q0 53 15 101t45 86t72 60q43 22 100 22q54 0 96 -20t71 -57z"/>
<glyph glyph-name="ugrave" d="M445 0h-20v127h-2q-13 -60 -61 -99t-124 -39q-40 -1 -74 11t-58 36t-38 58t-13 79v341h20v-338q0 -44 13 -76q14 -32 36 -52t52 -30t62 -10q46 0 81 18t59 46q24 30 35 69q12 39 12 82v291h20v-514zM147 709h29l125 -144h-15z" unicode="ù"/>
<glyph glyph-name="uacute" d="M445 0h-20v127h-2q-13 -60 -61 -99t-124 -39q-40 -1 -74 11t-58 36t-38 58t-13 79v341h20v-338q0 -44 13 -76q14 -32 36 -52t52 -30t62 -10q46 0 81 18t59 46q24 30 35 69q12 39 12 82v291h20v-514zM356 709l-146 -144h-15l132 144h29z" unicode="ú"/>
<glyph glyph-name="ucircumflex" d="M445 0h-20v127h-2q-13 -60 -61 -99t-124 -39q-40 -1 -74 11t-58 36t-38 58t-13 79v341h20v-338q0 -44 13 -76q14 -32 36 -52t52 -30t62 -10q46 0 81 18t59 46q24 30 35 69q12 39 12 82v291h20v-514zM351 570l-103 123l-99 -123h-20l113 139h15l114 -139h-20z" unicode="û"/>
<glyph glyph-name="udieresis" d="M445 0h-20v127h-2q-13 -60 -61 -99t-124 -39q-40 -1 -74 11t-58 36t-38 58t-13 79v341h20v-338q0 -44 13 -76q14 -32 36 -52t52 -30t62 -10q46 0 81 18t59 46q24 30 35 69q12 39 12 82v291h20v-514zM162 568v81h20v-81h-20zM318 568v81h20v-81h-20z" unicode="ü"/>
<glyph glyph-name="yacute" horiz-adv-x="407" unicode="ý" d="M398 514h21l-237 -618q-10 -26 -24 -40t-31 -22q-17 -6 -37 -8t-44 -2v20q26 0 44 2t32 8t24 20t20 36l37 95l-214 509h21l204 -487zM310 731l-146 -144h-15l132 144h29z"/>
<glyph glyph-name="thorn" horiz-adv-x="537" unicode="þ" d="M482 258q0 50 -12 94t-35 80q-23 34 -61 54t-91 20q-51 0 -91 -20t-66 -54t-38 -79q-13 -45 -13 -95q-1 -60 15 -106t44 -79t66 -49t83 -16q57 0 95 22t62 58t32 80q10 44 10 90zM75 -176h-20v890h20v-344h2q21 68 71 112t135 44q54 0 95 -20q40 -20 68 -56t42 -85 t14 -107q0 -54 -12 -103t-40 -86q-26 -37 -68 -59t-99 -21q-79 1 -133 43t-73 112h-2v-320z"/>
<glyph glyph-name="OE" horiz-adv-x="1019" unicode="Œ" d="M944 382v-20h-366v-342h414v-20h-434v65q-42 -43 -93 -62t-103 -19q-80 0 -142 30t-104 80t-62 117q-22 67 -22 142t21 143t62 121q41 52 103 83t144 31q60 -1 108 -19t88 -63v65h434v-20h-414v-312h366zM558 623q-22 25 -44 41t-45 26t-49 16q-26 5 -58 5 q-71 1 -128 -25t-97 -73t-62 -113t-23 -147q0 -76 22 -140q22 -65 62 -111t97 -72t129 -27q47 1 100 21t96 70v529z"/>
<glyph glyph-name="oe" horiz-adv-x="890" unicode="œ" d="M836 273q-1 47 -12 89q-12 42 -34 75t-58 51t-85 18q-52 0 -88 -18q-37 -18 -59 -49t-33 -73t-13 -93h382zM434 257q0 48 -10 93q-10 46 -32 80t-58 55t-91 21q-53 0 -89 -21t-58 -56t-34 -79q-10 -44 -10 -93q0 -46 10 -91t34 -80q22 -34 58 -56t89 -22q55 0 91 20 t59 56q21 34 31 79t10 94zM454 253v-5q0 -116 46 -178t146 -62q44 0 76 14t54 36t34 52q13 30 19 63h20q-15 -85 -65 -135t-138 -49q-85 -1 -137 43t-64 125h-2q-17 -78 -65 -123t-135 -45q-57 0 -97 23q-40 22 -66 60t-36 86q-12 48 -12 99q0 50 11 98t36 86q25 37 65 61 t99 24q83 0 135 -49t64 -127h2q7 38 22 70q16 32 40 54q24 24 59 38t81 14h5q53 0 91 -20q40 -21 64 -57q26 -36 38 -83t12 -98v-15h-402z"/>
<glyph glyph-name="Scaron" horiz-adv-x="611" unicode="Š" d="M531 514q-3 54 -21 92t-48 62t-73 33q-42 10 -90 10q-37 1 -77 -7t-72 -27t-54 -51q-21 -32 -21 -79q-1 -48 21 -77t56 -47t79 -28q44 -10 90 -21q51 -13 95 -25t77 -32t53 -53t19 -89q0 -51 -22 -87t-58 -60t-81 -34t-91 -10q-61 0 -113 14t-88 44q-38 30 -58 79 q-20 46 -20 110v6h20q0 -65 19 -109t53 -72t82 -40t105 -13q41 -1 83 9t75 31t53 54t21 79q1 54 -23 86t-60 50t-82 28q-44 10 -85 19q-43 10 -86 21q-43 10 -77 30t-56 52q-21 32 -21 85t22 89t57 56q34 21 78 30t87 9q53 1 97 -11t78 -38t54 -66q20 -42 23 -102h-20z M205 931l103 -123l99 123h20l-113 -139h-15l-114 139h20z"/>
<glyph glyph-name="scaron" horiz-adv-x="463" unicode="š" d="M390 362q0 39 -12 66q-12 26 -34 44t-52 26t-68 8q-54 0 -85 -14t-46 -34q-15 -18 -19 -36t-4 -25q0 -39 16 -59t41 -31q27 -11 59 -19t73 -19q29 -9 59 -17t54 -23t38 -38t14 -60q0 -39 -16 -66t-44 -44q-26 -17 -60 -25t-66 -7q-104 0 -156 45t-52 142h20 q0 -88 48 -128t140 -40q28 0 58 6t53 22q23 14 39 37t16 56q0 34 -16 55q-16 20 -40 34t-56 22t-65 16q-37 9 -65 17t-50 18q-32 14 -47 39t-15 67q0 21 9 44t30 42t54 31t81 12q86 0 136 -39t50 -125h-20zM131 731l103 -123l99 123h20l-113 -139h-15l-114 139h20z"/>
<glyph glyph-name="Ydieresis" horiz-adv-x="538" unicode="Ÿ" d="M544 714h24l-289 -413v-301h-20v301l-288 413h25l273 -392zM181 768v81h20v-81h-20zM337 768v81h20v-81h-20z"/>
<glyph glyph-name="circumflex" horiz-adv-x="130" unicode="ˆ" d="M166 592l-103 123l-98 -123h-20l112 139h15l114 -139h-20z"/>
<glyph glyph-name="tilde" horiz-adv-x="130" unicode="˜" d="M-66 602q0 14 6 28t14 26q10 12 22 18q12 7 25 7q17 0 33 -9t33 -20q16 -11 31 -20t30 -9q23 0 36 17t13 38h20q0 -29 -17 -52t-52 -23q-19 0 -35 9t-31 20t-30 20t-31 9q-11 1 -19 -5t-14 -15t-10 -19t-4 -20h-20z"/>
<glyph glyph-name="dieresiscmb" horiz-adv-x="0" unicode="̈" d="M-347 671h20v-81h-20v81zM-192 671h20v-81h-20v81z"/>
<glyph glyph-name="uni030F" horiz-adv-x="0" unicode="̏" d="M-265 731h29l131 -144h-15zM-415 731h29l132 -144h-15z"/>
<glyph glyph-name="uni0391.Alpha" horiz-adv-x="575" unicode="Α" d="M292 694h-2l-176 -439h348zM11 0h-22l289 714h26l282 -714h-22l-94 235h-364z"/>
<glyph glyph-name="uni0392.Beta" horiz-adv-x="611" unicode="Β" d="M351 20q44 0 81.5 10.5t65 32t43.5 54t16 76.5q0 47 -17.5 79t-46 52t-65 29t-74.5 9h-287v-342h284zM354 714q42 0 78.5 -11t64 -33.5t43 -55.5t15.5 -78q0 -32 -11.5 -61t-31.5 -51t-47.5 -35.5t-60.5 -15.5v-2q35 -1 66.5 -13.5t55 -35t37.5 -55t14 -73.5 q0 -48 -17.5 -84.5t-48.5 -60.5t-74.5 -36.5t-94.5 -12.5h-295v714h307zM354 382q36 0 68.5 9.5t57.5 29t40 48.5t15 67q0 41 -14 70.5t-38.5 49t-57.5 29t-71 9.5h-287v-312h287z"/>
<glyph glyph-name="uni0393.Gamma" horiz-adv-x="481" unicode="Γ" d="M74 0h-20v714h440v-20h-420v-694z"/>
<glyph glyph-name="uni0394.Delta" horiz-adv-x="577" unicode="Δ" d="M557 20l-264 674h-2l-271 -674h537zM279 714h26l282 -714h-597z"/>
<glyph glyph-name="uni0395.Epsilon" horiz-adv-x="537" unicode="Ε" d="M532 20v-20h-478v714h474v-20h-454v-312h427v-20h-427v-342h458z"/>
<glyph glyph-name="uni0396.Zeta" d="M508 0h-526v27l498 667h-471v20h491v-27l-499 -667h507v-20z" unicode="Ζ"/>
<glyph glyph-name="uni0397.Eta" horiz-adv-x="648" unicode="Η" d="M74 0h-20v714h20v-332h500v332h20v-714h-20v362h-500v-362z"/>
<glyph glyph-name="uni0398.Theta" horiz-adv-x="721" unicode="Θ" d="M183 365h355v-20h-355v20zM52 357q1 -77 22.5 -142t61 -112t96.5 -73.5t129 -26.5t129.5 26.5t97 73.5t61 112t21.5 142t-21.5 142t-61 112t-97 73.5t-129.5 26.5t-129 -26.5t-96.5 -73.5t-61 -112t-22.5 -142zM32 357q0 76 21.5 144t63 119t103 81t141.5 30t141.5 -30 t103 -81t63 -119t21.5 -144t-21.5 -144t-63 -119t-103 -81t-141.5 -30t-141.5 30t-103 81t-63 119t-21.5 144z"/>
<glyph glyph-name="uni0399.Iota" horiz-adv-x="128" unicode="Ι" d="M74 714v-714h-20v714h20z"/>
<glyph glyph-name="uni039A.Kappa" horiz-adv-x="593" unicode="Κ" d="M74 0h-20v714h20v-434l495 434h30l-345 -304l365 -410h-27l-354 398l-164 -145v-253z"/>
<glyph glyph-name="uni039B.Lambda" horiz-adv-x="575" unicode="Λ" d="M11 0h-23l290 714h26l282 -714h-22l-272 694h-2z"/>
<glyph glyph-name="uni039C.Mu" horiz-adv-x="780" unicode="Μ" d="M726 714v-714h-20v689h-2l-303 -689h-22l-303 689h-2v-689h-20v714h33l302 -688h2l302 688h33z"/>
<glyph glyph-name="uni039D.Nu" horiz-adv-x="648" unicode="Ν" d="M84 714l488 -689h2v689h20v-714h-30l-488 689h-2v-689h-20v714h30z"/>
<glyph glyph-name="uni039E.Xi" horiz-adv-x="531" unicode="Ξ" d="M48 362v20h435v-20h-435zM21 694v20h489v-20h-489zM17 0v20h497v-20h-497z"/>
<glyph glyph-name="uni039F.Omicron" horiz-adv-x="721" unicode="Ο" d="M52 357q1 -77 22.5 -142t61 -112t96.5 -73.5t129 -26.5t129 26.5t96.5 73.5t61 112t22.5 142q-1 77 -22.5 142t-61 112t-96.5 73.5t-129 26.5t-129 -26.5t-96.5 -73.5t-61 -112t-22.5 -142zM32 357q0 76 21.5 144t63 119t103 81t141.5 30t141.5 -30t103 -81t63 -119 t21.5 -144t-21.5 -144t-63 -119t-103 -80.5t-141.5 -29.5t-141.5 29.5t-103 80.5t-63 119t-21.5 144z"/>
<glyph glyph-name="uni03A0.Pi" horiz-adv-x="648" unicode="Π" d="M74 694v-694h-20v714h540v-714h-20v694h-500z"/>
<glyph glyph-name="uni03A1.Rho" horiz-adv-x="574" unicode="Ρ" d="M343 345q42 0 78 11.5t62.5 34t41.5 54.5t15 74q0 85 -48.5 130t-148.5 45h-269v-349h269zM54 0v714h289q103 0 160 -49t57 -146q0 -47 -17 -83.5t-47 -61t-71.5 -37t-91.5 -12.5h-259v-325h-20z"/>
<glyph glyph-name="uni03A3.Sigma" horiz-adv-x="532" unicode="Σ" d="M360 377l-301 -357h458v-20h-478v26l295 350l-295 312v26h474v-20h-449z"/>
<glyph glyph-name="uni03A4.Tau" d="M-16 714h533v-20h-257v-694h-20v694h-256v20z" unicode="Τ"/>
<glyph glyph-name="uni03A5.Upsilon" horiz-adv-x="538" unicode="Υ" d="M568 714l-289 -413v-301h-20v301l-288 413h25l273 -392l275 392h24z"/>
<glyph glyph-name="uni03A6.Phi" horiz-adv-x="721" unicode="Φ" d="M37 373q0 -60 20 -108t59.5 -82.5t98 -53.5t135.5 -20v528q-155 -3 -234 -73.5t-79 -190.5zM685 373q0 60 -20 108t-60 82.5t-98.5 53.5t-136.5 20v-528q78 1 136.5 20t98.5 53t60 82.5t20 108.5zM350 89q-84 1 -146.5 22t-104 58.5t-62 89t-20.5 114.5q0 62 20.5 113.5 t62 89t104 58.5t146.5 23v87h20v-87q84 -1 147 -22t105 -58.5t62.5 -89t20.5 -114.5t-20.5 -114.5t-62.5 -89t-105 -58.5t-147 -22v-89h-20v89z"/>
<glyph glyph-name="uni03A7.Chi" horiz-adv-x="520" unicode="Χ" d="M535 714l-260 -347l272 -367h-25l-261 351l-262 -351h-25l274 367l-259 347h25l247 -331l249 331h25z"/>
<glyph glyph-name="uni03A8.Psi" horiz-adv-x="732" unicode="Ψ" d="M356 157q-67 1 -122.5 19t-95.5 53t-62 87.5t-22 123.5v274h20v-274q0 -63 20.5 -111.5t57.5 -82t89 -51t115 -18.5v537h20v-537q63 1 114.5 18.5t89 51t58 82t20.5 111.5v274h20v-274q0 -71 -22 -123.5t-62 -87.5t-95.5 -53t-122.5 -19v-157h-20v157z"/>
<glyph glyph-name="uni03B1.alpha" horiz-adv-x="536" unicode="α" d="M455 256q0 121 -57 185.5t-151 64.5q-53 0 -90.5 -22.5t-61.5 -58t-35.5 -80t-11.5 -89.5q0 -50 12.5 -94.5t37 -79t62 -54.5t87.5 -20q49 0 88 20t65.5 54t40.5 79t14 95zM510 -1q-22 0 -38.5 11t-16.5 40v94h-2q-10 -34 -29 -62.5t-45 -49.5t-59.5 -32.5t-72.5 -11.5 q-51 0 -91.5 20t-69 56t-43.5 85t-15 107q0 54 14 103t42 86t69 59t94 22q82 0 135 -43t71 -113h2v144h20v-462q0 -21 12 -27.5t28 -6.5q6 0 12.5 0.5t12.5 1.5v-20q-8 -1 -15 -1h-15z"/>
<glyph glyph-name="uni03B2.beta" horiz-adv-x="502" unicode="β" d="M209 407q42 0 78.5 7.5t63.5 25t42.5 47t15.5 74.5q0 34 -12.5 61t-33.5 46.5t-50 30t-62 10.5q-37 0 -69 -8.5t-56 -27.5t-37.5 -50.5t-13.5 -76.5v-399q25 -61 74.5 -98t120.5 -37q46 0 80.5 14t57.5 38.5t34.5 57.5t11.5 71q0 61 -19.5 99t-53 59t-78 28.5t-94.5 7.5 v20zM270 -8q-38 0 -68.5 9.5t-54.5 25.5t-42 36.5t-30 43.5v-284h-20v724q0 48 15 82.5t41.5 56.5t62 32.5t77.5 10.5q38 0 70.5 -12t56.5 -34t37.5 -53t13.5 -69q0 -63 -35 -106.5t-99 -54.5v-2q88 -8 133.5 -60.5t45.5 -144.5q0 -41 -13.5 -77.5t-39 -64t-64 -43.5 t-87.5 -16z"/>
<glyph glyph-name="uni03B3.gamma" horiz-adv-x="432" unicode="γ" d="M425 514q-15 -89 -38 -165.5t-52 -143t-62.5 -125.5t-69.5 -113v-144h-20v125q0 87 -17 170t-44 156t-60.5 134t-66.5 106h24q33 -41 64 -100.5t56 -128.5t42 -142.5t20 -142.5h2q31 46 61 99.5t56.5 116.5t48 136.5t36.5 161.5h20z"/>
<glyph glyph-name="uni03B4.delta" horiz-adv-x="519" unicode="δ" d="M399 396q-24 23 -54 42t-65 38q-38 -5 -77.5 -25t-72 -52.5t-53.5 -75.5t-21 -94q0 -46 13.5 -86t39.5 -70t64.5 -47.5t89.5 -17.5t89.5 17.5t64.5 47.5t39.5 70.5t13.5 86.5q0 47 -18 90t-53 76zM419 671q-17 13 -44.5 21.5t-81.5 8.5q-71 0 -104.5 -21.5t-33.5 -56.5 q0 -23 11.5 -42t40.5 -40q25 -17 51 -32l53 -29q27 -14 53 -31t49 -39q38 -36 57.5 -83t19.5 -97q0 -51 -14.5 -95t-43 -76.5t-71 -51.5t-98.5 -19t-98.5 19t-71 51.5t-43 76.5t-14.5 94q0 52 20 96t52 77.5t71.5 55.5t78.5 30v2q-14 6 -31.5 15.5t-31.5 19.5q-34 24 -47 47 t-13 51q0 45 38.5 71.5t119.5 26.5q52 0 81.5 -7.5t44.5 -17.5v-25z"/>
<glyph glyph-name="uni03B5.epsilon" d="M425 370q-14 76 -60 106t-114 30q-36 0 -68.5 -8.5t-56.5 -25.5t-38.5 -41.5t-14.5 -55.5q0 -25 12 -43.5t33 -30.5t50 -18t63 -6h72v-20h-73q-37 0 -69 -6.5t-55 -21t-36.5 -37.5t-13.5 -56q0 -34 16 -58.5t41.5 -40t57.5 -22.5t65 -7q89 0 143.5 39.5t68.5 121.5h20 q-13 -83 -68.5 -132t-163.5 -49q-36 0 -72 8t-64.5 26t-46 46t-17.5 68q0 57 35 90t98 40v2q-60 9 -88 36.5t-28 70.5q0 36 16 64.5t43 47.5t63 29t76 10q82 0 132.5 -38.5t62.5 -117.5h-21z" unicode="ε"/>
<glyph glyph-name="uni03B6.zeta" horiz-adv-x="443" unicode="ζ" d="M74 714h363v-24q-72 -36 -141.5 -78.5t-124.5 -94t-89 -114.5t-34 -141q0 -118 53.5 -180t156.5 -62h42q36 0 58 -7t35 -19t17.5 -29t4.5 -37q0 -18 -5.5 -40t-16.5 -42h-22q11 20 17.5 42.5t6.5 39.5q0 16 -3.5 29t-14 22.5t-29 15t-48.5 5.5h-42q-114 0 -172 67 t-58 195q0 79 32 143t85 116t120 94.5t138 78.5h-329v20z"/>
<glyph glyph-name="uni03B7.eta" d="M55 514h20v-127h2q7 30 22.5 55t39 44t54.5 29.5t69 10.5q40 0 73.5 -12t58 -35.5t38 -58t13.5 -79.5v-518h-20v515q0 45 -13 76.5t-35.5 52t-52 30t-62.5 9.5q-46 0 -81 -17.5t-58.5 -47t-35.5 -68.5t-12 -82v-291h-20v514z" unicode="η"/>
<glyph glyph-name="uni03B8.theta" horiz-adv-x="535" unicode="θ" d="M268 706q-54 0 -93.5 -25t-65.5 -70t-39 -107.5t-14 -136.5h423q-1 74 -14 136.5t-39 107.5t-65.5 70t-92.5 25zM267 8q54 0 93.5 25t65.5 70t39 107t14 137h-423q1 -75 13.5 -137t38.5 -107t65.5 -70t93.5 -25zM36 357q0 81 14 149t42.5 116.5t72 76t103.5 27.5 t103.5 -27.5t72 -76t42 -116.5t13.5 -149t-14 -149t-42.5 -116.5t-72 -76t-103.5 -27.5t-103.5 27.5t-72 76t-42 116.5t-13.5 149z"/>
<glyph glyph-name="uni03B9.iota" horiz-adv-x="136" unicode="ι" d="M110 -1q-22 0 -38.5 11t-16.5 40v464h20v-462q0 -21 12 -27.5t28 -6.5q6 0 12.5 0.5t12.5 1.5v-20q-8 -1 -15 -1h-15z"/>
<glyph glyph-name="uni03BA.kappa" horiz-adv-x="444" unicode="κ" d="M75 0h-20v514h20v-295l355 295h29l-236 -196l253 -318h-27l-241 304l-133 -110v-194z"/>
<glyph glyph-name="uni03BB.lambda" horiz-adv-x="475" unicode="λ" d="M452 -1q-40 0 -53 34l-170 454l-204 -487h-22l215 509l-46 119q-9 23 -19.5 36.5t-24 20t-32.5 8t-44 1.5v20q23 0 43 -1.5t37.5 -8.5t31.5 -21.5t24 -40.5l230 -600q5 -14 14.5 -19t24.5 -5q6 0 12.5 0.5t12.5 1.5v-20q-8 -1 -15 -1h-15z"/>
<glyph glyph-name="uni03BC.mu" horiz-adv-x="556" unicode="μ" d="M452 0v127h-2q-14 -60 -61.5 -99t-123.5 -39q-51 0 -94 20.5t-66 71.5h-2v-257h-20v690h19v-338q0 -45 13 -76.5t35.5 -52t52 -30t62.5 -9.5q46 0 81 17.5t58.5 47t35.5 68.5t12 82v291h20v-514h-20z"/>
<glyph glyph-name="uni03BD.nu" horiz-adv-x="419" unicode="ν" d="M213 20q63 113 112 236.5t73 257.5h21q-26 -136 -75.5 -263t-121.5 -251h-22l-212 514h24l199 -494h2z"/>
<glyph glyph-name="uni03BE.xi" horiz-adv-x="436" unicode="ξ" d="M76 530q0 -39 14 -65.5t38 -43t56 -24t68 -7.5h119v-20h-120q-39 0 -75.5 -10t-64 -31t-44 -53.5t-16.5 -77.5q0 -36 13 -68.5t37.5 -57t60.5 -38.5t82 -14h42q36 0 58 -7t35 -19t17.5 -29t4.5 -37q0 -18 -5.5 -40t-16.5 -42h-22q11 20 17.5 42.5t6.5 39.5q0 16 -3.5 29 t-14 22.5t-29 15t-48.5 5.5h-42q-50 0 -89.5 14.5t-67 40.5t-42 62.5t-14.5 80.5q0 73 42 122t117 59v2q-59 8 -96.5 47t-37.5 102q0 96 55.5 148.5t151.5 52.5q77 0 132 -26v-22q-38 16 -69.5 22t-62.5 6q-87 0 -137 -47.5t-50 -133.5z"/>
<glyph glyph-name="uni03BF.omicron" horiz-adv-x="519" unicode="ο" d="M28 257q0 53 15 101.5t44.5 85.5t72.5 59.5t100 22.5q56 0 99 -22.5t72.5 -59.5t44.5 -85.5t15 -101.5t-15 -101.5t-44.5 -85.5t-72.5 -59t-100 -22q-56 0 -99 22t-72.5 59t-44.5 85.5t-15 101.5zM48 257q0 -49 13.5 -94t40.5 -79.5t66.5 -55t91.5 -20.5q51 0 90.5 20.5 t66.5 55t40.5 79.5t13.5 94q0 48 -13.5 93t-40.5 79.5t-66.5 55.5t-90.5 21q-52 0 -91.5 -21t-66.5 -55.5t-40.5 -79.5t-13.5 -93z"/>
<glyph glyph-name="pi" horiz-adv-x="556" unicode="π" d="M476 -4q-21 0 -33 8.5t-17.5 21.5t-6.5 29t-1 32v407h-294v-494h-20v494h-72v20h482v-20h-76v-414q0 -11 1 -22.5t4.5 -21.5t11 -16t21.5 -6q25 0 44 16v-21q-21 -13 -44 -13z"/>
<glyph glyph-name="uni03C1.rho" horiz-adv-x="537" unicode="ρ" d="M283 8q52 0 90 22.5t62 58t35.5 80t11.5 89.5q0 49 -12.5 94t-37 79.5t-62 54.5t-87.5 20t-88.5 -20t-65 -54t-40.5 -79t-14 -95q0 -121 57 -185.5t151 -64.5zM75 -177h-20v434q0 55 14.5 104t43 86t71 58t99.5 21q51 0 91.5 -20t69 -56t43.5 -85t15 -107 q0 -54 -14.5 -103t-42 -86t-68.5 -59t-94 -22q-82 0 -135 43t-71 113h-2v-321z"/>
<glyph glyph-name="uni03C2.sigma1" d="M51 246q0 -109 54 -167.5t153 -58.5h42q36 0 58 -7t35 -19t17.5 -29t4.5 -37q0 -18 -5.5 -40t-16.5 -42h-22q11 20 17.5 42.5t6.5 39.5q0 16 -3.5 29t-14 22.5t-29 15t-48.5 5.5h-42q-109 0 -168 63t-59 183q0 55 14.5 106t44 89.5t74.5 61.5t107 23q36 0 69 -11t59 -32 t43.5 -52.5t22.5 -72.5h-20q-6 37 -22 65t-39 46.5t-52 27.5t-61 9q-62 0 -104 -23.5t-67.5 -61t-37 -84t-11.5 -91.5z" unicode="ς"/>
<glyph glyph-name="uni03C3.sigma" horiz-adv-x="534" unicode="σ" d="M48 257q0 -49 13.5 -94t40.5 -79.5t66.5 -55t91.5 -20.5q51 0 90 20.5t65.5 55t39.5 79.5t13 94q0 48 -13 91t-39.5 75.5t-65.5 51.5t-90 19q-52 0 -91.5 -19t-66.5 -51.5t-40.5 -75.5t-13.5 -91zM28 257q0 52 15 98.5t44 82t72 56t99 20.5h261v-20h-171 q68 -29 104 -92.5t36 -144.5q0 -53 -14.5 -101.5t-43.5 -86t-71.5 -59.5t-99.5 -22q-56 0 -99.5 22t-72.5 59.5t-44 86t-15 101.5z"/>
<glyph glyph-name="uni03C4.tau" horiz-adv-x="403" unicode="τ" d="M245 -1q-22 0 -38.5 11t-16.5 40v444h-192v20h407v-20h-195v-442q0 -21 12 -27.5t28 -6.5q6 0 12.5 0.5t12.5 1.5v-20q-8 -1 -15 -1h-15z"/>
<glyph glyph-name="uni03C5.upsilon" horiz-adv-x="512" unicode="υ" d="M464 257q0 41 -6.5 80.5t-16 73.5t-20.5 60.5t-21 42.5h23q9 -15 19.5 -40.5t19.5 -58.5t15.5 -73t6.5 -85q0 -58 -16 -107t-45.5 -85t-72 -56.5t-95.5 -20.5q-44 0 -80.5 12t-63 35.5t-41.5 58t-15 79.5v341h20v-338q0 -45 14.5 -76.5t39 -52t57.5 -30t69 -9.5 q48 0 86.5 18.5t66 51.5t42 79t14.5 100z"/>
<glyph glyph-name="uni03C6.phi" horiz-adv-x="606" unicode="φ" d="M48 257q0 -51 18.5 -96t51.5 -79t78 -54t97 -20v498q-52 0 -97 -20t-78 -54t-51.5 -79t-18.5 -96zM558 257q0 51 -18.5 96t-51.5 79t-78 54t-97 20v-498q52 0 97 20t78 54t51.5 79t18.5 96zM293 -12q-57 0 -105.5 21.5t-84 58.5t-55.5 86t-20 103t20 103t55.5 86t84 58.5 t105.5 21.5v140h20v-140q57 0 105.5 -21.5t84 -58.5t55.5 -86t20 -103t-20 -103t-55.5 -86t-84 -58.5t-105.5 -21.5v-165h-20v165z"/>
<glyph glyph-name="uni03C7.chi" horiz-adv-x="407" unicode="χ" d="M419 514l-206 -332l220 -359h-24l-208 339l-210 -339h-24l222 359l-203 332h24l191 -313l194 313h24z"/>
<glyph glyph-name="uni03C8.psi" horiz-adv-x="546" unicode="ψ" d="M498 257q0 41 -6.5 80.5t-16 74t-20.5 61t-21 42.5h23q9 -15 19.5 -40.5t19.5 -59t15.5 -73.5t6.5 -85q0 -58 -16.5 -107t-47 -84.5t-73.5 -55.5t-96 -20v-167h-20v167q-44 0 -82 11.5t-66.5 35t-45 57.5t-16.5 79v341h20v-338q0 -45 16 -76.5t42.5 -51.5t61 -29t70.5 -9 v656h20v-656q48 0 87.5 18t67 51t43 78.5t15.5 99.5z"/>
<glyph glyph-name="uni0400" horiz-adv-x="537" unicode="Ѐ" d="M221 909l124 -144h-15l-138 144h29zM54 714h474v-20h-454v-312h427v-20h-427v-342h458v-20h-478v714z"/>
<glyph glyph-name="afii10023" horiz-adv-x="537" unicode="Ё" d="M211 849h20v-81h-20v81zM366 849h20v-81h-20v81zM54 714h474v-20h-454v-312h427v-20h-427v-342h458v-20h-478v714z"/>
<glyph glyph-name="afii10051" horiz-adv-x="717" unicode="Ђ" d="M490 -13q-10 0 -29.5 0.5t-30.5 2.5v20q11 -2 30.5 -2.5t28.5 -0.5q90 0 141 59.5t51 164.5q0 55 -17.5 94.5t-47 64.5t-69.5 36.5t-85 11.5q-47 0 -88 -18.5t-72.5 -51.5t-49.5 -79.5t-18 -102.5v-186h-20v694h-227v20h534v-20h-287v-392h2q12 36 34.5 64.5t53 49 t67.5 31.5t77 11q47 0 89.5 -13t74.5 -40.5t50.5 -70.5t18.5 -103q0 -56 -14 -101t-41 -76.5t-66 -49t-90 -17.5z"/>
<glyph glyph-name="afii10052" horiz-adv-x="463" unicode="Ѓ" d="M226 787h-15l132 144h29zM54 714h419v-20h-399v-694h-20v714z"/>
<glyph glyph-name="afii10053" horiz-adv-x="685" unicode="Є" d="M351 -16q-80 0 -141 30.5t-102 82t-62 118.5t-21 141q0 83 25 152t69 118.5t105.5 77t135.5 27.5q53 0 101 -16.5t86 -45.5t64 -69t35 -86h-20q-12 46 -37.5 83t-60.5 62t-79 38.5t-92 13.5q-66 0 -121.5 -23.5t-96 -67t-65 -104t-28.5 -134.5h419v-20h-420v-6 q0 -69 19.5 -133t57.5 -112.5t95.5 -78t133.5 -29.5q57 0 103.5 18t82.5 49.5t60.5 74.5t36.5 93h20q-11 -56 -38 -102.5t-67 -80.5t-90.5 -52.5t-107.5 -18.5z"/>
<glyph glyph-name="afii10054" horiz-adv-x="611" unicode="Ѕ" d="M311 -16q-61 0 -112.5 14t-89 44.5t-57.5 77.5t-20 111v6h20q0 -64 19 -108.5t53.5 -72.5t82 -40.5t104.5 -12.5q42 0 83.5 9.5t74.5 30.5t53.5 53.5t20.5 79.5q0 54 -23.5 85.5t-60 50t-81 28t-85.5 19.5q-44 10 -86.5 21t-77 30.5t-55.5 51.5t-21 85t22 88.5t57 56.5 t78.5 30t86.5 9q52 0 97 -11.5t78.5 -37t53.5 -67t23 -101.5h-20q-2 55 -20.5 92.5t-49 61t-72.5 33.5t-90 10q-38 0 -77.5 -7.5t-72 -26.5t-53.5 -50.5t-21 -79.5t21.5 -77t56 -47t78.5 -28t90 -21q50 -13 94.5 -25t77.5 -32t52.5 -53.5t19.5 -88.5q0 -51 -22 -87 t-58 -59.5t-81 -34t-91 -10.5z"/>
<glyph glyph-name="afii10055" horiz-adv-x="128" unicode="І" d="M54 714h20v-714h-20v714z"/>
<glyph glyph-name="afii10056" horiz-adv-x="128" unicode="Ї" d="M-23 849h20v-81h-20v81zM132 849h20v-81h-20v81zM54 714h20v-714h-20v714z"/>
<glyph glyph-name="afii10057" horiz-adv-x="463" unicode="Ј" d="M208 -16q-51 0 -87 14.5t-59 40.5t-33.5 61.5t-10.5 77.5v43h20v-43q0 -175 170 -175q43 0 75.5 10t55 33t34 61t11.5 94v513h20v-528q0 -45 -10.5 -82t-33.5 -64t-60.5 -41.5t-91.5 -14.5z"/>
<glyph glyph-name="afii10058" horiz-adv-x="1126" unicode="Љ" d="M893 20q45 0 81.5 13.5t62 38t39.5 58t14 74.5q0 85 -50 130t-147 45h-268v-359h268zM46 -5q-33 0 -56 5v21q25 -6 55 -6q55 0 86 54t46 148t18 221.5t3 275.5h427v-315h269q106 0 161.5 -51t55.5 -145q0 -46 -15.5 -83.5t-45 -64t-71.5 -41t-95 -14.5h-279v694h-387 q0 -148 -3.5 -275.5t-20 -221.5t-51 -148t-97.5 -54z"/>
<glyph glyph-name="afii10059" horiz-adv-x="1095" unicode="Њ" d="M862 20q45 0 81.5 13.5t62 38t39.5 58t14 74.5q0 85 -50 130t-147 45h-268v-359h268zM54 714h20v-315h500v315h20v-315h269q106 0 161.5 -51t55.5 -145q0 -46 -15.5 -83.5t-45 -64t-71.5 -41t-95 -14.5h-279v379h-500v-379h-20v714z"/>
<glyph glyph-name="afii10060" horiz-adv-x="717" unicode="Ћ" d="M214 694h-227v20h534v-20h-287v-335q11 13 36 29t58.5 30t72.5 23.5t78 9.5q60 0 99.5 -16t63 -46t32.5 -72t9 -93v-224h-20v231q0 58 -14 97t-39 61.5t-58.5 32t-73.5 9.5q-38 0 -76 -9.5t-71 -24.5t-58.5 -32.5t-38.5 -32.5v-332h-20v694z"/>
<glyph glyph-name="afii10061" horiz-adv-x="593" unicode="Ќ" d="M281 787h-15l132 144h29zM54 714h20v-434l495 434h30l-345 -304l365 -410h-27l-354 398l-164 -145v-253h-20v714z"/>
<glyph glyph-name="uni040D" horiz-adv-x="648" unicode="Ѝ" d="M256 909l124 -144h-15l-138 144h29zM54 714h20v-697l489 697h31v-714h-20v697l-489 -697h-31v714z"/>
<glyph glyph-name="afii10062" horiz-adv-x="537" unicode="Ў" d="M268 802q-101 0 -121 107h20q17 -87 102 -87q90 0 104 87h20q-18 -107 -125 -107zM105 -10q-17 0 -35 2t-31 6v22q13 -6 32 -8t36 -2q35 0 67 22t53 68l30 62l-264 552h22l254 -527l255 527h21l-302 -627q-26 -53 -61 -75t-77 -22z"/>
<glyph glyph-name="afii10145" horiz-adv-x="642" unicode="Џ" d="M319 0h-265v714h20v-694h494v694h20v-714h-249v-176h-20v176z"/>
<glyph glyph-name="afii10017" horiz-adv-x="575" unicode="А" d="M462 255l-170 439h-2l-176 -439h348zM278 714h26l282 -714h-22l-94 235h-364l-95 -235h-22z"/>
<glyph glyph-name="afii10018" horiz-adv-x="611" unicode="Б" d="M358 20q45 0 81.5 13.5t62 38t39.5 58.5t14 74q0 85 -50 130t-147 45h-284v-359h284zM54 714h470v-20h-450v-295h285q106 0 161.5 -51t55.5 -145q0 -46 -15.5 -83.5t-45 -64t-71.5 -41t-95 -14.5h-295v714z"/>
<glyph glyph-name="afii10019" horiz-adv-x="611" unicode="В" d="M354 382q36 0 68.5 9.5t57.5 29t40 48.5t15 67q0 40 -14 70t-38.5 49.5t-57.5 29t-71 9.5h-287v-312h287zM351 20q43 0 81 10.5t65.5 32t43.5 54t16 76.5q0 46 -17.5 78.5t-46 52.5t-65 29t-74.5 9h-287v-342h284zM47 714h307q42 0 78.5 -11t64 -33.5t43 -55.5t15.5 -78 q0 -32 -11.5 -61t-31.5 -51t-47.5 -35.5t-60.5 -15.5v-2q35 -1 66.5 -13.5t55 -35t37.5 -55t14 -73.5q0 -48 -17.5 -84.5t-48.5 -60.5t-74.5 -36.5t-94.5 -12.5h-295v714z"/>
<glyph glyph-name="afii10020" horiz-adv-x="463" unicode="Г" d="M54 714h419v-20h-399v-694h-20v714z"/>
<glyph glyph-name="afii10021" horiz-adv-x="690" unicode="Д" d="M580 20v674h-379v-71q0 -60 -2.5 -134t-14 -154t-33.5 -161t-61 -154h490zM0 20h66q42 78 65 163t34.5 169t13.5 162t2 141v59h419v-694h80v-196h-20v176h-640v-176h-20v196z"/>
<glyph glyph-name="afii10022" horiz-adv-x="537" unicode="Е" d="M54 714h474v-20h-454v-312h427v-20h-427v-342h458v-20h-478v714z"/>
<glyph glyph-name="afii10024" horiz-adv-x="978" unicode="Ж" d="M332 404l-304 310h28l423 -434v434h20v-434l423 434h28l-304 -310l343 -404h-27l-330 390l-133 -137v-253h-20v253l-133 137l-330 -390h-27z"/>
<glyph glyph-name="afii10025" horiz-adv-x="594" unicode="З" d="M304 -16q-62 0 -111 17t-83 50t-52.5 80t-18.5 107h20v-3q0 -109 63.5 -170t181.5 -61q52 0 95.5 15t74.5 42t48 64.5t17 82.5q0 72 -51.5 115.5t-142.5 43.5h-100v20h100q85 0 133 40t48 115q0 81 -57 125t-157 44q-112 0 -167 -50t-65 -147h-20q11 103 71.5 160 t180.5 57q52 0 95.5 -12.5t74.5 -36.5t48 -59t17 -81q0 -63 -34.5 -108.5t-110.5 -55.5v-2q33 -2 61.5 -15t50 -35.5t34 -52.5t12.5 -65q0 -51 -19 -92t-53.5 -70.5t-81.5 -45.5t-102 -16z"/>
<glyph glyph-name="afii10026" horiz-adv-x="648" unicode="И" d="M54 714h20v-697l489 697h31v-714h-20v697l-489 -697h-31v714z"/>
<glyph glyph-name="afii10027" horiz-adv-x="648" unicode="Й" d="M322 802q-101 0 -121 107h20q17 -87 102 -87q90 0 104 87h20q-18 -107 -125 -107zM54 0v714h20v-697l489 697h31v-714h-20v697l-489 -697h-31z"/>
<glyph glyph-name="afii10028" horiz-adv-x="593" unicode="К" d="M54 714h20v-434l495 434h30l-345 -304l365 -410h-27l-354 398l-164 -145v-253h-20v714z"/>
<glyph glyph-name="afii10029" horiz-adv-x="679" unicode="Л" d="M46 -5q-33 0 -56 5v21q25 -6 55 -6q55 0 86 54t46 148t18 221.5t3 275.5h427v-714h-20v694h-387q0 -148 -3.5 -275.5t-20 -221.5t-51 -148t-97.5 -54z"/>
<glyph glyph-name="afii10030" horiz-adv-x="780" unicode="М" d="M54 714h33l302 -688h2l302 688h33v-714h-20v689h-2l-303 -689h-22l-303 689h-2v-689h-20v714z"/>
<glyph glyph-name="afii10031" horiz-adv-x="648" unicode="Н" d="M54 714h20v-332h500v332h20v-714h-20v362h-500v-362h-20v714z"/>
<glyph glyph-name="afii10032" horiz-adv-x="721" unicode="О" d="M361 3q72 0 129.5 26.5t97 73.5t61 112t21.5 142t-21.5 142t-61 112t-97 73.5t-129.5 26.5t-129.5 -26.5t-97 -73.5t-61 -112t-21.5 -142t21.5 -142t61 -112t97 -73.5t129.5 -26.5zM361 -16q-80 0 -141.5 29.5t-103 80.5t-63 118.5t-21.5 144.5q0 76 21.5 144t63 119 t103 81t141.5 30t141.5 -30t103 -81t63 -119t21.5 -144q0 -77 -21.5 -144.5t-63 -118.5t-103 -80.5t-141.5 -29.5z"/>
<glyph glyph-name="afii10033" horiz-adv-x="642" unicode="П" d="M54 714h534v-714h-20v694h-494v-694h-20v714z"/>
<glyph glyph-name="afii10034" horiz-adv-x="574" unicode="Р" d="M343 345q42 0 78 11.5t62.5 34t41.5 54.5t15 74q0 85 -48.5 130t-148.5 45h-269v-349h269zM54 714h289q103 0 160 -49t57 -146q0 -47 -17 -83.5t-47 -61t-72 -37t-91 -12.5h-259v-325h-20v714z"/>
<glyph glyph-name="afii10035" horiz-adv-x="685" unicode="С" d="M348 -16q-71 0 -130.5 27.5t-102 76t-66.5 116t-24 147.5q0 65 18.5 132.5t58.5 122.5t104 90t155 35q71 0 124 -23.5t88.5 -59t53.5 -75.5t19 -73h-20q-3 39 -23 76.5t-54.5 67.5t-82 48.5t-105.5 18.5q-59 0 -105 -16.5t-81 -44t-60 -64t-40.5 -76.5t-22.5 -81t-7 -78 q0 -68 20 -131t59 -111t95.5 -77t128.5 -29q64 0 115 21t88 58t60 88t31 110h20q-9 -65 -34 -119.5t-64.5 -93.5t-94 -61t-121.5 -22z"/>
<glyph glyph-name="afii10036" d="M240 694h-256v20h533v-20h-257v-694h-20v694z" unicode="Т"/>
<glyph glyph-name="afii10037" horiz-adv-x="537" unicode="У" d="M105 -10q-17 0 -35.5 1.5t-30.5 6.5v22q13 -5 32 -7.5t36 -2.5q35 0 66.5 22t53.5 68l30 62l-264 552h22l254 -527l255 527h21l-302 -627q-26 -54 -61 -75.5t-77 -21.5z"/>
<glyph glyph-name="afii10038" horiz-adv-x="738" unicode="Ф" d="M379 90q73 0 131.5 17.5t100 52t64 84.5t22.5 116t-22.5 116.5t-64 85t-100 52t-131.5 17.5v-541zM359 631q-73 0 -131.5 -17.5t-100 -52t-64 -85t-22.5 -116.5t22.5 -116t64 -84.5t100 -52t131.5 -17.5v541zM359 70q-75 0 -137.5 18.5t-107 55.5t-69.5 91t-25 125 t25 125.5t69.5 91t107 55.5t137.5 19v80h20v-80q75 0 137.5 -19t107 -55.5t69.5 -91t25 -125.5t-25 -125t-69.5 -91t-107 -55.5t-137.5 -18.5v-86h-20v86z"/>
<glyph glyph-name="afii10039" horiz-adv-x="520" unicode="Х" d="M248 367l-259 347h25l247 -331l249 331h25l-260 -347l272 -367h-25l-261 351l-262 -351h-25z"/>
<glyph glyph-name="afii10040" horiz-adv-x="664" unicode="Ц" d="M634 0h-580v714h20v-694h480v694h20v-694h80v-196h-20v176z"/>
<glyph glyph-name="afii10041" horiz-adv-x="578" unicode="Ч" d="M504 353q-20 -9 -48 -19.5t-60.5 -19.5t-68 -15t-69.5 -6q-81 0 -126.5 15t-67 46t-26 77.5t-4.5 109.5v173h20v-171q0 -59 3.5 -102.5t23 -72t61 -42t116.5 -13.5q29 0 62 5.5t65.5 14t63 19t55.5 21.5v341h20v-714h-20v353z"/>
<glyph glyph-name="afii10042" horiz-adv-x="988" unicode="Ш" d="M54 714h20v-694h410v694h20v-694h410v694h20v-714h-880v714z"/>
<glyph glyph-name="afii10043" horiz-adv-x="1024" unicode="Щ" d="M994 0h-940v714h20v-694h410v694h20v-694h410v694h20v-694h80v-196h-20v176z"/>
<glyph glyph-name="afii10044" horiz-adv-x="718" unicode="Ъ" d="M485 20q45 0 81.5 13.5t62 38t39.5 58t14 74.5q0 85 -50 130t-147 45h-268v-359h268zM197 694h-216v20h236v-315h269q106 0 161.5 -51t55.5 -145q0 -46 -15.5 -83.5t-45 -64t-71.5 -41t-95 -14.5h-279v694z"/>
<glyph glyph-name="afii10045" horiz-adv-x="778" unicode="Ы" d="M704 714h20v-714h-20v714zM343 20q45 0 81.5 13.5t62 38t39.5 58t14 74.5q0 85 -50 130t-147 45h-269v-359h269zM54 714h20v-315h270q106 0 161.5 -51t55.5 -145q0 -46 -15.5 -83.5t-45 -64t-71.5 -41t-95 -14.5h-280v714z"/>
<glyph glyph-name="afii10046" horiz-adv-x="575" unicode="Ь" d="M342 20q45 0 81.5 13.5t62 38t39.5 58t14 74.5q0 85 -50 130t-147 45h-268v-359h268zM54 714h20v-315h269q106 0 161.5 -51t55.5 -145q0 -46 -15.5 -83.5t-45 -64t-71.5 -41t-95 -14.5h-279v714z"/>
<glyph glyph-name="afii10047" horiz-adv-x="685" unicode="Э" d="M330 -16q-62 0 -113.5 18.5t-91 52.5t-64.5 80.5t-34 102.5h20q10 -50 34 -93t60 -74.5t84 -49.5t105 -18q76 0 133 29.5t95 78t57 112.5t19 133v6h-419v20h418q-3 74 -27 134.5t-64 104t-95 67t-119 23.5q-48 0 -92 -13.5t-79.5 -38.5t-61.5 -62t-38 -83h-20q9 46 35 86 t64.5 69t87 45.5t101.5 16.5q73 0 134 -27.5t104 -77t67 -118.5t24 -152q0 -74 -20.5 -141t-61 -118.5t-101.5 -82t-141 -30.5z"/>
<glyph glyph-name="afii10048" horiz-adv-x="903" unicode="Ю" d="M562 3q68 0 122 26.5t91 73.5t56.5 112t19.5 142t-19.5 142t-56.5 112t-91 73.5t-122 26.5t-122 -26.5t-91 -73.5t-56.5 -112t-19.5 -142t19.5 -142t56.5 -112t91 -73.5t122 -26.5zM562 -16q-76 0 -134 29.5t-97 80.5t-58.5 118.5t-19.5 144.5v6h-179v-363h-20v714h20 v-332h179q3 72 24.5 135.5t60.5 111t95 75t129 27.5q76 0 134 -30t97 -81t58.5 -119t19.5 -144q0 -77 -19.5 -144.5t-58.5 -118.5t-97 -80.5t-134 -29.5z"/>
<glyph glyph-name="afii10049" horiz-adv-x="613" unicode="Я" d="M539 344v350h-276q-97 0 -145 -45.5t-48 -126.5q0 -42 14 -75.5t39.5 -56t61 -34.5t78.5 -12h276zM267 324q-48 0 -88.5 12.5t-69 37.5t-44.5 61t-16 84q0 94 54.5 144.5t163.5 50.5h292v-714h-20v324h-246l-260 -324h-25z"/>
<glyph glyph-name="afii10065" horiz-adv-x="481" unicode="а" d="M192 8q50 0 89 17t65.5 44.5t40 63.5t13.5 74v95h-2q-10 -14 -31 -21.5t-48 -11.5t-58.5 -5t-61.5 -3t-58.5 -7.5t-50.5 -20t-35 -40t-13 -66.5q0 -22 7.5 -43.5t25.5 -38t46.5 -27t70.5 -10.5zM194 -11q-78 0 -125 34.5t-47 103.5q0 48 15.5 77t40.5 45.5t57 23t64 8.5 q53 3 91 5.5t62.5 10t36 23t11.5 44.5q0 23 -4 48t-19.5 46t-45.5 34.5t-81 13.5q-81 0 -126 -39.5t-50 -111.5h-20q2 36 15 67.5t37.5 54.5t60 36t83.5 13q34 0 64.5 -7t53.5 -24.5t37 -45.5t15 -70v-327q0 -15 6.5 -22t16 -9.5t21 -2t21.5 1.5v-20h-30q-22 0 -38.5 10.5 t-16.5 39.5v67h-2q-8 -25 -26 -48t-44 -41t-60 -28.5t-74 -10.5z"/>
<glyph glyph-name="afii10066" horiz-adv-x="530" unicode="б" d="M273 8q46 0 84.5 18t66 51t43 78.5t15.5 101.5q0 54 -15.5 97.5t-43 74t-66 46.5t-84.5 16q-42 0 -81 -16t-68 -46t-46.5 -72.5t-17.5 -94.5q0 -57 13 -104t39.5 -80t66.5 -51.5t94 -18.5zM272 -11q-101 0 -153.5 50.5t-72.5 148.5q-4 21 -5 44.5t-1 49.5q0 82 8 150.5 t32 120t66.5 83t111.5 39.5l124 14q28 3 46.5 12t22.5 29h20q-3 -14 -8.5 -24t-16 -17.5t-28 -12.5t-44.5 -8l-109 -12q-56 -6 -94 -28.5t-62 -61t-36 -93t-16 -124.5h2q15 46 40 77t54 50t60.5 27t59.5 8q52 0 94.5 -17.5t72.5 -50.5t46 -80t16 -106t-17 -108t-48 -84.5 t-73 -55.5t-92 -20z"/>
<glyph glyph-name="afii10067" horiz-adv-x="488" unicode="в" d="M281 279q60 0 95.5 30t35.5 81q0 54 -35 79t-95 25h-207v-215h206zM279 20q70 0 109.5 30t39.5 90q0 57 -39 88.5t-108 31.5h-206v-240h204zM55 514h233q66 0 105 -33.5t39 -90.5q0 -51 -28.5 -82t-79.5 -36v-2q55 -5 89.5 -37.5t34.5 -92.5q0 -66 -48 -103t-127 -37 h-218v514z"/>
<glyph glyph-name="afii10068" horiz-adv-x="368" unicode="г" d="M61 514h313v-20h-293v-494h-20v514z"/>
<glyph glyph-name="afii10069" horiz-adv-x="527" unicode="д" d="M438 20v474h-280q0 -53 -2 -113t-9.5 -122.5t-23 -123.5t-43.5 -115h358zM0 20h58q28 54 44 115.5t24.5 125.5t10.5 128.5t2 124.5h319v-494h68v-186h-20v166h-486v-166h-20v186z"/>
<glyph glyph-name="afii10070" d="M455 273q0 47 -13 89.5t-38.5 74.5t-63.5 50.5t-88 18.5q-42 0 -78.5 -16t-64 -46.5t-44.5 -73.5t-20 -97h410zM250 -11q-60 0 -102.5 20.5t-69.5 56.5t-40 85t-13 106q0 64 19 114t50 84.5t71.5 52.5t84.5 18q60 0 103.5 -23t71 -61t39 -84t11.5 -91v-14h-430 q1 -52 12.5 -96.5t35.5 -77.5t62 -52t93 -19q81 0 134.5 42.5t66.5 127.5h20q-6 -45 -24.5 -80t-47 -59.5t-66 -37t-81.5 -12.5z" unicode="е"/>
<glyph glyph-name="afii10072" horiz-adv-x="702" unicode="ж" d="M-13 0l237 299l-213 215h28l302 -305v305h20v-305l302 305h28l-213 -215l237 -299h-26l-226 285l-102 -102v-183h-20v183l-102 102l-226 -285h-26z"/>
<glyph glyph-name="afii10073" horiz-adv-x="463" unicode="з" d="M222 -15q-100 0 -147 49t-47 134v2h20v-3q0 -78 44.5 -120.5t129.5 -42.5q38 0 71 10.5t57.5 29.5t38.5 45.5t14 59.5q0 51 -37.5 81t-103.5 30h-74v20h74q61 0 96 27.5t35 81.5q0 58 -45 87.5t-117 29.5q-81 0 -120 -33.5t-47 -102.5h-20q7 74 50.5 115t136.5 41 q82 0 132 -35.5t50 -101.5q0 -45 -23.5 -77.5t-80.5 -39.5v-2q24 -1 44.5 -10.5t36 -25.5t24.5 -38t9 -47q0 -36 -14.5 -66.5t-41 -52t-63.5 -33.5t-82 -12z"/>
<glyph glyph-name="afii10074" horiz-adv-x="510" unicode="и" d="M55 514h20v-496h2l347 496h31v-514h-20v496h-2l-347 -496h-31v514z"/>
<glyph glyph-name="afii10075" horiz-adv-x="510" unicode="й" d="M261 602q-101 0 -121 107h20q17 -87 102 -87q90 0 104 87h20q-18 -107 -125 -107zM55 0v514h20v-496h2l347 496h31v-514h-20v496h-2l-347 -496h-31z"/>
<glyph glyph-name="afii10076" horiz-adv-x="444" unicode="к" d="M55 514h20v-307l345 307h29l-233 -208l245 -306h-27l-233 292l-126 -111v-181h-20v514z"/>
<glyph glyph-name="afii10077" horiz-adv-x="529" unicode="л" d="M47 -6q-35 0 -57 6v22q12 -4 25 -6t31 -2q42 0 64.5 41.5t33 111t12.5 159.5t2 188h316v-514h-20v494h-276q0 -95 -2 -185t-14.5 -160t-39 -112.5t-75.5 -42.5z"/>
<glyph glyph-name="afii10078" horiz-adv-x="612" unicode="м" d="M55 514h31l220 -493l220 493h31v-514h-20v490h-2l-217 -490h-24l-217 490h-2v-490h-20v514z"/>
<glyph glyph-name="afii10079" d="M55 514h20v-236h350v236h20v-514h-20v258h-350v-258h-20v514z" unicode="н"/>
<glyph glyph-name="afii10080" horiz-adv-x="519" unicode="о" d="M260 8q51 0 90.5 20.5t66.5 55t40.5 79.5t13.5 94q0 48 -13.5 93t-40.5 79.5t-66.5 55.5t-90.5 21q-52 0 -91.5 -21t-66.5 -55.5t-40.5 -79.5t-13.5 -93q0 -49 13.5 -94t40.5 -79.5t66.5 -55t91.5 -20.5zM259 -11q-56 0 -99 22t-72.5 59t-44.5 85.5t-15 101.5 q0 52 15 101t44.5 86t72.5 59.5t100 22.5q56 0 99 -22.5t72.5 -59.5t44.5 -86t15 -101q0 -53 -15 -101.5t-44.5 -85.5t-72.5 -59t-100 -22z"/>
<glyph glyph-name="afii10081" horiz-adv-x="490" unicode="п" d="M55 514h380v-514h-20v494h-340v-494h-20v514z"/>
<glyph glyph-name="afii10082" horiz-adv-x="537" unicode="р" d="M283 8q52 0 90 22.5t62 58t35.5 80t11.5 89.5q0 49 -12.5 94t-37 79.5t-62 54.5t-87.5 20t-88.5 -20t-65 -54t-40.5 -79t-14 -95q0 -121 57 -185.5t151 -64.5zM55 514h20v-144h2q10 34 29 62.5t45 49.5t59.5 32.5t72.5 11.5q51 0 91.5 -20t69 -56t43.5 -85t15 -107 q0 -54 -14.5 -103t-42 -86t-68.5 -58.5t-94 -21.5q-82 0 -135 42.5t-71 112.5h-2v-320h-20v690z"/>
<glyph glyph-name="afii10083" d="M259 -11q-55 0 -97.5 20.5t-71.5 55.5t-44 81.5t-15 99.5q0 55 14.5 106t44 89.5t74.5 61.5t107 23q36 0 69 -11t59 -32t43.5 -52.5t22.5 -72.5h-20q-6 37 -22 65t-39 46.5t-52 27.5t-61 9q-62 0 -104 -23.5t-67.5 -61t-37 -84t-11.5 -91.5q0 -47 13.5 -90t39.5 -76 t65 -52.5t90 -19.5q37 0 70.5 11.5t59 33.5t41.5 52.5t19 69.5h20q-4 -43 -21 -77.5t-44.5 -58.5t-64.5 -37t-80 -13z" unicode="с"/>
<glyph glyph-name="afii10084" horiz-adv-x="407" unicode="т" d="M194 494h-201v20h422v-20h-201v-494h-20v494z"/>
<glyph glyph-name="afii10085" horiz-adv-x="407" unicode="у" d="M46 -156q26 0 44.5 1.5t32.5 8t24 20t19 36.5l37 95l-214 509h21l204 -487l184 487h21l-237 -618q-10 -26 -24 -40.5t-31.5 -21.5t-37.5 -8.5t-43 -1.5v20z"/>
<glyph glyph-name="afii10086" horiz-adv-x="756" unicode="ф" d="M533 9q36 0 66.5 15.5t53 46.5t35.5 77.5t13 108.5q0 64 -12.5 110.5t-35 77.5t-53.5 46t-68 15q-27 0 -53 -9t-46.5 -26t-32.5 -40.5t-12 -51.5v-240q0 -30 12 -54t32.5 -41t46.5 -26t54 -9zM223 9q28 0 54 9t46.5 26t32.5 41t12 54v240q0 28 -12 51.5t-32.5 40.5 t-46.5 26t-53 9q-37 0 -68 -15t-53.5 -46t-35 -77.5t-12.5 -110.5q0 -62 13 -108.5t35.5 -77.5t53 -46.5t66.5 -15.5zM368 72q-16 -35 -55.5 -59t-89.5 -24q-41 0 -75.5 17.5t-59.5 51.5t-39 84t-14 115q0 135 51.5 202t137.5 67q21 0 43 -5.5t41.5 -16t35 -26t24.5 -35.5 v271h20v-271q8 20 24 35.5t35.5 26t41.5 16t43 5.5q86 0 137.5 -67t51.5 -202q0 -65 -14 -115t-39 -84t-59.5 -51.5t-75.5 -17.5q-26 0 -49 6.5t-42.5 18t-33.5 26.5t-20 32v-248h-20v248z"/>
<glyph glyph-name="afii10087" horiz-adv-x="407" unicode="х" d="M191 266l-187 248h26l173 -233l177 233h24l-188 -248l206 -266h-25l-194 251l-193 -251h-24z"/>
<glyph glyph-name="afii10088" horiz-adv-x="510" unicode="ц" d="M489 0h-434v514h20v-494h340v494h20v-494h74v-186h-20v166z"/>
<glyph glyph-name="afii10089" horiz-adv-x="462" unicode="ч" d="M387 245q-34 -15 -83 -29t-106 -14q-39 0 -69.5 7t-51 24t-31.5 45.5t-11 71.5v164h20v-161q0 -75 38.5 -103t104.5 -28q57 0 105.5 14t83.5 31v247h20v-514h-20v245z"/>
<glyph glyph-name="afii10090" horiz-adv-x="758" unicode="ш" d="M55 514h20v-494h294v494h20v-494h294v494h20v-514h-648v514z"/>
<glyph glyph-name="afii10091" horiz-adv-x="778" unicode="щ" d="M757 0h-702v514h20v-494h294v494h20v-494h294v494h20v-494h74v-186h-20v166z"/>
<glyph glyph-name="afii10092" horiz-adv-x="561" unicode="ъ" d="M384 20q69 0 106 34.5t37 91.5t-33.5 89.5t-102.5 32.5h-208v-248h201zM163 494h-173v20h193v-226h208q75 0 115.5 -38t40.5 -104t-43.5 -106t-119.5 -40h-221v494z"/>
<glyph glyph-name="afii10093" horiz-adv-x="611" unicode="ы" d="M536 514h20v-514h-20v514zM265 20q69 0 106 34.5t37 91.5t-33.5 89.5t-102.5 32.5h-197v-248h190zM55 514h20v-226h197q75 0 115.5 -38t40.5 -104t-43.5 -106t-119.5 -40h-210v514z"/>
<glyph glyph-name="afii10094" horiz-adv-x="453" unicode="ь" d="M276 20q69 0 106 34.5t37 91.5t-33.5 89.5t-102.5 32.5h-208v-248h201zM55 514h20v-226h208q75 0 115.5 -38t40.5 -104t-43.5 -106t-119.5 -40h-221v514z"/>
<glyph glyph-name="afii10095" d="M237 -11q-42 0 -78.5 13.5t-64 37.5t-45 57.5t-21.5 74.5h21q12 -78 62 -121.5t128 -43.5q46 0 84 18t65 50.5t42 78t15 101.5v3h-280v20h279q-3 53 -20 95.5t-45 72t-65.5 45.5t-81.5 16q-73 0 -120 -37.5t-58 -100.5h-20q12 73 65 115t134 42q52 0 95 -19.5t73.5 -54.5 t47 -85t16.5 -111t-16 -110t-45.5 -84t-72 -54t-94.5 -19z" unicode="э"/>
<glyph glyph-name="afii10096" horiz-adv-x="699" unicode="ю" d="M440 8q46 0 85 18t67 51t43.5 78.5t15.5 101.5q0 54 -15.5 100t-43.5 79t-67 51.5t-85 18.5t-84.5 -18.5t-67 -51t-44.5 -77.5t-16 -97q0 -57 15.5 -104t43 -80t66.5 -51.5t87 -18.5zM439 -12q-50 0 -92.5 19.5t-73 55t-48 83.5t-17.5 105v6h-133v-257h-20v514h20v-238 h134q3 56 21 102t48.5 79t71.5 51t90 18q51 0 93 -20t73 -55.5t48 -85t17 -108.5t-17 -108.5t-47.5 -85t-73.5 -55.5t-94 -20z"/>
<glyph glyph-name="afii10097" horiz-adv-x="477" unicode="я" d="M402 245v249h-201q-70 0 -106.5 -31t-36.5 -88q0 -63 38 -96.5t101 -33.5h205zM187 225q-32 1 -59 12t-47 30t-31.5 46t-11.5 62q0 66 44 102.5t119 36.5h221v-514h-20v225h-189l-187 -225h-27z"/>
<glyph glyph-name="uni0450" d="M177 709l124 -144h-15l-138 144h29zM455 273q0 47 -13 89.5t-38.5 74.5t-63.5 50.5t-88 18.5q-42 0 -78.5 -16t-64 -46.5t-44.5 -73.5t-20 -97h410zM250 -11q-60 0 -102.5 20.5t-69.5 56.5t-40 85t-13 106q0 64 19 114t50 84.5t71.5 52.5t84.5 18q60 0 103.5 -23t71 -61 t39 -84t11.5 -91v-14h-430q1 -52 12.5 -96.5t35.5 -77.5t62 -52t93 -19q81 0 134.5 42.5t66.5 127.5h20q-6 -45 -24.5 -80t-47 -59.5t-66 -37t-81.5 -12.5z" unicode="ѐ"/>
<glyph glyph-name="afii10071" d="M162 649h20v-81h-20v81zM317 649h20v-81h-20v81zM455 273q0 47 -13 89.5t-38.5 74.5t-63.5 50.5t-88 18.5q-42 0 -78.5 -16t-64 -46.5t-44.5 -73.5t-20 -97h410zM250 -11q-60 0 -102.5 20.5t-69.5 56.5t-40 85t-13 106q0 64 19 114t50 84.5t71.5 52.5t84.5 18 q60 0 103.5 -23t71 -61t39 -84t11.5 -91v-14h-430q1 -52 12.5 -96.5t35.5 -77.5t62 -52t93 -19q81 0 134.5 42.5t66.5 127.5h20q-6 -45 -24.5 -80t-47 -59.5t-66 -37t-81.5 -12.5z" unicode="ё"/>
<glyph glyph-name="afii10099" horiz-adv-x="510" unicode="ђ" d="M243 -188h-17t-18 1v20q7 -1 18.5 -1.5t21.5 -0.5q90 0 138.5 46.5t48.5 153.5v297q0 78 -43 123t-119 45q-42 0 -76.5 -15.5t-59.5 -44t-38.5 -68t-13.5 -87.5v-281h-20v593h-80v19h80v102h20v-102h251v-19h-251v-216h2q7 29 22.5 54.5t39 44t54.5 29.5t69 11 q84 0 133.5 -50t49.5 -135v-299q0 -106 -50 -163t-162 -57z"/>
<glyph glyph-name="afii10100" horiz-adv-x="368" unicode="ѓ" d="M174 565h-15l132 144h29zM61 514h313v-20h-293v-494h-20v514z"/>
<glyph glyph-name="afii10101" d="M263 -11q-51 0 -93 18t-72 52.5t-46.5 84t-16.5 112.5q0 61 16.5 111t47 85t73 54.5t95.5 19.5q81 0 134 -42t66 -115h-20q-11 63 -58.5 100.5t-120.5 37.5q-45 0 -82.5 -16t-65.5 -45.5t-44.5 -72t-19.5 -95.5h279v-20h-280v-3q0 -56 15 -101.5t42 -78t65 -50.5t84 -18 q78 0 128.5 43.5t61.5 121.5h21q-14 -87 -68 -135t-141 -48z" unicode="є"/>
<glyph glyph-name="afii10102" horiz-adv-x="463" unicode="ѕ" d="M238 -11q-103 0 -155.5 45t-52.5 142h20q0 -88 48.5 -128t139.5 -40q28 0 57.5 6.5t53.5 21t39.5 37.5t15.5 56q0 34 -15.5 55t-40 34.5t-56.5 21.5t-65 16q-37 9 -65 17t-50 18q-32 14 -47 39t-15 67q0 21 9 44t30 42t54 31t81 12q86 0 136 -39t50 -125h-20q0 39 -12 66 t-34 44.5t-52.5 25.5t-67.5 8q-54 0 -85 -14.5t-46 -33t-19 -36.5t-4 -25q0 -38 15.5 -58.5t41.5 -31.5q27 -11 58.5 -19t73.5 -19q30 -8 59.5 -16.5t53 -23.5t38 -38t14.5 -60q0 -39 -16.5 -66t-43 -44t-60 -24.5t-66.5 -7.5z"/>
<glyph glyph-name="afii10103" horiz-adv-x="130" unicode="і" d="M55 714h20v-101h-20v101zM55 514h20v-514h-20v514z"/>
<glyph glyph-name="afii10104" horiz-adv-x="130" unicode="ї" d="M55 514h20v-514h-20v514zM-22 649h20v-81h-20v81zM133 649h20v-81h-20v81z"/>
<glyph glyph-name="afii10105" horiz-adv-x="130" unicode="ј" d="M55 714h20v-101h-20v101zM-48 -156q28 0 48 2t32 10.5t17.5 26.5t5.5 50v581h20v-588q0 -35 -8.5 -55.5t-24 -31t-38.5 -13t-52 -2.5v20z"/>
<glyph glyph-name="afii10106" horiz-adv-x="852" unicode="љ" d="M675 20q69 0 106 34.5t37 91.5t-33.5 89.5t-102.5 32.5h-208v-248h201zM47 -6q-35 0 -57 6v22q12 -4 25 -6t31 -2q42 0 64.5 41.5t33 111t12.5 159.5t2 188h316v-226h208q75 0 115.5 -38t40.5 -104t-43.5 -106t-119.5 -40h-221v494h-276q0 -95 -2 -185t-14.5 -160 t-39 -112.5t-75.5 -42.5z"/>
<glyph glyph-name="afii10107" horiz-adv-x="823" unicode="њ" d="M646 20q69 0 106 34.5t37 91.5t-33.5 89.5t-102.5 32.5h-208v-248h201zM55 514h20v-226h350v226h20v-226h208q75 0 115.5 -38t40.5 -104t-43.5 -106t-119.5 -40h-221v268h-350v-268h-20v514z"/>
<glyph glyph-name="afii10108" horiz-adv-x="510" unicode="ћ" d="M65 593h-80v19h80v102h20v-102h251v-19h-251v-216h2q15 60 62.5 99.5t122.5 39.5q84 0 133.5 -50t49.5 -135v-331h-20v328q0 78 -43 123t-119 45q-42 0 -76.5 -15.5t-59.5 -44t-38.5 -68t-13.5 -87.5v-281h-20v593z"/>
<glyph glyph-name="afii10109" horiz-adv-x="444" unicode="ќ" d="M206 565h-15l132 144h29zM55 514h20v-307l345 307h29l-233 -208l245 -306h-27l-233 292l-126 -111v-181h-20v514z"/>
<glyph glyph-name="uni045D" horiz-adv-x="510" unicode="ѝ" d="M187 709l124 -144h-15l-138 144h29zM55 514h20v-496h2l347 496h31v-514h-20v496h-2l-347 -496h-31v514z"/>
<glyph glyph-name="afii10110" horiz-adv-x="407" unicode="ў" d="M214 602q-101 0 -121 107h20q17 -87 102 -87q90 0 104 87h20q-18 -107 -125 -107zM46 -176v20q26 0 44 2t33 8q14 6 24 20t19 36l37 95l-214 509h21l204 -487l184 487h21l-237 -618q-10 -26 -24 -40t-32 -22q-18 -6 -37 -8q-20 -2 -43 -2z"/>
<glyph glyph-name="afii10193" horiz-adv-x="490" unicode="џ" d="M234 0h-179v514h20v-494h340v494h20v-514h-181v-177h-20v177z"/>
<glyph glyph-name="afii10146" horiz-adv-x="687" unicode="Ѣ" d="M449 20q45 0 81.5 13.5t62 38t39.5 58t14 74.5q0 85 -50 130t-147 45h-268v-359h268zM161 570h-171v20h171v124h20v-124h273v-20h-273v-171h269q106 0 161.5 -51t55.5 -145q0 -46 -15.5 -83.5t-45 -64t-71.5 -41t-95 -14.5h-279v570z"/>
<glyph glyph-name="afii10194" horiz-adv-x="529" unicode="ѣ" d="M352 20q69 0 106 34.5t37 91.5t-33.5 89.5t-102.5 32.5h-208v-248h201zM131 494h-141v20h141v200h20v-200h241v-20h-241v-206h208q75 0 115.5 -38t40.5 -104t-43.5 -106t-119.5 -40h-221v494z"/>
<glyph glyph-name="uni046A" horiz-adv-x="920" unicode="Ѫ" d="M693 694h-465l232 -300zM54 134q0 63 4.5 109.5t26 77.5t67 46t126.5 15h166l-256 332h546l-257 -332h165q81 0 126.5 -15t67 -46t26 -77.5t4.5 -109.5v-134h-20v132q0 59 -3.5 102.5t-23 72t-61 42t-116.5 13.5h-172v-362h-20v362h-172q-75 0 -116.5 -13.5t-61 -42 t-23 -72t-3.5 -102.5v-132h-20v134z"/>
<glyph glyph-name="uni046B" horiz-adv-x="674" unicode="ѫ" d="M497 494h-319l158 -207zM40 130q0 43 11 71.5t31.5 45.5t51 24t69.5 7h116l-182 236h400l-183 -236h117q39 0 69.5 -7t51 -24t31.5 -45.5t11 -71.5v-130h-20v127q0 75 -38.5 103t-104.5 28h-124v-258h-20v258h-124q-66 0 -104.5 -28t-38.5 -103v-127h-20v130z"/>
<glyph glyph-name="afii10147" horiz-adv-x="721" unicode="Ѳ" d="M511 344q31 0 54.5 7.5t42 19.5t32 26t25.5 28q-9 63 -33.5 116t-63.5 90.5t-91 58.5t-116 21q-71 0 -127 -25.5t-95.5 -71t-61.5 -108t-25 -137.5q29 36 68.5 54.5t84.5 18.5q32 0 72 -15.5t81 -33.5t81 -33.5t72 -15.5zM361 3q72 0 129.5 26.5t97 73.5t61 112t21.5 142 q0 11 -0.5 21t-1.5 20q-12 -14 -26 -27t-33 -23.5t-42.5 -17t-53.5 -6.5q-38 0 -80 15.5t-83.5 33.5t-79 33.5t-65.5 15.5q-51 0 -87 -20t-65 -68q4 -72 26.5 -133t62 -105t95 -68.5t124.5 -24.5zM361 -16q-80 0 -141.5 29.5t-103 80.5t-63 118.5t-21.5 144.5q0 76 21.5 144 t63 119t103 81t141.5 30t141.5 -30t103 -81t63 -119t21.5 -144q0 -77 -21.5 -144.5t-63 -118.5t-103 -80.5t-141.5 -29.5z"/>
<glyph glyph-name="afii10195" horiz-adv-x="519" unicode="ѳ" d="M370 241q29 0 54.5 12.5t44.5 36.5q-5 43 -20.5 82t-41.5 69t-63 47.5t-84 17.5q-50 0 -88 -19t-65 -51t-41.5 -73.5t-17.5 -86.5q17 16 40.5 28.5t59.5 12.5q26 0 56 -12t60 -26t57.5 -26t48.5 -12zM260 8q51 0 90.5 20.5t66.5 55t40.5 79.5t13.5 94v6 q-17 -17 -41 -29.5t-62 -12.5q-25 0 -53.5 12t-58 26.5t-59 26.5t-55.5 12q-56 0 -94 -50q1 -48 15 -91.5t41 -76.5t66 -52.5t90 -19.5zM259 -11q-56 0 -99 22t-72.5 59t-44.5 85.5t-15 101.5q0 52 15 101t44.5 86t72.5 59.5t100 22.5q56 0 99 -22.5t72.5 -59.5t44.5 -86 t15 -101q0 -53 -15 -101.5t-44.5 -85.5t-72.5 -59t-100 -22z"/>
<glyph glyph-name="afii10148" horiz-adv-x="554" unicode="Ѵ" d="M-17 714h19l260 -688h2l220 608q17 46 40 70t59 24q17 0 26 -1.5t20 -3.5v-21q-13 3 -21.5 4.5t-23.5 1.5q-27 0 -46 -20t-33 -58l-231 -630h-22z"/>
<glyph glyph-name="afii10196" horiz-adv-x="443" unicode="ѵ" d="M-11 514h23l189 -494h2l150 431q13 36 34 55.5t54 19.5q17 0 27 -2t15 -4v-20q-8 2 -19 4t-22 2q-27 0 -44 -17.5t-28 -49.5l-155 -439h-25z"/>
<glyph glyph-name="Izhitsadblgravecyrillic" horiz-adv-x="554" unicode="Ѷ" d="M-17 714h19l260 -688h2l220 608q17 46 40 70t59 24q17 0 26 -1.5t20 -3.5v-21q-13 3 -21.5 4.5t-23.5 1.5q-27 0 -46 -20t-33 -58l-231 -630h-22zM224 919h29l131 -144h-15zM74 919h29l132 -144h-15z"/>
<glyph glyph-name="izhitsadblgravecyrillic" horiz-adv-x="443" unicode="ѷ" d="M-11 514h23l189 -494h2l150 431q13 36 34 55.5t54 19.5q17 0 27 -2t15 -4v-20q-8 2 -19 4t-22 2q-27 0 -44 -17.5t-28 -49.5l-155 -439h-25zM163 723h29l131 -144h-15zM13 723h29l132 -144h-15z"/>
<glyph glyph-name="uni048C" horiz-adv-x="687" unicode="Ҍ" d="M449 20q45 0 81.5 13.5t62 38t39.5 58t14 74.5q0 85 -50 130t-147 45h-268v-359h268zM161 694h-171v20h171v124h20v-124h193v-20h-193v-295h269q106 0 161.5 -51t55.5 -145q0 -46 -15.5 -83.5t-45 -64t-71.5 -41t-95 -14.5h-279v694z"/>
<glyph glyph-name="uni048D" horiz-adv-x="539" unicode="ҍ" d="M362 20q69 0 106 34.5t37 91.5t-33.5 89.5t-102.5 32.5h-208v-248h201zM141 494h-151v20h151v116h20v-116h151v-20h-151v-206h208q75 0 115.5 -38t40.5 -104t-43.5 -106t-119.5 -40h-221v494z"/>
<glyph glyph-name="afii10050" horiz-adv-x="463" unicode="Ґ" d="M54 714h399v161h20v-181h-399v-694h-20v714z"/>
<glyph glyph-name="afii10098" horiz-adv-x="368" unicode="ґ" d="M61 514h293v157h20v-177h-293v-494h-20v514z"/>
<glyph glyph-name="uni0492" horiz-adv-x="552" unicode="Ғ" d="M143 362h-123v20h123v332h419v-20h-399v-312h231v-20h-231v-362h-20v362z"/>
<glyph glyph-name="uni0493" horiz-adv-x="430" unicode="ғ" d="M113 255h-96v20h96v239h313v-20h-293v-219h187v-20h-187v-255h-20v255z"/>
<glyph glyph-name="uni0496" horiz-adv-x="1014" unicode="Җ" d="M332 404l-304 310h28l423 -434v434h20v-434l423 434h28l-304 -310l326 -384h72v-196h-20v176h-62l-330 390l-133 -137v-253h-20v253l-133 137l-330 -390h-27z"/>
<glyph glyph-name="uni0497" horiz-adv-x="741" unicode="җ" d="M224 299l-213 215h28l302 -305v305h20v-305l302 305h28l-213 -215l221 -279h62v-186h-20v166h-52l-226 285l-102 -102v-183h-20v183l-102 102l-226 -285h-26z"/>
<glyph glyph-name="uni0498" horiz-adv-x="594" unicode="Ҙ" d="M215 -146q16 -6 34 -11t38 -5q14 0 28 2.5t25 8.5t18 16.5t7 25.5q0 10 -6 18t-14 12.5t-17.5 7t-17.5 2.5q-32 0 -54 -13l-15 10l44 56q-51 3 -92 17q-49 17 -83 50t-52.5 80t-18.5 107h20v-3q0 -109 63.5 -170t181.5 -61q52 0 95.5 15t74.5 42t48 64.5t17 82.5 q0 72 -51.5 115.5t-142.5 43.5h-100v20h100q85 0 133 40t48 115q0 81 -57 125t-157 44q-112 0 -167 -50t-65 -147h-20q11 103 71.5 160t180.5 57q52 0 95.5 -12.5t74.5 -36.5t48 -59t17 -81q0 -63 -34.5 -108.5t-110.5 -55.5v-2q33 -2 61.5 -15t50 -35.5t34 -52.5t12.5 -65 q0 -51 -19 -92t-53.5 -70.5t-81.5 -45.5q-46 -15 -100 -16l-29 -39q7 1 13 3.5t20 2.5q29 0 52 -13.5t23 -46.5q0 -22 -8 -36t-21.5 -22.5t-31 -11.5t-37.5 -3q-26 0 -46.5 6t-34.5 11z"/>
<glyph glyph-name="uni0499" horiz-adv-x="463" unicode="ҙ" d="M135 -146q16 -6 34 -11t38 -5q14 0 28 2.5t25 8.5t18 16.5t7 25.5q0 10 -6 18t-14 12.5t-17.5 7t-17.5 2.5q-32 0 -54 -13l-15 10l45 58q-88 3 -131 48q-47 49 -47 134v2h20v-3q0 -78 44.5 -120.5t129.5 -42.5q38 0 71 10.5t57.5 29.5t38.5 45.5t14 59.5q0 51 -37.5 81 t-103.5 30h-74v20h74q61 0 96 27.5t35 81.5q0 58 -45 87.5t-117 29.5q-81 0 -120 -33.5t-47 -102.5h-20q7 74 50.5 115t136.5 41q82 0 132 -35.5t50 -101.5q0 -45 -23.5 -77.5t-80.5 -39.5v-2q24 -1 44.5 -10.5t36 -25.5t24.5 -38t9 -47q0 -36 -14.5 -66.5t-41 -52 t-63.5 -33.5q-35 -11 -77 -12l-30 -40q7 1 13 3.5t20 2.5q29 0 52 -13.5t23 -46.5q0 -22 -8 -36t-21.5 -22.5t-31 -11.5t-37.5 -3q-26 0 -46.5 6t-34.5 11z"/>
<glyph glyph-name="uni049A" horiz-adv-x="643" unicode="Қ" d="M653 0h-61l-354 398l-164 -145v-253h-20v714h20v-434l495 434h30l-345 -304l347 -390h72v-196h-20v176z"/>
<glyph glyph-name="uni049B" horiz-adv-x="488" unicode="қ" d="M488 0h-54l-233 292l-126 -111v-181h-20v514h20v-307l345 307h29l-233 -208l229 -286h63v-186h-20v166z"/>
<glyph glyph-name="uni049C" horiz-adv-x="593" unicode="Ҝ" d="M54 714h20v-332h130v172h20v-172h43l315 332h25l-322 -341l334 -373h-25l-326 362h-44v-182h-20v182h-130v-362h-20v714z"/>
<glyph glyph-name="uni049D" horiz-adv-x="444" unicode="ҝ" d="M55 514h20v-236h89v136h20v-136h25l211 236h24l-218 -245l236 -269h-25l-228 258h-25v-138h-20v138h-89v-258h-20v514z"/>
<glyph glyph-name="uni04A0" horiz-adv-x="736" unicode="Ҡ" d="M197 694h-216v20h236v-434l495 434h30l-345 -304l365 -410h-27l-354 398l-164 -145v-253h-20v694z"/>
<glyph glyph-name="uni04A1" horiz-adv-x="552" unicode="ҡ" d="M163 494h-173v20h193v-307l345 307h29l-233 -208l245 -306h-27l-233 292l-126 -111v-181h-20v494z"/>
<glyph glyph-name="uni04A2" horiz-adv-x="684" unicode="Ң" d="M654 0h-80v362h-500v-362h-20v714h20v-332h500v332h20v-694h80v-196h-20v176z"/>
<glyph glyph-name="uni04A3" horiz-adv-x="520" unicode="ң" d="M499 0h-74v258h-350v-258h-20v514h20v-236h350v236h20v-494h74v-186h-20v166z"/>
<glyph glyph-name="uni04A4" horiz-adv-x="983" unicode="Ҥ" d="M54 714h20v-332h500v332h419v-20h-399v-694h-20v362h-500v-362h-20v714z"/>
<glyph glyph-name="uni04A5" horiz-adv-x="732" unicode="ҥ" d="M55 514h20v-236h350v236h313v-20h-293v-494h-20v258h-350v-258h-20v514z"/>
<glyph glyph-name="uni04AA" horiz-adv-x="685" unicode="Ҫ" d="M265 -146q16 -6 34 -11t38 -5q14 0 28 2.5t25 8.5t18 16.5t7 25.5q0 10 -6 18t-14 12.5t-17.5 7t-17.5 2.5q-32 0 -54 -13l-15 10l44 56q-64 3 -118 27q-59 28 -101.5 76.5t-66.5 116t-24 147.5q0 65 18.5 132.5t58.5 122.5t104 90t155 35q71 0 124 -23.5t88.5 -59 t53.5 -75.5t19 -73h-20q-3 39 -23 76.5t-54.5 67.5t-82 48.5t-105.5 18.5q-59 0 -105 -16.5t-81 -44t-60 -64t-40.5 -76.5t-22.5 -81t-7 -78q0 -68 20 -131t59 -111t95.5 -77t128.5 -29q64 0 115 21t88 58t60 88t31 110h20q-9 -65 -34 -119.5t-64.5 -93.5t-94.5 -61 q-51 -20 -113 -22l-29 -39q7 1 13 3.5t20 2.5q29 0 52 -13.5t23 -46.5q0 -22 -8 -36t-21.5 -22.5t-31 -11.5t-37.5 -3q-26 0 -46.5 6t-34.5 11z"/>
<glyph glyph-name="uni04AB" d="M175 -146q16 -6 34 -11t38 -5q14 0 28 2.5t25 8.5t18 16.5t7 25.5q0 10 -6 18t-14 12.5t-17.5 7t-17.5 2.5q-32 0 -54 -13l-15 10l48 61q-49 2 -88 20q-42 21 -71 56t-44 81.5t-15 99.5q0 55 14.5 106t44 89.5t74.5 61.5t107 23q36 0 69 -11t59 -32t43.5 -52.5 t22.5 -72.5h-20q-6 37 -22 65t-39 46.5t-52 27.5t-61 9q-62 0 -104 -23.5t-67.5 -61t-37 -84t-11.5 -91.5q0 -47 13.5 -90t39.5 -76t65 -52.5t90 -19.5q37 0 70.5 11.5t59 33.5t41.5 52.5t19 69.5h20q-4 -43 -21 -77.5t-44.5 -58.5t-64.5 -37q-32 -11 -69 -13l-33 -44 q7 1 13 3.5t20 2.5q29 0 52 -13.5t23 -46.5q0 -22 -8 -36t-21.5 -22.5t-31 -11.5t-37.5 -3q-26 0 -46.5 6t-34.5 11z" unicode="ҫ"/>
<glyph glyph-name="uni04AE" horiz-adv-x="538" unicode="Ү" d="M259 301l-288 413h25l273 -392l275 392h24l-289 -413v-301h-20v301z"/>
<glyph glyph-name="uni04AF" horiz-adv-x="407" unicode="ү" d="M202 0l-213 514h23l199 -489h2l184 489h22l-197 -514v-176h-20v176z"/>
<glyph glyph-name="uni04B0" horiz-adv-x="538" unicode="Ұ" d="M259 187h-172v20h172v94l-288 413h25l273 -392l275 392h24l-289 -413v-94h172v-20h-172v-187h-20v187z"/>
<glyph glyph-name="uni04B1" horiz-adv-x="407" unicode="ұ" d="M202 -76h-140v20h140v56l-213 514h23l199 -489h2l184 489h22l-197 -514v-56h135v-20h-135v-100h-20v100z"/>
<glyph glyph-name="uni04B2" horiz-adv-x="568" unicode="Ҳ" d="M578 0h-56l-261 351l-262 -351h-25l274 367l-259 347h25l247 -331l249 331h25l-260 -347l257 -347h66v-196h-20v176z"/>
<glyph glyph-name="uni04B3" horiz-adv-x="447" unicode="ҳ" d="M447 0h-50l-194 251l-193 -251h-24l205 266l-187 248h26l173 -233l177 233h24l-188 -248l190 -246h61v-186h-20v166z"/>
<glyph glyph-name="uni04B6" horiz-adv-x="614" unicode="Ҷ" d="M584 0h-80v353q-20 -9 -48 -19.5t-60.5 -19.5t-68 -15t-69.5 -6q-81 0 -126.5 15t-67 46t-26 77.5t-4.5 109.5v173h20v-171q0 -59 3.5 -102.5t23 -72t61 -42t116.5 -13.5q29 0 62 5.5t65.5 14t63 19t55.5 21.5v341h20v-694h80v-196h-20v176z"/>
<glyph glyph-name="uni04B7" horiz-adv-x="482" unicode="ҷ" d="M461 0h-74v245q-34 -15 -83 -29t-106 -14q-39 0 -69.5 7t-51 24t-31.5 45.5t-11 71.5v164h20v-161q0 -75 38.5 -103t104.5 -28q57 0 105.5 14t83.5 31v247h20v-494h74v-186h-20v166z"/>
<glyph glyph-name="uni04B8" horiz-adv-x="578" unicode="Ҹ" d="M504 353q-17 -8 -40.5 -17t-51 -17.5t-58 -15t-60.5 -9.5v-174h-20v173h-16q-81 0 -126.5 15t-67 46t-26 77.5t-4.5 109.5v173h20v-171q0 -59 3.5 -102.5t23 -72t61 -42t116.5 -13.5h16v181h20v-179q54 5 110.5 22t99.5 36v341h20v-714h-20v353z"/>
<glyph glyph-name="uni04B9" horiz-adv-x="462" unicode="ҹ" d="M387 245q-28 -13 -66.5 -24.5t-83.5 -16.5v-135h-20v133h-19q-39 0 -69.5 7t-51 24t-31.5 45.5t-11 71.5v164h20v-161q0 -75 38.5 -103t104.5 -28h19v141h20v-139q45 5 83 17t67 26v247h20v-514h-20v245z"/>
<glyph glyph-name="uni04BA" horiz-adv-x="598" unicode="Һ" d="M54 714h20v-343q20 9 48 19.5t60.5 19.5t67.5 15t70 6q81 0 126.5 -15t67 -46t26 -77.5t4.5 -109.5v-183h-20v181q0 59 -3.5 102.5t-23 72t-61 42t-116.5 13.5q-29 0 -62 -5.5t-65.5 -14t-63 -19t-55.5 -21.5v-351h-20v714z"/>
<glyph glyph-name="uni04BB" d="M55 714h20v-327h2q7 30 22.5 55t39 44t54.5 29.5t69 10.5q40 0 73.5 -12t58 -35.5t38 -58t13.5 -79.5v-341h-20v338q0 45 -13 76.5t-35.5 52t-52 30t-62.5 9.5q-46 0 -81 -17.5t-58.5 -47t-35.5 -68.5t-12 -82v-291h-20v714z" unicode="һ"/>
<glyph glyph-name="uni04C0" horiz-adv-x="128" unicode="Ӏ" d="M54 714h20v-714h-20v714z"/>
<glyph glyph-name="uni04C1" horiz-adv-x="978" unicode="Ӂ" d="M486 802q-101 0 -121 107h20q17 -87 102 -87q90 0 104 87h20q-18 -107 -125 -107zM-11 0l343 404l-304 310h28l423 -434v434h20v-434l423 434h28l-304 -310l343 -404h-27l-330 390l-133 -137v-253h-20v253l-133 137l-330 -390h-27z"/>
<glyph glyph-name="uni04C2" horiz-adv-x="702" unicode="ӂ" d="M349 602q-101 0 -121 107h20q17 -87 102 -87q90 0 104 87h20q-18 -107 -125 -107zM-13 0l237 299l-213 215h28l302 -305v305h20v-305l302 305h28l-213 -215l237 -299h-26l-226 285l-102 -102v-183h-20v183l-102 102l-226 -285h-26z"/>
<glyph glyph-name="uni04D0" horiz-adv-x="575" unicode="Ӑ" d="M287 802q-101 0 -121 107h20q17 -87 102 -87q90 0 104 87h20q-18 -107 -125 -107zM114 255h348l-170 439h-2zM-11 0l289 714h26l282 -714h-22l-94 235h-364l-95 -235h-22z"/>
<glyph glyph-name="uni04D1" horiz-adv-x="481" unicode="ӑ" d="M243 602q-101 0 -121 107h20q17 -87 102 -87q90 0 104 87h20q-18 -107 -125 -107zM192 8q50 0 89 17t65 45t40 63q14 36 14 74v95h-2q-10 -14 -31 -22t-48 -11q-27 -4 -59 -5t-61 -3q-31 -1 -59 -7t-50 -20t-35 -40t-13 -67q0 -21 8 -43t25 -38q19 -16 47 -28 q28 -10 70 -10zM194 -11q-78 1 -125 35t-47 103q0 48 16 77q16 30 40 46q25 16 57 22t64 9q53 3 91 5t62 10t36 24t12 44q0 23 -4 48t-20 46q-16 20 -45 34q-30 14 -81 14q-81 0 -126 -40t-50 -111h-20q2 35 15 67t37 55t60 36t84 13q34 0 64 -7t54 -25q23 -18 37 -45 q14 -28 15 -70v-327q0 -15 6 -22q6 -8 16 -10t22 -2t21 2v-20h-30q-23 0 -39 10t-16 40v67h-2q-8 -25 -26 -48t-44 -41t-60 -28t-74 -11z"/>
<glyph glyph-name="uni04D2" horiz-adv-x="575" unicode="Ӓ" d="M200 849h20v-81h-20v81zM355 849h20v-81h-20v81zM462 255l-170 439h-2l-176 -439h348zM278 714h26l282 -714h-22l-94 235h-364l-95 -235h-22z"/>
<glyph glyph-name="uni04D3" horiz-adv-x="481" unicode="ӓ" d="M153 649h20v-81h-20v81zM308 649h20v-81h-20v81zM192 8q50 0 89 17t65.5 44.5t40 63.5t13.5 74v95h-2q-10 -14 -31 -21.5t-48 -11.5t-58.5 -5t-61.5 -3t-58.5 -7.5t-50.5 -20t-35 -40t-13 -66.5q0 -22 7.5 -43.5t25.5 -38t46.5 -27t70.5 -10.5zM194 -11q-78 0 -125 34.5 t-47 103.5q0 48 15.5 77t40.5 45.5t57 23t64 8.5q53 3 91 5.5t62.5 10t36 23t11.5 44.5q0 23 -4 48t-19.5 46t-45.5 34.5t-81 13.5q-81 0 -126 -39.5t-50 -111.5h-20q2 36 15 67.5t37.5 54.5t60 36t83.5 13q34 0 64.5 -7t53.5 -24.5t37 -45.5t15 -70v-327q0 -15 6.5 -22 t16 -9.5t21 -2t21.5 1.5v-20h-30q-22 0 -38.5 10.5t-16.5 39.5v67h-2q-8 -25 -26 -48t-44 -41t-60 -28.5t-74 -10.5z"/>
<glyph glyph-name="uni04D4" horiz-adv-x="852" unicode="Ӕ" d="M423 294v400h-47l-211 -400h258zM366 714h469v-20h-392v-312h360v-20h-360v-342h392v-20h-412v274h-268l-145 -274h-21z"/>
<glyph glyph-name="uni04D5" horiz-adv-x="889" unicode="ӕ" d="M837 273q0 48 -12.5 90.5t-37 74t-62 50t-88.5 18.5q-47 0 -84 -16.5t-63 -47t-41 -73.5t-19 -96h407zM202 8q50 0 89 17t65.5 44.5t40 63.5t13.5 74v95h-2q-10 -14 -31 -21.5t-48 -11.5t-58.5 -5t-61.5 -3t-58.5 -7.5t-50.5 -20t-35 -40t-13 -66.5q0 -22 7.5 -43.5 t25.5 -38t46.5 -27t70.5 -10.5zM204 -11q-78 0 -125 34.5t-47 103.5q0 48 15.5 77t40.5 45.5t57 23t64 8.5q53 3 91 5.5t62.5 10t36 23t11.5 44.5q0 23 -4 48t-19.5 46t-45.5 34.5t-81 13.5q-81 0 -126 -39.5t-50 -111.5h-20q2 36 15 67.5t37.5 54.5t60 36t83.5 13 q34 0 64.5 -7.5t53.5 -24.5t37 -46t15 -72h2q10 32 28 59.5t44 47.5t59 31.5t74 11.5q58 0 100.5 -22.5t69.5 -60t38.5 -83.5t11.5 -92v-15h-427q2 -51 13.5 -95.5t35.5 -78t62 -52.5t94 -19q38 0 72 11t60.5 32.5t44 53t22.5 73.5h20q-4 -42 -22 -77t-46.5 -60t-67 -38.5 t-83.5 -13.5q-85 0 -138.5 42.5t-73.5 123.5h-2q-17 -79 -76 -122.5t-141 -43.5z"/>
<glyph glyph-name="uni04D6" horiz-adv-x="537" unicode="Ӗ" d="M293 802q-101 0 -121 107h20q17 -87 102 -87q90 0 104 87h20q-18 -107 -125 -107zM54 0v714h474v-20h-454v-312h427v-20h-427v-342h458v-20h-478z"/>
<glyph glyph-name="uni04D7" d="M253 602q-101 0 -121 107h20q17 -87 102 -87q90 0 104 87h20q-18 -107 -125 -107zM45 273h410q0 47 -13 89q-12 42 -38 75t-64 51t-88 18q-42 0 -78 -16t-64 -46t-45 -74q-17 -43 -20 -97zM250 -11q-60 1 -102 21t-70 56q-27 36 -40 85t-13 106q0 64 19 114q19 51 50 85 q32 34 72 52t84 18q60 0 104 -23t70 -61q28 -38 40 -88q11 -43 11 -87v-14h-430q1 -53 13 -97t35 -77q24 -33 62 -52t93 -19q80 0 134 42t67 128h20q-7 -45 -25 -80q-18 -36 -46 -60t-66 -36t-82 -13z" unicode="ӗ"/>
<glyph glyph-name="uni04D8" horiz-adv-x="701" unicode="Ә" d="M341 3q72 0 129.5 26.5t97 73.5t61 112t21.5 142v5h-598v-5q1 -77 18 -142t52 -112t89 -73.5t130 -26.5zM341 -16q-87 0 -146 29.5t-95 80.5t-52 118.5t-16 144.5v25h617q-3 72 -26.5 132.5t-64 104t-97 68t-125.5 24.5q-48 0 -92 -13.5t-79.5 -38.5t-61.5 -62t-38 -83 h-20q9 46 35 86t64.5 69t87 45.5t101.5 16.5h3q80 0 142 -30t105 -81t65 -119t22 -144q0 -77 -21.5 -144.5t-63 -118.5t-103 -80.5t-141.5 -29.5z"/>
<glyph glyph-name="afii10846" horiz-adv-x="507" unicode="ә" d="M249 9q42 0 78.5 16t64 46.5t44.5 73.5t20 97h-410q0 -47 13 -89.5t38.5 -74.5t63.5 -50.5t88 -18.5zM251 -11q-60 0 -103.5 23t-71.5 61t-40 87q-11 42 -10 87v15h430q-1 52 -12.5 96.5t-35.5 77.5t-62 52t-93 19q-81 0 -134.5 -42.5t-66.5 -127.5h-20q6 45 24.5 80 t47 59.5t66 37t81.5 12.5q60 0 102.5 -20.5t69.5 -56.5t40 -85t13 -106q0 -64 -19 -114t-50 -84.5t-72 -52.5t-84 -18z"/>
<glyph glyph-name="Schwadieresiscyrillic" horiz-adv-x="701" unicode="Ӛ" d="M341 3q72 0 129.5 26.5t97 73.5t61 112t21.5 142v5h-598v-5q1 -77 18 -142t52 -112t89 -73.5t130 -26.5zM341 -16q-87 0 -146 29.5t-95 80.5t-52 118.5t-16 144.5v25h617q-3 72 -26.5 132.5t-64 104t-97 68t-125.5 24.5q-48 0 -92 -13.5t-79.5 -38.5t-61.5 -62t-38 -83 h-20q9 46 35 86t64.5 69t87 45.5t101.5 16.5h3q80 0 142 -30t105 -81t65 -119t22 -144q0 -77 -21.5 -144.5t-63 -118.5t-103 -80.5t-141.5 -29.5zM234 862h20v-81h-20v81zM389 862h20v-81h-20v81z"/>
<glyph glyph-name="schwadieresiscyrillic" horiz-adv-x="507" unicode="ӛ" d="M249 9q42 0 78.5 16t64 46.5t44.5 73.5t20 97h-410q0 -47 13 -89.5t38.5 -74.5t63.5 -50.5t88 -18.5zM251 -11q-60 0 -103.5 23t-71.5 61t-40 87q-11 42 -10 87v15h430q-1 52 -12.5 96.5t-35.5 77.5t-62 52t-93 19q-81 0 -134.5 -42.5t-66.5 -127.5h-20q6 45 24.5 80 t47 59.5t66 37t81.5 12.5q60 0 102.5 -20.5t69.5 -56.5t40 -85t13 -106q0 -64 -19 -114t-50 -84.5t-72 -52.5t-84 -18zM162 660h20v-81h-20v81zM317 660h20v-81h-20v81z"/>
<glyph glyph-name="uni04DC" horiz-adv-x="978" unicode="Ӝ" d="M402 849h20v-81h-20v81zM557 849h20v-81h-20v81zM332 404l-304 310h28l423 -434v434h20v-434l423 434h28l-304 -310l343 -404h-27l-330 390l-133 -137v-253h-20v253l-133 137l-330 -390h-27z"/>
<glyph glyph-name="uni04DD" horiz-adv-x="702" unicode="ӝ" d="M264 649h20v-81h-20v81zM419 649h20v-81h-20v81zM-13 0l237 299l-213 215h28l302 -305v305h20v-305l302 305h28l-213 -215l237 -299h-26l-226 285l-102 -102v-183h-20v183l-102 102l-226 -285h-26z"/>
<glyph glyph-name="uni04DE" horiz-adv-x="594" unicode="Ӟ" d="M219 849h20v-81h-20v81zM374 849h20v-81h-20v81zM304 -16q-62 0 -111 17t-83 50t-52.5 80t-18.5 107h20v-3q0 -109 63.5 -170t181.5 -61q52 0 95.5 15t74.5 42t48 64.5t17 82.5q0 72 -51.5 115.5t-142.5 43.5h-100v20h100q85 0 133 40t48 115q0 81 -57 125t-157 44 q-112 0 -167 -50t-65 -147h-20q11 103 71.5 160t180.5 57q52 0 95.5 -12.5t74.5 -36.5t48 -59t17 -81q0 -63 -34.5 -108.5t-110.5 -55.5v-2q33 -2 61.5 -15t50 -35.5t34 -52.5t12.5 -65q0 -51 -19 -92t-53.5 -70.5t-81.5 -45.5t-102 -16z"/>
<glyph glyph-name="uni04DF" horiz-adv-x="463" unicode="ӟ" d="M144 649h20v-81h-20v81zM299 649h20v-81h-20v81zM222 -15q-100 0 -147 49t-47 134v2h20v-3q0 -78 44.5 -120.5t129.5 -42.5q38 0 71 10.5t57.5 29.5t38.5 45.5t14 59.5q0 51 -37.5 81t-103.5 30h-74v20h74q61 0 96 27.5t35 81.5q0 58 -45 87.5t-117 29.5 q-81 0 -120 -33.5t-47 -102.5h-20q7 74 50.5 115t136.5 41q82 0 132 -35.5t50 -101.5q0 -45 -23.5 -77.5t-80.5 -39.5v-2q24 -1 44.5 -10.5t36 -25.5t24.5 -38t9 -47q0 -36 -14.5 -66.5t-41 -52t-63.5 -33.5t-82 -12z"/>
<glyph glyph-name="uni04E2" horiz-adv-x="648" unicode="Ӣ" d="M208 806v20h231v-20h-231zM54 714h20v-697l489 697h31v-714h-20v697l-489 -697h-31v714z"/>
<glyph glyph-name="uni04E3" horiz-adv-x="510" unicode="ӣ" d="M139 606v20h231v-20h-231zM55 514h20v-496h2l347 496h31v-514h-20v496h-2l-347 -496h-31v514z"/>
<glyph glyph-name="uni04E4" horiz-adv-x="648" unicode="Ӥ" d="M236 849h20v-81h-20v81zM391 849h20v-81h-20v81zM54 714h20v-697l489 697h31v-714h-20v697l-489 -697h-31v714z"/>
<glyph glyph-name="uni04E5" horiz-adv-x="510" unicode="ӥ" d="M167 649h20v-81h-20v81zM322 649h20v-81h-20v81zM55 514h20v-496h2l347 496h31v-514h-20v496h-2l-347 -496h-31v514z"/>
<glyph glyph-name="uni04E6" horiz-adv-x="721" unicode="Ӧ" d="M273 849h20v-81h-20v81zM428 849h20v-81h-20v81zM361 3q72 0 129.5 26.5t97 73.5t61 112t21.5 142t-21.5 142t-61 112t-97 73.5t-129.5 26.5t-129.5 -26.5t-97 -73.5t-61 -112t-21.5 -142t21.5 -142t61 -112t97 -73.5t129.5 -26.5zM361 -16q-80 0 -141.5 29.5t-103 80.5 t-63 118.5t-21.5 144.5q0 76 21.5 144t63 119t103 81t141.5 30t141.5 -30t103 -81t63 -119t21.5 -144q0 -77 -21.5 -144.5t-63 -118.5t-103 -80.5t-141.5 -29.5z"/>
<glyph glyph-name="uni04E7" horiz-adv-x="519" unicode="ӧ" d="M172 649h20v-81h-20v81zM327 649h20v-81h-20v81zM260 8q51 0 90.5 20.5t66.5 55t40.5 79.5t13.5 94q0 48 -13.5 93t-40.5 79.5t-66.5 55.5t-90.5 21q-52 0 -91.5 -21t-66.5 -55.5t-40.5 -79.5t-13.5 -93q0 -49 13.5 -94t40.5 -79.5t66.5 -55t91.5 -20.5zM259 -11 q-56 0 -99 22t-72.5 59t-44.5 85.5t-15 101.5q0 52 15 101t44.5 86t72.5 59.5t100 22.5q56 0 99 -22.5t72.5 -59.5t44.5 -86t15 -101q0 -53 -15 -101.5t-44.5 -85.5t-72.5 -59t-100 -22z"/>
<glyph glyph-name="uni04E8" horiz-adv-x="721" unicode="Ө" d="M669 382q-3 72 -26 132.5t-62.5 104t-95 68t-124.5 24.5t-124 -24.5t-94.5 -68t-62.5 -104t-27 -132.5h616zM361 3q72 0 129.5 26.5t97 73.5t61 112t21.5 142v5h-618v-5q1 -77 22.5 -142t61 -112t96.5 -73.5t129 -26.5zM361 -16q-80 0 -141.5 29.5t-103 80.5t-63 118.5 t-21.5 144.5q0 76 21.5 144t63 119t103 81t141.5 30t141.5 -30t103 -81t63 -119t21.5 -144q0 -77 -21.5 -144.5t-63 -118.5t-103 -80.5t-141.5 -29.5z"/>
<glyph glyph-name="uni04E9" horiz-adv-x="519" unicode="ө" d="M470 278q-3 45 -18 86t-41.5 72.5t-64.5 50.5t-86 19q-50 0 -88 -19t-64.5 -50.5t-41.5 -72.5t-18 -86h422zM260 8q51 0 90.5 20.5t66.5 55t40.5 79.5t13.5 94v1h-423v-1q0 -49 13.5 -94t40.5 -79.5t66.5 -55t91.5 -20.5zM259 -11q-56 0 -99 22t-72.5 59t-44.5 85.5 t-15 101.5q0 52 15 101t44.5 86t72.5 59.5t100 22.5q56 0 99 -22.5t72.5 -59.5t44.5 -86t15 -101q0 -53 -15 -101.5t-44.5 -85.5t-72.5 -59t-100 -22z"/>
<glyph glyph-name="Obarreddieresiscyrillic" horiz-adv-x="721" unicode="Ӫ" d="M669 382q-3 72 -26 132.5t-62.5 104t-95 68t-124.5 24.5t-124 -24.5t-94.5 -68t-62.5 -104t-27 -132.5h616zM361 3q72 0 129.5 26.5t97 73.5t61 112t21.5 142v5h-618v-5q1 -77 22.5 -142t61 -112t96.5 -73.5t129 -26.5zM361 -16q-80 0 -141.5 29.5t-103 80.5t-63 118.5 t-21.5 144.5q0 76 21.5 144t63 119t103 81t141.5 30t141.5 -30t103 -81t63 -119t21.5 -144q0 -77 -21.5 -144.5t-63 -118.5t-103 -80.5t-141.5 -29.5zM273 862h20v-81h-20v81zM428 862h20v-81h-20v81z"/>
<glyph glyph-name="obarreddieresiscyrillic" horiz-adv-x="519" unicode="ӫ" d="M470 278q-3 45 -18 86t-41.5 72.5t-64.5 50.5t-86 19q-50 0 -88 -19t-64.5 -50.5t-41.5 -72.5t-18 -86h422zM260 8q51 0 90.5 20.5t66.5 55t40.5 79.5t13.5 94v1h-423v-1q0 -49 13.5 -94t40.5 -79.5t66.5 -55t91.5 -20.5zM259 -11q-56 0 -99 22t-72.5 59t-44.5 85.5 t-15 101.5q0 52 15 101t44.5 86t72.5 59.5t100 22.5q56 0 99 -22.5t72.5 -59.5t44.5 -86t15 -101q0 -53 -15 -101.5t-44.5 -85.5t-72.5 -59t-100 -22zM171 660h20v-81h-20v81zM326 660h20v-81h-20v81z"/>
<glyph glyph-name="uni04EC" horiz-adv-x="685" unicode="Ӭ" d="M330 -16q-62 0 -113.5 18.5t-91 52.5t-64.5 80.5t-34 102.5h20q10 -50 34 -93t60 -74.5t84 -49.5t105 -18q76 0 133 29.5t95 78t57 112.5t19 133v6h-419v20h418q-3 74 -27 134.5t-64 104t-95 67t-119 23.5q-48 0 -92 -13.5t-79.5 -38.5t-61.5 -62t-38 -83h-20q9 46 35 86 t64.5 69t87 45.5t101.5 16.5q73 0 134 -27.5t104 -77t67 -118.5t24 -152q0 -74 -20.5 -141t-61 -118.5t-101.5 -82t-141 -30.5zM252 862h20v-81h-20v81zM407 862h20v-81h-20v81z"/>
<glyph glyph-name="uni04ED" d="M237 -11q-42 0 -78.5 13.5t-64 37.5t-45 57.5t-21.5 74.5h21q12 -78 62 -121.5t128 -43.5q46 0 84 18t65 50.5t42 78t15 101.5v3h-280v20h279q-3 53 -20 95.5t-45 72t-65.5 45.5t-81.5 16q-73 0 -120 -37.5t-58 -100.5h-20q12 73 65 115t134 42q52 0 95 -19.5t73.5 -54.5 t47 -85t16.5 -111t-16 -110t-45.5 -84t-72 -54t-94.5 -19zM158 660h20v-81h-20v81zM313 660h20v-81h-20v81z" unicode="ӭ"/>
<glyph glyph-name="uni04EE" horiz-adv-x="537" unicode="Ӯ" d="M153 806v20h231v-20h-231zM105 -10q-17 0 -35.5 1.5t-30.5 6.5v22q13 -5 32 -7.5t36 -2.5q35 0 66.5 22t53.5 68l30 62l-264 552h22l254 -527l255 527h21l-302 -627q-26 -54 -61 -75.5t-77 -21.5z"/>
<glyph glyph-name="uni04EF" horiz-adv-x="407" unicode="ӯ" d="M88 606v20h231v-20h-231zM46 -156q26 0 44.5 1.5t32.5 8t24 20t19 36.5l37 95l-214 509h21l204 -487l184 487h21l-237 -618q-10 -26 -24 -40.5t-31.5 -21.5t-37.5 -8.5t-43 -1.5v20z"/>
<glyph glyph-name="uni04F0" horiz-adv-x="537" unicode="Ӱ" d="M185 849h20v-81h-20v81zM340 849h20v-81h-20v81zM105 -10q-17 0 -35.5 1.5t-30.5 6.5v22q13 -5 32 -7.5t36 -2.5q35 0 66.5 22t53.5 68l30 62l-264 552h22l254 -527l255 527h21l-302 -627q-26 -54 -61 -75.5t-77 -21.5z"/>
<glyph glyph-name="uni04F1" horiz-adv-x="407" unicode="ӱ" d="M127 649h20v-81h-20v81zM282 649h20v-81h-20v81zM46 -156q26 0 44.5 1.5t32.5 8t24 20t19 36.5l37 95l-214 509h21l204 -487l184 487h21l-237 -618q-10 -26 -24 -40.5t-31.5 -21.5t-37.5 -8.5t-43 -1.5v20z"/>
<glyph glyph-name="uni04F2" horiz-adv-x="537" unicode="Ӳ" d="M171 765h-15l131 144h29zM320 765h-15l132 144h29zM105 -10q-17 0 -35.5 1.5t-30.5 6.5v22q13 -5 32 -7.5t36 -2.5q35 0 66.5 22t53.5 68l30 62l-264 552h22l254 -527l255 527h21l-302 -627q-26 -54 -61 -75.5t-77 -21.5z"/>
<glyph glyph-name="uni04F3" horiz-adv-x="407" unicode="ӳ" d="M111 565h-15l131 144h29zM260 565h-15l132 144h29zM46 -156q26 0 44.5 1.5t32.5 8t24 20t19 36.5l37 95l-214 509h21l204 -487l184 487h21l-237 -618q-10 -26 -24 -40.5t-31.5 -21.5t-37.5 -8.5t-43 -1.5v20z"/>
<glyph glyph-name="uni04F4" horiz-adv-x="578" unicode="Ӵ" d="M201 849h20v-81h-20v81zM356 849h20v-81h-20v81zM504 353q-20 -9 -48 -19.5t-60.5 -19.5t-68 -15t-69.5 -6q-81 0 -126.5 15t-67 46t-26 77.5t-4.5 109.5v173h20v-171q0 -59 3.5 -102.5t23 -72t61 -42t116.5 -13.5q29 0 62 5.5t65.5 14t63 19t55.5 21.5v341h20v-714h-20 v353z"/>
<glyph glyph-name="uni04F5" horiz-adv-x="462" unicode="ӵ" d="M143 649h20v-81h-20v81zM298 649h20v-81h-20v81zM387 245q-34 -15 -83 -29t-106 -14q-39 0 -69.5 7t-51 24t-31.5 45.5t-11 71.5v164h20v-161q0 -75 38.5 -103t104.5 -28q57 0 105.5 14t83.5 31v247h20v-514h-20v245z"/>
<glyph glyph-name="uni04F8" horiz-adv-x="778" unicode="Ӹ" d="M301 849h20v-81h-20v81zM456 849h20v-81h-20v81zM704 714h20v-714h-20v714zM343 20q45 0 81.5 13.5t62 38t39.5 58t14 74.5q0 85 -50 130t-147 45h-269v-359h269zM54 714h20v-315h270q106 0 161.5 -51t55.5 -145q0 -46 -15.5 -83.5t-45 -64t-71.5 -41t-95 -14.5h-280v714 z"/>
<glyph glyph-name="uni04F9" horiz-adv-x="611" unicode="ӹ" d="M218 649h20v-81h-20v81zM373 649h20v-81h-20v81zM536 514h20v-514h-20v514zM265 20q69 0 106 34.5t37 91.5t-33.5 89.5t-102.5 32.5h-197v-248h190zM55 514h20v-226h197q75 0 115.5 -38t40.5 -104t-43.5 -106t-119.5 -40h-210v514z"/>
<glyph glyph-name="afii61664" horiz-adv-x="0" unicode="‌"/>
<glyph glyph-name="afii301" horiz-adv-x="0" unicode="‍"/>
<glyph glyph-name="endash" d="M0 278h500v-20h-500v20z" unicode="–"/>
<glyph glyph-name="emdash" horiz-adv-x="1000" unicode="—" d="M870 258h-740v20h740v-20z"/>
<glyph glyph-name="quoteleft" horiz-adv-x="167" unicode="‘" d="M73 489v118q0 27 2 44q1 17 7 29t14 20t22 14v-20q-15 -10 -20 -30t-5 -57v-118h-20z"/>
<glyph glyph-name="quotesinglbase" horiz-adv-x="167" unicode="‚" d="M93 98v-98q1 -45 -9 -73t-36 -45v20q14 14 20 36t5 62v98h20z"/>
<glyph glyph-name="quotedblleft" horiz-adv-x="278" unicode="“" d="M83 489v118q0 27 2 44q1 17 7 29t14 20t22 14v-20q-15 -10 -20 -30t-5 -57v-118h-20zM183 489v118q0 27 2 44q1 17 7 29t14 20t22 14v-20q-15 -10 -20 -30t-5 -57v-118h-20z"/>
<glyph glyph-name="quotedblright" horiz-adv-x="278" unicode="”" d="M195 714v-118q0 -27 -2 -44q-1 -17 -7 -29q-6 -11 -14 -19t-22 -15v20q15 9 20 29t5 58v118h20zM95 714v-118q0 -27 -2 -44q-1 -17 -7 -29q-6 -11 -14 -19t-22 -15v20q15 9 20 29t5 58v118h20z"/>
<glyph glyph-name="dagger" horiz-adv-x="556" unicode="†" d="M288 714v-243h208v-20h-208v-590h-20v590h-208v20h208v243h20z"/>
<glyph glyph-name="daggerdbl" horiz-adv-x="556" unicode="‡" d="M60 57v20h208v420h-208v20h208v197h20v-197h208v-20h-208v-420h208v-20h-208v-196h-20v196h-208z"/>
<glyph glyph-name="ellipsis" horiz-adv-x="1000" unicode="…" d="M177 0h-20v98h20v-98zM510 0h-20v98h20v-98zM843 0h-20v98h20v-98z"/>
<glyph glyph-name="perthousand" horiz-adv-x="1037" unicode="‰" d="M21 519q0 37 10 69q9 32 29 55t48 36t65 13q75 0 115 -48t40 -124q0 -34 -10 -65t-30 -55t-48 -36q-28 -14 -67 -14t-68 14t-47 38t-28 54q-9 30 -9 63zM41 519q0 -29 8 -57q9 -28 25 -48t41 -32t58 -12t59 12t42 32q18 20 26 48q8 27 8 57q0 69 -33 111t-102 42 t-101 -44t-31 -109zM349 157q0 37 10 69q9 32 29 55t48 36t65 13q75 0 115 -48t40 -124q0 -36 -10 -66t-30 -53t-48 -37t-67 -13q-39 -1 -68 13t-47 38t-28 54q-9 30 -9 63zM369 157q0 -29 8 -57q9 -28 25 -48t41 -32t58 -12t59 12t42 32q18 20 26 48q8 27 8 57 q0 69 -33 111t-102 42t-101 -44t-31 -109zM709 157q0 37 10 69q9 32 29 55t48 36t65 13q75 0 115 -48t40 -124q0 -36 -10 -66t-30 -53t-48 -37t-67 -13q-39 -1 -68 13t-47 38t-28 54q-9 30 -9 63zM729 157q0 -29 8 -57q9 -28 25 -48t41 -32t58 -12t59 12t42 32q18 20 26 48 q8 27 8 57q0 69 -33 111t-102 42t-101 -44t-31 -109zM565 714h23l-476 -747h-23z"/>
<glyph glyph-name="guilsinglleft" horiz-adv-x="259" unicode="‹" d="M169 121l-103 139v16l103 139v-35l-83 -112l83 -112v-35z"/>
<glyph glyph-name="guilsinglright" horiz-adv-x="259" unicode="›" d="M90 415l103 -139v-16l-103 -139v35l83 112l-83 112v35z"/>
<glyph glyph-name="fraction" horiz-adv-x="167" unicode="⁄" d="M310 714h23l-475 -747h-23z"/>
<glyph glyph-name="Euro" horiz-adv-x="556" unicode="€" d="M567 73q-87 -87 -210 -87q-63 0 -113 22t-88 60t-62 90t-33 111h-61l7 17h53q-2 4 -2 10v11v21v29t2 29h-60l7 17h55q8 62 32 115q24 52 62 92t90 62t118 23q54 -1 99 -17t87 -49l-9 -16q-42 32 -83 48t-95 16q-60 1 -109 -21t-85 -59t-58 -87t-29 -107h407l-9 -17h-400 q-2 -12 -2 -24v-24q0 -26 3 -52h378l-9 -17h-367q9 -55 31 -103t58 -84q34 -36 82 -58q48 -21 106 -21q125 0 207 97v-27z"/>
<glyph glyph-name="trademark" horiz-adv-x="990" unicode="™" d="M232 694h-150v20h320v-20h-150v-392h-20v392zM496 714h34l162 -384l162 384h34v-412h-20v392h-2l-164 -392h-20l-164 392h-2v-392h-20v412z"/>
<glyph glyph-name="partialdiff" horiz-adv-x="442" unicode="∂" d="M200 5q49 0 83.5 31.5t56.5 76t32.5 93.5t10.5 85q-34 47 -77 79t-102 32q-38 0 -67.5 -16.5t-49 -44t-29.5 -62t-10 -70.5q0 -33 10 -69t29 -66t47.5 -49.5t65.5 -19.5zM199 -13q-42 0 -74.5 21t-54 53.5t-33 71.5t-11.5 76q0 41 11.5 79t34.5 67.5t56.5 47.5t78.5 18 q55 0 101.5 -29.5t76.5 -74.5q1 17 1.5 35t0.5 35q0 45 -9 99.5t-31 102t-59 80t-92 32.5q-37 0 -64 -12.5t-56 -33.5l-11 18q31 21 62 34t69 13q64 0 105.5 -35t65 -87.5t32.5 -113t9 -110.5q0 -33 -3 -74.5t-11.5 -84.5t-23 -84t-37.5 -73t-56 -51.5t-78 -19.5z"/>
<glyph glyph-name="product" horiz-adv-x="626" unicode="∏" d="M54 786h518v-1000h-20v980h-478v-980h-20v1000z"/>
<glyph glyph-name="summation" horiz-adv-x="504" unicode="∑" d="M0 -196l341 486l-326 478v18h479v-20h-453l324 -475l-340 -485h479v-20h-504v18z"/>
<glyph glyph-name="minus" horiz-adv-x="600" unicode="−" d="M48 243v20h504v-20h-504z"/>
<glyph glyph-name="radical" horiz-adv-x="490" unicode="√" d="M53 167l-44 -21l-9 18l62 30l178 -366l210 952l20 -3l-219 -996h-10z"/>
<glyph glyph-name="infinity" horiz-adv-x="722" unicode="∞" d="M548 150q50 0 75 30.5t25 73.5q0 19 -6.5 38t-19.5 33t-31 23t-40 9q-23 0 -46.5 -11t-46.5 -26.5t-44 -33.5t-37 -32q17 -16 36.5 -34t41 -33.5t45 -26t48.5 -10.5zM175 150q26 0 50.5 11t46 27t40.5 34t34 32q-17 16 -37.5 34t-43 33.5t-46.5 25.5t-48 10 q-45 0 -71 -30.5t-26 -72.5q0 -45 26.5 -74.5t74.5 -29.5zM175 130q-59 0 -90 34t-31 90q0 25 8.5 47.5t24 39.5t37 26.5t47.5 9.5t52 -11t51 -28t47 -36.5t41 -35.5q18 16 40 35.5t46.5 36t50.5 28t51 11.5q53 0 85.5 -35.5t32.5 -87.5q0 -55 -32 -89.5t-88 -34.5 q-30 0 -55 10.5t-47.5 26.5t-43 35.5t-41.5 37.5q-17 -15 -37 -34.5t-43.5 -36t-49.5 -28t-56 -11.5z"/>
<glyph glyph-name="approxequal" horiz-adv-x="600" unicode="≈" d="M45 281q5 19 15.5 37.5t25 33t33 23.5t40.5 9q15 0 34 -4.5t40 -11.5t42.5 -14.5t39.5 -14.5q33 -12 67.5 -22t56.5 -10q36 0 59.5 24.5t34.5 56.5h21q-5 -18 -15 -36t-24.5 -32.5t-32.5 -23.5t-39 -9q-33 0 -72.5 13t-70.5 24q-11 4 -29.5 10.5t-39 13t-40.5 11.5t-33 5 q-17 0 -32 -7.5t-26.5 -19t-20 -26.5t-13.5 -30h-21zM45 115q5 19 15.5 37.5t25 33t33 23.5t40.5 9q15 0 34 -4.5t40 -11.5t42.5 -14.5t39.5 -14.5q33 -12 67.5 -22t56.5 -10q36 0 59.5 24.5t34.5 56.5h21q-5 -18 -15 -36t-24.5 -32.5t-32.5 -23.5t-39 -9q-33 0 -72.5 13 t-70.5 24q-11 4 -29.5 10.5t-39 13t-40.5 11.5t-33 5q-17 0 -32 -7.5t-26.5 -19t-20 -26.5t-13.5 -30h-21z"/>
<glyph glyph-name="notequal" horiz-adv-x="600" unicode="≠" d="M163 21l67 125h-182v20h192l94 174h-286v20h296l73 135l18 -9l-68 -126h185v-20h-195l-94 -174h289v-20h-299l-72 -134z"/>
<glyph glyph-name="lessequal" horiz-adv-x="600" unicode="≤" d="M48 263v18l504 207v-22l-471 -194l471 -192v-22zM48 20h504v-20h-504v20z"/>
<glyph glyph-name="greaterequal" horiz-adv-x="600" unicode="≥" d="M48 58v22l471 192l-471 194v22l504 -207v-18zM48 0v20h504v-20h-504z"/>
<glyph glyph-name="uni22C5.dotMath" horiz-adv-x="278" unicode="⋅" d="M129 387v98h20v-98h-20z"/>
<glyph glyph-name="lozenge" horiz-adv-x="600" unicode="◊" d="M300 -15l163 364l-163 364h-2l-162 -364l162 -364h2zM115 349l170 384h28l171 -384l-171 -384h-28z"/>
</font>
</defs>
</svg>
