<?xml version="1.0" encoding="UTF-8" standalone="no"?>
<!DOCTYPE svg  PUBLIC '-//W3C//DTD SVG 1.1//EN'  'http://www.w3.org/Graphics/SVG/1.1/DTD/svg11.dtd'>
<svg xmlns="http://www.w3.org/2000/svg">
<defs>
<font id="HelveticaNeue-ThinItalic" horiz-adv-x="556">
<font-face underline-position="-50" font-weight="250" descent="-200" panose-1="2 11 4 3 2 2 2 2 2 4" units-per-em="1000" unicode-range="U+000D-25CA" bbox="-251 -217 1075 949" x-height="514" underline-thickness="50" font-family="HelveticaNeue" ascent="800" font-style="italic" cap-height="714"/>
<missing-glyph horiz-adv-x="1000"/>
<glyph glyph-name=".notdef" horiz-adv-x="1000"/>
<glyph glyph-name=".null" horiz-adv-x="1000"/>
<glyph glyph-name="nonmarkingreturn" horiz-adv-x="0" unicode=""/>
<glyph glyph-name="space" horiz-adv-x="278" unicode=" "/>
<glyph glyph-name="exclam" horiz-adv-x="204" unicode="!" d="M92 103l-23 -103h-50l23 103h50zM65 183l59 311l47 220h42l-47 -220l-72 -311h-29z"/>
<glyph glyph-name="quotedbl" horiz-adv-x="315" unicode='&quot;' d="M125 714h38v-229h-38v229zM243 714h38v-229h-38v229z"/>
<glyph glyph-name="numbersign" d="M217 690h33l-31 -220h169l31 220h33l-31 -220h110l-5 -33h-110l-24 -173h111l-5 -33h-111l-32 -231h-33l32 231h-169l-32 -231h-33l32 231h-117l5 33h117l24 173h-118l5 33h118zM190 264h169l24 173h-169z" unicode="#"/>
<glyph glyph-name="dollar" d="M222 22q3 -1 10 -1h10q36 0 73 10.5t67 31.5t49 53.5t19 77.5q0 34 -14 58.5t-37 41t-52.5 28t-59.5 20.5zM330 693q-44 0 -81.5 -9.5t-65 -28.5t-43 -48t-15.5 -68q0 -36 11.5 -60.5t31.5 -41t46.5 -27t55.5 -19.5zM295 382q38 -13 73 -26.5t61.5 -34t42.5 -50t16 -74.5 q0 -57 -21.5 -97.5t-56.5 -66.5t-80 -38t-91 -12q-7 0 -12.5 0.5t-12.5 0.5l-19 -92h-27l20 95q-56 9 -92.5 29t-58.5 47t-31 59t-9 64q0 23 3 53h38q-2 -11 -2.5 -23.5t-0.5 -29.5q0 -27 8.5 -52.5t27.5 -47t49.5 -37.5t75.5 -23l66 327q-33 10 -64.5 22.5t-56 32.5 t-39.5 49t-15 72q0 53 19 91t51 63t74 36.5t89 11.5h9q7 0 10 -1l15 76h27l-16 -78q78 -9 127.5 -52t49.5 -126q0 -5 -0.5 -15.5t-1.5 -22.5h-38q0 14 1 25.5t1 17.5q0 34 -11.5 58.5t-31.5 41t-46.5 26t-56.5 12.5z" unicode="$"/>
<glyph glyph-name="percent" horiz-adv-x="759" unicode="%" d="M196 346q-66 0 -102 35.5t-36 101.5q0 38 12 77t34.5 70.5t56 51.5t75.5 20q63 0 99 -35.5t36 -98.5q0 -38 -11 -77.5t-33 -71.5t-55 -52.5t-76 -20.5zM191 379q37 0 64 17.5t44 45t25.5 61.5t8.5 66q0 48 -24.5 74t-72.5 26q-36 0 -62.5 -18.5t-44 -47t-25.5 -62 t-8 -64.5q0 -45 24.5 -71.5t70.5 -26.5zM522 21q37 0 64 17.5t44 45t25.5 61.5t8.5 66q0 48 -24.5 74t-72.5 26q-36 0 -62.5 -18.5t-44 -47t-25.5 -62t-8 -64.5q0 -45 24.5 -71.5t70.5 -26.5zM527 -12q-66 0 -102 35.5t-36 101.5q0 38 12 77t34.5 70.5t56 51.5t75.5 20 q63 0 99 -35.5t36 -98.5q0 -38 -11 -77.5t-33 -71.5t-55 -52.5t-76 -20.5zM90 -34l532 758h41l-532 -758h-41z"/>
<glyph glyph-name="ampersand" horiz-adv-x="593" unicode="&amp;" d="M246 360q-32 -17 -66.5 -34.5t-63 -40.5t-46.5 -54t-18 -74q0 -29 12 -54t33.5 -43t50 -28.5t61.5 -10.5q24 0 50 7.5t50.5 21t46.5 33.5t40 46zM420 162q8 12 16 28.5t14.5 34.5t12 35t8.5 31h38q-11 -48 -29 -90.5t-38 -71.5l83 -129h-45l-63 98q-40 -49 -89.5 -79.5 t-118.5 -30.5q-43 0 -79 12t-61.5 34t-40 54t-14.5 73q0 48 19.5 83t50 61t68.5 46t75 39q-11 19 -23 39.5t-21.5 41.5t-15.5 43t-6 45q0 39 13.5 66.5t36 44.5t51.5 24.5t61 7.5q36 0 62.5 -11t44 -29t26 -40t8.5 -43q0 -39 -17.5 -69t-44.5 -54t-59.5 -42.5t-62.5 -34.5z M317 669q-23 0 -44.5 -8t-38 -22t-26 -34t-9.5 -45q0 -21 6 -41t15 -39t20 -37t21 -35q24 13 53 28.5t54 35t41.5 44.5t16.5 57q0 42 -30.5 69t-78.5 27z"/>
<glyph glyph-name="quotesingle" horiz-adv-x="204" unicode="&apos;" d="M128 714h38v-229h-38v229z"/>
<glyph glyph-name="parenleft" horiz-adv-x="241" unicode="(" d="M312 731q-112 -132 -170.5 -286.5t-58.5 -331.5q0 -67 9.5 -139.5t36.5 -157.5h-33q-20 57 -35.5 133t-15.5 184q0 80 15.5 162t45.5 159.5t73.5 148t99.5 128.5h33z"/>
<glyph glyph-name="parenright" horiz-adv-x="241" unicode=")" d="M-84 -184q112 132 170.5 286.5t58.5 331.5q0 67 -9.5 139.5t-36.5 157.5h33q20 -57 35.5 -133t15.5 -184q0 -80 -15.5 -162t-45.5 -159.5t-73.5 -148t-99.5 -128.5h-33z"/>
<glyph glyph-name="asterisk" horiz-adv-x="352" unicode="*" d="M83 619l17 24l106 -61l28 132h29l-28 -134l125 37l8 -28l-127 -37l68 -103l-25 -15l-72 109l-92 -99l-23 20l92 95z"/>
<glyph glyph-name="plus" horiz-adv-x="600" unicode="+" d="M271 504h38v-233h233v-38h-233v-233h-38v233h-233v38h233v233z"/>
<glyph glyph-name="comma" horiz-adv-x="278" unicode="," d="M-5 -93q15 4 25 14t17 23t11 27.5t7 28.5h-18l23 103h50l-23 -103q-5 -20 -11.5 -40t-18 -37t-28 -30t-41.5 -19z"/>
<glyph glyph-name="hyphen" horiz-adv-x="352" unicode="-" d="M49 253l9 38h217l-8 -38h-218z"/>
<glyph glyph-name="period" horiz-adv-x="278" unicode="." d="M37 0l23 103h50l-23 -103h-50z"/>
<glyph glyph-name="slash" horiz-adv-x="333" unicode="/" d="M-62 -17l410 748h43l-410 -748h-43z"/>
<glyph glyph-name="zero" d="M218 21q51 0 91.5 22.5t71 59t52 83.5t35.5 96.5t20 97.5t6 87q0 42 -8 79t-27 64.5t-50 43t-77 15.5q-63 0 -113 -38t-84.5 -100.5t-52.5 -142.5t-18 -164q0 -36 8 -72t26.5 -65.5t48 -47.5t71.5 -18zM226 -12q-60 0 -99 21.5t-61.5 56t-31 76t-8.5 82.5q0 44 7 96.5 t22.5 106t39.5 103t57.5 88t77.5 61.5t99 23q54 0 92.5 -18.5t63 -50t36 -74.5t11.5 -92q0 -44 -7 -96.5t-22 -105.5t-39 -103t-58 -88.5t-79 -62t-101 -23.5z" unicode="0"/>
<glyph glyph-name="one" d="M149 564q68 10 118 43.5t98 82.5h38l-148 -690h-44l133 619l-2 2q-48 -42 -99.5 -63t-100.5 -29z" unicode="1"/>
<glyph glyph-name="two" d="M436 0h-452q3 50 23.5 89.5t52 71t70.5 57t79 47.5q51 28 100 54.5t87 55.5t61 64.5t23 81.5q0 69 -42.5 108.5t-111.5 39.5q-46 0 -81.5 -16t-61 -43.5t-40 -65.5t-17.5 -82h-38q2 52 19 96.5t48 76t74 49.5t96 18q41 0 76.5 -12t61.5 -35t40.5 -56t14.5 -76 q0 -50 -19 -87t-50 -66t-71 -52t-81 -45q-43 -23 -86 -47t-80 -52.5t-64 -63t-38 -77.5h413z" unicode="2"/>
<glyph glyph-name="three" d="M95 483q7 48 25.5 88t48 69.5t69.5 45.5t90 16q38 0 73.5 -11t62.5 -32.5t43 -53t16 -72.5q0 -36 -12 -66.5t-33.5 -53t-51 -36t-64.5 -16.5v-2q54 -9 84 -51t30 -97q0 -54 -19 -95t-53 -69t-79.5 -43t-98.5 -16q-96 1 -153.5 52.5t-57.5 152.5q0 9 1 18.5t2 18.5h38 q-3 -18 -3 -37q0 -81 46 -126.5t134 -45.5q42 0 79.5 13t65 36.5t44 57t16.5 75.5q0 45 -15 72.5t-41.5 42.5t-64 20.5t-82.5 5.5l7 33q39 0 81.5 4.5t78.5 20t59.5 45t23.5 80.5q0 35 -12.5 61.5t-34.5 44.5t-51 27t-62 9q-41 0 -73.5 -14.5t-56.5 -39.5t-39.5 -59 t-22.5 -73h-38z" unicode="3"/>
<glyph glyph-name="four" d="M343 209l92 419h-2l-383 -419h293zM8 215l436 475h42l-103 -481h112l-8 -33h-111l-37 -176h-40l37 176h-336z" unicode="4"/>
<glyph glyph-name="five" d="M184 690h358l-10 -33h-325l-92 -266l2 -2q26 33 72.5 53.5t93.5 20.5q93 0 148 -50.5t55 -147.5q0 -59 -18 -109.5t-51.5 -88t-81 -58.5t-105.5 -21q-54 0 -93 15.5t-64.5 39.5t-38 53t-13.5 57q-1 10 -1 18t1 17.5t3 21.5h38q-2 -13 -2.5 -23.5t-0.5 -24.5 q0 -20 9 -44.5t29 -46t52.5 -36t80.5 -14.5q51 0 91.5 19.5t68.5 52.5t43 75.5t15 89.5q0 40 -13 71.5t-35.5 54t-52.5 34.5t-64 12q-118 0 -179 -92l-41 2z" unicode="5"/>
<glyph glyph-name="six" d="M241 21q49 0 87 19.5t63.5 52t39 74t13.5 86.5q0 40 -13.5 71.5t-37 53.5t-56 33.5t-70.5 11.5q-45 0 -82.5 -18.5t-64.5 -49.5t-41.5 -71.5t-14.5 -83.5q0 -40 12.5 -73t35.5 -56.5t55.5 -36.5t73.5 -13zM488 515q0 78 -40 116t-116 38q-43 0 -77 -15.5t-60 -42 t-46 -60.5t-34 -71t-24 -74.5t-17 -69.5l2 -2q30 60 82.5 91t119.5 31q45 0 82.5 -15t64.5 -42t42 -64.5t15 -82.5q0 -53 -17 -100.5t-48.5 -84t-76.5 -58t-100 -21.5q-56 0 -96.5 17.5t-66.5 48.5t-38.5 74.5t-12.5 94.5q0 45 7.5 98t23 106t40 102.5t59 88t80 61.5 t102.5 23q88 0 138 -48t50 -139h-38z" unicode="6"/>
<glyph glyph-name="seven" d="M124 690h437l-9 -38q-138 -141 -240.5 -303.5t-162.5 -348.5h-44q27 92 69 179.5t94.5 170t114 159.5t128.5 148h-395z" unicode="7"/>
<glyph glyph-name="eight" d="M237 21q42 0 80.5 11.5t67.5 35t46 57.5t17 79q0 40 -17 68t-44 45.5t-61.5 25.5t-70.5 8q-40 0 -76.5 -11t-64.5 -33t-45 -54t-17 -75q0 -40 15 -69.5t40.5 -49t59 -29t70.5 -9.5zM235 -12q-43 0 -83 11.5t-70.5 34.5t-49 57.5t-18.5 81.5t15 82.5t42 60.5t63.5 39 t79.5 19v2q-22 6 -41.5 19t-34 31t-23 40t-8.5 46q0 48 18 83.5t49 59t71 35.5t84 12q37 0 72 -10.5t62 -30.5t43.5 -51t16.5 -71q0 -36 -12.5 -66.5t-34 -53t-51.5 -36.5t-65 -17v-2q126 -35 126 -167q0 -51 -22 -90t-57 -65.5t-80.5 -40t-91.5 -13.5zM329 669 q-35 0 -68.5 -9.5t-59 -28.5t-41 -48t-15.5 -67q0 -35 13 -59.5t35 -40.5t50.5 -23.5t60.5 -8.5q36 0 69 9t58 28t39.5 48t14.5 70q0 33 -13 57.5t-34.5 40.5t-50 24t-58.5 8z" unicode="8"/>
<glyph glyph-name="nine" d="M68 173q0 -78 41.5 -115t114.5 -37q61 0 105.5 34.5t75.5 85t50.5 109t31.5 106.5l-2 2q-34 -60 -87 -92t-120 -32q-45 0 -82.5 14.5t-64.5 41.5t-42 64t-15 82q0 52 17 100.5t48.5 85t76 58.5t100.5 22t96.5 -18t66.5 -49.5t38.5 -75t12.5 -94.5q0 -45 -7.5 -98 t-23 -106t-40 -102.5t-59 -87t-80 -60.5t-102.5 -23q-88 0 -138 50t-50 135h38zM315 669q-49 0 -87 -20t-63.5 -53t-39 -75t-13.5 -86q0 -39 13.5 -70.5t37 -53t56 -33t70.5 -11.5q45 0 82 18.5t64 49.5t42 71t15 82q0 39 -12.5 72t-35.5 57.5t-56 38t-73 13.5z" unicode="9"/>
<glyph glyph-name="colon" horiz-adv-x="278" unicode=":" d="M129 411l23 103h50l-23 -103h-50zM37 0l23 103h50l-23 -103h-50z"/>
<glyph glyph-name="semicolon" horiz-adv-x="278" unicode=";" d="M-5 -93q15 4 25 14t17 23t11 27.5t7 28.5h-18l23 103h50l-23 -103q-5 -20 -11.5 -40t-18 -37t-28 -30t-41.5 -19zM129 411l23 103h50l-23 -103h-50z"/>
<glyph glyph-name="less" horiz-adv-x="600" unicode="&lt;" d="M524 472l-475 -218l475 -220v-42l-508 236v52l508 234v-42z"/>
<glyph glyph-name="equal" horiz-adv-x="600" unicode="=" d="M537 331h-504v38h504v-38zM537 137h-504v38h504v-38z"/>
<glyph glyph-name="greater" horiz-adv-x="600" unicode="&gt;" d="M46 34l475 218l-475 220v42l508 -236v-52l-508 -234v42z"/>
<glyph glyph-name="question" horiz-adv-x="519" unicode="?" d="M197 181q5 60 26 97.5t49.5 63t59 43t54.5 37.5q11 9 24 22t24.5 30t19 38t7.5 46q0 68 -41.5 101.5t-106.5 33.5q-45 0 -77.5 -15t-54.5 -41.5t-35 -63t-20 -79.5h-44q5 47 21.5 90t45 75.5t69.5 52t95 19.5q36 0 70.5 -10t61.5 -30.5t43.5 -51t16.5 -71.5q0 -33 -7 -60 t-22 -50t-39 -44t-58 -43t-56.5 -38.5t-38 -36t-25.5 -46.5t-18 -69h-44zM178 103h50l-23 -103h-50z"/>
<glyph glyph-name="at" horiz-adv-x="800" unicode="@" d="M425 547q-42 0 -77.5 -26t-61 -65t-39.5 -84.5t-14 -84.5q0 -57 29 -89.5t74 -32.5q29 0 60.5 22.5t55.5 56.5q28 41 46.5 92.5t18.5 92.5q0 14 -2.5 34t-12 39t-28 32t-49.5 13zM513 264q-5 -16 -10.5 -32.5t-5.5 -27.5q0 -15 11.5 -24.5t27.5 -9.5q34 0 66.5 23.5 t57.5 60.5t40.5 82t15.5 87q0 63 -26 113.5t-68 86.5t-96 55.5t-109 19.5q-69 0 -129.5 -27.5t-105.5 -75t-71.5 -110t-26.5 -132.5q0 -74 29 -136t76 -106.5t107 -69.5t123 -25q84 0 156.5 41.5t118.5 110.5h44q-23 -43 -57.5 -77t-76.5 -58t-89.5 -37t-95.5 -13 q-80 0 -148 29.5t-118 80.5t-78.5 120t-28.5 147q0 77 29.5 144.5t80 118t117.5 79.5t142 29q71 0 133 -23t107.5 -64.5t72 -98.5t26.5 -125q0 -57 -21 -109t-54.5 -91.5t-74 -63.5t-79.5 -24q-26 0 -45.5 17.5t-20.5 53.5h-2q-24 -35 -58 -53t-76 -18q-29 0 -52.5 12 t-40 32.5t-26 48t-9.5 57.5q0 52 17.5 105t49 96t74.5 70t95 27q24 0 43.5 -7.5t33.5 -20.5t23 -29t12 -34h2l23 71h41z"/>
<glyph glyph-name="A" horiz-adv-x="611" unicode="A" d="M137 267h315l-72 403zM365 714h46l133 -714h-44l-41 229h-345l-138 -229h-50z"/>
<glyph glyph-name="B" horiz-adv-x="630" unicode="B" d="M126 390h239q96 0 151.5 42.5t55.5 120.5q0 41 -12.5 65.5t-34.5 37t-52.5 16.5t-65.5 4h-220zM51 38h267q51 0 91.5 13t68 37t42 57t14.5 73q0 73 -42 103.5t-135 30.5h-239zM151 714h260q45 0 82.5 -6.5t65 -24t42.5 -48t15 -78.5q0 -76 -46 -125.5t-125 -58.5v-2 q133 -21 133 -156q0 -37 -14 -75t-44.5 -69t-80 -51t-121.5 -20h-319z"/>
<glyph glyph-name="C" horiz-adv-x="704" unicode="C" d="M647 494q-1 48 -18.5 85.5t-47 62.5t-69 38t-85.5 13q-81 0 -145 -36t-108 -94t-67.5 -132t-23.5 -149q0 -66 18 -115t51 -81.5t78 -48.5t99 -16q50 0 95.5 17.5t83 48.5t64 72t38.5 89h44q-12 -57 -43 -106t-75.5 -84t-98.5 -55t-112 -20q-53 0 -104.5 15.5t-92 51.5 t-65 93.5t-24.5 141.5q0 51 11 104t33 102.5t54.5 93t75.5 76t96.5 51.5t116.5 19q62 0 111.5 -17t84 -48.5t52 -74t17.5 -91.5v-6h-44z"/>
<glyph glyph-name="D" horiz-adv-x="685" unicode="D" d="M150 714h231q72 0 122 -19t81.5 -56t46 -90.5t14.5 -122.5q0 -77 -25 -153t-74 -137t-120 -98.5t-164 -37.5h-263zM51 38h206q62 0 111.5 17t87.5 46.5t65.5 68.5t45 82t26 87.5t8.5 86.5q0 61 -12 108t-39 78.5t-71 47.5t-108 16h-185z"/>
<glyph glyph-name="E" d="M149 714h466l-9 -38h-421l-60 -286h392l-7 -38h-393l-66 -314h434l-8 -38h-478z" unicode="E"/>
<glyph glyph-name="F" horiz-adv-x="519" unicode="F" d="M148 714h448l-8 -38h-404l-60 -286h362l-7 -38h-363l-73 -352h-44z"/>
<glyph glyph-name="G" horiz-adv-x="741" unicode="G" d="M657 498q-8 97 -63 146t-167 49q-81 0 -145 -36t-108 -94t-67.5 -132t-23.5 -149q0 -66 18 -115t51 -81.5t78 -48.5t99 -16q73 0 127 26t91.5 67.5t60.5 93.5t34 104h-262l8 38h300l-74 -350h-33l33 147h-4q-48 -76 -114.5 -120t-170.5 -44q-53 0 -104.5 15.5t-92 51.5 t-65 93.5t-24.5 141.5q0 51 11 104t33 102.5t54.5 93t75.5 76t96.5 51.5t116.5 19q56 0 105 -13.5t85.5 -42t59 -72.5t25.5 -105h-44z"/>
<glyph glyph-name="H" horiz-adv-x="667" unicode="H" d="M152 714h44l-69 -324h445l69 324h44l-153 -714h-44l76 352h-445l-76 -352h-44z"/>
<glyph glyph-name="I" horiz-adv-x="185" unicode="I" d="M150 714h44l-151 -714h-44z"/>
<glyph glyph-name="J" horiz-adv-x="481" unicode="J" d="M455 714h44l-105 -481q-13 -58 -28.5 -104.5t-41 -78.5t-65 -49.5t-99.5 -17.5q-36 0 -67.5 9.5t-55 29t-37 48.5t-13.5 68q0 22 2.5 44t7.5 43h44q-10 -41 -10 -90q0 -30 12 -52t32 -35.5t45.5 -20t52.5 -6.5q44 0 73.5 15.5t48.5 41.5t30.5 60.5t19.5 72.5z"/>
<glyph glyph-name="K" horiz-adv-x="611" unicode="K" d="M149 714h44l-84 -400l2 -2l507 402h63l-384 -302l275 -412h-50l-257 387l-169 -133l-53 -254h-44z"/>
<glyph glyph-name="L" horiz-adv-x="500" unicode="L" d="M152 714h44l-145 -676h403l-8 -38h-447z"/>
<glyph glyph-name="M" horiz-adv-x="815" unicode="M" d="M152 714h60l135 -668h2l423 668h65l-155 -714h-44l151 670h-2l-425 -670h-43l-137 670h-2l-137 -670h-44z"/>
<glyph glyph-name="N" horiz-adv-x="685" unicode="N" d="M152 714h52l313 -670h2l139 670h44l-155 -714h-51l-315 670h-2l-136 -670h-44z"/>
<glyph glyph-name="O" horiz-adv-x="741" unicode="O" d="M83 287q0 -59 16 -108t47.5 -84t77 -54.5t104.5 -19.5q79 0 142 36t107 94t67.5 130.5t23.5 144.5q0 57 -15 106t-45.5 85t-76 56t-106.5 20q-78 0 -141 -33t-107.5 -89t-69 -129.5t-24.5 -154.5zM39 288q0 85 27 164.5t76.5 141.5t120.5 99.5t158 37.5q70 0 124 -21 t91 -60t56.5 -94.5t19.5 -124.5q0 -80 -26 -160t-75 -144t-119.5 -104t-158.5 -40q-71 0 -125.5 21.5t-92 61.5t-57 96.5t-19.5 125.5z"/>
<glyph glyph-name="P" horiz-adv-x="593" unicode="P" d="M43 0h-44l153 714h222q51 0 95 -6t76.5 -24.5t51 -52.5t18.5 -89q0 -59 -21 -101.5t-56.5 -69.5t-83 -40t-100.5 -13h-243zM119 356h250q42 0 79 12t64 35.5t43 58.5t16 80q0 48 -17 74.5t-46 40t-66.5 16.5t-79.5 3h-174z"/>
<glyph glyph-name="Q" horiz-adv-x="741" unicode="Q" d="M516 90q36 28 64.5 66.5t48 82.5t29.5 92t10 95q0 57 -15 106t-45.5 85t-76 56t-106.5 20q-78 0 -141 -33t-107.5 -89t-69 -129.5t-24.5 -154.5q0 -59 16 -108t47.5 -84t77 -54.5t104.5 -19.5q45 0 83.5 12t73.5 34l-91 85l26 28zM516 38q-38 -26 -83.5 -40.5 t-99.5 -14.5q-71 0 -125.5 21.5t-92 61.5t-57 96.5t-19.5 125.5q0 85 27 164.5t76.5 141.5t120.5 99.5t158 37.5q70 0 124 -21t91 -60t56.5 -94.5t19.5 -124.5q0 -51 -11 -103t-32 -100.5t-52 -91t-71 -74.5l97 -90l-26 -28z"/>
<glyph glyph-name="R" horiz-adv-x="630" unicode="R" d="M150 714h264q40 0 78 -7.5t67 -26.5t46.5 -52t17.5 -84q0 -44 -15 -80.5t-41.5 -63.5t-63.5 -42.5t-80 -16.5v-2q102 -17 102 -122q0 -37 -2.5 -75t-2.5 -71q0 -18 2.5 -36t8.5 -35h-44q-6 14 -7.5 31.5t-1.5 40.5q0 18 0.5 34t1 32.5t1 35t0.5 41.5q0 36 -11.5 58 t-34 33.5t-54.5 15t-72 3.5h-197l-70 -325h-43zM120 363h259q42 0 78.5 11.5t63.5 33t42.5 53.5t15.5 74q0 44 -13 71.5t-37 43t-57.5 21t-75.5 5.5h-210z"/>
<glyph glyph-name="S" horiz-adv-x="630" unicode="S" d="M64 235q-1 -5 -1 -21v-21q0 -33 12 -64t37.5 -55t66 -38.5t97.5 -14.5q47 0 88.5 9.5t72.5 29.5t49 52.5t18 78.5q0 39 -19.5 65t-48.5 44t-63 29t-64 20q-34 10 -69 23t-63.5 33.5t-46.5 52t-18 79.5t21 84.5t56.5 61t82 36.5t96.5 12q48 0 91 -11t75.5 -33.5t51.5 -56 t19 -79.5q0 -10 -0.5 -18.5t-2.5 -22.5h-44q2 15 2.5 21.5t0.5 15.5q0 38 -16 65.5t-43 45.5t-62 26.5t-73 8.5q-36 0 -73.5 -8t-68 -26.5t-50 -48.5t-19.5 -73q0 -40 16.5 -66t44 -43.5t62.5 -28.5t72 -21q37 -11 72.5 -24t63 -34t44.5 -51.5t17 -75.5q0 -52 -21 -91 t-58 -65.5t-87 -40t-108 -13.5q-52 0 -98.5 13.5t-81 39t-55 63t-20.5 86.5q0 13 -0.5 21t-0.5 12q0 8 1 17h45z"/>
<glyph glyph-name="T" horiz-adv-x="519" unicode="T" d="M54 676l9 38h548l-8 -38h-248l-143 -676h-44l143 676h-257z"/>
<glyph glyph-name="U" horiz-adv-x="667" unicode="U" d="M584 245q-15 -66 -38.5 -115t-60 -82t-87.5 -49t-121 -16q-50 0 -93.5 12.5t-76.5 38t-52 65t-19 93.5q0 22 4.5 50t9.5 50l90 422h44l-90 -422q-6 -30 -10 -52.5t-4 -54.5q0 -44 17.5 -75t46 -50.5t65.5 -29t75 -9.5q60 0 103 16.5t73.5 46t49.5 71t30 91.5l100 468h44z "/>
<glyph glyph-name="V" horiz-adv-x="574" unicode="V" d="M72 714h44l105 -670h2l394 670h44l-418 -714h-52z"/>
<glyph glyph-name="W" horiz-adv-x="907" unicode="W" d="M78 714h44l47 -664h2l330 664h55l52 -664h2l324 664h45l-354 -714h-49l-54 670h-2l-334 -670h-49z"/>
<glyph glyph-name="X" d="M499 0h-44l-173 333l-306 -333h-48l339 368l-183 346h44l166 -317l291 317h48l-323 -351z" unicode="X"/>
<glyph glyph-name="Y" d="M255 300l-191 414h44l174 -378l322 378h55l-362 -421l-63 -293h-44z" unicode="Y"/>
<glyph glyph-name="Z" horiz-adv-x="537" unicode="Z" d="M541 676h-454l9 38h502l-8 -38l-594 -638h489l-7 -38h-541l8 38z"/>
<glyph glyph-name="bracketleft" horiz-adv-x="241" unicode="[" d="M-15 -184l194 915h137l-6 -33h-100l-180 -849h100l-8 -33h-137z"/>
<glyph glyph-name="backslash" horiz-adv-x="333" unicode="\" d="M352 -17l-410 748h43l410 -748h-43z"/>
<glyph glyph-name="bracketright" horiz-adv-x="241" unicode="]" d="M232 731l-194 -915h-137l6 33h100l180 849h-100l8 33h137z"/>
<glyph glyph-name="asciicircum" horiz-adv-x="600" unicode="^" d="M519 237l-218 420l-220 -420h-42l236 453h52l234 -453h-42z"/>
<glyph glyph-name="underscore" horiz-adv-x="500" unicode="_" d="M0 -125v50h500v-50h-500z"/>
<glyph glyph-name="grave" horiz-adv-x="167" unicode="`" d="M127 730l99 -140h-37l-110 140h48z"/>
<glyph glyph-name="a" horiz-adv-x="500" unicode="a" d="M380 290h-2q-11 -11 -31 -17.5t-43 -11t-46.5 -6.5t-39.5 -3q-36 -1 -71 -5t-62.5 -17t-44.5 -37.5t-17 -66.5q0 -29 11 -49t29 -32.5t41.5 -18t49.5 -5.5q46 0 80.5 16t59 43.5t41 63.5t27.5 76zM58 366q20 86 77 123t144 37q19 0 46.5 -4.5t52.5 -18t42.5 -37 t17.5 -62.5q0 -17 -5 -44.5t-11 -54.5t-11.5 -49t-6.5 -28l-11 -44t-11 -47t-8.5 -42.5t-3.5 -30.5q0 -14 7 -23.5t21 -9.5q8 0 17 2t17 4l-6 -34q-11 -3 -22.5 -4t-21.5 -1q-26 0 -38 18t-12 35q0 8 3 20.5t5 22.5h-2q-15 -28 -38 -48t-49 -33t-54 -19t-53 -6 q-33 0 -62 7.5t-50.5 24t-34 42.5t-12.5 64q0 49 19 80t50.5 48t72 23.5t84.5 7.5q54 2 90 7.5t58 17t31.5 30.5t9.5 48q0 48 -29.5 76.5t-99.5 28.5q-69 0 -113 -30.5t-61 -96.5h-39z"/>
<glyph glyph-name="b" d="M145 714h38l-65 -300h2q12 23 31.5 43.5t45 35.5t55 24t61.5 9q51 0 87 -16.5t59.5 -45t34 -67.5t10.5 -84q0 -57 -17.5 -115t-51.5 -104.5t-83.5 -76t-113.5 -29.5q-67 0 -113 39.5t-63 105.5h-2l-29 -133h-38zM240 21q57 0 99 28t70.5 71t42.5 95t14 99q0 39 -10 71.5 t-29.5 56.5t-49 37.5t-69.5 13.5q-56 0 -99 -29.5t-71.5 -74t-43 -96t-14.5 -96.5q0 -30 11 -61.5t31.5 -57t50 -41.5t67.5 -16z" unicode="b"/>
<glyph glyph-name="c" horiz-adv-x="519" unicode="c" d="M454 168q-30 -80 -88.5 -130t-146.5 -50q-53 0 -90.5 16.5t-61.5 46t-35 69.5t-11 88q0 60 20 117t56.5 102t88 72t113.5 27q40 0 74.5 -12.5t59.5 -35t37 -51t12 -59.5q0 -7 -1 -14h-38q0 66 -38.5 102.5t-105.5 36.5q-56 0 -100.5 -25.5t-75.5 -66.5t-47.5 -91.5 t-16.5 -99.5q0 -37 9 -71t28 -60.5t48.5 -42t70.5 -15.5q72 0 121.5 40.5t75.5 106.5h42z"/>
<glyph glyph-name="d" d="M216 21q55 0 97.5 31.5t70.5 79.5t42.5 104t14.5 105q0 28 -9.5 55.5t-27.5 49t-44.5 34.5t-59.5 13q-61 0 -107 -28t-77.5 -71t-47.5 -95.5t-16 -100.5q0 -34 7 -66t25.5 -56.5t50 -39.5t81.5 -15zM568 714l-152 -714h-38l27 115l-2 2q-29 -60 -77.5 -94.5t-117.5 -34.5 q-48 0 -84.5 16t-61 44t-36.5 64.5t-12 77.5q0 58 17.5 118t53 108.5t88 79t122.5 30.5q66 0 111.5 -36t52.5 -100h2l69 324h38z" unicode="d"/>
<glyph glyph-name="e" horiz-adv-x="519" unicode="e" d="M57 252q-2 -14 -3.5 -28t-1.5 -28q0 -35 11 -67t31.5 -56t51 -38t69.5 -14q36 0 68.5 12.5t58 33t43 47.5t24.5 57h38q-11 -40 -32 -73.5t-51 -58t-68.5 -38t-84.5 -13.5q-49 0 -86 16t-61.5 44t-37 65t-12.5 78q0 72 19 133t54 106t86 70.5t114 25.5q45 0 80 -15 t59 -41.5t36.5 -63t12.5 -78.5q0 -20 -2 -38.5t-5 -37.5h-411zM432 285q2 13 3.5 23t1.5 20q0 33 -9.5 63t-28.5 52.5t-49 36t-70 13.5q-45 0 -81.5 -17t-63.5 -46t-45 -66.5t-27 -78.5h369z"/>
<glyph glyph-name="f" horiz-adv-x="241" unicode="f" d="M125 514l9 40q6 27 13.5 57t22 54.5t39.5 40.5t66 16q17 0 32 -1.5t22 -3.5l-7 -33q-20 5 -40 5q-32 0 -51 -12.5t-30.5 -32t-17.5 -43.5t-11 -47l-9 -40h109l-7 -33h-109l-103 -481h-38l102 481h-88l7 33h89z"/>
<glyph glyph-name="g" horiz-adv-x="537" unicode="g" d="M25 -36q0 -63 39 -95t102 -32q54 0 90 14.5t59.5 39.5t37 59.5t22.5 73.5l23 102h-2q-29 -51 -74.5 -79t-106.5 -28q-48 0 -84 15t-59.5 43t-35 66t-11.5 85q0 54 17 107.5t49 96t79.5 68.5t107.5 26q34 0 65 -10.5t54.5 -29t37.5 -45t15 -58.5h2l29 131h38l-106 -490 q-11 -53 -29 -93.5t-47.5 -69t-72.5 -43t-104 -14.5q-37 0 -69.5 10.5t-56 31t-35.5 48t-12 60.5v10h38zM279 493q-51 0 -91.5 -23.5t-68 -61t-42 -84.5t-14.5 -93q0 -84 38 -131.5t122 -47.5q52 0 91 26.5t65.5 67t39.5 89.5t13 94q0 47 -16 78.5t-39 50.5t-50 27t-48 8z "/>
<glyph glyph-name="h" horiz-adv-x="519" unicode="h" d="M144 714h38l-66 -308h2q34 54 86 87t121 33q29 0 55.5 -9.5t46.5 -28t32 -45t12 -59.5q0 -9 -1.5 -23t-4 -29t-5 -28.5t-4.5 -22.5l-63 -281h-38l63 280q1 7 3.5 20t5 27.5t4.5 29.5t2 26q0 49 -31.5 79.5t-89.5 30.5q-49 0 -87.5 -23t-67 -59.5t-47.5 -81t-28 -87.5 l-51 -242h-38z"/>
<glyph glyph-name="i" horiz-adv-x="167" unicode="i" d="M100 514h38l-107 -514h-38zM142 714h38l-21 -103h-38z"/>
<glyph glyph-name="j" horiz-adv-x="167" unicode="j" d="M100 514h38l-115 -555q-4 -18 -8.5 -42.5t-16.5 -47t-35 -38t-65 -15.5q-22 0 -41 3l7 34q17 -4 40 -4q22 0 36 9.5t22.5 25.5t13.5 36.5t10 41.5zM142 714h38l-21 -103h-38z"/>
<glyph glyph-name="k" horiz-adv-x="463" unicode="k" d="M146 714h38l-102 -472l2 -2l345 274h57l-261 -205l184 -309h-48l-168 285l-122 -95l-40 -190h-38z"/>
<glyph glyph-name="l" horiz-adv-x="167" unicode="l" d="M142 714h38l-149 -714h-38z"/>
<glyph glyph-name="m" horiz-adv-x="796" unicode="m" d="M104 514h38l-23 -107l2 -2q14 25 32.5 47t41.5 38.5t50 26t58 9.5q61 0 93.5 -34t32.5 -94h3q25 57 74.5 92.5t112.5 35.5q27 0 52 -8t44.5 -24t31 -38.5t11.5 -52.5q0 -24 -4 -47.5t-10 -50.5l-65 -305h-38l65 303q3 14 8.5 40t5.5 52q0 27 -10 46t-26 30.5t-36.5 16.5 t-42.5 5q-32 0 -62.5 -19t-56 -48.5t-43.5 -64.5t-25 -68l-63 -293h-38l63 293q5 20 8 47t3 51q0 49 -27 75.5t-73 26.5q-41 0 -75 -23.5t-60.5 -59t-44 -77t-25.5 -78.5l-55 -255h-38z"/>
<glyph glyph-name="n" horiz-adv-x="519" unicode="n" d="M102 514h38l-25 -112h2q34 57 86 90.5t122 33.5q29 0 55.5 -9.5t46.5 -28t32 -45t12 -59.5q0 -9 -1.5 -23t-4 -29t-5 -28.5t-4.5 -22.5l-63 -281h-38l63 280q1 7 3.5 20t5 27.5t4.5 29.5t2 26q0 49 -31.5 79.5t-89.5 30.5q-49 0 -87.5 -23t-67 -59.5t-47.5 -81t-28 -87.5 l-51 -242h-38z"/>
<glyph glyph-name="o" horiz-adv-x="537" unicode="o" d="M299 493h-4q-56 0 -101.5 -25t-77 -66t-48 -92.5t-16.5 -102.5q0 -39 9.5 -72.5t30 -59t52 -40t75.5 -14.5q59 0 103.5 28.5t74 72.5t44.5 97.5t15 103.5q0 76 -38 122t-119 48zM291 526q96 0 149.5 -53t53.5 -149q0 -59 -17.5 -119t-52 -108t-86 -78.5t-118.5 -30.5 q-53 0 -91.5 15.5t-64 44t-38 68t-12.5 88.5q0 58 19 116t54.5 103.5t87 74t116.5 28.5z"/>
<glyph glyph-name="p" d="M102 514h38l-22 -100h2q12 23 31.5 43.5t45 35.5t55 24t61.5 9q51 0 87 -16.5t59.5 -45t34 -67.5t10.5 -84q0 -57 -17.5 -115t-51.5 -104.5t-83.5 -76t-113.5 -29.5q-67 0 -113 39.5t-63 105.5h-2l-70 -317h-38zM240 21q57 0 99 28t70.5 71t42.5 95t14 99q0 39 -10 71.5 t-29.5 56.5t-49 37.5t-69.5 13.5q-56 0 -99 -29.5t-71.5 -74t-43 -96t-14.5 -96.5q0 -30 11 -61.5t31.5 -57t50 -41.5t67.5 -16z" unicode="p"/>
<glyph glyph-name="q" d="M216 21q55 0 97.5 31.5t70.5 79.5t42.5 104t14.5 105q0 28 -9.5 55.5t-27.5 49t-44.5 34.5t-59.5 13q-61 0 -107 -28t-77.5 -71t-47.5 -95.5t-16 -100.5q0 -34 7 -66t25.5 -56.5t50 -39.5t81.5 -15zM376 -184h-38l67 299l-2 2q-29 -60 -77.5 -94.5t-117.5 -34.5 q-48 0 -84.5 16t-61 44t-36.5 64.5t-12 77.5q0 58 17.5 118t53 108.5t88 79t122.5 30.5q66 0 111.5 -36t52.5 -100h2l26 124h38z" unicode="q"/>
<glyph glyph-name="r" horiz-adv-x="278" unicode="r" d="M98 514h38l-28 -123h2q28 58 76.5 96.5t117.5 38.5q8 0 16 -0.5t16 -1.5l-11 -40q-15 4 -31 4q-56 0 -94.5 -29t-64.5 -71.5t-41 -91.5t-24 -88l-45 -208h-38z"/>
<glyph glyph-name="s" horiz-adv-x="463" unicode="s" d="M36 175q0 -6 -0.5 -12t-0.5 -12q0 -72 46.5 -101t127.5 -29q21 0 45 7t45 21t34.5 34.5t13.5 47.5q-1 37 -22.5 58.5t-53 36t-68.5 25.5t-68 27.5t-51.5 41t-20.5 63.5q0 40 16 66.5t42 43.5t58.5 25t65.5 8q36 0 68 -8.5t56 -24.5t38 -40.5t14 -55.5q0 -9 -0.5 -17 t-1.5 -21h-38q1 9 1.5 17t0.5 16q0 25 -11 44t-30 31.5t-44 19t-53 6.5q-23 0 -48 -5t-46.5 -17t-35.5 -31.5t-14 -48.5q0 -25 12.5 -42.5t32.5 -30.5t45.5 -22.5t51.5 -18.5q27 -9 52.5 -20t45.5 -26.5t32 -37t12 -51.5q0 -38 -16.5 -67t-43.5 -48.5t-61 -29t-70 -9.5 q-41 0 -77 8t-62.5 26t-42 47.5t-15.5 72.5v16v8t1 9h38z"/>
<glyph glyph-name="t" horiz-adv-x="259" unicode="t" d="M27 514h95l35 161h38l-35 -161h110l-8 -33h-108l-78 -358q-1 -2 -2 -8.5t-2.5 -14t-2.5 -14.5t-1 -10q0 -22 13.5 -32.5t44.5 -10.5q28 0 57 3l-7 -33q-10 0 -27 -1.5t-35 -1.5q-45 0 -64.5 20t-19.5 57q0 10 3 24t5 25l78 355h-97z"/>
<glyph glyph-name="u" horiz-adv-x="519" unicode="u" d="M378 0h-38l24 108l-2 2q-17 -29 -36 -51.5t-43 -38.5t-53.5 -24t-68.5 -8q-29 0 -55.5 9.5t-46.5 28t-32 45t-12 59.5q0 9 1.5 23t4 29t5 28.5t4.5 22.5l63 281h38l-63 -280q-2 -7 -4.5 -20t-5 -28t-4 -29.5t-1.5 -25.5q0 -49 31.5 -79.5t89.5 -30.5q46 0 83.5 23 t66 59.5t47 81t27.5 87.5l51 242h38z"/>
<glyph glyph-name="v" horiz-adv-x="426" unicode="v" d="M27 514h42l77 -470h2l263 470h45l-293 -514h-46z"/>
<glyph glyph-name="w" horiz-adv-x="704" unicode="w" d="M27 514h38l51 -470h2l238 470h51l47 -470h2l242 470h44l-274 -514h-46l-46 466h-2l-241 -466h-47z"/>
<glyph glyph-name="x" horiz-adv-x="426" unicode="x" d="M205 296l198 218h50l-228 -249l142 -265h-46l-127 237l-218 -237h-51l250 270l-129 244h47z"/>
<glyph glyph-name="y" horiz-adv-x="426" unicode="y" d="M-59 -148q19 -3 36 -3q37 0 59 21t40 50l50 80l-101 514h44l86 -463l262 463h45l-349 -604q-13 -23 -26 -40.5t-29 -29.5t-36 -18t-48 -6q-12 0 -22.5 1t-18.5 2z"/>
<glyph glyph-name="z" horiz-adv-x="426" unicode="z" d="M-44 38l430 438h-328l9 38h381l-10 -38l-433 -438h349l-8 -38h-397z"/>
<glyph glyph-name="braceleft" horiz-adv-x="333" unicode="{" d="M383 698h-48q-31 0 -46 -23t-27 -80l-33 -157q-11 -50 -26.5 -80.5t-30.5 -48t-28.5 -25t-19.5 -11.5q3 -3 10.5 -8t15 -15t13 -27t5.5 -44q0 -14 -2 -33t-6 -37l-33 -157q-4 -17 -6.5 -34t-2.5 -29q0 -22 10 -31t30 -9h49l-7 -33h-50q-33 0 -51.5 14t-18.5 51q0 11 2 26 t4 27l33 159q5 23 8 44.5t3 41.5q0 32 -11 53.5t-38 21.5l8 38q22 1 39 15.5t30 37t22 51.5t15 59l32 158q13 68 42 93t71 25h50z"/>
<glyph glyph-name="bar" horiz-adv-x="222" unicode="|" d="M92 786h38v-1000h-38v1000z"/>
<glyph glyph-name="braceright" horiz-adv-x="333" unicode="}" d="M-70 -151h48q31 0 46 23t27 80l33 157q10 49 25.5 80t31 49t29 25t19.5 10q-3 3 -10.5 8.5t-15 15.5t-13 27t-5.5 44q0 14 2 33t6 37l33 157q4 17 6.5 34t2.5 29q0 22 -10 31t-30 9h-49l7 33h50q33 0 51.5 -14t18.5 -51q0 -11 -2 -26t-4 -27l-33 -159q-5 -23 -8 -44.5 t-3 -41.5q0 -32 11 -53.5t38 -22.5l-8 -38q-22 -1 -39 -15t-30 -36.5t-22 -51.5t-15 -59l-32 -158q-14 -68 -42.5 -93t-70.5 -25h-50z"/>
<glyph glyph-name="asciitilde" horiz-adv-x="600" unicode="~" d="M508 284q-10 -15 -22 -30t-26.5 -27.5t-32.5 -20t-40 -7.5q-28 0 -54 10.5t-60 27.5q-9 4 -20.5 9.5t-24 10t-25 7.5t-22.5 3q-22 0 -38.5 -7t-28.5 -18.5t-19.5 -24.5t-12.5 -25l-29 30q23 38 49.5 60.5t72.5 22.5q30 0 53.5 -8.5t57.5 -23.5q21 -10 45.5 -23t56.5 -13 q14 0 28 7t26 18.5t22 24.5t16 25z"/>
<glyph glyph-name="uni00A0" horiz-adv-x="278" unicode=" "/>
<glyph glyph-name="exclamdown" horiz-adv-x="204" unicode="¡" d="M91 432l23 103h50l-23 -103h-50zM117 347l-59 -311l-47 -220h-42l47 220l72 311h29z"/>
<glyph glyph-name="cent" d="M301 496q-53 -6 -94.5 -33.5t-70.5 -68.5t-44 -91t-15 -100q0 -31 7 -60.5t22 -54t38.5 -41.5t56.5 -23zM461 358q0 60 -35.5 96.5t-96.5 38.5l-101 -471q3 -1 11 -1h12q23 0 48 7.5t48.5 24.5t45 44.5t37.5 66.5h42q-35 -82 -90.5 -129t-133.5 -47h-14q-8 0 -13 1 l-22 -105h-27l22 108q-41 6 -70.5 24.5t-48.5 47t-27.5 65t-8.5 79.5q0 58 19 114t54 100t84.5 72.5t111.5 31.5l19 88h27l-18 -88q72 -4 116.5 -45.5t46.5 -122.5h-38z" unicode="¢"/>
<glyph glyph-name="sterling" d="M44 363h81q-14 38 -23 76.5t-9 77.5q0 52 20 92t53.5 67t76.5 41t89 14q42 0 78.5 -12t64 -36t44 -60.5t17.5 -85.5v-22q0 -5 -0.5 -11t-1.5 -11h-38q0 11 1 20.5t1 22.5q-4 87 -52 122t-127 35q-40 0 -74.5 -13t-59.5 -37t-39.5 -57.5t-14.5 -74.5q0 -37 9.5 -76 t22.5 -72h163l-7 -33h-148q3 -14 6.5 -34.5t3.5 -42.5q0 -32 -11.5 -62t-29.5 -56.5t-41 -49.5t-46 -42l2 -2q21 11 40 17.5t45 6.5q28 0 51.5 -7t46.5 -15q24 -8 47 -15t49 -7q40 0 73.5 21t57.5 53l19 -32q-36 -42 -72 -61t-78 -19q-32 0 -57.5 7.5t-50.5 15.5 q-25 9 -50.5 15t-51.5 6q-29 0 -61 -13t-55 -31l-17 38q22 20 48.5 45t49.5 53.5t38.5 59.5t15.5 63q0 24 -2.5 46.5t-7.5 41.5h-94z" unicode="£"/>
<glyph glyph-name="currency" d="M492 104l-53 54q-35 -31 -77 -46t-85 -15t-84 15t-76 46l-55 -56l-27 27l56 55q-30 35 -45 76.5t-16 84.5q0 43 15 84.5t46 76.5l-57 56l27 27l56 -56q35 29 76 44t84 16q43 0 85 -15t77 -46l54 55l27 -27l-55 -54q31 -35 46 -76.5t15 -84.5t-15 -84.5t-46 -75.5l54 -54z M278 135q41 0 78 16.5t65 45t44.5 66.5t16.5 82q0 43 -16.5 81.5t-44.5 67t-65 45t-78 16.5t-78 -16.5t-65 -45t-44.5 -67t-16.5 -81.5q0 -44 16.5 -82t44.5 -66.5t65 -45t78 -16.5z" unicode="¤"/>
<glyph glyph-name="yen" d="M100 231h129l17 78h-140l7 33h122l-135 372h46l127 -368l283 368h50l-288 -372h120l-7 -33h-138l-5 -6l-15 -72h151l-7 -33h-152l-43 -198h-43l43 198h-129z" unicode="¥"/>
<glyph glyph-name="brokenbar" horiz-adv-x="222" unicode="¦" d="M92 161h38v-250h-38v250zM92 661h38v-250h-38v250z"/>
<glyph glyph-name="section" d="M97 349q0 -20 7.5 -39t19.5 -36t26 -32.5t27 -28.5q31 -31 64.5 -63.5t67.5 -64.5q11 1 31 7t39 19t33 35t14 56q0 40 -22.5 72.5t-48.5 57.5q-30 28 -68 64t-74 73q-14 -1 -33.5 -7t-38 -19.5t-31.5 -36.5t-13 -57zM447 538q1 5 1 15v20q0 19 -3.5 41t-15.5 41t-35 31 t-61 12q-25 0 -47.5 -6.5t-40 -21t-27.5 -37.5t-10 -56q0 -29 13.5 -53t25.5 -38q32 -32 68 -64.5t68 -64.5q10 -11 24 -26.5t26.5 -34.5t21.5 -42.5t9 -51.5v-5q0 -28 -10 -52t-29 -42.5t-44 -30t-52 -15.5q14 -17 23 -40t9 -45q0 -41 -14 -70.5t-37.5 -48.5t-54 -28 t-63.5 -9q-75 0 -122.5 40.5t-47.5 112.5v20v10.5t1 10.5h38q0 -4 -0.5 -15t-0.5 -26q0 -18 6 -39t21 -39t41 -30t66 -12q22 0 44.5 6t41.5 20t31 36.5t12 55.5q0 35 -17.5 62.5t-40.5 47.5q-6 5 -21 19.5t-34 33t-38 37.5l-33 33q-31 31 -55.5 65.5t-24.5 81.5 q0 30 10.5 55.5t29.5 45t43.5 32.5t53.5 17q-26 38 -26 83q0 40 13.5 68.5t35.5 47t51 27t61 8.5q71 0 113 -36t42 -116v-20v-10.5t-1 -10.5h-38z" unicode="§"/>
<glyph glyph-name="dieresis" horiz-adv-x="167" unicode="¨" d="M238 706h44l-21 -103h-44zM79 706h44l-21 -103h-44z"/>
<glyph glyph-name="copyright" horiz-adv-x="800" unicode="©" d="M401 698q-72 0 -134 -26t-107 -72t-70.5 -108t-25.5 -134q0 -71 26 -133.5t71 -109t106.5 -73t133.5 -26.5t133 27t106 73.5t70.5 108.5t25.5 133q0 72 -25.5 134t-70 107.5t-106 72t-133.5 26.5zM561 438q-11 57 -52.5 89.5t-99.5 32.5q-44 0 -78.5 -15t-58.5 -42 t-36.5 -64t-12.5 -80q0 -42 13 -79.5t37.5 -65.5t59 -44.5t78.5 -16.5q61 0 98.5 35.5t51.5 92.5h38q-5 -36 -21.5 -66t-41 -51t-57 -32.5t-68.5 -11.5q-51 0 -93 18t-71.5 50t-45.5 75.5t-16 94.5t15.5 94.5t44.5 74.5t70 48.5t93 17.5q36 0 68.5 -10t58 -30t42.5 -49 t22 -66h-38zM26 357q0 78 29.5 146t80 118.5t118.5 80t146 29.5t146 -29.5t118.5 -80t80 -118.5t29.5 -146t-29.5 -146t-80 -118.5t-118.5 -80t-146 -29.5t-146 29.5t-118.5 80t-80 118.5t-29.5 146z"/>
<glyph glyph-name="ordfeminine" horiz-adv-x="300" unicode="ª" d="M274 554l-2 2q-6 -8 -18.5 -13t-27.5 -8t-29.5 -4t-24.5 -1q-18 0 -40 -2.5t-41 -10t-31.5 -22t-12.5 -38.5q0 -18 7 -30.5t18.5 -20t26.5 -10.5t31 -3q28 0 50.5 10t38.5 26.5t27 38t17 45.5zM63 601q13 55 51 78t99 23q13 0 30.5 -3t34 -11t28 -22.5t11.5 -37.5 q0 -10 -3 -26.5t-7 -33t-7.5 -29.5t-4.5 -16q-3 -12 -7 -26.5t-7 -28.5t-5.5 -26t-2.5 -18q0 -22 18 -22q11 0 22 3l-4 -27q-8 -2 -15 -2.5t-14 -0.5q-17 0 -24.5 10.5t-7.5 21.5q0 8 0.5 13t1.5 10l-2 2q-9 -17 -23 -29t-30.5 -20.5t-34.5 -12.5t-34 -4q-49 0 -80 19.5 t-31 66.5q0 34 12.5 54.5t33 31.5t47 14.5t54.5 4.5q35 0 58.5 3t38 9.5t20.5 17.5t6 27q0 27 -18.5 44t-60.5 17q-43 0 -71.5 -18t-39.5 -56h-32z"/>
<glyph glyph-name="guillemotleft" horiz-adv-x="389" unicode="«" d="M314 372l-113 -105l70 -97l-11 -49l-91 132l9 38l147 132zM186 372l-113 -105l70 -97l-11 -49l-91 132l9 38l147 132z"/>
<glyph glyph-name="logicalnot" horiz-adv-x="600" unicode="¬" d="M504 331h-466v38h504v-261h-38v223z"/>
<glyph glyph-name="uni00AD" horiz-adv-x="352" unicode="­" d="M49 253l9 38h217l-8 -38h-218z"/>
<glyph glyph-name="registered" horiz-adv-x="800" unicode="®" d="M264 578h166q75 0 109.5 -31t34.5 -91q0 -27 -9 -47.5t-24.5 -34.5t-36 -23t-44.5 -12l132 -203h-42l-133 204h-115v-204h-38v442zM302 373h94q25 0 50 2.5t45 11t32.5 25t12.5 45.5q0 25 -10 42t-26 27.5t-36 14.5t-40 4h-122v-172zM401 698q-72 0 -134 -26t-107 -72 t-70.5 -108t-25.5 -134q0 -71 26 -133.5t71 -109t106.5 -73t133.5 -26.5t133 27t106 73.5t70.5 108.5t25.5 133q0 72 -25.5 134t-70 107.5t-106 72t-133.5 26.5zM26 357q0 78 29.5 146t80 118.5t118.5 80t146 29.5t146 -29.5t118.5 -80t80 -118.5t29.5 -146t-29.5 -146 t-80 -118.5t-118.5 -80t-146 -29.5t-146 29.5t-118.5 80t-80 118.5t-29.5 146z"/>
<glyph glyph-name="macron" horiz-adv-x="167" unicode="¯" d="M41 638l6 33h240l-6 -33h-240z"/>
<glyph glyph-name="degree" horiz-adv-x="400" unicode="°" d="M240 669q-23 0 -42 -9t-33 -24t-22 -35t-8 -42q0 -23 8 -43t22 -35t33 -23.5t42 -8.5q22 0 41.5 8.5t33.5 23.5t22 35t8 43q0 22 -8 42t-22 35t-33.5 24t-41.5 9zM240 416q-30 0 -56 11t-45.5 30.5t-30.5 45.5t-11 56t11 56t30.5 45.5t45.5 30.5t56 11t56 -11t45.5 -30.5 t30.5 -45.5t11 -56t-11 -56t-30.5 -45.5t-45.5 -30.5t-56 -11z"/>
<glyph glyph-name="plusminus" horiz-adv-x="600" unicode="±" d="M261 504h38v-189h233v-38h-233v-189h-38v189h-233v38h233v189zM28 38h504v-38h-504v38z"/>
<glyph glyph-name="twosuperior" horiz-adv-x="360" unicode="²" d="M120 688q2 32 14 58t32 44.5t46.5 28.5t58.5 10q57 0 91.5 -31t34.5 -79q0 -26 -9 -47t-24.5 -38.5t-36 -32.5t-44.5 -28l-60 -34q-44 -25 -76.5 -52t-40.5 -59h241l-5 -31h-277q4 31 17 55.5t32.5 45t44 37t50.5 31.5l54 30q47 26 73 52.5t27 69.5q0 37 -25.5 59 t-67.5 22q-49 0 -81 -30.5t-36 -80.5h-33z"/>
<glyph glyph-name="threesuperior" horiz-adv-x="360" unicode="³" d="M123 700q8 57 46 93t101 36q55 0 88 -29.5t33 -76.5q0 -42 -27 -69.5t-72 -35.5q34 -9 54.5 -33t20.5 -59q0 -32 -11.5 -57.5t-31.5 -43.5t-47.5 -27.5t-58.5 -9.5q-68 0 -103.5 38.5t-35.5 99.5h33q1 -48 28 -78t80 -30q49 0 81 28t32 79q0 38 -28.5 59t-73.5 21h-19 l5 31h24q22 0 43.5 3.5t37.5 13.5t26 26.5t10 42.5q0 35 -25 56t-64 21q-50 0 -77.5 -26.5t-36.5 -72.5h-32z"/>
<glyph glyph-name="acute" horiz-adv-x="167" unicode="´" d="M202 730h49l-126 -140h-37z"/>
<glyph glyph-name="mu" horiz-adv-x="528" unicode="µ" d="M387 0h-38l24 108l-2 2q-17 -29 -36 -51.5t-43 -38.5t-53.5 -24t-68.5 -8q-42 0 -76.5 19t-50.5 57l-53 -248h-38l150 698h38l-62 -280q-6 -27 -10.5 -56.5t-4.5 -46.5q0 -49 31 -79.5t89 -30.5q46 0 83.5 23t66 59.5t47 81t27.5 87.5l51 242h38z"/>
<glyph glyph-name="paragraph" horiz-adv-x="600" unicode="¶" d="M284 328q-38 0 -69.5 12t-54 32.5t-35 48t-12.5 59.5q0 57 22.5 100.5t59.5 73t85.5 45t100.5 15.5h217l-178 -860h-44l171 827h-146l-171 -827h-44z"/>
<glyph glyph-name="periodcentered" horiz-adv-x="278" unicode="·" d="M77 317q0 21 16.5 37.5t37.5 16.5t38 -16t17 -38t-16.5 -38.5t-38.5 -16.5t-38 17t-16 38z"/>
<glyph glyph-name="cedilla" horiz-adv-x="167" unicode="¸" d="M-50 -154q20 -10 39 -16.5t42 -6.5q25 0 43 13.5t18 40.5q0 19 -15 31t-35 12q-13 0 -26.5 -4t-24.5 -9l-14 15l73 78h24l-48 -55l2 -2q5 2 12.5 3t14.5 1q30 0 53 -18.5t23 -52.5q0 -22 -10 -37.5t-25 -25.5t-33 -14.5t-34 -4.5q-24 0 -47 7t-45 18z"/>
<glyph glyph-name="onesuperior" horiz-adv-x="360" unicode="¹" d="M158 738q37 6 77 26.5t66 55.5h30l-95 -423h-34l82 367q-24 -21 -57 -36t-75 -22z"/>
<glyph glyph-name="ordmasculine" horiz-adv-x="322" unicode="º" d="M219 675h-5q-35 0 -63 -15t-48.5 -40t-31 -55.5t-10.5 -60.5q0 -47 25 -79t81 -32q37 0 65.5 17t48 43t29 58.5t9.5 62.5q0 45 -24.5 72t-75.5 29zM214 702q66 0 101.5 -32.5t35.5 -95.5q0 -38 -11.5 -75t-34 -66.5t-57 -48t-80.5 -18.5q-72 0 -105.5 36t-33.5 100 q0 37 12.5 73t36 64.5t58 45.5t78.5 17z"/>
<glyph glyph-name="guillemotright" horiz-adv-x="389" unicode="»" d="M44 172l113 105l-70 97l11 49l91 -132l-9 -38l-147 -132zM172 172l113 105l-70 97l11 49l91 -132l-9 -38l-147 -132z"/>
<glyph glyph-name="onequarter" horiz-adv-x="834" unicode="¼" d="M615 101h-214l6 33l280 289h31l-63 -291h71l-6 -31h-71l-22 -101h-34zM445 132h176l52 235zM598 714h40l-465 -738h-40zM112 615q37 6 77 26.5t66 55.5h30l-95 -423h-34l82 367q-24 -21 -57 -36t-75 -22z"/>
<glyph glyph-name="onehalf" horiz-adv-x="834" unicode="½" d="M487 291q2 32 14 58t32 44.5t46.5 28.5t58.5 10q57 0 91.5 -31t34.5 -79q0 -26 -9 -47t-24.5 -38.5t-36 -32.5t-44.5 -28l-60 -34q-44 -25 -76.5 -52t-40.5 -59h241l-5 -31h-277q4 31 17 55.5t32.5 45t44 37t50.5 31.5l54 30q47 26 73 52.5t27 69.5q0 37 -25.5 59 t-67.5 22q-49 0 -81 -30.5t-36 -80.5h-33zM572 714h40l-465 -738h-40zM112 615q37 6 77 26.5t66 55.5h30l-95 -423h-34l82 367q-24 -21 -57 -36t-75 -22z"/>
<glyph glyph-name="threequarters" horiz-adv-x="834" unicode="¾" d="M110 577q8 57 46 93t101 36q55 0 88 -29.5t33 -76.5q0 -42 -27 -69.5t-72 -35.5q34 -9 54.5 -33t20.5 -59q0 -32 -11.5 -57.5t-31.5 -43.5t-47.5 -27.5t-58.5 -9.5q-68 0 -103.5 38.5t-35.5 99.5h33q1 -48 28 -78t80 -30q49 0 81 28t32 79q0 38 -28.5 59t-73.5 21h-19 l5 31h24q22 0 43.5 3.5t37.5 13.5t26 26.5t10 42.5q0 35 -25 56t-64 21q-50 0 -77.5 -26.5t-36.5 -72.5h-32zM638 101h-214l6 33l280 289h31l-63 -291h71l-6 -31h-71l-22 -101h-34zM468 132h176l52 235zM666 714h40l-465 -738h-40z"/>
<glyph glyph-name="questiondown" horiz-adv-x="519" unicode="¿" d="M291 349q-5 -58 -26 -94.5t-49.5 -61.5t-59 -42.5t-54.5 -37.5q-11 -9 -24 -22t-24.5 -30t-19 -38t-7.5 -46q0 -68 41.5 -101.5t106.5 -33.5q45 0 77.5 15t54.5 41.5t35 63t20 79.5h44q-5 -47 -21.5 -90t-45 -75.5t-69.5 -52t-95 -19.5q-36 0 -70.5 10t-61.5 30.5 t-43.5 51t-16.5 71.5q0 33 7 60t22 50t39 44t58 43t56.5 38.5t38 35.5t25.5 44.5t18 66.5h44zM283 535h50l-23 -103h-50z"/>
<glyph glyph-name="Agrave" horiz-adv-x="611" unicode="À" d="M331 920l99 -140h-37l-110 140h48zM137 267h315l-72 403zM365 714h46l133 -714h-44l-41 229h-345l-138 -229h-50z"/>
<glyph glyph-name="Aacute" horiz-adv-x="611" unicode="Á" d="M484 920h49l-126 -140h-37zM137 267h315l-72 403zM365 714h46l133 -714h-44l-41 229h-345l-138 -229h-50z"/>
<glyph glyph-name="Acircumflex" horiz-adv-x="611" unicode="Â" d="M309 780h-44l133 140h46l88 -140h-42l-71 115zM137 267h315l-72 403zM365 714h46l133 -714h-44l-41 229h-345l-138 -229h-50z"/>
<glyph glyph-name="Atilde" horiz-adv-x="611" unicode="Ã" d="M557 887q-6 -33 -27.5 -60.5t-56.5 -27.5q-18 0 -36 9t-35 19.5t-32 19.5t-28 9q-20 0 -33.5 -18.5t-17.5 -36.5h-29q3 15 9.5 31t17 28.5t24.5 20.5t31 8q19 0 35.5 -8.5t33.5 -19.5q16 -11 32 -20t33 -9q9 0 17 5.5t14.5 14t11 18t7.5 17.5h29zM137 267h315l-72 403z M365 714h46l133 -714h-44l-41 229h-345l-138 -229h-50z"/>
<glyph glyph-name="Adieresis" horiz-adv-x="611" unicode="Ä" d="M477 896h44l-21 -103h-44zM318 896h44l-21 -103h-44zM137 267h315l-72 403zM365 714h46l133 -714h-44l-41 229h-345l-138 -229h-50z"/>
<glyph glyph-name="Aring" horiz-adv-x="611" unicode="Å" d="M306 850q0 42 28.5 70.5t70.5 28.5t70.5 -28.5t28.5 -70.5t-28.5 -70.5t-70.5 -28.5t-70.5 28.5t-28.5 70.5zM333 850q0 -30 21 -51t51 -21t51 21t21 51t-21 51t-51 21t-51 -21t-21 -51zM137 267h315l-72 403zM365 714h46l133 -714h-44l-41 229h-345l-138 -229h-50z"/>
<glyph glyph-name="AE" horiz-adv-x="870" unicode="Æ" d="M-87 0l544 714h472l-8 -38h-366l-61 -286h341l-8 -38h-341l-66 -314h381l-10 -38h-423l54 254h-264l-193 -254h-52zM185 292h244l82 384h-34z"/>
<glyph glyph-name="Ccedilla" horiz-adv-x="704" unicode="Ç" d="M647 494q-1 48 -18.5 85.5t-47 62.5t-69 38t-85.5 13q-81 0 -145 -36t-108 -94t-67.5 -132t-23.5 -149q0 -66 18 -115t51 -81.5t78 -48.5t99 -16q50 0 95.5 17.5t83 48.5t64 72t38.5 89h44q-12 -57 -43 -106t-75.5 -84t-98.5 -55t-112 -20h-10t-10 1l-37 -41q17 7 36 7 q31 0 50.5 -17.5t19.5 -46.5q0 -42 -29.5 -62t-74.5 -20q-28 0 -51 7t-40 18l13 24q17 -10 36.5 -16t41.5 -6q28 0 46.5 13.5t18.5 38.5q0 18 -12.5 29.5t-34.5 11.5q-14 0 -26 -3.5t-23 -8.5l-15 13l51 62q-47 6 -89.5 25.5t-75 55.5t-52 89.5t-19.5 127.5q0 51 11 104 t33 102.5t54.5 93t75.5 76t96.5 51.5t116.5 19q62 0 111.5 -17t84 -48.5t52 -74t17.5 -91.5v-6h-44z"/>
<glyph glyph-name="Egrave" d="M325 920l99 -140h-37l-110 140h48zM149 714h466l-9 -38h-421l-60 -286h392l-7 -38h-393l-66 -314h434l-8 -38h-478z" unicode="È"/>
<glyph glyph-name="Eacute" d="M464 920h49l-126 -140h-37zM149 714h466l-9 -38h-421l-60 -286h392l-7 -38h-393l-66 -314h434l-8 -38h-478z" unicode="É"/>
<glyph glyph-name="Ecircumflex" d="M289 780h-44l133 140h46l88 -140h-42l-71 115zM149 714h466l-9 -38h-421l-60 -286h392l-7 -38h-393l-66 -314h434l-8 -38h-478z" unicode="Ê"/>
<glyph glyph-name="Edieresis" d="M457 896h44l-21 -103h-44zM298 896h44l-21 -103h-44zM149 714h466l-9 -38h-421l-60 -286h392l-7 -38h-393l-66 -314h434l-8 -38h-478z" unicode="Ë"/>
<glyph glyph-name="Igrave" horiz-adv-x="185" unicode="Ì" d="M114 920l99 -140h-37l-110 140h48zM150 714h44l-151 -714h-44z"/>
<glyph glyph-name="Iacute" horiz-adv-x="185" unicode="Í" d="M272 920h49l-126 -140h-37zM150 714h44l-151 -714h-44z"/>
<glyph glyph-name="Icircumflex" horiz-adv-x="185" unicode="Î" d="M92 780h-44l133 140h46l88 -140h-42l-71 115zM150 714h44l-151 -714h-44z"/>
<glyph glyph-name="Idieresis" horiz-adv-x="185" unicode="Ï" d="M260 896h44l-21 -103h-44zM101 896h44l-21 -103h-44zM150 714h44l-151 -714h-44z"/>
<glyph glyph-name="Eth" horiz-adv-x="685" unicode="Ð" d="M125 388h237l-7 -33h-237l-67 -317h206q62 0 111.5 17t87.5 46.5t65.5 68.5t45 82t26 87.5t8.5 86.5q0 61 -12 108t-39 78.5t-71 47.5t-108 16h-185zM74 355h-80l6 33h81l69 326h231q72 0 122 -19t81.5 -56t46 -90.5t14.5 -122.5q0 -77 -25 -153t-74 -137t-120 -98.5 t-164 -37.5h-263z"/>
<glyph glyph-name="Ntilde" horiz-adv-x="685" unicode="Ñ" d="M589 887q-6 -33 -27.5 -60.5t-56.5 -27.5q-18 0 -36 9t-35 19.5t-32 19.5t-28 9q-20 0 -33.5 -18.5t-17.5 -36.5h-29q3 15 9.5 31t17 28.5t24.5 20.5t31 8q19 0 35.5 -8.5t33.5 -19.5q16 -11 32 -20t33 -9q9 0 17 5.5t14.5 14t11 18t7.5 17.5h29zM152 714h52l313 -670h2 l139 670h44l-155 -714h-51l-315 670h-2l-136 -670h-44z"/>
<glyph glyph-name="Ograve" horiz-adv-x="741" unicode="Ò" d="M397 920l99 -140h-37l-110 140h48zM83 287q0 -59 16 -108t47.5 -84t77 -54.5t104.5 -19.5q79 0 142 36t107 94t67.5 130.5t23.5 144.5q0 57 -15 106t-45.5 85t-76 56t-106.5 20q-78 0 -141 -33t-107.5 -89t-69 -129.5t-24.5 -154.5zM39 288q0 85 27 164.5t76.5 141.5 t120.5 99.5t158 37.5q70 0 124 -21t91 -60t56.5 -94.5t19.5 -124.5q0 -80 -26 -160t-75 -144t-119.5 -104t-158.5 -40q-71 0 -125.5 21.5t-92 61.5t-57 96.5t-19.5 125.5z"/>
<glyph glyph-name="Oacute" horiz-adv-x="741" unicode="Ó" d="M536 920h49l-126 -140h-37zM83 287q0 -59 16 -108t47.5 -84t77 -54.5t104.5 -19.5q79 0 142 36t107 94t67.5 130.5t23.5 144.5q0 57 -15 106t-45.5 85t-76 56t-106.5 20q-78 0 -141 -33t-107.5 -89t-69 -129.5t-24.5 -154.5zM39 288q0 85 27 164.5t76.5 141.5t120.5 99.5 t158 37.5q70 0 124 -21t91 -60t56.5 -94.5t19.5 -124.5q0 -80 -26 -160t-75 -144t-119.5 -104t-158.5 -40q-71 0 -125.5 21.5t-92 61.5t-57 96.5t-19.5 125.5z"/>
<glyph glyph-name="Ocircumflex" horiz-adv-x="741" unicode="Ô" d="M361 780h-44l133 140h46l88 -140h-42l-71 115zM83 287q0 -59 16 -108t47.5 -84t77 -54.5t104.5 -19.5q79 0 142 36t107 94t67.5 130.5t23.5 144.5q0 57 -15 106t-45.5 85t-76 56t-106.5 20q-78 0 -141 -33t-107.5 -89t-69 -129.5t-24.5 -154.5zM39 288q0 85 27 164.5 t76.5 141.5t120.5 99.5t158 37.5q70 0 124 -21t91 -60t56.5 -94.5t19.5 -124.5q0 -80 -26 -160t-75 -144t-119.5 -104t-158.5 -40q-71 0 -125.5 21.5t-92 61.5t-57 96.5t-19.5 125.5z"/>
<glyph glyph-name="Otilde" horiz-adv-x="741" unicode="Õ" d="M609 887q-6 -33 -27.5 -60.5t-56.5 -27.5q-18 0 -36 9t-35 19.5t-32 19.5t-28 9q-20 0 -33.5 -18.5t-17.5 -36.5h-29q3 15 9.5 31t17 28.5t24.5 20.5t31 8q19 0 35.5 -8.5t33.5 -19.5q16 -11 32 -20t33 -9q9 0 17 5.5t14.5 14t11 18t7.5 17.5h29zM83 287q0 -59 16 -108 t47.5 -84t77 -54.5t104.5 -19.5q79 0 142 36t107 94t67.5 130.5t23.5 144.5q0 57 -15 106t-45.5 85t-76 56t-106.5 20q-78 0 -141 -33t-107.5 -89t-69 -129.5t-24.5 -154.5zM39 288q0 85 27 164.5t76.5 141.5t120.5 99.5t158 37.5q70 0 124 -21t91 -60t56.5 -94.5 t19.5 -124.5q0 -80 -26 -160t-75 -144t-119.5 -104t-158.5 -40q-71 0 -125.5 21.5t-92 61.5t-57 96.5t-19.5 125.5z"/>
<glyph glyph-name="Odieresis" horiz-adv-x="741" unicode="Ö" d="M529 896h44l-21 -103h-44zM370 896h44l-21 -103h-44zM83 287q0 -59 16 -108t47.5 -84t77 -54.5t104.5 -19.5q79 0 142 36t107 94t67.5 130.5t23.5 144.5q0 57 -15 106t-45.5 85t-76 56t-106.5 20q-78 0 -141 -33t-107.5 -89t-69 -129.5t-24.5 -154.5zM39 288 q0 85 27 164.5t76.5 141.5t120.5 99.5t158 37.5q70 0 124 -21t91 -60t56.5 -94.5t19.5 -124.5q0 -80 -26 -160t-75 -144t-119.5 -104t-158.5 -40q-71 0 -125.5 21.5t-92 61.5t-57 96.5t-19.5 125.5z"/>
<glyph glyph-name="multiply" horiz-adv-x="600" unicode="×" d="M253 252l-194 195l26 27l195 -195l194 195l27 -27l-194 -195l194 -194l-27 -27l-194 195l-195 -195l-26 27z"/>
<glyph glyph-name="Oslash" horiz-adv-x="741" unicode="Ø" d="M154 88q32 -34 75.5 -50t98.5 -17q79 0 142 36t107 94t67.5 130.5t23.5 144.5q0 54 -13 99.5t-39 79.5zM599 625q-28 30 -69.5 49t-104.5 19q-78 0 -141 -33t-107.5 -89t-69 -129.5t-24.5 -154.5q0 -54 14 -102t40 -78zM109 75q-32 33 -51 85.5t-19 127.5q0 85 27 164.5 t76.5 141.5t120.5 99.5t158 37.5q72 0 123 -20.5t83 -52.5l70 78l21 -16l-73 -81q32 -38 49.5 -88.5t17.5 -119.5q0 -80 -26 -160t-75 -144t-119.5 -104t-158.5 -40q-74 0 -123 20t-84 54l-76 -85l-19 15z"/>
<glyph glyph-name="Ugrave" horiz-adv-x="667" unicode="Ù" d="M365 920l99 -140h-37l-110 140h48zM584 245q-15 -66 -38.5 -115t-60 -82t-87.5 -49t-121 -16q-50 0 -93.5 12.5t-76.5 38t-52 65t-19 93.5q0 22 4.5 50t9.5 50l90 422h44l-90 -422q-6 -30 -10 -52.5t-4 -54.5q0 -44 17.5 -75t46 -50.5t65.5 -29t75 -9.5q60 0 103 16.5 t73.5 46t49.5 71t30 91.5l100 468h44z"/>
<glyph glyph-name="Uacute" horiz-adv-x="667" unicode="Ú" d="M504 920h49l-126 -140h-37zM584 245q-15 -66 -38.5 -115t-60 -82t-87.5 -49t-121 -16q-50 0 -93.5 12.5t-76.5 38t-52 65t-19 93.5q0 22 4.5 50t9.5 50l90 422h44l-90 -422q-6 -30 -10 -52.5t-4 -54.5q0 -44 17.5 -75t46 -50.5t65.5 -29t75 -9.5q60 0 103 16.5t73.5 46 t49.5 71t30 91.5l100 468h44z"/>
<glyph glyph-name="Ucircumflex" horiz-adv-x="667" unicode="Û" d="M329 780h-44l133 140h46l88 -140h-42l-71 115zM584 245q-15 -66 -38.5 -115t-60 -82t-87.5 -49t-121 -16q-50 0 -93.5 12.5t-76.5 38t-52 65t-19 93.5q0 22 4.5 50t9.5 50l90 422h44l-90 -422q-6 -30 -10 -52.5t-4 -54.5q0 -44 17.5 -75t46 -50.5t65.5 -29t75 -9.5 q60 0 103 16.5t73.5 46t49.5 71t30 91.5l100 468h44z"/>
<glyph glyph-name="Udieresis" horiz-adv-x="667" unicode="Ü" d="M497 896h44l-21 -103h-44zM338 896h44l-21 -103h-44zM584 245q-15 -66 -38.5 -115t-60 -82t-87.5 -49t-121 -16q-50 0 -93.5 12.5t-76.5 38t-52 65t-19 93.5q0 22 4.5 50t9.5 50l90 422h44l-90 -422q-6 -30 -10 -52.5t-4 -54.5q0 -44 17.5 -75t46 -50.5t65.5 -29t75 -9.5 q60 0 103 16.5t73.5 46t49.5 71t30 91.5l100 468h44z"/>
<glyph glyph-name="Yacute" d="M451 920h49l-126 -140h-37zM255 300l-191 414h44l174 -378l322 378h55l-362 -421l-63 -293h-44z" unicode="Ý"/>
<glyph glyph-name="Thorn" horiz-adv-x="593" unicode="Þ" d="M93 236h250q42 0 79 12t64 35.5t43 58.5t16 80q0 48 -17 74.5t-46 40t-66.5 16.5t-79.5 3h-174zM43 0h-44l153 714h44l-26 -120h178q51 0 95 -6t76.5 -24.5t51 -52.5t18.5 -89q0 -59 -21 -101.5t-56.5 -69.5t-83 -40t-100.5 -13h-243z"/>
<glyph glyph-name="germandbls" horiz-adv-x="500" unicode="ß" d="M229 412q41 0 79 9t67.5 28.5t47 50t17.5 72.5q0 61 -39 91t-96 30q-42 0 -70.5 -16t-48 -42t-31 -59.5t-18.5 -68.5l-106 -507h-38l107 511q10 47 25 86.5t39.5 68t60.5 44.5t89 16q73 0 118.5 -39.5t45.5 -115.5q0 -35 -11.5 -65t-32.5 -53t-49.5 -38.5t-62.5 -20.5v-2 q60 -11 91 -50t31 -99q0 -54 -19 -100.5t-52 -81t-78.5 -54t-98.5 -19.5q-14 0 -28 1t-28 4l8 33q13 -2 25 -3.5t25 -1.5q44 0 82 17.5t66 47t44 69t16 83.5q0 43 -15.5 70t-41 43t-59 22t-70.5 6z"/>
<glyph glyph-name="agrave" horiz-adv-x="500" unicode="à" d="M239 730l99 -140h-37l-110 140h48zM380 290h-2q-11 -11 -31 -17.5t-43 -11t-46.5 -6.5t-39.5 -3q-36 -1 -71 -5t-62.5 -17t-44.5 -37.5t-17 -66.5q0 -29 11 -49t29 -32.5t41.5 -18t49.5 -5.5q46 0 80.5 16t59 43.5t41 63.5t27.5 76zM58 366q20 86 77 123t144 37 q19 0 46.5 -4.5t52.5 -18t42.5 -37t17.5 -62.5q0 -17 -5 -44.5t-11 -54.5t-11.5 -49t-6.5 -28l-11 -44t-11 -47t-8.5 -42.5t-3.5 -30.5q0 -14 7 -23.5t21 -9.5q8 0 17 2t17 4l-6 -34q-11 -3 -22.5 -4t-21.5 -1q-26 0 -38 18t-12 35q0 8 3 20.5t5 22.5h-2q-15 -28 -38 -48 t-49 -33t-54 -19t-53 -6q-33 0 -62 7.5t-50.5 24t-34 42.5t-12.5 64q0 49 19 80t50.5 48t72 23.5t84.5 7.5q54 2 90 7.5t58 17t31.5 30.5t9.5 48q0 48 -29.5 76.5t-99.5 28.5q-69 0 -113 -30.5t-61 -96.5h-39z"/>
<glyph glyph-name="aacute" horiz-adv-x="500" unicode="á" d="M378 730h49l-126 -140h-37zM380 290h-2q-11 -11 -31 -17.5t-43 -11t-46.5 -6.5t-39.5 -3q-36 -1 -71 -5t-62.5 -17t-44.5 -37.5t-17 -66.5q0 -29 11 -49t29 -32.5t41.5 -18t49.5 -5.5q46 0 80.5 16t59 43.5t41 63.5t27.5 76zM58 366q20 86 77 123t144 37q19 0 46.5 -4.5 t52.5 -18t42.5 -37t17.5 -62.5q0 -17 -5 -44.5t-11 -54.5t-11.5 -49t-6.5 -28l-11 -44t-11 -47t-8.5 -42.5t-3.5 -30.5q0 -14 7 -23.5t21 -9.5q8 0 17 2t17 4l-6 -34q-11 -3 -22.5 -4t-21.5 -1q-26 0 -38 18t-12 35q0 8 3 20.5t5 22.5h-2q-15 -28 -38 -48t-49 -33t-54 -19 t-53 -6q-33 0 -62 7.5t-50.5 24t-34 42.5t-12.5 64q0 49 19 80t50.5 48t72 23.5t84.5 7.5q54 2 90 7.5t58 17t31.5 30.5t9.5 48q0 48 -29.5 76.5t-99.5 28.5q-69 0 -113 -30.5t-61 -96.5h-39z"/>
<glyph glyph-name="acircumflex" horiz-adv-x="500" unicode="â" d="M203 590h-44l133 140h46l88 -140h-42l-71 115zM380 290h-2q-11 -11 -31 -17.5t-43 -11t-46.5 -6.5t-39.5 -3q-36 -1 -71 -5t-62.5 -17t-44.5 -37.5t-17 -66.5q0 -29 11 -49t29 -32.5t41.5 -18t49.5 -5.5q46 0 80.5 16t59 43.5t41 63.5t27.5 76zM58 366q20 86 77 123 t144 37q19 0 46.5 -4.5t52.5 -18t42.5 -37t17.5 -62.5q0 -17 -5 -44.5t-11 -54.5t-11.5 -49t-6.5 -28l-11 -44t-11 -47t-8.5 -42.5t-3.5 -30.5q0 -14 7 -23.5t21 -9.5q8 0 17 2t17 4l-6 -34q-11 -3 -22.5 -4t-21.5 -1q-26 0 -38 18t-12 35q0 8 3 20.5t5 22.5h-2 q-15 -28 -38 -48t-49 -33t-54 -19t-53 -6q-33 0 -62 7.5t-50.5 24t-34 42.5t-12.5 64q0 49 19 80t50.5 48t72 23.5t84.5 7.5q54 2 90 7.5t58 17t31.5 30.5t9.5 48q0 48 -29.5 76.5t-99.5 28.5q-69 0 -113 -30.5t-61 -96.5h-39z"/>
<glyph glyph-name="atilde" horiz-adv-x="500" unicode="ã" d="M451 697q-6 -33 -27.5 -60.5t-56.5 -27.5q-18 0 -36 9t-35 19.5t-32 19.5t-28 9q-20 0 -33.5 -18.5t-17.5 -36.5h-29q3 15 9.5 31t17 28.5t24.5 20.5t31 8q19 0 35.5 -8.5t33.5 -19.5q16 -11 32 -20t33 -9q9 0 17 5.5t14.5 14t11 18t7.5 17.5h29zM380 290h-2 q-11 -11 -31 -17.5t-43 -11t-46.5 -6.5t-39.5 -3q-36 -1 -71 -5t-62.5 -17t-44.5 -37.5t-17 -66.5q0 -29 11 -49t29 -32.5t41.5 -18t49.5 -5.5q46 0 80.5 16t59 43.5t41 63.5t27.5 76zM58 366q20 86 77 123t144 37q19 0 46.5 -4.5t52.5 -18t42.5 -37t17.5 -62.5 q0 -17 -5 -44.5t-11 -54.5t-11.5 -49t-6.5 -28l-11 -44t-11 -47t-8.5 -42.5t-3.5 -30.5q0 -14 7 -23.5t21 -9.5q8 0 17 2t17 4l-6 -34q-11 -3 -22.5 -4t-21.5 -1q-26 0 -38 18t-12 35q0 8 3 20.5t5 22.5h-2q-15 -28 -38 -48t-49 -33t-54 -19t-53 -6q-33 0 -62 7.5t-50.5 24 t-34 42.5t-12.5 64q0 49 19 80t50.5 48t72 23.5t84.5 7.5q54 2 90 7.5t58 17t31.5 30.5t9.5 48q0 48 -29.5 76.5t-99.5 28.5q-69 0 -113 -30.5t-61 -96.5h-39z"/>
<glyph glyph-name="adieresis" horiz-adv-x="500" unicode="ä" d="M371 706h44l-21 -103h-44zM212 706h44l-21 -103h-44zM380 290h-2q-11 -11 -31 -17.5t-43 -11t-46.5 -6.5t-39.5 -3q-36 -1 -71 -5t-62.5 -17t-44.5 -37.5t-17 -66.5q0 -29 11 -49t29 -32.5t41.5 -18t49.5 -5.5q46 0 80.5 16t59 43.5t41 63.5t27.5 76zM58 366 q20 86 77 123t144 37q19 0 46.5 -4.5t52.5 -18t42.5 -37t17.5 -62.5q0 -17 -5 -44.5t-11 -54.5t-11.5 -49t-6.5 -28l-11 -44t-11 -47t-8.5 -42.5t-3.5 -30.5q0 -14 7 -23.5t21 -9.5q8 0 17 2t17 4l-6 -34q-11 -3 -22.5 -4t-21.5 -1q-26 0 -38 18t-12 35q0 8 3 20.5t5 22.5 h-2q-15 -28 -38 -48t-49 -33t-54 -19t-53 -6q-33 0 -62 7.5t-50.5 24t-34 42.5t-12.5 64q0 49 19 80t50.5 48t72 23.5t84.5 7.5q54 2 90 7.5t58 17t31.5 30.5t9.5 48q0 48 -29.5 76.5t-99.5 28.5q-69 0 -113 -30.5t-61 -96.5h-39z"/>
<glyph glyph-name="aring" horiz-adv-x="500" unicode="å" d="M200 670q0 42 28.5 70.5t70.5 28.5t70.5 -28.5t28.5 -70.5t-28.5 -70.5t-70.5 -28.5t-70.5 28.5t-28.5 70.5zM227 670q0 -30 21 -51t51 -21t51 21t21 51t-21 51t-51 21t-51 -21t-21 -51zM380 290h-2q-11 -11 -31 -17.5t-43 -11t-46.5 -6.5t-39.5 -3q-36 -1 -71 -5 t-62.5 -17t-44.5 -37.5t-17 -66.5q0 -29 11 -49t29 -32.5t41.5 -18t49.5 -5.5q46 0 80.5 16t59 43.5t41 63.5t27.5 76zM58 366q20 86 77 123t144 37q19 0 46.5 -4.5t52.5 -18t42.5 -37t17.5 -62.5q0 -17 -5 -44.5t-11 -54.5t-11.5 -49t-6.5 -28l-11 -44t-11 -47t-8.5 -42.5 t-3.5 -30.5q0 -14 7 -23.5t21 -9.5q8 0 17 2t17 4l-6 -34q-11 -3 -22.5 -4t-21.5 -1q-26 0 -38 18t-12 35q0 8 3 20.5t5 22.5h-2q-15 -28 -38 -48t-49 -33t-54 -19t-53 -6q-33 0 -62 7.5t-50.5 24t-34 42.5t-12.5 64q0 49 19 80t50.5 48t72 23.5t84.5 7.5q54 2 90 7.5t58 17 t31.5 30.5t9.5 48q0 48 -29.5 76.5t-99.5 28.5q-69 0 -113 -30.5t-61 -96.5h-39z"/>
<glyph glyph-name="ae" horiz-adv-x="852" unicode="æ" d="M60 362q14 78 69 121t133 43q30 0 58.5 -7t51 -22t36 -39.5t13.5 -58.5h2q12 27 32 50t46 40.5t56 27t62 9.5q42 0 76 -15t58 -41.5t36.5 -61.5t12.5 -75q0 -20 -1.5 -40.5t-6.5 -40.5h-392q-5 -19 -6.5 -37.5t-1.5 -40.5q0 -34 11.5 -62t32.5 -48.5t49.5 -31.5t63.5 -11 t64.5 11.5t52.5 31.5t40 47.5t28 59.5h38q-29 -88 -84 -135.5t-152 -47.5q-32 0 -62 11t-55 31.5t-41 49.5t-19 66h-2q-12 -33 -33 -62t-48 -50t-60 -33.5t-69 -12.5t-66 10t-51.5 28t-33 42.5t-11.5 53.5q0 53 22 84t57.5 47.5t79.5 23t88 10.5q43 4 72.5 9t47.5 16t26 30 t8 51q0 48 -32.5 74t-90.5 26q-29 0 -57 -9t-51 -26t-38.5 -41.5t-19.5 -54.5h-39zM372 289h-2q-9 -11 -27 -17.5t-38.5 -9.5t-40.5 -4.5t-33 -2.5q-8 -1 -27 -2t-41.5 -5t-47 -12t-44.5 -22.5t-33 -36.5t-13 -54q0 -24 9.5 -43t26 -32t37.5 -20t45 -7q45 0 80 15.5 t61.5 41.5t43.5 61t26 74zM759 285q3 14 4 27t1 26q0 31 -10 59t-28.5 49.5t-45.5 34t-60 12.5q-45 0 -80.5 -17.5t-62 -46.5t-44 -66.5t-26.5 -77.5h352z"/>
<glyph glyph-name="ccedilla" horiz-adv-x="519" unicode="ç" d="M454 168q-30 -80 -88.5 -130t-146.5 -50h-12l-42 -45q17 7 36 7q31 0 50.5 -17.5t19.5 -46.5q0 -42 -29.5 -62t-74.5 -20q-28 0 -51 7t-40 18l13 24q17 -10 36.5 -16t41.5 -6q28 0 46.5 13.5t18.5 38.5q0 18 -12.5 29.5t-34.5 11.5q-14 0 -26 -3.5t-23 -8.5l-15 13l55 66 q-41 6 -70.5 25t-48.5 47.5t-27.5 65t-8.5 79.5q0 60 20 117t56.5 102t88 72t113.5 27q40 0 74.5 -12.5t59.5 -35t37 -51t12 -59.5q0 -7 -1 -14h-38q0 66 -38.5 102.5t-105.5 36.5q-56 0 -100.5 -25.5t-75.5 -66.5t-47.5 -91.5t-16.5 -99.5q0 -37 9 -71t28 -60.5t48.5 -42 t70.5 -15.5q72 0 121.5 40.5t75.5 106.5h42z"/>
<glyph glyph-name="egrave" horiz-adv-x="519" unicode="è" d="M248 730l99 -140h-37l-110 140h48zM57 252q-2 -14 -3.5 -28t-1.5 -28q0 -35 11 -67t31.5 -56t51 -38t69.5 -14q36 0 68.5 12.5t58 33t43 47.5t24.5 57h38q-11 -40 -32 -73.5t-51 -58t-68.5 -38t-84.5 -13.5q-49 0 -86 16t-61.5 44t-37 65t-12.5 78q0 72 19 133t54 106 t86 70.5t114 25.5q45 0 80 -15t59 -41.5t36.5 -63t12.5 -78.5q0 -20 -2 -38.5t-5 -37.5h-411zM432 285q2 13 3.5 23t1.5 20q0 33 -9.5 63t-28.5 52.5t-49 36t-70 13.5q-45 0 -81.5 -17t-63.5 -46t-45 -66.5t-27 -78.5h369z"/>
<glyph glyph-name="eacute" horiz-adv-x="519" unicode="é" d="M387 730h49l-126 -140h-37zM57 252q-2 -14 -3.5 -28t-1.5 -28q0 -35 11 -67t31.5 -56t51 -38t69.5 -14q36 0 68.5 12.5t58 33t43 47.5t24.5 57h38q-11 -40 -32 -73.5t-51 -58t-68.5 -38t-84.5 -13.5q-49 0 -86 16t-61.5 44t-37 65t-12.5 78q0 72 19 133t54 106t86 70.5 t114 25.5q45 0 80 -15t59 -41.5t36.5 -63t12.5 -78.5q0 -20 -2 -38.5t-5 -37.5h-411zM432 285q2 13 3.5 23t1.5 20q0 33 -9.5 63t-28.5 52.5t-49 36t-70 13.5q-45 0 -81.5 -17t-63.5 -46t-45 -66.5t-27 -78.5h369z"/>
<glyph glyph-name="ecircumflex" horiz-adv-x="519" unicode="ê" d="M212 590h-44l133 140h46l88 -140h-42l-71 115zM57 252q-2 -14 -3.5 -28t-1.5 -28q0 -35 11 -67t31.5 -56t51 -38t69.5 -14q36 0 68.5 12.5t58 33t43 47.5t24.5 57h38q-11 -40 -32 -73.5t-51 -58t-68.5 -38t-84.5 -13.5q-49 0 -86 16t-61.5 44t-37 65t-12.5 78 q0 72 19 133t54 106t86 70.5t114 25.5q45 0 80 -15t59 -41.5t36.5 -63t12.5 -78.5q0 -20 -2 -38.5t-5 -37.5h-411zM432 285q2 13 3.5 23t1.5 20q0 33 -9.5 63t-28.5 52.5t-49 36t-70 13.5q-45 0 -81.5 -17t-63.5 -46t-45 -66.5t-27 -78.5h369z"/>
<glyph glyph-name="edieresis" horiz-adv-x="519" unicode="ë" d="M380 706h44l-21 -103h-44zM221 706h44l-21 -103h-44zM57 252q-2 -14 -3.5 -28t-1.5 -28q0 -35 11 -67t31.5 -56t51 -38t69.5 -14q36 0 68.5 12.5t58 33t43 47.5t24.5 57h38q-11 -40 -32 -73.5t-51 -58t-68.5 -38t-84.5 -13.5q-49 0 -86 16t-61.5 44t-37 65t-12.5 78 q0 72 19 133t54 106t86 70.5t114 25.5q45 0 80 -15t59 -41.5t36.5 -63t12.5 -78.5q0 -20 -2 -38.5t-5 -37.5h-411zM432 285q2 13 3.5 23t1.5 20q0 33 -9.5 63t-28.5 52.5t-49 36t-70 13.5q-45 0 -81.5 -17t-63.5 -46t-45 -66.5t-27 -78.5h369z"/>
<glyph glyph-name="igrave" horiz-adv-x="167" unicode="ì" d="M65 730l99 -140h-37l-110 140h48zM-7 0l107 514h38l-107 -514h-38z"/>
<glyph glyph-name="iacute" horiz-adv-x="167" unicode="í" d="M222 730h49l-126 -140h-37zM-7 0l107 514h38l-107 -514h-38z"/>
<glyph glyph-name="icircumflex" horiz-adv-x="167" unicode="î" d="M40 590h-44l133 140h46l88 -140h-42l-71 115zM-7 0l107 514h38l-107 -514h-38z"/>
<glyph glyph-name="idieresis" horiz-adv-x="167" unicode="ï" d="M208 706h44l-21 -103h-44zM49 706h44l-21 -103h-44zM-7 0l107 514h38l-107 -514h-38z"/>
<glyph glyph-name="eth" horiz-adv-x="537" unicode="ð" d="M289 473q-54 -1 -98 -24.5t-75 -61.5t-47.5 -86t-16.5 -98q0 -38 9.5 -71.5t30 -58t52 -38.5t75.5 -14q59 0 103.5 27t74 67.5t44.5 87t15 86.5q0 55 -17 90.5t-42.5 56.5t-54.5 29t-53 8zM280 644q-24 23 -45 39.5t-35 24.5l33 23q17 -9 39.5 -28.5t43.5 -40.5l118 60 l24 -20l-119 -60q27 -29 55 -68t50 -84.5t36 -95.5t14 -99q0 -59 -18 -114t-53 -98t-86 -69t-117 -26q-104 0 -155 57.5t-51 154.5q0 58 19 113t54.5 98t87 69t116.5 26q32 0 66.5 -10.5t54.5 -31.5h2q-28 57 -54.5 94.5t-55.5 63.5l-112 -57l-24 22z"/>
<glyph glyph-name="ntilde" horiz-adv-x="519" unicode="ñ" d="M461 697q-6 -33 -27.5 -60.5t-56.5 -27.5q-18 0 -36 9t-35 19.5t-32 19.5t-28 9q-20 0 -33.5 -18.5t-17.5 -36.5h-29q3 15 9.5 31t17 28.5t24.5 20.5t31 8q19 0 35.5 -8.5t33.5 -19.5q16 -11 32 -20t33 -9q9 0 17 5.5t14.5 14t11 18t7.5 17.5h29zM102 514h38l-25 -112h2 q34 57 86 90.5t122 33.5q29 0 55.5 -9.5t46.5 -28t32 -45t12 -59.5q0 -9 -1.5 -23t-4 -29t-5 -28.5t-4.5 -22.5l-63 -281h-38l63 280q1 7 3.5 20t5 27.5t4.5 29.5t2 26q0 49 -31.5 79.5t-89.5 30.5q-49 0 -87.5 -23t-67 -59.5t-47.5 -81t-28 -87.5l-51 -242h-38z"/>
<glyph glyph-name="ograve" horiz-adv-x="537" unicode="ò" d="M264 730l99 -140h-37l-110 140h48zM299 493h-4q-56 0 -101.5 -25t-77 -66t-48 -92.5t-16.5 -102.5q0 -39 9.5 -72.5t30 -59t52 -40t75.5 -14.5q59 0 103.5 28.5t74 72.5t44.5 97.5t15 103.5q0 76 -38 122t-119 48zM291 526q96 0 149.5 -53t53.5 -149q0 -59 -17.5 -119 t-52 -108t-86 -78.5t-118.5 -30.5q-53 0 -91.5 15.5t-64 44t-38 68t-12.5 88.5q0 58 19 116t54.5 103.5t87 74t116.5 28.5z"/>
<glyph glyph-name="oacute" horiz-adv-x="537" unicode="ó" d="M403 730h49l-126 -140h-37zM299 493h-4q-56 0 -101.5 -25t-77 -66t-48 -92.5t-16.5 -102.5q0 -39 9.5 -72.5t30 -59t52 -40t75.5 -14.5q59 0 103.5 28.5t74 72.5t44.5 97.5t15 103.5q0 76 -38 122t-119 48zM291 526q96 0 149.5 -53t53.5 -149q0 -59 -17.5 -119t-52 -108 t-86 -78.5t-118.5 -30.5q-53 0 -91.5 15.5t-64 44t-38 68t-12.5 88.5q0 58 19 116t54.5 103.5t87 74t116.5 28.5z"/>
<glyph glyph-name="ocircumflex" horiz-adv-x="537" unicode="ô" d="M228 590h-44l133 140h46l88 -140h-42l-71 115zM299 493h-4q-56 0 -101.5 -25t-77 -66t-48 -92.5t-16.5 -102.5q0 -39 9.5 -72.5t30 -59t52 -40t75.5 -14.5q59 0 103.5 28.5t74 72.5t44.5 97.5t15 103.5q0 76 -38 122t-119 48zM291 526q96 0 149.5 -53t53.5 -149 q0 -59 -17.5 -119t-52 -108t-86 -78.5t-118.5 -30.5q-53 0 -91.5 15.5t-64 44t-38 68t-12.5 88.5q0 58 19 116t54.5 103.5t87 74t116.5 28.5z"/>
<glyph glyph-name="otilde" horiz-adv-x="537" unicode="õ" d="M476 697q-6 -33 -27.5 -60.5t-56.5 -27.5q-18 0 -36 9t-35 19.5t-32 19.5t-28 9q-20 0 -33.5 -18.5t-17.5 -36.5h-29q3 15 9.5 31t17 28.5t24.5 20.5t31 8q19 0 35.5 -8.5t33.5 -19.5q16 -11 32 -20t33 -9q9 0 17 5.5t14.5 14t11 18t7.5 17.5h29zM299 493h-4 q-56 0 -101.5 -25t-77 -66t-48 -92.5t-16.5 -102.5q0 -39 9.5 -72.5t30 -59t52 -40t75.5 -14.5q59 0 103.5 28.5t74 72.5t44.5 97.5t15 103.5q0 76 -38 122t-119 48zM291 526q96 0 149.5 -53t53.5 -149q0 -59 -17.5 -119t-52 -108t-86 -78.5t-118.5 -30.5q-53 0 -91.5 15.5 t-64 44t-38 68t-12.5 88.5q0 58 19 116t54.5 103.5t87 74t116.5 28.5z"/>
<glyph glyph-name="odieresis" horiz-adv-x="537" unicode="ö" d="M396 706h44l-21 -103h-44zM237 706h44l-21 -103h-44zM299 493h-4q-56 0 -101.5 -25t-77 -66t-48 -92.5t-16.5 -102.5q0 -39 9.5 -72.5t30 -59t52 -40t75.5 -14.5q59 0 103.5 28.5t74 72.5t44.5 97.5t15 103.5q0 76 -38 122t-119 48zM291 526q96 0 149.5 -53t53.5 -149 q0 -59 -17.5 -119t-52 -108t-86 -78.5t-118.5 -30.5q-53 0 -91.5 15.5t-64 44t-38 68t-12.5 88.5q0 58 19 116t54.5 103.5t87 74t116.5 28.5z"/>
<glyph glyph-name="divide" horiz-adv-x="600" unicode="÷" d="M28 233v38h504v-38h-504zM230 452q0 22 15 37t36 15t36.5 -15t15.5 -37q0 -21 -15.5 -36t-36.5 -15t-36 15t-15 36zM230 51q0 22 15 37t36 15t36.5 -15t15.5 -37q0 -21 -15.5 -36t-36.5 -15t-36 15t-15 36z"/>
<glyph glyph-name="oslash" horiz-adv-x="537" unicode="ø" d="M410 451q-39 39 -111 42h-4q-56 0 -101.5 -25t-77 -66t-48 -92.5t-16.5 -102.5q0 -34 7.5 -64t23.5 -54zM101 66q42 -45 118 -45q59 0 103.5 28.5t74 72.5t44.5 97.5t15 103.5q0 66 -28 106zM56 59q-42 54 -42 145q0 58 19 116t54.5 103.5t87 74t116.5 28.5q90 0 143 -49 l50 56l21 -19l-52 -58q41 -50 41 -132q0 -59 -17.5 -119t-52 -108t-86 -78.5t-118.5 -30.5q-48 0 -84 13t-61 36l-59 -65l-21 19z"/>
<glyph glyph-name="ugrave" horiz-adv-x="519" unicode="ù" d="M247 730l99 -140h-37l-110 140h48zM378 0h-38l24 108l-2 2q-17 -29 -36 -51.5t-43 -38.5t-53.5 -24t-68.5 -8q-29 0 -55.5 9.5t-46.5 28t-32 45t-12 59.5q0 9 1.5 23t4 29t5 28.5t4.5 22.5l63 281h38l-63 -280q-2 -7 -4.5 -20t-5 -28t-4 -29.5t-1.5 -25.5 q0 -49 31.5 -79.5t89.5 -30.5q46 0 83.5 23t66 59.5t47 81t27.5 87.5l51 242h38z"/>
<glyph glyph-name="uacute" horiz-adv-x="519" unicode="ú" d="M386 730h49l-126 -140h-37zM378 0h-38l24 108l-2 2q-17 -29 -36 -51.5t-43 -38.5t-53.5 -24t-68.5 -8q-29 0 -55.5 9.5t-46.5 28t-32 45t-12 59.5q0 9 1.5 23t4 29t5 28.5t4.5 22.5l63 281h38l-63 -280q-2 -7 -4.5 -20t-5 -28t-4 -29.5t-1.5 -25.5q0 -49 31.5 -79.5 t89.5 -30.5q46 0 83.5 23t66 59.5t47 81t27.5 87.5l51 242h38z"/>
<glyph glyph-name="ucircumflex" horiz-adv-x="519" unicode="û" d="M211 590h-44l133 140h46l88 -140h-42l-71 115zM378 0h-38l24 108l-2 2q-17 -29 -36 -51.5t-43 -38.5t-53.5 -24t-68.5 -8q-29 0 -55.5 9.5t-46.5 28t-32 45t-12 59.5q0 9 1.5 23t4 29t5 28.5t4.5 22.5l63 281h38l-63 -280q-2 -7 -4.5 -20t-5 -28t-4 -29.5t-1.5 -25.5 q0 -49 31.5 -79.5t89.5 -30.5q46 0 83.5 23t66 59.5t47 81t27.5 87.5l51 242h38z"/>
<glyph glyph-name="udieresis" horiz-adv-x="519" unicode="ü" d="M379 706h44l-21 -103h-44zM220 706h44l-21 -103h-44zM378 0h-38l24 108l-2 2q-17 -29 -36 -51.5t-43 -38.5t-53.5 -24t-68.5 -8q-29 0 -55.5 9.5t-46.5 28t-32 45t-12 59.5q0 9 1.5 23t4 29t5 28.5t4.5 22.5l63 281h38l-63 -280q-2 -7 -4.5 -20t-5 -28t-4 -29.5 t-1.5 -25.5q0 -49 31.5 -79.5t89.5 -30.5q46 0 83.5 23t66 59.5t47 81t27.5 87.5l51 242h38z"/>
<glyph glyph-name="yacute" horiz-adv-x="426" unicode="ý" d="M336 730h49l-126 -140h-37zM-59 -148q19 -3 36 -3q37 0 59 21t40 50l50 80l-101 514h44l86 -463l262 463h45l-349 -604q-13 -23 -26 -40.5t-29 -29.5t-36 -18t-48 -6q-12 0 -22.5 1t-18.5 2z"/>
<glyph glyph-name="thorn" d="M145 714h38l-65 -300h2q12 23 31.5 43.5t45 35.5t55 24t61.5 9q51 0 87 -16.5t59.5 -45t34 -67.5t10.5 -84q0 -57 -17.5 -115t-51.5 -104.5t-83.5 -76t-113.5 -29.5q-67 0 -113 39.5t-63 105.5h-2l-70 -317h-38zM240 21q57 0 99 28t70.5 71t42.5 95t14 99q0 39 -10 71.5 t-29.5 56.5t-49 37.5t-69.5 13.5q-56 0 -99 -29.5t-71.5 -74t-43 -96t-14.5 -96.5q0 -30 11 -61.5t31.5 -57t50 -41.5t67.5 -16z" unicode="þ"/>
<glyph glyph-name="OE" horiz-adv-x="1019" unicode="Œ" d="M611 521q2 10 4.5 22t2.5 19q0 16 -10 33q-13 24 -34.5 42.5t-46.5 31t-51.5 18.5t-50.5 6q-78 0 -141 -33t-107.5 -89t-69 -129.5t-24.5 -154.5q0 -59 16 -108t47.5 -84t77 -54.5t104.5 -19.5q51 0 88 15t62.5 38.5t40 53t20.5 58.5zM653 714h422l-8 -38h-379l-63 -286 h352l-7 -38h-353l-64 -314h393l-8 -38h-437l15 71h-2q-32 -45 -80.5 -66.5t-100.5 -21.5q-71 0 -125.5 21.5t-92 61.5t-57 96.5t-19.5 125.5q0 85 27 164.5t76.5 141.5t120.5 99.5t158 37.5q29 0 60 -6.5t59.5 -20t52.5 -34.5t39 -50h2z"/>
<glyph glyph-name="oe" horiz-adv-x="889" unicode="œ" d="M812 285q4 23 4 43q0 31 -9 61t-27 53t-45 37t-63 14q-45 0 -79.5 -17.5t-60.5 -46t-43.5 -66.5t-27.5 -78h351zM454 252q-5 -21 -6 -39.5t-1 -33.5q0 -34 10 -63t29.5 -50t48 -33t66.5 -12q70 0 117.5 42t68.5 108h38q-12 -41 -32.5 -74.5t-49.5 -57.5t-66 -37.5 t-81 -13.5q-78 0 -126 42.5t-56 120.5h-2q-27 -79 -82 -121t-134 -42q-45 0 -79 16.5t-57 44t-34.5 63t-11.5 74.5q0 58 17.5 118.5t51.5 110t84.5 80.5t117.5 31q37 0 68 -12t53.5 -33.5t35.5 -52t13 -67.5h2q11 34 31.5 64t48 52.5t61 35.5t70.5 13q45 0 79.5 -15t58 -41 t36 -61.5t12.5 -77.5q0 -37 -9 -79h-391zM282 493q-57 0 -100 -28.5t-72 -73t-43.5 -97t-14.5 -100.5q0 -35 9 -66.5t28 -55t48 -37.5t69 -14q57 0 98 31.5t67.5 79t38.5 102t12 101.5q0 33 -8 62t-25.5 50.5t-44 33.5t-62.5 12z"/>
<glyph glyph-name="Scaron" horiz-adv-x="630" unicode="Š" d="M416 780h-46l-88 140h42l71 -115l110 115h44zM64 235q-1 -5 -1 -21v-21q0 -33 12 -64t37.5 -55t66 -38.5t97.5 -14.5q47 0 88.5 9.5t72.5 29.5t49 52.5t18 78.5q0 39 -19.5 65t-48.5 44t-63 29t-64 20q-34 10 -69 23t-63.5 33.5t-46.5 52t-18 79.5t21 84.5t56.5 61 t82 36.5t96.5 12q48 0 91 -11t75.5 -33.5t51.5 -56t19 -79.5q0 -10 -0.5 -18.5t-2.5 -22.5h-44q2 15 2.5 21.5t0.5 15.5q0 38 -16 65.5t-43 45.5t-62 26.5t-73 8.5q-36 0 -73.5 -8t-68 -26.5t-50 -48.5t-19.5 -73q0 -40 16.5 -66t44 -43.5t62.5 -28.5t72 -21 q37 -11 72.5 -24t63 -34t44.5 -51.5t17 -75.5q0 -52 -21 -91t-58 -65.5t-87 -40t-108 -13.5q-52 0 -98.5 13.5t-81 39t-55 63t-20.5 86.5q0 13 -0.5 21t-0.5 12q0 8 1 17h45z"/>
<glyph glyph-name="scaron" horiz-adv-x="463" unicode="š" d="M296 590h-46l-88 140h42l71 -115l110 115h44zM36 175q0 -6 -0.5 -12t-0.5 -12q0 -72 46.5 -101t127.5 -29q21 0 45 7t45 21t34.5 34.5t13.5 47.5q-1 37 -22.5 58.5t-53 36t-68.5 25.5t-68 27.5t-51.5 41t-20.5 63.5q0 40 16 66.5t42 43.5t58.5 25t65.5 8q36 0 68 -8.5 t56 -24.5t38 -40.5t14 -55.5q0 -9 -0.5 -17t-1.5 -21h-38q1 9 1.5 17t0.5 16q0 25 -11 44t-30 31.5t-44 19t-53 6.5q-23 0 -48 -5t-46.5 -17t-35.5 -31.5t-14 -48.5q0 -25 12.5 -42.5t32.5 -30.5t45.5 -22.5t51.5 -18.5q27 -9 52.5 -20t45.5 -26.5t32 -37t12 -51.5 q0 -38 -16.5 -67t-43.5 -48.5t-61 -29t-70 -9.5q-41 0 -77 8t-62.5 26t-42 47.5t-15.5 72.5v16v8t1 9h38z"/>
<glyph glyph-name="Ydieresis" d="M444 896h44l-21 -103h-44zM285 896h44l-21 -103h-44zM255 300l-191 414h44l174 -378l322 378h55l-362 -421l-63 -293h-44z" unicode="Ÿ"/>
<glyph glyph-name="circumflex" horiz-adv-x="167" unicode="ˆ" d="M66 590h-44l133 140h46l88 -140h-42l-71 115z"/>
<glyph glyph-name="tilde" horiz-adv-x="167" unicode="˜" d="M316 697q-6 -33 -27.5 -60.5t-56.5 -27.5q-18 0 -36 9t-35 19.5t-32 19.5t-28 9q-20 0 -33.5 -18.5t-17.5 -36.5h-29q3 15 9.5 31t17 28.5t24.5 20.5t31 8q19 0 35.5 -8.5t33.5 -19.5q16 -11 32 -20t33 -9q9 0 17 5.5t14.5 14t11 18t7.5 17.5h29z"/>
<glyph glyph-name="macroncmb" horiz-adv-x="0" unicode="̄" d="M-167 638l6 33h240l-6 -33h-240z"/>
<glyph glyph-name="brevecmb" horiz-adv-x="0" unicode="̆" d="M-134 720q1 -38 24.5 -62.5t62.5 -24.5q40 0 72 24.5t39 62.5h33q-5 -26 -18 -48t-32.5 -38t-43.5 -25t-50 -9q-57 0 -87.5 31.5t-32.5 88.5h33z"/>
<glyph glyph-name="dieresiscmb" horiz-adv-x="0" unicode="̈" d="M13 706h44l-21 -103h-44zM-146 706h44l-21 -103h-44z"/>
<glyph glyph-name="hungarumlautcmb" horiz-adv-x="0" unicode="̋" d="M-68 730h48l-110 -140h-37zM80 730h48l-110 -140h-37z"/>
<glyph glyph-name="doublegravecmb" horiz-adv-x="0" unicode="̏" d="M-203 730l99 -140h-37l-110 140h48zM-119 730l99 -140h-37l-110 140h48z"/>
<glyph glyph-name="Alpha" horiz-adv-x="611" unicode="Α" d="M137 267h315l-72 403zM365 714h46l133 -714h-44l-41 229h-345l-138 -229h-50z"/>
<glyph glyph-name="Beta" horiz-adv-x="630" unicode="Β" d="M126 390h239q96 0 151.5 42.5t55.5 120.5q0 41 -12.5 65.5t-34.5 37t-52.5 16.5t-65.5 4h-220zM51 38h267q51 0 91.5 13t68 37t42 57t14.5 73q0 73 -42 103.5t-135 30.5h-239zM151 714h260q45 0 82.5 -6.5t65 -24t42.5 -48t15 -78.5q0 -76 -46 -125.5t-125 -58.5v-2 q133 -21 133 -156q0 -37 -14 -75t-44.5 -69t-80 -51t-121.5 -20h-319z"/>
<glyph glyph-name="Gamma" horiz-adv-x="495" unicode="Γ" d="M151 714h436l-8 -38h-392l-144 -676h-44z"/>
<glyph glyph-name="uni0394" horiz-adv-x="611" unicode="Δ" d="M-1 38h494l-113 632zM-74 0l439 714h46l133 -714h-618z"/>
<glyph glyph-name="Epsilon" d="M149 714h466l-9 -38h-421l-60 -286h392l-7 -38h-393l-66 -314h434l-8 -38h-478z" unicode="Ε"/>
<glyph glyph-name="Zeta" horiz-adv-x="537" unicode="Ζ" d="M541 676h-454l9 38h502l-8 -38l-594 -638h489l-7 -38h-541l8 38z"/>
<glyph glyph-name="Eta" horiz-adv-x="667" unicode="Η" d="M152 714h44l-69 -324h445l69 324h44l-153 -714h-44l76 352h-445l-76 -352h-44z"/>
<glyph glyph-name="Theta" horiz-adv-x="741" unicode="Θ" d="M83 287q0 -59 16 -108t47.5 -84t77 -54.5t104.5 -19.5q79 0 142 36t107 94t67.5 130.5t23.5 144.5q0 57 -15 106t-45.5 85t-76 56t-106.5 20q-78 0 -141 -33t-107.5 -89t-69 -129.5t-24.5 -154.5zM39 288q0 85 27 164.5t76.5 141.5t120.5 99.5t158 37.5q70 0 124 -21 t91 -60t56.5 -94.5t19.5 -124.5q0 -80 -26 -160t-75 -144t-119.5 -104t-158.5 -40q-71 0 -125.5 21.5t-92 61.5t-57 96.5t-19.5 125.5zM217 380h344l-8 -38h-344z"/>
<glyph glyph-name="Iota" horiz-adv-x="185" unicode="Ι" d="M150 714h44l-151 -714h-44z"/>
<glyph glyph-name="Kappa" horiz-adv-x="611" unicode="Κ" d="M149 714h44l-84 -400l2 -2l507 402h63l-384 -302l275 -412h-50l-257 387l-169 -133l-53 -254h-44z"/>
<glyph glyph-name="Lambda" horiz-adv-x="611" unicode="Λ" d="M380 670l-404 -670h-50l439 714h46l133 -714h-44z"/>
<glyph glyph-name="Mu" horiz-adv-x="815" unicode="Μ" d="M152 714h60l135 -668h2l423 668h65l-155 -714h-44l151 670h-2l-425 -670h-43l-137 670h-2l-137 -670h-44z"/>
<glyph glyph-name="Nu" horiz-adv-x="685" unicode="Ν" d="M152 714h52l313 -670h2l139 670h44l-155 -714h-51l-315 670h-2l-136 -670h-44z"/>
<glyph glyph-name="Xi" horiz-adv-x="478" unicode="Ξ" d="M-55 38h461l-8 -38h-461zM98 714h441l-8 -38h-441zM63 389h373l-8 -38h-373z"/>
<glyph glyph-name="Omicron" horiz-adv-x="741" unicode="Ο" d="M83 287q0 -59 16 -108t47.5 -84t77 -54.5t104.5 -19.5q79 0 142 36t107 94t67.5 130.5t23.5 144.5q0 57 -15 106t-45.5 85t-76 56t-106.5 20q-78 0 -141 -33t-107.5 -89t-69 -129.5t-24.5 -154.5zM39 288q0 85 27 164.5t76.5 141.5t120.5 99.5t158 37.5q70 0 124 -21 t91 -60t56.5 -94.5t19.5 -124.5q0 -80 -26 -160t-75 -144t-119.5 -104t-158.5 -40q-71 0 -125.5 21.5t-92 61.5t-57 96.5t-19.5 125.5z"/>
<glyph glyph-name="Pi" horiz-adv-x="664" unicode="Π" d="M150 714h532l-151 -714h-45l143 676h-443l-143 -676h-44z"/>
<glyph glyph-name="Rho" horiz-adv-x="593" unicode="Ρ" d="M43 0h-44l153 714h222q51 0 95 -6t76.5 -24.5t51 -52.5t18.5 -89q0 -59 -21 -101.5t-56.5 -69.5t-83 -40t-100.5 -13h-243zM119 356h250q42 0 79 12t64 35.5t43 58.5t16 80q0 48 -17 74.5t-46 40t-66.5 16.5t-79.5 3h-174z"/>
<glyph glyph-name="Sigma" horiz-adv-x="510" unicode="Σ" d="M-63 0l8 38l349 338l-203 300l8 38h472l-8 -38h-422l207 -303l-350 -335h485l-8 -38h-538z"/>
<glyph glyph-name="Tau" horiz-adv-x="519" unicode="Τ" d="M54 676l9 38h548l-8 -38h-248l-143 -676h-44l143 676h-257z"/>
<glyph glyph-name="Upsilon" d="M255 300l-191 414h44l174 -378l322 378h55l-362 -421l-63 -293h-44z" unicode="Υ"/>
<glyph glyph-name="Phi" horiz-adv-x="751" unicode="Φ" d="M349 117q59 2 111.5 18t95 46.5t72.5 78t44 112.5q4 17 5.5 33t1.5 31q0 91 -58.5 143t-161.5 54zM483 744l-16 -72q118 -6 187.5 -63.5t69.5 -163.5q0 -17 -1.5 -35t-6.5 -38q-17 -76 -52 -130.5t-84 -90t-110 -53t-129 -20.5l-16 -78h-45l16 78q-59 2 -106 17 t-80.5 42.5t-51.5 67.5t-18 91q0 32 8 72q15 73 50 129t84.5 94t110.5 58.5t129 22.5l16 72h45zM414 633q-59 -2 -111.5 -19t-94.5 -50t-72 -81.5t-44 -114.5q-7 -32 -7 -64q0 -90 60 -136.5t159 -50.5z"/>
<glyph glyph-name="Chi" d="M499 0h-44l-173 333l-306 -333h-48l339 368l-183 346h44l166 -317l291 317h48l-323 -351z" unicode="Χ"/>
<glyph glyph-name="Psi" horiz-adv-x="744" unicode="Ψ" d="M358 200q62 0 113.5 13t92 41.5t68.5 74.5t42 113l58 272h44l-57 -271q-15 -71 -43 -123.5t-72 -87.5t-106.5 -52.5t-147.5 -18.5l-34 -161h-44l34 161q-133 1 -195.5 48t-62.5 143q0 38 11 91l57 271h44l-58 -272q-5 -22 -7.5 -44t-2.5 -39q0 -48 14.5 -79t43 -48.5 t69.5 -24t95 -7.5l109 514h44z"/>
<glyph glyph-name="alpha" horiz-adv-x="523" unicode="α" d="M389 116q-20 -38 -42.5 -63t-46.5 -39.5t-48 -20t-48 -5.5q-51 0 -87 16t-59 43.5t-33.5 63.5t-10.5 76q0 69 20.5 130.5t57.5 108t89.5 73.5t116.5 27q24 0 48 -8t44.5 -24.5t35 -42t19.5 -60.5h2l26 123h38l-89 -419q-5 -20 -5 -35q0 -12 5 -19.5t21 -7.5q10 0 28 3 l-7 -32q-15 -4 -31 -4q-34 0 -46 12.5t-12 32.5q0 7 2.5 23.5t13.5 47.5h-2zM291 493q-53 0 -97 -26.5t-75.5 -70t-49 -98t-17.5 -110.5q0 -35 8.5 -65.5t27.5 -53t49 -35.5t74 -13q38 0 69 17t55 44.5t41.5 62t28.5 68.5t16.5 64.5t5.5 50.5q0 78 -38 121.5t-98 43.5z"/>
<glyph glyph-name="beta" horiz-adv-x="522" unicode="β" d="M85 258q-5 -25 -5 -47q0 -33 9.5 -67t28.5 -61.5t48.5 -44.5t70.5 -17q33 0 69 14t66 43t49.5 75t19.5 111q0 61 -37.5 85t-101.5 24h-49l7 33h32q29 0 59 11t54.5 32.5t40 53.5t15.5 73q0 54 -33 83.5t-95 29.5q-35 0 -65 -7t-55 -27.5t-44.5 -58.5t-32.5 -99zM100 506 q13 61 34 102.5t50 67t67 36t86 10.5q45 0 76 -13t50 -34t27.5 -47t8.5 -51q0 -38 -13.5 -68.5t-33 -53t-41.5 -37t-39 -18.5v-3q57 -8 82 -44.5t25 -88.5q0 -68 -22 -119.5t-57.5 -86.5t-80 -52.5t-89.5 -17.5q-33 0 -61.5 12t-50 32t-36 46t-20.5 55h-2l-70 -317h-38z"/>
<glyph glyph-name="gamma" horiz-adv-x="391" unicode="γ" d="M421 514q-34 -91 -73 -170t-79.5 -146.5t-80 -123.5t-74.5 -101q-5 -23 -9 -41.5t-7.5 -36.5t-8 -37t-9.5 -42h-38l24 109q8 37 11.5 80t3.5 90q0 55 -4.5 112.5t-12 112.5t-17 105t-20.5 89h42q9 -33 18.5 -83.5t17 -107.5t12.5 -115.5t5 -107.5q0 -33 -3 -60h3 q30 40 63.5 92.5t66.5 113t65 128.5t59 140h45z"/>
<glyph glyph-name="delta" horiz-adv-x="524" unicode="δ" d="M315 477q-56 -12 -104 -35.5t-83 -58.5t-55 -83t-20 -110q0 -40 13 -71.5t35 -53.5t51.5 -33.5t62.5 -11.5q53 0 95.5 22t72.5 58.5t46 83t16 96.5q0 61 -29.5 109.5t-100.5 87.5zM14 192q0 63 19.5 112.5t55.5 86.5t86.5 62.5t113.5 39.5q-59 29 -82.5 55t-23.5 53 q0 21 9.5 41.5t31.5 36t57.5 25.5t86.5 10q32 0 69 -5.5t65 -19.5l-7 -33q-32 14 -68.5 19.5t-65.5 5.5q-23 0 -48 -3.5t-45.5 -12t-33.5 -23.5t-13 -38q0 -11 6 -21.5t19.5 -22.5t36 -26.5t56.5 -32.5q28 -16 54.5 -36t46 -46.5t31.5 -60.5t12 -77q0 -56 -18 -108.5 t-52 -94t-84 -66.5t-114 -25q-47 0 -84 15.5t-63 43t-40 65t-14 81.5z"/>
<glyph glyph-name="epsilon" horiz-adv-x="454" unicode="ε" d="M146 265q-23 4 -39 14.5t-25.5 25t-14 31t-4.5 32.5q0 45 18 75t48 48.5t67.5 26.5t76.5 8q70 0 116 -28.5t47 -93.5h-37q-2 42 -34.5 65.5t-98.5 23.5q-30 0 -60 -5t-53 -19t-37.5 -38.5t-14.5 -62.5q0 -40 28 -64t72 -24h69l-7 -33h-67q-33 0 -63 -8.5t-52.5 -25 t-36 -41t-13.5 -55.5q0 -27 11.5 -45.5t31.5 -30t47 -16t58 -4.5t58 5t50 17.5t43.5 35.5t37.5 59h37q-16 -42 -39 -71t-52.5 -46.5t-65 -25t-76.5 -7.5q-35 0 -67.5 6.5t-57.5 22t-40 40t-15 60.5q0 60 39.5 98.5t114.5 47.5v2z"/>
<glyph glyph-name="zeta" horiz-adv-x="405" unicode="ζ" d="M257 -135q11 26 16 48.5t5 39.5q0 22 -13 34.5t-48 12.5h-31q-172 0 -172 188q0 74 30 148t83.5 139t125.5 117t156 84h-249l7 38h320l-9 -39q-105 -42 -184.5 -97.5t-133 -119t-80 -132.5t-26.5 -138q0 -83 34.5 -116.5t112.5 -33.5h24q48 0 69.5 -19t21.5 -57 q0 -23 -7 -49.5t-17 -47.5h-35z"/>
<glyph glyph-name="eta" horiz-adv-x="525" unicode="η" d="M102 514h38l-24 -110h2q16 29 39.5 51.5t51.5 38.5t58.5 24t60.5 8q45 0 74 -11t45.5 -29t23 -40.5t6.5 -45.5t-3.5 -44.5t-6.5 -37.5l-107 -502h-38l109 509q4 19 6 37t2 25q0 21 -8 44.5t-33.5 42.5t-77.5 19q-44 0 -81.5 -16t-67.5 -44.5t-50.5 -68t-30.5 -86.5 l-59 -278h-38z"/>
<glyph glyph-name="theta" horiz-adv-x="491" unicode="θ" d="M427 379q20 95 20 158q0 80 -33 116t-104 36q-44 0 -79 -20.5t-62.5 -59.5t-48.5 -97t-38 -133h345zM178 21q47 0 83.5 17.5t65.5 56.5t51.5 101t41.5 150h-346q-11 -51 -16.5 -96t-5.5 -79q0 -81 29 -114.5t97 -35.5zM318 722q86 0 126.5 -47t40.5 -135q0 -39 -7 -85.5 t-18 -100.5q-18 -83 -40.5 -150.5t-55 -115.5t-77 -74t-105.5 -26q-89 0 -128.5 46t-39.5 136q0 39 6.5 85t17.5 99q18 85 41 153.5t55.5 116t77 73t106.5 25.5z"/>
<glyph glyph-name="iota" horiz-adv-x="140" unicode="ι" d="M39 95q-5 -20 -5 -34q0 -12 5.5 -20t21.5 -8q10 0 28 3l-7 -32q-15 -4 -31 -4q-34 0 -44.5 16.5t-10.5 36.5q0 13 3 30l92 431h37z"/>
<glyph glyph-name="kappa" horiz-adv-x="489" unicode="κ" d="M102 514h38l-59 -276l376 276h55l-268 -200l175 -314h-52l-159 285l-138 -99l-39 -186h-38z"/>
<glyph glyph-name="lambda" horiz-adv-x="420" unicode="λ" d="M353 78q2 -20 9 -33t30 -13q5 0 10 0.5t10 1.5l-7 -33q-9 -1 -16.5 -1h-17.5q-23 0 -35.5 15t-14.5 35l-45 404l-267 -454h-41l300 503l-12 100q-5 39 -20 62t-47 23q-11 0 -24.5 -1t-25.5 -6l7 33q26 8 50 8q47 0 68 -32t29 -104z"/>
<glyph glyph-name="uni03BC" horiz-adv-x="528" unicode="μ" d="M387 0h-38l24 108l-2 2q-17 -29 -36 -51.5t-43 -38.5t-53.5 -24t-68.5 -8q-42 0 -76.5 19t-50.5 57l-53 -248h-38l150 698h38l-62 -280q-6 -27 -10.5 -56.5t-4.5 -46.5q0 -49 31 -79.5t89 -30.5q46 0 83.5 23t66 59.5t47 81t27.5 87.5l51 242h38z"/>
<glyph glyph-name="nu" horiz-adv-x="435" unicode="ν" d="M155 44q81 111 149 231t116 239h45q-26 -64 -59.5 -130t-72.5 -131t-82 -129t-88 -124h-41q-24 129 -48.5 257t-46.5 257h42l84 -470h2z"/>
<glyph glyph-name="xi" horiz-adv-x="426" unicode="ξ" d="M199 0q-91 0 -137.5 40.5t-46.5 108.5q0 44 13 81t37 64.5t57 46t73 25.5l1 3q-38 14 -62 48t-24 76q0 51 18.5 93.5t51 72.5t76.5 46.5t96 16.5q39 0 74.5 -6.5t61.5 -16.5l-7 -34q-29 12 -63.5 18t-67.5 6q-44 0 -81 -14t-64 -39.5t-42 -62t-15 -80.5q0 -59 46 -82.5 t119 -23.5h74l-7 -33h-78q-51 0 -96.5 -10t-79.5 -33.5t-54 -62t-20 -95.5q0 -59 37.5 -89.5t124.5 -30.5h21q48 0 69.5 -17.5t21.5 -53.5q0 -22 -7 -49t-17 -48h-35q11 26 16 48.5t5 39.5q0 22 -13 34.5t-48 12.5h-28z"/>
<glyph glyph-name="omicron" horiz-adv-x="537" unicode="ο" d="M299 493h-4q-56 0 -101.5 -25t-77 -66t-48 -92.5t-16.5 -102.5q0 -39 9.5 -72.5t30 -59t52 -40t75.5 -14.5q59 0 103.5 28.5t74 72.5t44.5 97.5t15 103.5q0 76 -38 122t-119 48zM291 526q96 0 149.5 -53t53.5 -149q0 -59 -17.5 -119t-52 -108t-86 -78.5t-118.5 -30.5 q-53 0 -91.5 15.5t-64 44t-38 68t-12.5 88.5q0 58 19 116t54.5 103.5t87 74t116.5 28.5z"/>
<glyph glyph-name="pi" horiz-adv-x="560" unicode="π" d="M438 476h-275l-99 -476h-38l99 476h-90l7 38h530l-7 -38h-90l-84 -396q-1 -5 -1.5 -9.5t-0.5 -8.5q0 -29 27 -29q8 0 18 1.5t23 3.5l-7 -32q-21 -6 -45 -6q-29 0 -42 14.5t-13 37.5q0 6 1 14t3 16z"/>
<glyph glyph-name="rho" d="M237 21q58 0 101 26.5t71.5 69t42.5 95.5t14 105q0 36 -9 68t-27 56t-46 38t-66 14q-50 0 -93 -24t-75.5 -64.5t-51 -94.5t-18.5 -114q0 -29 10.5 -60t31 -56.5t49.5 -42t66 -16.5zM47 257q12 59 36 108.5t59 85t80 55.5t99 20q49 0 84 -17t57 -45.5t32 -66.5t10 -80 q0 -68 -19 -128t-54.5 -104.5t-86.5 -70.5t-114 -26q-20 0 -44.5 7t-48.5 24t-44 44.5t-31 69.5h-2q-3 -12 -8.5 -37.5t-12.5 -57.5t-15 -67t-14.5 -66.5t-12 -55.5t-7.5 -33h-38z" unicode="ρ"/>
<glyph glyph-name="sigma1" horiz-adv-x="489" unicode="ς" d="M239 33q48 0 69.5 -17t21.5 -53q0 -23 -6.5 -49.5t-17.5 -48.5h-35q11 26 16 48.5t5 39.5q0 22 -13 34.5t-48 12.5h-36q-88 0 -134.5 50.5t-46.5 138.5q0 69 21.5 130.5t60.5 107t93.5 72.5t120.5 27q31 0 59 -6.5t49.5 -21.5t35 -38.5t17.5 -56.5h-37q-11 51 -46.5 70.5 t-84.5 19.5q-55 0 -101 -23.5t-79.5 -64.5t-52 -96.5t-18.5 -119.5q0 -85 41.5 -120.5t113.5 -35.5h32z"/>
<glyph glyph-name="sigma" horiz-adv-x="570" unicode="σ" d="M331 481q-60 0 -111.5 -23t-88.5 -63t-58 -94t-21 -115q0 -46 12 -77t33 -50.5t49 -28t60 -9.5q54 0 100 24.5t79 65t51.5 94t18.5 112.5q0 55 -19 96.5t-44 67.5h-61zM14 186q0 64 23 123.5t65 105t101 72.5t131 27h247l-7 -34h-144q34 -35 48.5 -77t14.5 -85 q0 -60 -19.5 -119.5t-56 -106t-90.5 -75.5t-123 -29q-48 0 -84 15t-59.5 42t-35 63t-11.5 78z"/>
<glyph glyph-name="tau" horiz-adv-x="418" unicode="τ" d="M150 77q-2 -10 -2 -13q0 -19 8.5 -25t22.5 -6q9 0 20.5 1t19.5 3l-7 -33q-9 -2 -24 -3t-25 -1q-29 0 -42 14t-13 38q0 10 3 24l87 405h-179l7 33h403l-7 -33h-186z"/>
<glyph glyph-name="upsilon" horiz-adv-x="502" unicode="υ" d="M127 514l-64 -304q-5 -20 -8 -40.5t-3 -34.5q0 -58 33 -86t88 -28q48 0 92.5 23.5t79 71t55 118t20.5 164.5q0 60 -13 116h38q13 -51 13 -112q0 -96 -21 -173t-59.5 -130.5t-92.5 -82t-119 -28.5q-78 0 -115 40.5t-37 106.5q0 25 8 62l67 317h38z"/>
<glyph glyph-name="phi" horiz-adv-x="703" unicode="φ" d="M367 497q-60 0 -116.5 -19.5t-101 -57.5t-71 -94t-26.5 -128q0 -47 17 -81t46 -55.5t68 -31.5t83 -10zM412 528q55 -1 101 -16t78.5 -42t50.5 -66t18 -87q0 -74 -28.5 -133.5t-77.5 -101.5t-114.5 -66.5t-140.5 -28.5l-37 -171h-40l37 171q-53 1 -98 14.5t-77.5 40 t-51 65.5t-18.5 91q0 79 29 140t78.5 103t115 64t137.5 23l25 117h38zM304 20q62 1 119.5 21t101.5 58t70.5 93t26.5 125q0 43 -16 76.5t-45 56t-68.5 34.5t-87.5 12z"/>
<glyph glyph-name="chi" horiz-adv-x="426" unicode="χ" d="M334 -184h-48l-106 335l-252 -335h-47l283 376l-118 322h48l98 -288l226 288h48l-257 -325z"/>
<glyph glyph-name="psi" horiz-adv-x="625" unicode="ψ" d="M253 20q57 1 109.5 25t92.5 71t64 117.5t24 164.5q0 60 -13 116h37q8 -26 11 -54.5t3 -57.5q0 -99 -24.5 -176t-69 -130t-106 -81t-135.5 -28l-37 -171h-38l37 171q-52 3 -88.5 17t-60 37t-34.5 55t-11 70q0 34 9 75l58 273h37l-57 -269q-5 -19 -7 -41t-2 -38 q0 -69 39.5 -105t123.5 -41l132 624h38z"/>
<glyph glyph-name="uni0400" d="M325 920l99 -140h-37l-110 140h48zM149 714h466l-9 -38h-421l-60 -286h392l-7 -38h-393l-66 -314h434l-8 -38h-478z" unicode="Ѐ"/>
<glyph glyph-name="afii10023" d="M457 896h44l-21 -103h-44zM298 896h44l-21 -103h-44zM149 714h466l-9 -38h-421l-60 -286h392l-7 -38h-393l-66 -314h434l-8 -38h-478z" unicode="Ё"/>
<glyph glyph-name="afii10051" horiz-adv-x="714" unicode="Ђ" d="M609 231q0 77 -39 120t-108 43q-49 0 -88.5 -18.5t-70 -52.5t-52 -82t-33.5 -108l-28 -133h-44l143 676h-235l9 38h548l-8 -38h-270l-81 -375h3q30 56 82 93.5t129 37.5q89 0 137.5 -54.5t48.5 -147.5q0 -64 -20 -125.5t-59.5 -110.5t-97.5 -79.5t-133 -31.5l7 37 q65 3 113.5 31t81 71.5t49 98t16.5 110.5z"/>
<glyph glyph-name="afii10052" horiz-adv-x="495" unicode="Ѓ" d="M444 920h49l-126 -140h-37zM151 714h436l-8 -38h-392l-144 -676h-44z"/>
<glyph glyph-name="afii10053" horiz-adv-x="704" unicode="Є" d="M469 352h-382q-3 -17 -4 -35t-1 -35q0 -62 17.5 -110.5t49.5 -82t76 -51t98 -17.5q52 0 98.5 15.5t84 44t65.5 69.5t42 93h44q-14 -59 -45 -106.5t-75 -82t-99 -53t-118 -18.5q-62 0 -114 20t-89 58t-57.5 93t-20.5 126q0 85 25.5 166t75 144.5t121.5 102t165 38.5 q62 0 111.5 -16.5t84 -46.5t53 -73t19.5 -96h-43q-5 95 -64.5 144.5t-162.5 49.5q-67 0 -122 -25t-97 -66.5t-70 -96.5t-41 -115h383z"/>
<glyph glyph-name="afii10054" horiz-adv-x="630" unicode="Ѕ" d="M64 235q-1 -5 -1 -21v-21q0 -33 12 -64t37.5 -55t66 -38.5t97.5 -14.5q47 0 88.5 9.5t72.5 29.5t49 52.5t18 78.5q0 39 -19.5 65t-48.5 44t-63 29t-64 20q-34 10 -69 23t-63.5 33.5t-46.5 52t-18 79.5t21 84.5t56.5 61t82 36.5t96.5 12q48 0 91 -11t75.5 -33.5t51.5 -56 t19 -79.5q0 -10 -0.5 -18.5t-2.5 -22.5h-44q2 15 2.5 21.5t0.5 15.5q0 38 -16 65.5t-43 45.5t-62 26.5t-73 8.5q-36 0 -73.5 -8t-68 -26.5t-50 -48.5t-19.5 -73q0 -40 16.5 -66t44 -43.5t62.5 -28.5t72 -21q37 -11 72.5 -24t63 -34t44.5 -51.5t17 -75.5q0 -52 -21 -91 t-58 -65.5t-87 -40t-108 -13.5q-52 0 -98.5 13.5t-81 39t-55 63t-20.5 86.5q0 13 -0.5 21t-0.5 12q0 8 1 17h45z"/>
<glyph glyph-name="afii10055" horiz-adv-x="185" unicode="І" d="M150 714h44l-151 -714h-44z"/>
<glyph glyph-name="afii10056" horiz-adv-x="185" unicode="Ї" d="M150 714h44l-151 -714h-44zM260 896h44l-21 -103h-44zM101 896h44l-21 -103h-44z"/>
<glyph glyph-name="afii10057" horiz-adv-x="481" unicode="Ј" d="M455 714h44l-105 -481q-13 -58 -28.5 -104.5t-41 -78.5t-65 -49.5t-99.5 -17.5q-36 0 -67.5 9.5t-55 29t-37 48.5t-13.5 68q0 22 2.5 44t7.5 43h44q-10 -41 -10 -90q0 -30 12 -52t32 -35.5t45.5 -20t52.5 -6.5q44 0 73.5 15.5t48.5 41.5t30.5 60.5t19.5 72.5z"/>
<glyph glyph-name="afii10058" horiz-adv-x="1000" unicode="Љ" d="M694 38q55 0 95 14t66.5 39t39 59.5t12.5 74.5q0 66 -41 102t-129 36h-177l-70 -325h204zM567 401h175q109 0 159 -46.5t50 -127.5q0 -49 -15.5 -90.5t-47.5 -72t-80.5 -47.5t-114.5 -17h-255l145 676h-281l-112 -448q-17 -68 -36.5 -113.5t-43 -73.5t-52 -39.5 t-62.5 -11.5q-19 0 -36 4t-29 9l9 38q23 -13 56 -13q24 0 44.5 8.5t39 32t35.5 64.5t34 107l118 474h368z"/>
<glyph glyph-name="afii10059" horiz-adv-x="1000" unicode="Њ" d="M694 38q55 0 95 14t66.5 39t39 59.5t12.5 74.5q0 66 -41 102t-129 36h-187l-70 -325h214zM625 714l-68 -313h185q109 0 159 -46.5t50 -127.5q0 -49 -15.5 -90.5t-47.5 -72t-80.5 -47.5t-114.5 -17h-265l78 363h-385l-78 -363h-44l153 714h44l-67 -313h385l67 313h44z"/>
<glyph glyph-name="afii10060" horiz-adv-x="713" unicode="Ћ" d="M190 0h-44l143 676h-235l9 38h548l-8 -38h-270l-66 -308q45 29 98.5 46.5t107.5 17.5q46 0 78 -11.5t52.5 -32t29.5 -47t9 -56.5q0 -21 -3.5 -44.5t-8.5 -46.5l-41 -194h-44l42 198q5 25 8 45t3 37q0 23 -7 44t-23 36.5t-41 24.5t-62 9q-26 0 -54.5 -6t-56 -15.5 t-52.5 -22.5t-44 -27z"/>
<glyph glyph-name="afii10061" horiz-adv-x="611" unicode="Ќ" d="M470 920h49l-126 -140h-37zM149 714h44l-84 -400l2 -2l507 402h63l-384 -302l275 -412h-50l-257 387l-169 -133l-53 -254h-44z"/>
<glyph glyph-name="uni040D" horiz-adv-x="667" unicode="Ѝ" d="M371 920l99 -140h-37l-110 140h48zM629 659h-3l-568 -659h-59l153 714h44l-141 -659h3l565 659h62l-153 -714h-44z"/>
<glyph glyph-name="afii10062" d="M283 910q1 -38 24.5 -62.5t62.5 -24.5q40 0 72 24.5t39 62.5h33q-5 -26 -18 -48t-32.5 -38t-43.5 -25t-50 -9q-57 0 -87.5 31.5t-32.5 88.5h33zM73 714h46l141 -518l347 518h50l-434 -644q-30 -45 -61.5 -66t-71.5 -21q-20 0 -40.5 5.5t-36.5 16.5l9 40q15 -11 33 -17.5 t36 -6.5q28 0 50 16t51 58l39 58z" unicode="Ў"/>
<glyph glyph-name="afii10145" horiz-adv-x="667" unicode="Џ" d="M152 714h44l-145 -676h445l145 676h44l-153 -714h-245l-40 -184h-43l39 184h-244z"/>
<glyph glyph-name="afii10017" horiz-adv-x="611" unicode="А" d="M137 267h315l-72 403zM365 714h46l133 -714h-44l-41 229h-345l-138 -229h-50z"/>
<glyph glyph-name="afii10018" horiz-adv-x="630" unicode="Б" d="M322 38q55 0 95 14t66.5 39t39 59.5t12.5 74.5q0 66 -41 102t-129 36h-244l-70 -325h271zM128 401h242q109 0 159 -46.5t50 -127.5q0 -49 -15.5 -90.5t-47.5 -72t-80.5 -47.5t-114.5 -17h-322l153 714h474l-8 -38h-431z"/>
<glyph glyph-name="afii10019" horiz-adv-x="630" unicode="В" d="M126 390h239q96 0 151.5 42.5t55.5 120.5q0 41 -12.5 65.5t-34.5 37t-52.5 16.5t-65.5 4h-220zM51 38h267q51 0 91.5 13t68 37t42 57t14.5 73q0 73 -42 103.5t-135 30.5h-239zM151 714h260q45 0 82.5 -6.5t65 -24t42.5 -48t15 -78.5q0 -76 -46 -125.5t-125 -58.5v-2 q133 -21 133 -156q0 -37 -14 -75t-44.5 -69t-80 -51t-121.5 -20h-319z"/>
<glyph glyph-name="afii10020" horiz-adv-x="495" unicode="Г" d="M151 714h436l-8 -38h-392l-144 -676h-44z"/>
<glyph glyph-name="afii10021" horiz-adv-x="670" unicode="Д" d="M484 38l136 638h-314l-15 -70q-20 -90 -41 -168.5t-47.5 -148.5t-60 -132t-76.5 -119h418zM548 0h-561l-40 -184h-43l47 223h64q47 60 82 124t62.5 134.5t49 149.5t41.5 170l21 97h402l-145 -676h72l-48 -222h-43z"/>
<glyph glyph-name="afii10022" d="M149 714h466l-9 -38h-421l-60 -286h392l-7 -38h-393l-66 -314h434l-8 -38h-478z" unicode="Е"/>
<glyph glyph-name="afii10024" horiz-adv-x="980" unicode="Ж" d="M-30 0h-57l416 436l-242 278h55l327 -377l80 377h44l-81 -376l471 376h63l-358 -284l240 -430h-50l-224 403l-154 -120l-60 -283h-44l62 287l-103 118z"/>
<glyph glyph-name="afii10025" horiz-adv-x="624" unicode="З" d="M604 553q0 -37 -13 -67.5t-35.5 -54t-54.5 -38.5t-69 -21v-2q64 -8 101.5 -43.5t37.5 -101.5q0 -58 -23.5 -103t-63 -76t-92 -47t-110.5 -16q-128 0 -198.5 60t-70.5 169v11t1 13h43v-19q0 -52 16.5 -89t46 -61t71.5 -35t93 -11q48 0 92 13t77.5 39t53.5 64.5t20 88.5 q0 37 -15 61.5t-40.5 39t-59 20t-70.5 5.5h-41t-42 -1l10 39q17 -1 35.5 -1h38.5q40 0 79 8t70 27t50 50t19 76q0 34 -13.5 61t-38 45t-58 27.5t-73.5 9.5q-47 0 -88.5 -9.5t-74 -30.5t-55.5 -56t-32 -86h-43q12 61 38.5 103t64.5 68t86.5 37.5t104.5 11.5q51 0 92.5 -12.5 t71 -35.5t45.5 -56t16 -74z"/>
<glyph glyph-name="afii10026" horiz-adv-x="667" unicode="И" d="M629 659h-3l-568 -659h-59l153 714h44l-141 -659h3l565 659h62l-153 -714h-44z"/>
<glyph glyph-name="afii10027" horiz-adv-x="667" unicode="Й" d="M343 910q1 -38 24.5 -62.5t62.5 -24.5q40 0 72 24.5t39 62.5h33q-5 -26 -18 -48t-32.5 -38t-43.5 -25t-50 -9q-57 0 -87.5 31.5t-32.5 88.5h33zM629 659h-3l-568 -659h-59l153 714h44l-141 -659h3l565 659h62l-153 -714h-44z"/>
<glyph glyph-name="afii10028" horiz-adv-x="611" unicode="К" d="M149 714h44l-84 -400l2 -2l507 402h63l-384 -302l275 -412h-50l-257 387l-169 -133l-53 -254h-44z"/>
<glyph glyph-name="afii10029" horiz-adv-x="642" unicode="Л" d="M-4 28q24 0 44.5 8.5t39 32t35.5 64.5t34 107l118 474h393l-153 -714h-44l145 676h-306l-112 -448q-17 -68 -36.5 -113.5t-43 -73.5t-52 -39.5t-62.5 -11.5q-19 0 -36 4t-29 9l9 38q23 -13 56 -13z"/>
<glyph glyph-name="afii10030" horiz-adv-x="815" unicode="М" d="M152 714h60l135 -668h2l423 668h65l-155 -714h-44l151 670h-2l-425 -670h-43l-137 670h-2l-137 -670h-44z"/>
<glyph glyph-name="afii10031" horiz-adv-x="667" unicode="Н" d="M152 714h44l-69 -324h445l69 324h44l-153 -714h-44l76 352h-445l-76 -352h-44z"/>
<glyph glyph-name="afii10032" horiz-adv-x="741" unicode="О" d="M83 287q0 -59 16 -108t47.5 -84t77 -54.5t104.5 -19.5q79 0 142 36t107 94t67.5 130.5t23.5 144.5q0 57 -15 106t-45.5 85t-76 56t-106.5 20q-78 0 -141 -33t-107.5 -89t-69 -129.5t-24.5 -154.5zM39 288q0 85 27 164.5t76.5 141.5t120.5 99.5t158 37.5q70 0 124 -21 t91 -60t56.5 -94.5t19.5 -124.5q0 -80 -26 -160t-75 -144t-119.5 -104t-158.5 -40q-71 0 -125.5 21.5t-92 61.5t-57 96.5t-19.5 125.5z"/>
<glyph glyph-name="afii10033" horiz-adv-x="667" unicode="П" d="M532 0h-44l145 676h-445l-145 -676h-44l153 714h533z"/>
<glyph glyph-name="afii10034" horiz-adv-x="593" unicode="Р" d="M43 0h-44l153 714h222q51 0 95 -6t76.5 -24.5t51 -52.5t18.5 -89q0 -59 -21 -101.5t-56.5 -69.5t-83 -40t-100.5 -13h-243zM119 356h250q42 0 79 12t64 35.5t43 58.5t16 80q0 48 -17 74.5t-46 40t-66.5 16.5t-79.5 3h-174z"/>
<glyph glyph-name="afii10035" horiz-adv-x="704" unicode="С" d="M647 494q-1 48 -18.5 85.5t-47 62.5t-69 38t-85.5 13q-81 0 -145 -36t-108 -94t-67.5 -132t-23.5 -149q0 -66 18 -115t51 -81.5t78 -48.5t99 -16q50 0 95.5 17.5t83 48.5t64 72t38.5 89h44q-12 -57 -43 -106t-75.5 -84t-98.5 -55t-112 -20q-53 0 -104.5 15.5t-92 51.5 t-65 93.5t-24.5 141.5q0 51 11 104t33 102.5t54.5 93t75.5 76t96.5 51.5t116.5 19q62 0 111.5 -17t84 -48.5t52 -74t17.5 -91.5v-6h-44z"/>
<glyph glyph-name="afii10036" horiz-adv-x="519" unicode="Т" d="M54 676l9 38h548l-8 -38h-248l-143 -676h-44l143 676h-257z"/>
<glyph glyph-name="afii10037" d="M73 714h46l141 -518l347 518h50l-434 -644q-30 -45 -61.5 -66t-71.5 -21q-20 0 -40.5 5.5t-36.5 16.5l9 40q15 -11 33 -17.5t36 -6.5q28 0 50 16t51 58l39 58z" unicode="У"/>
<glyph glyph-name="afii10038" horiz-adv-x="722" unicode="Ф" d="M464 714l-17 -80q55 -2 102 -18t81.5 -46t54 -73t19.5 -99q0 -70 -27 -128t-74.5 -99t-113.5 -64t-144 -23h-16l-18 -84h-44l18 85q-55 2 -102 18t-81.5 46t-54 73t-19.5 99q0 70 27 128t74.5 99t113.5 64t144 23h16l17 79h44zM72 323q0 -48 16 -84.5t45.5 -62t70 -39 t89.5 -15.5l101 475h-11q-66 0 -123 -20t-99 -56t-65.5 -86.5t-23.5 -111.5zM660 396q0 48 -16.5 84.5t-45.5 62t-69.5 39t-89.5 15.5l-101 -475h11q66 0 123 19.5t99 55.5t65.5 86.5t23.5 112.5z"/>
<glyph glyph-name="afii10039" d="M499 0h-44l-173 333l-306 -333h-48l339 368l-183 346h44l166 -317l291 317h48l-323 -351z" unicode="Х"/>
<glyph glyph-name="afii10040" horiz-adv-x="682" unicode="Ц" d="M560 0h-561l153 714h44l-145 -676h445l145 676h44l-145 -676h72l-48 -222h-43z"/>
<glyph glyph-name="afii10041" horiz-adv-x="620" unicode="Ч" d="M441 0l75 347q-50 -16 -112 -29.5t-127 -13.5q-53 0 -89.5 10.5t-59 29.5t-32.5 46t-10 59q0 23 4 52t11 58l34 155h44l-34 -155q-7 -29 -11 -56.5t-4 -47.5q0 -26 8 -46.5t26 -35.5t46.5 -23t69.5 -8q64 0 125.5 13.5t118.5 30.5l70 328h44l-153 -714h-44z"/>
<glyph glyph-name="afii10042" horiz-adv-x="1008" unicode="Ш" d="M-1 0l153 714h44l-145 -676h371l145 676h44l-145 -676h371l145 676h44l-153 -714h-874z"/>
<glyph glyph-name="afii10043" horiz-adv-x="1023" unicode="Щ" d="M901 0h-902l153 714h44l-145 -676h371l145 676h44l-145 -676h371l145 676h44l-145 -676h72l-48 -222h-43z"/>
<glyph glyph-name="afii10044" horiz-adv-x="773" unicode="Ъ" d="M467 38q55 0 95 14t66.5 39t39 59.5t12.5 74.5q0 66 -41 102t-129 36h-229l-70 -325h256zM288 401h227q109 0 159 -46.5t50 -127.5q0 -49 -15.5 -90.5t-47.5 -72t-80.5 -47.5t-114.5 -17h-307l145 676h-250l9 38h293z"/>
<glyph glyph-name="afii10045" horiz-adv-x="800" unicode="Ы" d="M774 714h44l-153 -714h-44zM307 38q55 0 95 14t66.5 39t39 59.5t12.5 74.5q0 66 -41 102t-129 36h-229l-70 -325h256zM128 401h227q109 0 159 -46.5t50 -127.5q0 -49 -15.5 -90.5t-47.5 -72t-80.5 -47.5t-114.5 -17h-307l153 714h44z"/>
<glyph glyph-name="afii10046" horiz-adv-x="613" unicode="Ь" d="M307 38q55 0 95 14t66.5 39t39 59.5t12.5 74.5q0 66 -41 102t-129 36h-229l-70 -325h256zM128 401h227q109 0 159 -46.5t50 -127.5q0 -49 -15.5 -90.5t-47.5 -72t-80.5 -47.5t-114.5 -17h-307l153 714h44z"/>
<glyph glyph-name="afii10047" horiz-adv-x="704" unicode="Э" d="M302 21q64 0 118.5 23.5t97 67t70.5 104.5t39 136h-379l8 38h375q1 8 1 16v16q0 61 -17 111t-48.5 85.5t-76.5 55t-102 19.5q-50 0 -94.5 -13.5t-81 -39t-63.5 -61.5t-43 -80h-42q18 58 51.5 101.5t77.5 72.5t94.5 43.5t103.5 14.5q66 0 118.5 -22t89.5 -61.5t56.5 -95.5 t19.5 -125q0 -18 -1.5 -36t-3.5 -37q-12 -83 -43 -151.5t-79 -117.5t-111.5 -75.5t-138.5 -26.5q-63 0 -114.5 18.5t-88 52t-56 81.5t-19.5 108h42q2 -49 18 -89.5t46 -70t74 -46t102 -16.5z"/>
<glyph glyph-name="afii10048" horiz-adv-x="980" unicode="Ю" d="M322 287q0 -59 16 -108t47.5 -84t77 -54.5t104.5 -19.5q79 0 142 36t107 94t67.5 130.5t23.5 144.5q0 57 -15 106t-45.5 85t-76 56t-106.5 20q-78 0 -141 -33t-107.5 -89t-69 -129.5t-24.5 -154.5zM278 288q0 16 1 32t3 32h-163l-76 -352h-44l153 714h44l-69 -324h161 q14 69 46 131t79.5 108.5t110 74t136.5 27.5q70 0 124 -21t91 -60t56.5 -94.5t19.5 -124.5q0 -80 -26 -160t-75 -144t-119.5 -104t-158.5 -40q-71 0 -125.5 21.5t-92 61.5t-57 96.5t-19.5 125.5z"/>
<glyph glyph-name="afii10049" horiz-adv-x="630" unicode="Я" d="M521 325h-238l-306 -325h-54l312 331q-30 4 -57 16t-47.5 32t-32.5 48.5t-12 66.5q0 49 17.5 89.5t49 69.5t75 45t94.5 16h326l-153 -714h-44zM316 676q-39 0 -73 -13.5t-59 -37.5t-39.5 -57t-14.5 -72q0 -60 39 -96.5t126 -36.5h235l67 313h-281z"/>
<glyph glyph-name="afii10065" horiz-adv-x="500" unicode="а" d="M380 290h-2q-11 -11 -31 -17.5t-43 -11t-46.5 -6.5t-39.5 -3q-36 -1 -71 -5t-62.5 -17t-44.5 -37.5t-17 -66.5q0 -29 11 -49t29 -32.5t41.5 -18t49.5 -5.5q46 0 80.5 16t59 43.5t41 63.5t27.5 76zM58 366q20 86 77 123t144 37q19 0 46.5 -4.5t52.5 -18t42.5 -37 t17.5 -62.5q0 -17 -5 -44.5t-11 -54.5t-11.5 -49t-6.5 -28l-11 -44t-11 -47t-8.5 -42.5t-3.5 -30.5q0 -14 7 -23.5t21 -9.5q8 0 17 2t17 4l-6 -34q-11 -3 -22.5 -4t-21.5 -1q-26 0 -38 18t-12 35q0 8 3 20.5t5 22.5h-2q-15 -28 -38 -48t-49 -33t-54 -19t-53 -6 q-33 0 -62 7.5t-50.5 24t-34 42.5t-12.5 64q0 49 19 80t50.5 48t72 23.5t84.5 7.5q54 2 90 7.5t58 17t31.5 30.5t9.5 48q0 48 -29.5 76.5t-99.5 28.5q-69 0 -113 -30.5t-61 -96.5h-39z"/>
<glyph glyph-name="afii10066" horiz-adv-x="537" unicode="б" d="M452 310q0 75 -40.5 119.5t-112.5 44.5q-54 0 -98 -24t-74.5 -63.5t-47 -89.5t-16.5 -101q0 -81 43 -128t116 -47q55 0 98 25.5t72 67t44.5 93t15.5 103.5zM543 714q-5 -19 -12.5 -31.5t-20.5 -21t-32 -14.5t-46 -10l-103 -17q-101 -17 -160 -85t-88 -173q23 42 50 69.5 t56.5 44.5t60 24t61.5 7q85 0 133 -52t48 -140q0 -62 -18 -120.5t-52.5 -104.5t-84.5 -74t-114 -28q-93 0 -144.5 54.5t-51.5 154.5q0 75 15.5 150t49 138t86.5 107.5t128 58.5l118 21q21 4 34.5 8t22 9t12.5 11t7 14h45z"/>
<glyph glyph-name="afii10067" horiz-adv-x="500" unicode="в" d="M462 397q0 -51 -31 -84.5t-88 -42.5q44 -8 69 -37t25 -75q0 -73 -49.5 -115.5t-134.5 -42.5h-260l109 514h220q72 0 106 -30t34 -87zM85 255l-47 -222h206q75 0 115 34t40 92q0 27 -10 45t-27.5 29.5t-41 16.5t-50.5 5h-185zM424 395q0 42 -27 64t-86 22h-178l-41 -193 h186q29 0 55.5 5t46.5 17.5t32 33t12 51.5z"/>
<glyph glyph-name="afii10068" horiz-adv-x="396" unicode="г" d="M31 0h-38l109 514h338l-7 -33h-300z"/>
<glyph glyph-name="afii10069" horiz-adv-x="537" unicode="д" d="M362 33l95 448h-246l-12 -55q-26 -124 -64.5 -221.5t-92.5 -171.5h320zM502 514l-102 -481h65l-41 -194h-38l34 161h-437l-34 -161h-38l41 194h47q111 150 165 406l16 75h322z"/>
<glyph glyph-name="afii10070" horiz-adv-x="519" unicode="е" d="M57 252q-2 -14 -3.5 -28t-1.5 -28q0 -35 11 -67t31.5 -56t51 -38t69.5 -14q36 0 68.5 12.5t58 33t43 47.5t24.5 57h38q-11 -40 -32 -73.5t-51 -58t-68.5 -38t-84.5 -13.5q-49 0 -86 16t-61.5 44t-37 65t-12.5 78q0 72 19 133t54 106t86 70.5t114 25.5q45 0 80 -15 t59 -41.5t36.5 -63t12.5 -78.5q0 -20 -2 -38.5t-5 -37.5h-411zM432 285q2 13 3.5 23t1.5 20q0 33 -9.5 63t-28.5 52.5t-49 36t-70 13.5q-45 0 -81.5 -17t-63.5 -46t-45 -66.5t-27 -78.5h369z"/>
<glyph glyph-name="afii10072" horiz-adv-x="716" unicode="ж" d="M478 288l179 -288h-47l-163 262l-100 -83l-38 -179h-38l38 180l-68 91l-260 -271h-55l292 301l-157 213h50l209 -283l60 283h38l-61 -283l327 283h58z"/>
<glyph glyph-name="afii10073" horiz-adv-x="470" unicode="з" d="M300 270q50 -5 79.5 -37t29.5 -77q0 -42 -17.5 -73.5t-47 -52.5t-68 -31.5t-80.5 -10.5q-89 0 -141 38.5t-52 113.5v14.5t2 18.5h38q-2 -11 -2 -17v-14q0 -62 42.5 -91.5t114.5 -29.5q33 0 64 8.5t55.5 25t39 41.5t14.5 58q0 49 -41 75t-113 26h-49l8 34h50 q27 0 56.5 3.5t53.5 15t40 32.5t16 56q0 45 -35.5 71t-97.5 26q-69 0 -116 -29.5t-61 -100.5h-39q20 91 76 127t143 36q77 0 122.5 -35t45.5 -95q0 -55 -38 -87t-92 -39z"/>
<glyph glyph-name="afii10074" horiz-adv-x="519" unicode="и" d="M453 462h-1l-410 -462h-49l109 514h38l-99 -464h1l410 464h50l-109 -514h-38z"/>
<glyph glyph-name="afii10075" horiz-adv-x="519" unicode="й" d="M225 720q1 -38 24.5 -62.5t62.5 -24.5q40 0 72 24.5t39 62.5h33q-5 -26 -18 -48t-32.5 -38t-43.5 -25t-50 -9q-57 0 -87.5 31.5t-32.5 88.5h33zM453 462h-1l-410 -462h-49l109 514h38l-99 -464h1l410 464h50l-109 -514h-38z"/>
<glyph glyph-name="afii10076" horiz-adv-x="463" unicode="к" d="M102 514h38l-61 -282l375 282h58l-270 -204l177 -310h-48l-160 286l-142 -103l-38 -183h-38z"/>
<glyph glyph-name="afii10077" horiz-adv-x="518" unicode="л" d="M392 0h-38l102 481h-232l-76 -303q-23 -94 -58 -141t-96 -47q-32 0 -60 13l8 36q10 -5 24 -9t26 -4q46 0 72.5 40t46.5 118l83 330h307z"/>
<glyph glyph-name="afii10078" horiz-adv-x="630" unicode="м" d="M31 0h-38l109 514h60l95 -467l292 467h64l-109 -514h-38l101 478h-2l-295 -478h-42l-94 478h-2z"/>
<glyph glyph-name="afii10079" horiz-adv-x="519" unicode="н" d="M409 257h-324l-54 -257h-38l109 514h38l-48 -224h324l48 224h38l-109 -514h-38z"/>
<glyph glyph-name="afii10080" horiz-adv-x="537" unicode="о" d="M299 493h-4q-56 -1 -101 -25q-46 -26 -77.5 -66.5t-48 -92t-16.5 -102.5q0 -39 9.5 -72.5t30 -59t52 -40t75.5 -14.5q59 0 103.5 28.5t74 72.5t44.5 97.5t15 103.5q0 76 -38 122t-119 48zM291 526q96 0 149.5 -53t53.5 -149q0 -59 -17.5 -119t-52 -108t-86 -78.5 t-118.5 -30.5q-53 0 -91.5 15.5t-64 44t-38 68t-12.5 88.5q0 58 19 116t54.5 103.5t87 74t116.5 28.5z"/>
<glyph glyph-name="afii10081" horiz-adv-x="519" unicode="п" d="M457 481h-324l-102 -481h-38l109 514h400l-109 -514h-38z"/>
<glyph glyph-name="afii10082" d="M102 514h38l-22 -100h2q12 23 31.5 43.5t45 35.5t55 24t61.5 9q51 0 87 -16.5t59.5 -45t34 -67.5t10.5 -84q0 -57 -17.5 -115t-51.5 -104.5t-83.5 -76t-113.5 -29.5q-67 0 -113 39.5t-63 105.5h-2l-70 -317h-38zM240 21q57 0 99 28t70.5 71t42.5 95t14 99q0 39 -10 71.5 t-29.5 56.5t-49 37.5t-69.5 13.5q-56 0 -99 -29.5t-71.5 -74t-43 -96t-14.5 -96.5q0 -30 11 -61.5t31.5 -57t50 -41.5t67.5 -16z" unicode="р"/>
<glyph glyph-name="afii10083" horiz-adv-x="519" unicode="с" d="M454 168q-30 -80 -88.5 -130t-146.5 -50q-53 0 -90.5 16.5t-61.5 46t-35 69.5t-11 88q0 60 20 117t56.5 102t88 72t113.5 27q40 0 74.5 -12.5t59.5 -35t37 -51t12 -59.5q0 -7 -1 -14h-38q0 66 -38.5 102.5t-105.5 36.5q-56 0 -100.5 -25.5t-75.5 -66.5t-47.5 -91.5 t-16.5 -99.5q0 -37 9 -71t28 -60.5t48.5 -42t70.5 -15.5q72 0 121.5 40.5t75.5 106.5h42z"/>
<glyph glyph-name="afii10084" horiz-adv-x="444" unicode="т" d="M173 0h-38l102 481h-195l6 33h428l-6 -33h-195z"/>
<glyph glyph-name="afii10085" horiz-adv-x="426" unicode="у" d="M-59 -148q19 -3 36 -3q37 0 59 21t40 50l50 80l-101 514h44l86 -463l262 463h45l-349 -604q-13 -23 -26 -40.5t-29 -29.5t-36 -18t-48 -6q-12 0 -22.5 1t-18.5 2z"/>
<glyph glyph-name="afii10086" horiz-adv-x="765" unicode="ф" d="M52 172q0 -31 6.5 -58.5t21 -48t37.5 -32.5t56 -12q25 0 50.5 11t46.5 29t36.5 42.5t21.5 51.5l43 207q3 15 3 29q0 22 -9.5 41t-24.5 32.5t-35 21t-41 7.5q-54 0 -93.5 -31t-66 -78t-39.5 -104t-13 -108zM310 66q-26 -34 -60.5 -56t-84.5 -22q-39 0 -67.5 14t-47 38.5 t-27.5 58t-9 71.5q0 60 15.5 123t47 115t78.5 85t110 33q44 0 77.5 -20.5t46.5 -54.5l55 263h38l-56 -266q26 34 60.5 56t84.5 22q39 0 67.5 -14t47 -38.5t27.5 -58t9 -71.5q0 -60 -15.5 -123t-47 -115t-78.5 -85t-110 -33q-44 0 -77.5 20.5t-46.5 54.5l-54 -247h-38z M684 342q0 31 -6.5 58.5t-21 48t-37.5 32.5t-56 12q-25 0 -50.5 -11t-46.5 -29t-36.5 -42.5t-21.5 -51.5l-43 -207q-3 -15 -3 -29q0 -23 9.5 -41.5t24.5 -32t35 -21t41 -7.5q54 0 93.5 31t66 78t39.5 104t13 108z"/>
<glyph glyph-name="afii10087" horiz-adv-x="426" unicode="х" d="M205 296l198 218h50l-228 -249l142 -265h-46l-127 237l-218 -237h-51l250 270l-129 244h47z"/>
<glyph glyph-name="afii10088" horiz-adv-x="537" unicode="ц" d="M420 0h-427l109 514h38l-102 -481h324l102 481h38l-102 -481h65l-41 -194h-38z"/>
<glyph glyph-name="afii10089" horiz-adv-x="483" unicode="ч" d="M371 245q-38 -13 -85.5 -23.5t-96.5 -10.5q-64 0 -100.5 27t-36.5 85q0 25 7 59l28 132h38l-28 -134q-3 -14 -5 -29t-2 -25q0 -42 27 -62t78 -20q43 0 90 10t93 25l50 235h38l-109 -514h-38z"/>
<glyph glyph-name="afii10090" horiz-adv-x="767" unicode="ш" d="M641 0h-648l109 514h38l-102 -481h267l102 481h38l-102 -481h267l102 481h38z"/>
<glyph glyph-name="afii10091" horiz-adv-x="785" unicode="щ" d="M668 0h-675l109 514h38l-102 -481h267l102 481h38l-102 -481h267l102 481h38l-102 -481h65l-41 -194h-38z"/>
<glyph glyph-name="afii10092" horiz-adv-x="611" unicode="ъ" d="M210 266l-49 -233h201q77 0 113.5 37t36.5 97q0 48 -29.5 73.5t-89.5 25.5h-183zM217 299h182q74 0 112.5 -34.5t38.5 -96.5q0 -36 -11.5 -67t-34.5 -53.5t-58 -35t-81 -12.5h-249l102 481h-176l6 33h215z"/>
<glyph glyph-name="afii10093" horiz-adv-x="630" unicode="ы" d="M575 514h38l-109 -514h-38zM87 266l-49 -233h191q77 0 113.5 37t36.5 97q0 48 -29.5 73.5t-89.5 25.5h-173zM140 514l-46 -215h172q74 0 112.5 -34.5t38.5 -96.5q0 -36 -11.5 -67t-34.5 -53.5t-58 -35t-81 -12.5h-239l109 514h38z"/>
<glyph glyph-name="afii10094" horiz-adv-x="488" unicode="ь" d="M87 266l-49 -233h201q77 0 113.5 37t36.5 97q0 48 -29.5 73.5t-89.5 25.5h-183zM140 514l-46 -215h182q74 0 112.5 -34.5t38.5 -96.5q0 -36 -11.5 -67t-34.5 -53.5t-58 -35t-81 -12.5h-249l109 514h38z"/>
<glyph glyph-name="afii10095" horiz-adv-x="513" unicode="э" d="M159 285h270q1 7 1 14v14q0 87 -42 133.5t-118 46.5q-61 0 -111.5 -34t-74.5 -96h-39q25 74 84 118.5t144 44.5q94 0 144.5 -54.5t50.5 -156.5q0 -61 -15.5 -119.5t-48.5 -104.5t-83 -74.5t-119 -28.5q-42 0 -77.5 11.5t-61 35t-39.5 57.5t-14 79h38q0 -37 11.5 -65 t32.5 -47t49.5 -28.5t62.5 -9.5q51 0 89 19t65 51.5t43 74t24 86.5h-273z"/>
<glyph glyph-name="afii10096" horiz-adv-x="730" unicode="ю" d="M492 493h-4q-56 0 -101.5 -25t-77 -66t-48 -92.5t-16.5 -102.5q0 -39 9.5 -72.5t30 -59t52 -40t75.5 -14.5q59 0 103.5 28.5t74 72.5t44.5 97.5t15 103.5q0 76 -38 122t-119 48zM484 526q96 0 149.5 -53t53.5 -149q0 -59 -17.5 -119t-52 -108t-86 -78.5t-118.5 -30.5 q-53 0 -91.5 15.5t-64 44t-38 68t-12.5 88.5q0 13 1 26t3 27h-126l-54 -257h-38l109 514h38l-48 -224h125q11 47 34.5 89.5t57.5 75t78 52t97 19.5z"/>
<glyph glyph-name="afii10097" horiz-adv-x="488" unicode="я" d="M378 255l48 226h-197q-71 0 -107 -36t-36 -93q0 -44 28.5 -70.5t88.5 -26.5h175zM166 225q-55 7 -86.5 41t-31.5 85q0 35 12 65t35 51.5t56.5 34t76.5 12.5h243l-109 -514h-38l47 222h-159l-209 -222h-50z"/>
<glyph glyph-name="uni0450" horiz-adv-x="519" unicode="ѐ" d="M57 252q-2 -14 -3.5 -28t-1.5 -28q0 -35 11 -67t31.5 -56t51 -38t69.5 -14q36 0 68.5 12.5t58 33t43 47.5t24.5 57h38q-11 -40 -32 -73.5t-51 -58t-68.5 -38t-84.5 -13.5q-49 0 -86 16t-61.5 44t-37 65t-12.5 78q0 72 19 133t54 106t86 70.5t114 25.5q45 0 80 -15 t59 -41.5t36.5 -63t12.5 -78.5q0 -20 -2 -38.5t-5 -37.5h-411zM432 285q2 13 3.5 23t1.5 20q0 33 -9.5 63t-28.5 52.5t-49 36t-70 13.5q-45 0 -81.5 -17t-63.5 -46t-45 -66.5t-27 -78.5h369zM248 730l99 -140h-37l-110 140h48z"/>
<glyph glyph-name="afii10071" horiz-adv-x="519" unicode="ё" d="M57 252q-2 -14 -3.5 -28t-1.5 -28q0 -35 11 -67t31.5 -56t51 -38t69.5 -14q36 0 68.5 12.5t58 33t43 47.5t24.5 57h38q-11 -40 -32 -73.5t-51 -58t-68.5 -38t-84.5 -13.5q-49 0 -86 16t-61.5 44t-37 65t-12.5 78q0 72 19 133t54 106t86 70.5t114 25.5q45 0 80 -15 t59 -41.5t36.5 -63t12.5 -78.5q0 -20 -2 -38.5t-5 -37.5h-411zM432 285q2 13 3.5 23t1.5 20q0 33 -9.5 63t-28.5 52.5t-49 36t-70 13.5q-45 0 -81.5 -17t-63.5 -46t-45 -66.5t-27 -78.5h369zM380 706h44l-21 -103h-44zM221 706h44l-21 -103h-44z"/>
<glyph glyph-name="afii10099" horiz-adv-x="519" unicode="ђ" d="M416 268q5 23 10 52t5 51q0 49 -31.5 79.5t-89.5 30.5q-49 0 -87.5 -23t-67 -59.5t-47.5 -81t-28 -87.5l-49 -230h-38l124 589h-67l7 33h67l20 92h38l-20 -92h227l-7 -33h-227l-41 -195h2q34 54 86 87t121 33q29 0 55.5 -9.5t46.5 -28t32 -45t12 -59.5q0 -21 -5 -50.5 t-10 -52.5l-44 -200q-26 -121 -97.5 -188.5t-198.5 -76.5l7 37q109 8 169 68.5t83 166.5z"/>
<glyph glyph-name="afii10100" horiz-adv-x="396" unicode="ѓ" d="M344 730h49l-126 -140h-37zM31 0h-38l109 514h338l-7 -33h-300z"/>
<glyph glyph-name="afii10101" horiz-adv-x="513" unicode="є" d="M335 252h-277q-2 -14 -3 -26t-1 -26q0 -83 43 -131t121 -48q68 0 119.5 36.5t77.5 113.5h39q-59 -183 -239 -183q-90 0 -144.5 54.5t-54.5 155.5q0 67 18.5 127t53.5 104.5t86 70.5t116 26q85 0 134.5 -44t51.5 -119h-40q-2 62 -41.5 96t-108.5 34q-46 0 -82.5 -15.5 t-64 -43t-46.5 -65.5t-29 -84h278z"/>
<glyph glyph-name="afii10102" horiz-adv-x="463" unicode="ѕ" d="M36 175q0 -6 -0.5 -12t-0.5 -12q0 -72 46.5 -101t127.5 -29q21 0 45 7t45 21t34.5 34.5t13.5 47.5q-1 37 -22.5 58.5t-53 36t-68.5 25.5t-68 27.5t-51.5 41t-20.5 63.5q0 40 16 66.5t42 43.5t58.5 25t65.5 8q36 0 68 -8.5t56 -24.5t38 -40.5t14 -55.5q0 -9 -0.5 -17 t-1.5 -21h-38q1 9 1.5 17t0.5 16q0 25 -11 44t-30 31.5t-44 19t-53 6.5q-23 0 -48 -5t-46.5 -17t-35.5 -31.5t-14 -48.5q0 -25 12.5 -42.5t32.5 -30.5t45.5 -22.5t51.5 -18.5q27 -9 52.5 -20t45.5 -26.5t32 -37t12 -51.5q0 -38 -16.5 -67t-43.5 -48.5t-61 -29t-70 -9.5 q-41 0 -77 8t-62.5 26t-42 47.5t-15.5 72.5v16v8t1 9h38z"/>
<glyph glyph-name="afii10103" horiz-adv-x="167" unicode="і" d="M100 514h38l-107 -514h-38zM142 714h38l-21 -103h-38z"/>
<glyph glyph-name="afii10104" horiz-adv-x="167" unicode="ї" d="M208 706h44l-21 -103h-44zM49 706h44l-21 -103h-44zM-7 0l107 514h38l-107 -514h-38z"/>
<glyph glyph-name="afii10105" horiz-adv-x="167" unicode="ј" d="M100 514h38l-115 -555q-4 -18 -8.5 -42.5t-16.5 -47t-35 -38t-65 -15.5q-22 0 -41 3l7 34q17 -4 40 -4q22 0 36 9.5t22.5 25.5t13.5 36.5t10 41.5zM142 714h38l-21 -103h-38z"/>
<glyph glyph-name="afii10106" horiz-adv-x="778" unicode="љ" d="M421 266l-49 -233h157q77 0 113.5 37t36.5 97q0 48 -29.5 73.5t-89.5 25.5h-139zM224 481l-76 -303q-23 -94 -58 -141t-96 -47q-32 0 -60 13l8 36q10 -5 24 -9t26 -4q46 0 72.5 40t46.5 118l83 330h280l-46 -215h138q74 0 112.5 -34.5t38.5 -96.5q0 -36 -11.5 -67 t-34.5 -53.5t-58 -35t-81 -12.5h-205l101 481h-204z"/>
<glyph glyph-name="afii10107" horiz-adv-x="772" unicode="њ" d="M409 266l-49 -233h163q77 0 113.5 37t36.5 97q0 48 -29.5 73.5t-89.5 25.5h-145zM371 266h-284l-56 -266h-38l109 514h38l-46 -215h284l46 215h38l-46 -215h144q74 0 112.5 -34.5t38.5 -96.5q0 -36 -11.5 -67t-34.5 -53.5t-58 -35t-81 -12.5h-211z"/>
<glyph glyph-name="afii10108" horiz-adv-x="519" unicode="ћ" d="M416 268q5 23 10 52t5 51q0 49 -31.5 79.5t-89.5 30.5q-49 0 -87.5 -23t-67 -59.5t-47.5 -81t-28 -87.5l-49 -230h-38l124 589h-67l7 33h67l20 92h38l-20 -92h227l-7 -33h-227l-41 -195h2q34 54 86 87t121 33q29 0 55.5 -9.5t46.5 -28t32 -45t12 -59.5q0 -21 -5 -50.5 t-10 -52.5l-61 -269h-38z"/>
<glyph glyph-name="afii10109" horiz-adv-x="463" unicode="ќ" d="M371 730h49l-126 -140h-37zM102 514h38l-61 -282l375 282h58l-270 -204l177 -310h-48l-160 286l-142 -103l-38 -183h-38z"/>
<glyph glyph-name="uni045D" horiz-adv-x="519" unicode="ѝ" d="M253 730l99 -140h-37l-110 140h48zM453 462h-1l-410 -462h-49l109 514h38l-99 -464h1l410 464h50l-109 -514h-38z"/>
<glyph glyph-name="afii10110" horiz-adv-x="426" unicode="ў" d="M-59 -148q19 -3 36 -3q37 0 59 21t40 50l50 80l-101 514h44l86 -463l262 463h45l-349 -604q-13 -23 -26 -40.5t-29 -29.5t-36 -18t-48 -6q-12 0 -22.5 1t-18.5 2zM169 720q1 -38 24.5 -62.5t62.5 -24.5q40 0 72 24.5t39 62.5h33q-5 -26 -18 -48t-32.5 -38t-43.5 -25 t-50 -9q-57 0 -87.5 31.5t-32.5 88.5h33z"/>
<glyph glyph-name="afii10193" horiz-adv-x="519" unicode="џ" d="M38 33h324l102 481h38l-109 -514h-182l-34 -161h-38l34 161h-180l109 514h38z"/>
<glyph glyph-name="afii10146" horiz-adv-x="686" unicode="Ѣ" d="M380 38q55 0 95 14t66.5 39t39 59.5t12.5 74.5q0 66 -41 102t-129 36h-229l-70 -325h256zM51 609h151l23 105h44l-23 -105h224l-8 -38h-224l-37 -170h227q109 0 159 -46.5t50 -127.5q0 -49 -15.5 -90.5t-47.5 -72t-80.5 -47.5t-114.5 -17h-307l122 571h-152z"/>
<glyph glyph-name="afii10194" horiz-adv-x="554" unicode="ѣ" d="M146 266l-49 -233h208q77 0 113.5 37t36.5 97q0 48 -29.5 73.5t-89.5 25.5h-190zM342 299q74 0 112.5 -34.5t38.5 -96.5q0 -36 -11.5 -67t-34.5 -53.5t-58 -35t-81 -12.5h-256l101 481h-125l8 33h124l41 200h38l-42 -200h195l-8 -33h-194l-37 -182h189z"/>
<glyph glyph-name="afii10147" horiz-adv-x="741" unicode="Ѳ" d="M425 693q-65 0 -120 -23.5t-98 -64.5t-72.5 -96t-42.5 -119h575q1 9 1.5 18t0.5 18q0 57 -15 106t-45.5 85t-76.5 56t-107 20zM82 287q0 -59 16.5 -108t48 -84t77 -54.5t104.5 -19.5q69 0 126 28t100 74t70.5 105.5t38.5 123.5h-577q-2 -16 -3 -32t-1 -33zM39 288 q0 85 27 164.5t76.5 141.5t120.5 99.5t158 37.5q70 0 124 -21t91 -60t56.5 -94.5t19.5 -124.5q0 -80 -26 -160t-75 -144t-119.5 -104t-158.5 -40q-71 0 -125.5 21.5t-92 61.5t-57 96.5t-19.5 125.5z"/>
<glyph glyph-name="afii10195" horiz-adv-x="537" unicode="ѳ" d="M299 493q-48 0 -87.5 -17t-70 -45.5t-51 -66.5t-30.5 -79h395q2 11 2 19.5v18.5q0 76 -39 123t-119 47zM219 21q49 0 87.5 20t67.5 52t47.5 73.5t27.5 85.5h-395q-3 -23 -3 -45q0 -39 10 -72.5t30.5 -59t52 -40t75.5 -14.5zM301 526q46 0 82 -15t61 -42t37.5 -64 t12.5 -81q0 -60 -18 -120t-53 -108t-86.5 -78t-119.5 -30q-51 0 -89.5 15.5t-63.5 44t-37.5 68t-12.5 88.5q0 60 19 117.5t55.5 103t90 73.5t122.5 28z"/>
<glyph glyph-name="afii10148" horiz-adv-x="598" unicode="Ѵ" d="M556 635q16 28 29.5 46.5t27.5 29.5t29 15.5t34 4.5q23 0 46 -6l-8 -39q-21 7 -38 7q-26 0 -44 -17.5t-44 -63.5l-345 -612h-52l-119 714h44l105 -670h2z"/>
<glyph glyph-name="afii10196" horiz-adv-x="436" unicode="ѵ" d="M117 0l-90 514h42l77 -470h2l213 402q26 48 49 64t55 16q17 0 37 -5l-9 -33l-14 3.5t-14 1.5q-21 0 -36 -14t-34 -49l-232 -430h-46z"/>
<glyph glyph-name="Izhitsadblgravecyrillic" horiz-adv-x="598" unicode="Ѷ" d="M556 635q16 28 29.5 46.5t27.5 29.5t29 15.5t34 4.5q23 0 46 -6l-8 -39q-21 7 -38 7q-26 0 -44 -17.5t-44 -63.5l-345 -612h-52l-119 714h44l105 -670h2zM330 946l99 -140h-37l-110 140h48zM414 946l99 -140h-37l-110 140h48z"/>
<glyph glyph-name="izhitsadblgravecyrillic" horiz-adv-x="436" unicode="ѷ" d="M117 0l-90 514h42l77 -470h2l213 402q26 48 49 64t55 16q17 0 37 -5l-9 -33l-14 3.5t-14 1.5q-21 0 -36 -14t-34 -49l-232 -430h-46zM197 741l99 -140h-37l-110 140h48zM281 741l99 -140h-37l-110 140h48z"/>
<glyph glyph-name="afii10050" horiz-adv-x="495" unicode="Ґ" d="M574 676h-387l-144 -676h-44l152 714h388l35 168h43z"/>
<glyph glyph-name="afii10098" horiz-adv-x="396" unicode="ґ" d="M31 0h-38l109 514h296l34 159h38l-41 -192h-296z"/>
<glyph glyph-name="palochkacyrillic" horiz-adv-x="185" unicode="Ӏ" d="M150 714h44l-151 -714h-44z"/>
<glyph glyph-name="Zhebrevecyrillic" horiz-adv-x="980" unicode="Ӂ" d="M-30 0h-57l416 436l-242 278h55l327 -377l80 377h44l-81 -376l471 376h63l-358 -284l240 -430h-50l-224 403l-154 -120l-60 -283h-44l62 287l-103 118zM510 909q1 -38 24.5 -62.5t62.5 -24.5q40 0 72 24.5t39 62.5h33q-5 -26 -18 -48t-32.5 -38t-43.5 -25t-50 -9 q-57 0 -87.5 31.5t-32.5 88.5h33z"/>
<glyph glyph-name="zhebrevecyrillic" horiz-adv-x="716" unicode="ӂ" d="M478 288l179 -288h-47l-163 262l-100 -83l-38 -179h-38l38 180l-68 91l-260 -271h-55l292 301l-157 213h50l209 -283l60 283h38l-61 -283l327 283h58zM353 709q1 -38 24.5 -62.5t62.5 -24.5q40 0 72 24.5t39 62.5h33q-5 -26 -18 -48t-32.5 -38t-43.5 -25t-50 -9 q-57 0 -87.5 31.5t-32.5 88.5h33z"/>
<glyph glyph-name="Abrevecyrillic" horiz-adv-x="611" unicode="Ӑ" d="M137 267h315l-72 403zM365 714h46l133 -714h-44l-41 229h-345l-138 -229h-50zM314 909q1 -38 24.5 -62.5t62.5 -24.5q40 0 72 24.5t39 62.5h33q-5 -26 -18 -48t-32.5 -38t-43.5 -25t-50 -9q-57 0 -87.5 31.5t-32.5 88.5h33z"/>
<glyph glyph-name="abrevecyrillic" horiz-adv-x="500" unicode="ӑ" d="M380 290h-2q-11 -11 -31 -17.5t-43 -11t-46.5 -6.5t-39.5 -3q-36 -1 -71 -5t-62.5 -17t-44.5 -37.5t-17 -66.5q0 -29 11 -49t29 -32.5t41.5 -18t49.5 -5.5q46 0 80.5 16t59 43.5t41 63.5t27.5 76zM58 366q20 86 77 123t144 37q19 0 46.5 -4.5t52.5 -18t42.5 -37 t17.5 -62.5q0 -17 -5 -44.5t-11 -54.5t-11.5 -49t-6.5 -28l-11 -44t-11 -47t-8.5 -42.5t-3.5 -30.5q0 -14 7 -23.5t21 -9.5q8 0 17 2t17 4l-6 -34q-11 -3 -22.5 -4t-21.5 -1q-26 0 -38 18t-12 35q0 8 3 20.5t5 22.5h-2q-15 -28 -38 -48t-49 -33t-54 -19t-53 -6 q-33 0 -62 7.5t-50.5 24t-34 42.5t-12.5 64q0 49 19 80t50.5 48t72 23.5t84.5 7.5q54 2 90 7.5t58 17t31.5 30.5t9.5 48q0 48 -29.5 76.5t-99.5 28.5q-69 0 -113 -30.5t-61 -96.5h-39zM225 721q1 -38 24.5 -62.5t62.5 -24.5q40 0 72 24.5t39 62.5h33q-5 -26 -18 -48 t-32.5 -38t-43.5 -25t-50 -9q-57 0 -87.5 31.5t-32.5 88.5h33z"/>
<glyph glyph-name="Adieresiscyrillic" horiz-adv-x="611" unicode="Ӓ" d="M137 267h315l-72 403zM365 714h46l133 -714h-44l-41 229h-345l-138 -229h-50zM470 892h44l-21 -103h-44zM311 892h44l-21 -103h-44z"/>
<glyph glyph-name="adieresiscyrillic" horiz-adv-x="500" unicode="ӓ" d="M380 290h-2q-11 -11 -31 -17.5t-43 -11t-46.5 -6.5t-39.5 -3q-36 -1 -71 -5t-62.5 -17t-44.5 -37.5t-17 -66.5q0 -29 11 -49t29 -32.5t41.5 -18t49.5 -5.5q46 0 80.5 16t59 43.5t41 63.5t27.5 76zM58 366q20 86 77 123t144 37q19 0 46.5 -4.5t52.5 -18t42.5 -37 t17.5 -62.5q0 -17 -5 -44.5t-11 -54.5t-11.5 -49t-6.5 -28l-11 -44t-11 -47t-8.5 -42.5t-3.5 -30.5q0 -14 7 -23.5t21 -9.5q8 0 17 2t17 4l-6 -34q-11 -3 -22.5 -4t-21.5 -1q-26 0 -38 18t-12 35q0 8 3 20.5t5 22.5h-2q-15 -28 -38 -48t-49 -33t-54 -19t-53 -6 q-33 0 -62 7.5t-50.5 24t-34 42.5t-12.5 64q0 49 19 80t50.5 48t72 23.5t84.5 7.5q54 2 90 7.5t58 17t31.5 30.5t9.5 48q0 48 -29.5 76.5t-99.5 28.5q-69 0 -113 -30.5t-61 -96.5h-39zM388 704h44l-21 -103h-44zM229 704h44l-21 -103h-44z"/>
<glyph glyph-name="Aiecyrillic" horiz-adv-x="870" unicode="Ӕ" d="M-87 0l544 714h472l-8 -38h-366l-61 -286h341l-8 -38h-341l-66 -314h381l-10 -38h-423l54 254h-264l-193 -254h-52zM185 292h244l82 384h-34z"/>
<glyph glyph-name="aiecyrillic" horiz-adv-x="852" unicode="ӕ" d="M60 362q14 78 69 121t133 43q30 0 58.5 -7t51 -22t36 -39.5t13.5 -58.5h2q12 27 32 50t46 40.5t56 27t62 9.5q42 0 76 -15t58 -41.5t36.5 -61.5t12.5 -75q0 -20 -1.5 -40.5t-6.5 -40.5h-392q-5 -19 -6.5 -37.5t-1.5 -40.5q0 -34 11.5 -62t32.5 -48.5t49.5 -31.5t63.5 -11 t64.5 11.5t52.5 31.5t40 47.5t28 59.5h38q-29 -88 -84 -135.5t-152 -47.5q-32 0 -62 11t-55 31.5t-41 49.5t-19 66h-2q-12 -33 -33 -62t-48 -50t-60 -33.5t-69 -12.5t-66 10t-51.5 28t-33 42.5t-11.5 53.5q0 53 22 84t57.5 47.5t79.5 23t88 10.5q43 4 72.5 9t47.5 16t26 30 t8 51q0 48 -32.5 74t-90.5 26q-29 0 -57 -9t-51 -26t-38.5 -41.5t-19.5 -54.5h-39zM372 289h-2q-9 -11 -27 -17.5t-38.5 -9.5t-40.5 -4.5t-33 -2.5q-8 -1 -27 -2t-41.5 -5t-47 -12t-44.5 -22.5t-33 -36.5t-13 -54q0 -24 9.5 -43t26 -32t37.5 -20t45 -7q45 0 80 15.5 t61.5 41.5t43.5 61t26 74zM759 285q3 14 4 27t1 26q0 31 -10 59t-28.5 49.5t-45.5 34t-60 12.5q-45 0 -80.5 -17.5t-62 -46.5t-44 -66.5t-26.5 -77.5h352z"/>
<glyph glyph-name="Iebrevecyrillic" d="M149 714h466l-9 -38h-421l-60 -286h392l-7 -38h-393l-66 -314h434l-8 -38h-478zM311 909q1 -38 24.5 -62.5t62.5 -24.5q40 0 72 24.5t39 62.5h33q-5 -26 -18 -48t-32.5 -38t-43.5 -25t-50 -9q-57 0 -87.5 31.5t-32.5 88.5h33z" unicode="Ӗ"/>
<glyph glyph-name="iebrevecyrillic" horiz-adv-x="519" unicode="ӗ" d="M57 252q-2 -14 -3.5 -28t-1.5 -28q0 -35 11 -67t31.5 -56t51 -38t69.5 -14q36 0 68.5 12.5t58 33t43 47.5t24.5 57h38q-11 -40 -32 -73.5t-51 -58t-68.5 -38t-84.5 -13.5q-49 0 -86 16t-61.5 44t-37 65t-12.5 78q0 72 19 133t54 106t86 70.5t114 25.5q45 0 80 -15 t59 -41.5t36.5 -63t12.5 -78.5q0 -20 -2 -38.5t-5 -37.5h-411zM432 285q2 13 3.5 23t1.5 20q0 33 -9.5 63t-28.5 52.5t-49 36t-70 13.5q-45 0 -81.5 -17t-63.5 -46t-45 -66.5t-27 -78.5h369zM227 721q1 -38 24.5 -62.5t62.5 -24.5q40 0 72 24.5t39 62.5h33q-5 -26 -18 -48 t-32.5 -38t-43.5 -25t-50 -9q-57 0 -87.5 31.5t-32.5 88.5h33z"/>
<glyph glyph-name="Zhedieresiscyrillic" horiz-adv-x="980" unicode="Ӝ" d="M-30 0h-57l416 436l-242 278h55l327 -377l80 377h44l-81 -376l471 376h63l-358 -284l240 -430h-50l-224 403l-154 -120l-60 -283h-44l62 287l-103 118zM665 892h44l-21 -103h-44zM506 892h44l-21 -103h-44z"/>
<glyph glyph-name="zhedieresiscyrillic" horiz-adv-x="716" unicode="ӝ" d="M478 288l179 -288h-47l-163 262l-100 -83l-38 -179h-38l38 180l-68 91l-260 -271h-55l292 301l-157 213h50l209 -283l60 283h38l-61 -283l327 283h58zM487 692h44l-21 -103h-44zM328 692h44l-21 -103h-44z"/>
<glyph glyph-name="Zedieresiscyrillic" horiz-adv-x="624" unicode="Ӟ" d="M604 553q0 -37 -13 -67.5t-35.5 -54t-54.5 -38.5t-69 -21v-2q64 -8 101.5 -43.5t37.5 -101.5q0 -58 -23.5 -103t-63 -76t-92 -47t-110.5 -16q-128 0 -198.5 60t-70.5 169v11t1 13h43v-19q0 -52 16.5 -89t46 -61t71.5 -35t93 -11q48 0 92 13t77.5 39t53.5 64.5t20 88.5 q0 37 -15 61.5t-40.5 39t-59 20t-70.5 5.5h-41t-42 -1l10 39q17 -1 35.5 -1h38.5q40 0 79 8t70 27t50 50t19 76q0 34 -13.5 61t-38 45t-58 27.5t-73.5 9.5q-47 0 -88.5 -9.5t-74 -30.5t-55.5 -56t-32 -86h-43q12 61 38.5 103t64.5 68t86.5 37.5t104.5 11.5q51 0 92.5 -12.5 t71 -35.5t45.5 -56t16 -74zM482 909h44l-21 -103h-44zM323 909h44l-21 -103h-44z"/>
<glyph glyph-name="zedieresiscyrillic" horiz-adv-x="470" unicode="ӟ" d="M300 270q50 -5 79.5 -37t29.5 -77q0 -42 -17.5 -73.5t-47 -52.5t-68 -31.5t-80.5 -10.5q-89 0 -141 38.5t-52 113.5v14.5t2 18.5h38q-2 -11 -2 -17v-14q0 -62 42.5 -91.5t114.5 -29.5q33 0 64 8.5t55.5 25t39 41.5t14.5 58q0 49 -41 75t-113 26h-49l8 34h50 q27 0 56.5 3.5t53.5 15t40 32.5t16 56q0 45 -35.5 71t-97.5 26q-69 0 -116 -29.5t-61 -100.5h-39q20 91 76 127t143 36q77 0 122.5 -35t45.5 -95q0 -55 -38 -87t-92 -39zM354 704h44l-21 -103h-44zM195 704h44l-21 -103h-44z"/>
<glyph glyph-name="Imacroncyrillic" horiz-adv-x="667" unicode="Ӣ" d="M629 659h-3l-568 -659h-59l153 714h44l-141 -659h3l565 659h62l-153 -714h-44zM316 789l6 33h240l-6 -33h-240z"/>
<glyph glyph-name="imacroncyrillic" horiz-adv-x="519" unicode="ӣ" d="M453 462h-1l-410 -462h-49l109 514h38l-99 -464h1l410 464h50l-109 -514h-38zM202 589l6 33h240l-6 -33h-240z"/>
<glyph glyph-name="Idieresiscyrillic" horiz-adv-x="667" unicode="Ӥ" d="M629 659h-3l-568 -659h-59l153 714h44l-141 -659h3l565 659h62l-153 -714h-44zM516 892h44l-21 -103h-44zM357 892h44l-21 -103h-44z"/>
<glyph glyph-name="idieresiscyrillic" horiz-adv-x="519" unicode="ӥ" d="M453 462h-1l-410 -462h-49l109 514h38l-99 -464h1l410 464h50l-109 -514h-38zM400 692h44l-21 -103h-44zM241 692h44l-21 -103h-44z"/>
<glyph glyph-name="Odieresiscyrillic" horiz-adv-x="741" unicode="Ӧ" d="M83 287q0 -59 16 -108t47.5 -84t77 -54.5t104.5 -19.5q79 0 142 36t107 94t67.5 130.5t23.5 144.5q0 57 -15 106t-45.5 85t-76 56t-106.5 20q-78 0 -141 -33t-107.5 -89t-69 -129.5t-24.5 -154.5zM39 288q0 85 27 164.5t76.5 141.5t120.5 99.5t158 37.5q70 0 124 -21 t91 -60t56.5 -94.5t19.5 -124.5q0 -80 -26 -160t-75 -144t-119.5 -104t-158.5 -40q-71 0 -125.5 21.5t-92 61.5t-57 96.5t-19.5 125.5zM552 909h44l-21 -103h-44zM393 909h44l-21 -103h-44z"/>
<glyph glyph-name="odieresiscyrillic" horiz-adv-x="537" unicode="ӧ" d="M299 493h-4q-56 -1 -101 -25q-46 -26 -77.5 -66.5t-48 -92t-16.5 -102.5q0 -39 9.5 -72.5t30 -59t52 -40t75.5 -14.5q59 0 103.5 28.5t74 72.5t44.5 97.5t15 103.5q0 76 -38 122t-119 48zM291 526q96 0 149.5 -53t53.5 -149q0 -59 -17.5 -119t-52 -108t-86 -78.5 t-118.5 -30.5q-53 0 -91.5 15.5t-64 44t-38 68t-12.5 88.5q0 58 19 116t54.5 103.5t87 74t116.5 28.5zM413 704h44l-21 -103h-44zM254 704h44l-21 -103h-44z"/>
<glyph glyph-name="uni04EC" horiz-adv-x="704" unicode="Ӭ" d="M302 21q64 0 118.5 23.5t97 67t70.5 104.5t39 136h-379l8 38h375q1 8 1 16v16q0 61 -17 111t-48.5 85.5t-76.5 55t-102 19.5q-50 0 -94.5 -13.5t-81 -39t-63.5 -61.5t-43 -80h-42q18 58 51.5 101.5t77.5 72.5t94.5 43.5t103.5 14.5q66 0 118.5 -22t89.5 -61.5t56.5 -95.5 t19.5 -125q0 -18 -1.5 -36t-3.5 -37q-12 -83 -43 -151.5t-79 -117.5t-111.5 -75.5t-138.5 -26.5q-63 0 -114.5 18.5t-88 52t-56 81.5t-19.5 108h42q2 -49 18 -89.5t46 -70t74 -46t102 -16.5zM512 909h44l-21 -103h-44zM353 909h44l-21 -103h-44z"/>
<glyph glyph-name="uni04ED" horiz-adv-x="513" unicode="ӭ" d="M159 285h270q1 7 1 14v14q0 87 -42 133.5t-118 46.5q-61 0 -111.5 -34t-74.5 -96h-39q25 74 84 118.5t144 44.5q94 0 144.5 -54.5t50.5 -156.5q0 -61 -15.5 -119.5t-48.5 -104.5t-83 -74.5t-119 -28.5q-42 0 -77.5 11.5t-61 35t-39.5 57.5t-14 79h38q0 -37 11.5 -65 t32.5 -47t49.5 -28.5t62.5 -9.5q51 0 89 19t65 51.5t43 74t24 86.5h-273zM389 704h44l-21 -103h-44zM230 704h44l-21 -103h-44z"/>
<glyph glyph-name="Umacroncyrillic" d="M73 714h46l141 -518l347 518h50l-434 -644q-30 -45 -61.5 -66t-71.5 -21q-20 0 -40.5 5.5t-36.5 16.5l9 40q15 -11 33 -17.5t36 -6.5q28 0 50 16t51 58l39 58zM282 789l6 33h240l-6 -33h-240z" unicode="Ӯ"/>
<glyph glyph-name="umacroncyrillic" horiz-adv-x="426" unicode="ӯ" d="M-59 -148q19 -3 36 -3q37 0 59 21t40 50l50 80l-101 514h44l86 -463l262 463h45l-349 -604q-13 -23 -26 -40.5t-29 -29.5t-36 -18t-48 -6q-12 0 -22.5 1t-18.5 2zM147 589l6 33h240l-6 -33h-240z"/>
<glyph glyph-name="Udieresiscyrillic" d="M73 714h46l141 -518l347 518h50l-434 -644q-30 -45 -61.5 -66t-71.5 -21q-20 0 -40.5 5.5t-36.5 16.5l9 40q15 -11 33 -17.5t36 -6.5q28 0 50 16t51 58l39 58zM470 892h44l-21 -103h-44zM311 892h44l-21 -103h-44z" unicode="Ӱ"/>
<glyph glyph-name="udieresiscyrillic" horiz-adv-x="426" unicode="ӱ" d="M-59 -148q19 -3 36 -3q37 0 59 21t40 50l50 80l-101 514h44l86 -463l262 463h45l-349 -604q-13 -23 -26 -40.5t-29 -29.5t-36 -18t-48 -6q-12 0 -22.5 1t-18.5 2zM342 692h44l-21 -103h-44zM183 692h44l-21 -103h-44z"/>
<glyph glyph-name="Uhungarumlautcyrillic" d="M73 714h46l141 -518l347 518h50l-434 -644q-30 -45 -61.5 -66t-71.5 -21q-20 0 -40.5 5.5t-36.5 16.5l9 40q15 -11 33 -17.5t36 -6.5q28 0 50 16t51 58l39 58zM399 929h48l-110 -140h-37zM547 929h48l-110 -140h-37z" unicode="Ӳ"/>
<glyph glyph-name="uhungarumlautcyrillic" horiz-adv-x="426" unicode="ӳ" d="M-59 -148q19 -3 36 -3q37 0 59 21t40 50l50 80l-101 514h44l86 -463l262 463h45l-349 -604q-13 -23 -26 -40.5t-29 -29.5t-36 -18t-48 -6q-12 0 -22.5 1t-18.5 2zM255 729h48l-110 -140h-37zM403 729h48l-110 -140h-37z"/>
<glyph glyph-name="Chedieresiscyrillic" horiz-adv-x="620" unicode="Ӵ" d="M441 0l75 347q-50 -16 -112 -29.5t-127 -13.5q-53 0 -89.5 10.5t-59 29.5t-32.5 46t-10 59q0 23 4 52t11 58l34 155h44l-34 -155q-7 -29 -11 -56.5t-4 -47.5q0 -26 8 -46.5t26 -35.5t46.5 -23t69.5 -8q64 0 125.5 13.5t118.5 30.5l70 328h44l-153 -714h-44zM430 892h44 l-21 -103h-44zM271 892h44l-21 -103h-44z"/>
<glyph glyph-name="chedieresiscyrillic" horiz-adv-x="483" unicode="ӵ" d="M371 245q-38 -13 -85.5 -23.5t-96.5 -10.5q-64 0 -100.5 27t-36.5 85q0 25 7 59l28 132h38l-28 -134q-3 -14 -5 -29t-2 -25q0 -42 27 -62t78 -20q43 0 90 10t93 25l50 235h38l-109 -514h-38zM327 692h44l-21 -103h-44zM168 692h44l-21 -103h-44z"/>
<glyph glyph-name="Yerudieresiscyrillic" horiz-adv-x="800" unicode="Ӹ" d="M774 714h44l-153 -714h-44zM307 38q55 0 95 14t66.5 39t39 59.5t12.5 74.5q0 66 -41 102t-129 36h-229l-70 -325h256zM128 401h227q109 0 159 -46.5t50 -127.5q0 -49 -15.5 -90.5t-47.5 -72t-80.5 -47.5t-114.5 -17h-307l153 714h44zM476 892h44l-21 -103h-44zM317 892 h44l-21 -103h-44z"/>
<glyph glyph-name="yerudieresiscyrillic" horiz-adv-x="630" unicode="ӹ" d="M575 514h38l-109 -514h-38zM87 266l-49 -233h191q77 0 113.5 37t36.5 97q0 48 -29.5 73.5t-89.5 25.5h-173zM140 514l-46 -215h172q74 0 112.5 -34.5t38.5 -96.5q0 -36 -11.5 -67t-34.5 -53.5t-58 -35t-81 -12.5h-239l109 514h38zM371 692h44l-21 -103h-44zM212 692h44 l-21 -103h-44z"/>
<glyph glyph-name="endash" horiz-adv-x="500" unicode="–" d="M-12 253l8 38h500l-8 -38h-500z"/>
<glyph glyph-name="emdash" horiz-adv-x="1000" unicode="—" d="M858 253h-740l8 38h740z"/>
<glyph glyph-name="quoteleft" horiz-adv-x="204" unicode="‘" d="M125 588q4 20 11 40t18 37t28 30t42 19l-7 -33q-30 -10 -42 -37t-18 -56h18l-23 -103h-50z"/>
<glyph glyph-name="quotesinglbase" horiz-adv-x="204" unicode="‚" d="M79 103l-22 -103q-4 -20 -11 -40t-18.5 -37t-28.5 -30t-42 -19l7 33q15 4 25 14t17 23t11 27.5t7 28.5h-17l22 103h50z"/>
<glyph glyph-name="quotedblleft" horiz-adv-x="315" unicode="“" d="M87 485l23 103q4 20 11 40t18 37t28 30t42 19l-7 -33q-30 -10 -42 -37t-18 -56h18l-23 -103h-50zM213 485l23 103q4 20 11 40t18 37t28 30t42 19l-7 -33q-30 -10 -42 -37t-18 -56h18l-23 -103h-50z"/>
<glyph glyph-name="quotedblright" horiz-adv-x="315" unicode="”" d="M209 714l-22 -103q-4 -20 -11 -40t-18.5 -37t-28.5 -30t-42 -19l7 33q15 4 25 14t17 23t11 27.5t7 28.5h-17l22 103h50zM335 714l-22 -103q-4 -20 -11 -40t-18.5 -37t-28.5 -30t-42 -19l7 33q15 4 25 14t17 23t11 27.5t7 28.5h-17l22 103h50z"/>
<glyph glyph-name="dagger" d="M333 514h205l-7 -33h-205l-133 -627h-38l133 627h-205l7 33h205l43 200h38z" unicode="†"/>
<glyph glyph-name="daggerdbl" d="M-8 54l7 33h205l84 394h-205l7 33h205l43 200h38l-43 -200h205l-7 -33h-205l-84 -394h205l-7 -33h-205l-42 -200h-38l42 200h-205z" unicode="‡"/>
<glyph glyph-name="ellipsis" horiz-adv-x="1000" unicode="…" d="M97 103h50l-23 -103h-50zM430 103h50l-23 -103h-50zM763 103h50l-23 -103h-50z"/>
<glyph glyph-name="perthousand" horiz-adv-x="1056" unicode="‰" d="M187 397q33 0 58 15.5t42 40t25.5 54.5t8.5 59q0 21 -5.5 39.5t-16.5 32.5t-28.5 22.5t-42.5 8.5q-33 0 -58 -14t-42.5 -37t-26 -53t-8.5 -63q0 -46 21.5 -75.5t72.5 -29.5zM589 724h41l-532 -758h-41zM185 364q-60 0 -95 35t-35 95q0 39 12 76.5t35 67t56 47t76 17.5 q61 0 93 -38.5t32 -96.5q0 -37 -12 -73.5t-34.5 -65t-55 -46.5t-72.5 -18zM472 -12q-60 0 -95 35t-35 95q0 39 12 76.5t35 67t56 47t76 17.5q61 0 93 -38.5t32 -96.5q0 -37 -12 -73.5t-34.5 -65t-55 -46.5t-72.5 -18zM474 21q33 0 58 15.5t42 40t25.5 54.5t8.5 59 q0 21 -5.5 39.5t-16.5 32.5t-28.5 22.5t-42.5 8.5q-33 0 -58 -14t-42.5 -37t-26 -53t-8.5 -63q0 -46 21.5 -75.5t72.5 -29.5zM827 -12q-60 0 -95 35t-35 95q0 39 12 76.5t35 67t56 47t76 17.5q61 0 93 -38.5t32 -96.5q0 -37 -12 -73.5t-34.5 -65t-55 -46.5t-72.5 -18z M829 21q33 0 58 15.5t42 40t25.5 54.5t8.5 59q0 21 -5.5 39.5t-16.5 32.5t-28.5 22.5t-42.5 8.5q-33 0 -58 -14t-42.5 -37t-26 -53t-8.5 -63q0 -46 21.5 -75.5t72.5 -29.5z"/>
<glyph glyph-name="guilsinglleft" horiz-adv-x="259" unicode="‹" d="M186 372l-113 -105l70 -97l-11 -49l-91 132l9 38l147 132z"/>
<glyph glyph-name="guilsinglright" horiz-adv-x="259" unicode="›" d="M42 172l113 105l-70 97l11 49l91 -132l-9 -38l-147 -132z"/>
<glyph glyph-name="fraction" horiz-adv-x="167" unicode="⁄" d="M296 714h40l-465 -738h-40z"/>
<glyph glyph-name="Euro" d="M564 573q-6 16 -19 34.5t-40 35.5q-29 17 -57.5 21.5t-54.5 4.5q-16 0 -35.5 -2t-40.5 -8t-43.5 -17t-44.5 -30q-23 -20 -40.5 -44.5t-31 -49.5t-22.5 -48t-14 -40h360l-19 -33h-350q-7 -23 -11 -47t-6 -49h315l-19 -33h-299q-1 -6 -1 -13.5v-17.5q0 -26 5.5 -62 t21.5 -67q16 -30 37 -47.5t42.5 -26t41.5 -11t34 -2.5q119 0 197 78l-8 -49q-30 -26 -76 -42q-60 -20 -121 -20q-21 0 -45 3.5t-48.5 14t-47 29.5t-39.5 51q-18 35 -25 73t-7 70v21t1 18h-74l19 33h58q2 26 6.5 49.5t10.5 46.5h-71l19 33h61q5 17 15 44t26 57.5t39 60.5 t53 53q48 35 95 46t84 11q26 0 59.5 -5t65.5 -22q16 -9 34 -24t32 -40z" unicode="€"/>
<glyph glyph-name="trademark" horiz-adv-x="990" unicode="™" d="M404 681h-143v-379h-32v379h-144v33h319v-33zM694 368l152 346h59v-412h-32v379h-3l-167 -379h-18l-167 379h-3v-379h-32v412h59z"/>
<glyph glyph-name="partialdiff" horiz-adv-x="463" unicode="∂" d="M405 369q0 -34 -3 -75.5t-11.5 -84t-23.5 -82.5t-39 -71t-57.5 -49.5t-79.5 -18.5q-44 0 -78 20t-57.5 51.5t-35.5 71t-12 79.5q0 42 12 80t35.5 67t58 46.5t79.5 17.5q54 0 99 -27t77 -70q0 15 0.5 30.5t0.5 30.5q0 29 -3.5 63t-12 68t-22.5 65t-35 55t-50 38t-66 14 q-35 0 -61.5 -12.5t-53.5 -32.5l-20 26q30 24 62.5 38t71.5 14q68 0 111.5 -35t69 -88t35 -114.5t9.5 -114.5zM365 284q-31 42 -73.5 73.5t-97.5 31.5q-38 0 -66 -15.5t-46.5 -41t-28 -57.5t-9.5 -66q0 -32 9.5 -65.5t28 -61.5t46 -45.5t64.5 -17.5q48 0 80 27.5t51.5 68 t29 86.5t12.5 83z"/>
<glyph glyph-name="product" horiz-adv-x="704" unicode="∏" d="M585 -214v965h-466v-965h-36v1000h538v-1000h-36z"/>
<glyph glyph-name="summation" horiz-adv-x="593" unicode="∑" d="M26 -214v32l338 471l-323 464v33h497v-35h-452l322 -462l-338 -468h479v-35h-523z"/>
<glyph glyph-name="minus" horiz-adv-x="600" unicode="−" d="M28 233v38h504v-38h-504z"/>
<glyph glyph-name="radical" horiz-adv-x="463" unicode="√" d="M236 -217h-32l-178 366l-44 -21l-13 27l73 36l173 -359l202 950h34z"/>
<glyph glyph-name="infinity" horiz-adv-x="722" unicode="∞" d="M661 246q0 -57 -33 -95t-93 -38q-29 0 -54.5 10.5t-48.5 26t-44 35t-41 37.5q-21 -18 -42 -37t-43.5 -35t-47.5 -26t-55 -10q-29 0 -52 10t-39.5 27t-25.5 41t-9 52q0 27 9 51t25 42t38.5 28.5t50.5 10.5t54 -11t50 -27.5t45.5 -36t41.5 -36.5q19 17 40.5 36.5t45.5 36 t49.5 27.5t52.5 11q28 0 51.5 -10t40 -27t25.5 -41t9 -52zM628 245q0 42 -24.5 70t-67.5 28q-22 0 -45 -10.5t-45 -25.5t-41.5 -32.5t-35.5 -31.5q17 -15 36 -32t40 -31.5t43.5 -24t46.5 -9.5q45 0 69 27t24 72zM324 243q-17 14 -37 31.5t-41.5 32.5t-44.5 25.5t-47 10.5 q-42 0 -65 -29.5t-23 -68.5q0 -43 24 -70.5t69 -27.5q24 0 46.5 9t43.5 23.5t40 31.5t35 32z"/>
<glyph glyph-name="approxequal" horiz-adv-x="600" unicode="≈" d="M416 110q-33 0 -65.5 11t-64 24.5t-62 25t-60.5 11.5q-38 0 -60 -21t-38 -56l-33 8q9 22 20.5 41t27.5 33.5t36 22.5t47 8q33 0 65 -11.5t63.5 -25t62.5 -24.5t61 -11q38 0 60 21t38 54l33 -8q-18 -43 -48 -73t-83 -30zM416 277q-33 0 -65.5 11t-64 24.5t-62 25 t-60.5 11.5q-38 0 -60 -21t-38 -54l-33 8q18 43 48 73t83 30q33 0 65 -11.5t63.5 -25t62.5 -24.5t61 -11q38 0 60 21t38 56l33 -8q-9 -22 -20.5 -41t-27.5 -33.5t-36 -22.5t-47 -8z"/>
<glyph glyph-name="notequal" horiz-adv-x="600" unicode="≠" d="M537 137h-301l-84 -137l-32 18l72 119h-159v38h182l96 156h-278v38h301l84 137l32 -18l-73 -119h160v-38h-183l-95 -156h278v-38z"/>
<glyph glyph-name="lessequal" horiz-adv-x="600" unicode="≤" d="M38 38h503v-38h-503v38zM542 472l-466 -168l466 -170v-42l-504 189v46l504 187v-42z"/>
<glyph glyph-name="greaterequal" horiz-adv-x="600" unicode="≥" d="M552 0h-503v38h503v-38zM48 514l504 -187v-46l-504 -189v42l466 170l-466 168v42z"/>
<glyph glyph-name="lozenge" horiz-adv-x="593" unicode="◊" d="M311 -35h-30l-169 391l169 391h30l170 -391zM296 702l-148 -346l148 -346l148 346z"/>
</font>
</defs>
</svg>
