<?xml version="1.0" encoding="UTF-8" standalone="no"?>
<!DOCTYPE svg  PUBLIC '-//W3C//DTD SVG 1.1//EN'  'http://www.w3.org/Graphics/SVG/1.1/DTD/svg11.dtd'>
<svg xmlns="http://www.w3.org/2000/svg">
<defs>
<font id="HelveticaNeue-CondensedBold" horiz-adv-x="480">
<font-face underline-position="-75" font-weight="700" descent="-200" panose-1="2 0 8 6 0 0 0 2 0 4" units-per-em="1000" unicode-range="U+0020-25CA" font-stretch="condensed" bbox="-254 -221 1066 961" x-height="538" underline-thickness="50" font-family="HelveticaNeue" ascent="800" cap-height="714"/>
<missing-glyph horiz-adv-x="1000"/>
<glyph glyph-name=".notdef" horiz-adv-x="1000"/>
<glyph glyph-name=".null" horiz-adv-x="0"/>
<glyph glyph-name="nonmarkingreturn" horiz-adv-x="1000"/>
<glyph glyph-name="space" horiz-adv-x="240" unicode=" "/>
<glyph glyph-name="exclam" horiz-adv-x="296" unicode="!" d="M98 199l-19 283v232h138v-232l-19 -283h-100zM217 132v-132h-138v132h138z"/>
<glyph glyph-name="quotedbl" horiz-adv-x="463" unicode='&quot;' d="M267 714h124v-321h-124v321zM72 714h124v-321h-124v321z"/>
<glyph glyph-name="numbersign" d="M0 286h87l16 122h-73v112h86l22 174h96l-21 -174h97l22 174h97l-22 -174h73v-112h-86l-16 -122h73v-112h-86l-22 -174h-97l22 174h-98l-21 -174h-97l22 174h-74v112zM184 286h97l16 122h-98z" unicode="#"/>
<glyph glyph-name="dollar" d="M269 92q31 8 45 30t13 50q-1 38 -15 60t-43 37v-177zM205 602q-49 -14 -49 -76q0 -56 49 -84v160zM205 -11q-63 5 -101 21t-59 44t-29 63t-7 74v21h138q-1 -20 1 -40t8 -36t18 -28t31 -16v202l-50 18q-73 26 -105 74t-32 118q0 94 48 144t139 60v69h64v-69q55 -4 91 -22 t57 -44t29 -58t8 -65v-14h-138q-1 37 -11 63t-36 34v-189l79 -32q28 -12 50 -26q22 -15 39 -35q16 -20 25 -49t9 -71q1 -108 -51 -156t-151 -55v-87h-64v87z" unicode="$"/>
<glyph glyph-name="percent" horiz-adv-x="778" unicode="%" d="M557 181q0 -59 7 -89t37 -30t37 30t7 89q0 55 -7 83t-37 28t-37 -28t-7 -83zM451 177q0 48 6 84q7 36 23 60q16 23 46 35t75 12q47 0 76 -12t45 -35q16 -24 23 -60q6 -36 6 -84q0 -49 -6 -85q-7 -36 -23 -58q-16 -24 -45 -34t-76 -11q-45 1 -75 11t-46 34t-23 58 q-6 36 -6 85zM27 517q0 48 6 84q7 36 23 60q16 23 46 35t75 12q47 0 76 -12t45 -35q16 -24 23 -60q6 -36 6 -84t-6 -84q-7 -36 -23 -60q-16 -23 -45 -35t-76 -12q-45 0 -75 12t-46 35q-16 24 -23 60q-6 36 -6 84zM133 521q0 -59 7 -89t37 -30t37 30t7 89q0 55 -7 83t-37 28 t-37 -28t-7 -83zM546 725h89l-406 -753h-89z"/>
<glyph glyph-name="ampersand" horiz-adv-x="593" unicode="&amp;" d="M201 568q0 -30 36 -78l17 -24l26 22q24 20 34 40t11 38q1 28 -17 44t-46 16q-26 0 -44 -15t-17 -43zM223 313q-41 -32 -57 -60t-16 -61q0 -16 6 -33t20 -31q12 -14 31 -22t43 -8q57 0 93 45zM426 235q11 23 18 54t7 54h124q-1 -57 -21 -111t-52 -100l94 -132h-153l-40 55 q-27 -32 -73 -49t-99 -17q-67 -1 -110 19t-67 51t-33 67t-9 66q0 64 38 114t106 92l-25 37q-15 22 -25 39t-14 32q-5 15 -7 29t-2 29q-1 34 13 62t38 48t58 30t73 10q45 0 79 -12t56 -32t32 -47t11 -58q-1 -54 -31 -97t-93 -88z"/>
<glyph glyph-name="quotesingle" horiz-adv-x="260" unicode="&apos;" d="M68 714h124v-321h-124v321z"/>
<glyph glyph-name="parenleft" horiz-adv-x="296" unicode="(" d="M296 714q-31 -56 -53 -110q-21 -54 -35 -108t-20 -110t-6 -121t6 -121t20 -108t35 -106q22 -54 53 -111h-106q-76 118 -108 229t-32 217q0 107 32 219t108 230h106z"/>
<glyph glyph-name="parenright" horiz-adv-x="296" unicode=")" d="M106 714q76 -118 108 -230t32 -219q0 -106 -32 -217t-108 -229h-106q31 57 53 111q21 54 35 106t20 108t6 121t-6 121t-20 110t-35 108q-22 54 -53 110h106z"/>
<glyph glyph-name="asterisk" horiz-adv-x="390" unicode="*" d="M236 714v-128l122 40l25 -78l-122 -40l76 -104l-67 -48l-75 104l-75 -104l-67 48l76 104l-122 40l25 78l122 -40v128h82z"/>
<glyph glyph-name="plus" horiz-adv-x="600" unicode="+" d="M238 191h-191v124h191v191h124v-191h191v-124h-191v-191h-124v191z"/>
<glyph glyph-name="comma" horiz-adv-x="240" unicode="," d="M186 156v-130q0 -36 -6 -70t-20 -58t-40 -40t-66 -20v70q26 5 39 28t13 51v13h-52v156h132z"/>
<glyph glyph-name="hyphen" horiz-adv-x="370" unicode="-" d="M326 348v-118h-282v118h282z"/>
<glyph glyph-name="period" horiz-adv-x="240" unicode="." d="M186 156v-156h-132v156h132z"/>
<glyph glyph-name="slash" horiz-adv-x="332" unicode="/" d="M223 728h112l-226 -739h-109z"/>
<glyph glyph-name="zero" d="M162 299q0 -67 4 -109t12 -68q9 -24 24 -33t38 -9q24 0 39 12t23 38q8 28 12 74t4 114v77q0 67 -4 109t-12 68q-9 24 -24 33t-38 9q-24 0 -39 -12t-23 -38q-8 -28 -12 -74t-4 -114v-77zM18 330q0 74 5 142t27 120t66 84t124 32q66 0 108 -18t68 -60q26 -40 36 -106 t10 -160q0 -74 -5 -142t-27 -120t-66 -83q-44 -30 -124 -30q-64 0 -107 17t-69 58q-26 40 -36 106t-10 160z" unicode="0"/>
<glyph glyph-name="one" d="M182 0v500h-141v94h13q72 0 114 27t52 87h106v-708h-144z" unicode="1"/>
<glyph glyph-name="two" d="M454 0h-436q0 47 10 88t28 78q20 36 50 72t68 72l58 54q24 21 38 39t23 36t11 39t2 48q0 88 -70 88q-26 0 -42 -11t-24 -30t-12 -44q-2 -25 -2 -53h-138v27q0 99 53 152t167 53q108 0 160 -50t52 -143q0 -33 -6 -63t-19 -57t-34 -53t-51 -52l-80 -74q-32 -28 -50 -56 t-23 -48h267v-112z" unicode="2"/>
<glyph glyph-name="three" d="M158 207q0 -63 16 -95t63 -32q25 0 41 9t24 25t12 36q2 21 2 44q0 24 -4 46t-13 38q-10 17 -28 27t-48 10h-48v94h47q22 -1 38 9t26 26t14 35q4 20 4 42q0 51 -17 72t-52 21q-23 0 -37 -8t-23 -24t-11 -37t-2 -46h-132q0 105 53 157t155 52q96 0 150 -44t54 -138 q0 -64 -28 -104t-80 -52v-2q70 -12 98 -56t28 -111q0 -36 -9 -74t-35 -69t-72 -50t-119 -19q-103 0 -154 56t-51 159v3h138z" unicode="3"/>
<glyph glyph-name="four" d="M266 528h-2l-138 -269h140v269zM14 265l235 443h149v-449h68v-112h-68v-147h-132v147h-252v118z" unicode="4"/>
<glyph glyph-name="five" d="M425 582h-261l-15 -161h2q20 29 52 41t78 12q51 0 85 -20t52 -51q20 -33 28 -73t8 -82q0 -59 -10 -107q-10 -49 -36 -83t-69 -52q-44 -18 -112 -17q-67 0 -109 18q-42 17 -63 47t-29 64t-8 65v19h138q0 -18 2 -38t10 -38t21 -28q14 -12 37 -12q44 0 64 34t20 104 q0 44 -4 73t-14 46t-25 24q-16 7 -40 7q-31 0 -47 -18t-21 -47h-129l26 385h369v-112z" unicode="5"/>
<glyph glyph-name="six" d="M311 528q-1 42 -15 64t-50 22q-28 0 -46 -14t-26 -37q-10 -24 -13 -57t-3 -72v-35h2q18 29 52 45t81 16t80 -16t53 -46t30 -70t10 -89q0 -123 -54 -187t-175 -63q-74 0 -118 26q-43 25 -67 71t-31 106t-7 125q0 75 4 145t28 126q22 54 70 87t136 33q38 0 74 -9t62 -30 q28 -21 44 -55t17 -86h-138zM165 220q0 -30 3 -56q4 -26 12 -44t24 -30q16 -10 40 -10q26 0 42 10t23 30q9 18 11 44t2 56q0 72 -18 103t-60 31q-43 0 -61 -31t-18 -103z" unicode="6"/>
<glyph glyph-name="seven" d="M458 694v-110q-44 -62 -78 -133t-61 -146q-26 -75 -43 -153t-26 -152h-151q8 64 24 134q17 70 43 144q26 73 64 147t90 145h-298v124h436z" unicode="7"/>
<glyph glyph-name="eight" d="M14 200q0 67 30 115t90 60v2q-28 7 -48 22t-32 34t-17 40t-5 40q0 103 56 149t152 46t152 -46t56 -149q0 -19 -6 -40t-17 -40t-31 -34t-48 -22v-2q60 -12 90 -60t30 -115q0 -31 -8 -68t-31 -69q-25 -32 -69 -53t-118 -21t-118 21t-69 53q-23 32 -31 69t-8 68zM170 517 q0 -51 19 -75t51 -24t51 24t19 75q0 97 -70 97t-70 -97zM158 202q0 -26 4 -48t12 -38q10 -16 26 -26t40 -10t40 10t26 26t12 38q4 22 4 48t-4 48t-12 38q-10 16 -26 26t-40 10t-40 -10t-26 -26t-12 -38q-4 -22 -4 -48z" unicode="8"/>
<glyph glyph-name="nine" d="M169 165q1 -41 15 -63t50 -22q29 0 46 14q16 14 26 37q10 24 13 57t3 72v34h-2q-18 -28 -52 -44t-81 -16t-80 16t-53 46t-30 70t-10 89q0 123 54 188t175 65q74 0 118 -28q43 -28 67 -72q24 -46 31 -106t7 -125q0 -77 -4 -147t-28 -124q-22 -54 -70 -86t-136 -31 q-38 -1 -74 7t-62 28q-28 20 -44 56q-16 34 -17 85h138zM158 474q0 -72 18 -103t60 -31q43 0 61 31t18 103q0 30 -3 56q-4 26 -12 44t-24 30q-16 10 -40 10q-26 0 -42 -10t-23 -30q-9 -18 -11 -44t-2 -56z" unicode="9"/>
<glyph glyph-name="colon" horiz-adv-x="240" unicode=":" d="M54 156h132v-156h-132v156zM54 521h132v-156h-132v156z"/>
<glyph glyph-name="semicolon" horiz-adv-x="240" unicode=";" d="M186 156v-130q0 -36 -6 -70t-20 -58t-40 -40t-66 -20v70q26 5 39 28t13 51v13h-52v156h132zM186 521v-156h-132v156h132z"/>
<glyph glyph-name="less" horiz-adv-x="600" unicode="&lt;" d="M47 306l506 208v-124l-338 -137l338 -137v-121l-506 205v106z"/>
<glyph glyph-name="equal" horiz-adv-x="600" unicode="=" d="M47 424h506v-124h-506v124zM47 206h506v-124h-506v124z"/>
<glyph glyph-name="greater" horiz-adv-x="600" unicode="&gt;" d="M47 116l338 137l-338 137v124l506 -208v-106l-506 -205v121z"/>
<glyph glyph-name="question" horiz-adv-x="481" unicode="?" d="M36 493v23q0 45 12 83t38 65q24 26 62 42t86 16q106 0 158 -52t53 -141q1 -42 -13 -78t-50 -78l-40 -45q-26 -29 -38 -53t-11 -62v-15h-124v39q0 51 14 85t48 72l38 43q21 23 29 49t9 57q0 37 -17 61t-51 24q-39 0 -55 -30t-16 -80v-25h-132zM300 132v-132h-138v132h138z "/>
<glyph glyph-name="at" horiz-adv-x="800" unicode="@" d="M299 326q-1 -33 19 -57t52 -24q26 -1 47 11t37 30t24 42q8 23 8 45q0 32 -22 54t-53 22q-25 1 -45 -11t-35 -30t-23 -40t-9 -42zM535 541h88l-58 -250q-6 -28 -6 -41q0 -20 20 -20q15 0 33 12t34 36q16 22 26 54q11 32 11 72q0 50 -22 92t-59 73t-85 48t-100 17 q-59 0 -109 -23t-88 -62q-37 -39 -58 -89t-21 -104q0 -58 23 -108q24 -50 62 -88t90 -58q52 -22 108 -22q69 0 122 20t95 44h89q-54 -75 -135 -115t-195 -40q-76 0 -144 28t-118 78q-50 49 -80 117q-29 68 -29 145t29 145q30 68 80 118t118 79t144 29q74 0 142 -22t118 -61 t81 -95q30 -56 30 -125q0 -53 -14 -95q-15 -42 -37 -73q-22 -33 -50 -55t-56 -36t-53 -20t-41 -7q-60 0 -65 53h-2q-20 -21 -50 -37t-70 -16q-27 -1 -53 11t-46 34t-34 54q-13 32 -13 71q0 46 15 90q15 45 43 79q27 34 67 56t89 21q39 0 69 -16t52 -51z"/>
<glyph glyph-name="A" horiz-adv-x="556" unicode="A" d="M367 714l189 -714h-150l-33 151h-190l-33 -151h-150l189 714h178zM348 269l-69 321h-2l-69 -321h140z"/>
<glyph glyph-name="B" horiz-adv-x="556" unicode="B" d="M50 714h241q43 0 81 -9t65 -30t42 -56t15 -86q0 -57 -27 -99t-81 -57v-2q60 -8 95 -51t35 -115q0 -42 -11 -80q-11 -39 -37 -67t-70 -45q-42 -17 -105 -17h-243v714zM194 421h41q59 -1 87 21t28 73t-25 72t-79 21h-52v-187zM194 106h56q52 0 84 23t32 85q0 32 -8 52 t-24 32q-14 12 -34 18q-20 5 -44 5h-62v-215z"/>
<glyph glyph-name="C" horiz-adv-x="537" unicode="C" d="M355 473q-1 77 -19 113t-67 36q-27 0 -45 -14t-27 -48q-10 -32 -14 -84t-4 -129q-1 -81 5 -131t18 -78t28 -36q18 -10 41 -10q19 0 35 6t29 26q12 20 19 56t7 93h144q0 -58 -9 -110q-10 -52 -34 -91t-68 -61t-116 -22q-81 0 -129 26q-47 26 -73 75t-34 117t-7 150 q-1 81 7 149t34 118q26 48 73 76q48 28 129 28q78 0 122 -25t66 -63t28 -84q6 -44 5 -83h-144z"/>
<glyph glyph-name="D" horiz-adv-x="574" unicode="D" d="M57 714h236q75 0 121 -24t72 -70t34 -110q9 -64 9 -143q1 -93 -11 -163t-40 -115t-75 -67t-119 -22h-227v714zM201 106h64q38 0 61 13q22 13 36 43t18 79t5 122q0 61 -4 107q-5 46 -17 76t-36 46t-66 16h-61v-502z"/>
<glyph glyph-name="E" horiz-adv-x="481" unicode="E" d="M449 714v-118h-255v-168h240v-118h-240v-192h265v-118h-409v714h399z"/>
<glyph glyph-name="F" horiz-adv-x="463" unicode="F" d="M50 714h399v-118h-255v-168h240v-118h-240v-310h-144v714z"/>
<glyph glyph-name="G" horiz-adv-x="556" unicode="G" d="M367 502q-1 20 -5 41t-14 39t-26 28q-16 12 -37 12q-52 0 -75 -58t-23 -192q0 -64 4 -116q5 -52 15 -88t30 -56t50 -20q12 0 28 7t30 21t22 36q9 22 9 50v73h-95v106h233v-385h-106v66h-2q-27 -42 -63 -60t-87 -17q-65 0 -107 23t-66 71q-24 49 -31 119q-8 70 -8 163 q-1 90 11 158q12 67 40 113t74 69t115 23q118 0 170 -58t52 -168h-138z"/>
<glyph glyph-name="H" horiz-adv-x="556" unicode="H" d="M50 714h144v-273h168v273h144v-714h-144v317h-168v-317h-144v714z"/>
<glyph glyph-name="I" horiz-adv-x="258" unicode="I" d="M57 0v714h144v-714h-144z"/>
<glyph glyph-name="J" horiz-adv-x="463" unicode="J" d="M419 714v-514q0 -114 -53 -162t-162 -49q-58 -1 -94 15t-58 44t-29 67q-8 38 -8 80v31h132v-22q1 -56 13 -84t51 -28t51 28t13 84v510h144z"/>
<glyph glyph-name="K" horiz-adv-x="537" unicode="K" d="M194 714v-286h2l182 286h156l-194 -306l216 -408h-162l-147 293l-53 -81v-212h-144v714h144z"/>
<glyph glyph-name="L" horiz-adv-x="463" unicode="L" d="M50 0v714h144v-596h255v-118h-399z"/>
<glyph glyph-name="M" horiz-adv-x="740" unicode="M" d="M53 714h214l102 -504h2l103 504h213v-714h-132v570h-2l-127 -570h-112l-127 570h-2v-570h-132v714z"/>
<glyph glyph-name="N" horiz-adv-x="574" unicode="N" d="M216 714l174 -489h2v489h132v-714h-164l-176 500h-2v-500h-132v714h166z"/>
<glyph glyph-name="O" horiz-adv-x="556" unicode="O" d="M35 357q-1 81 7 149t34 118q26 48 73 76q48 28 129 28t129 -28q47 -28 73 -76q26 -50 34 -118t7 -149q1 -82 -7 -150t-34 -117t-73 -75q-48 -26 -129 -26t-129 26q-47 26 -73 75t-34 117t-7 150zM179 357q-1 -73 3 -123t14 -82t30 -46t52 -14t52 14t30 46t14 82t3 123 q1 72 -3 122t-14 82q-10 33 -30 47t-52 14t-52 -14t-30 -47q-10 -32 -14 -82t-3 -122z"/>
<glyph glyph-name="P" horiz-adv-x="519" unicode="P" d="M50 714h252q54 0 92 -18t61 -49t33 -69t10 -78q0 -55 -16 -96t-46 -67t-72 -39t-93 -13h-77v-285h-144v714zM194 391h64q44 0 70 26t26 81q0 54 -23 82t-77 28h-60v-217z"/>
<glyph glyph-name="Q" horiz-adv-x="556" unicode="Q" d="M458 -85l-85 85q-40 -11 -95 -11q-81 0 -129 26q-47 26 -73 75t-34 117t-7 150q-1 81 7 149t34 118q26 48 73 76q48 28 129 28t129 -28q47 -28 73 -76q26 -50 34 -118t7 -149q0 -91 -10 -165t-45 -125l77 -75zM179 357q-1 -73 3 -123t14 -82t30 -46t52 -14t52 14t30 46 t14 82t3 123q1 72 -3 122t-14 82q-10 33 -30 47t-52 14t-52 -14t-30 -47q-10 -32 -14 -82t-3 -122z"/>
<glyph glyph-name="R" horiz-adv-x="556" unicode="R" d="M194 402h60q52 0 80 24t28 83q0 99 -100 99h-68v-206zM50 714h266q90 0 140 -46t50 -138q0 -72 -29 -118t-90 -58v-2q54 -8 79 -35t31 -87q2 -20 3 -44t2 -52q2 -57 6 -87q6 -30 26 -41v-6h-156q-11 14 -14 34t-4 41l-4 137q-2 42 -21 66t-64 24h-77v-302h-144v714z"/>
<glyph glyph-name="S" horiz-adv-x="519" unicode="S" d="M166 223v-21q0 -26 4 -46t15 -34t29 -22t47 -8q33 0 59 22t27 66q-1 24 -7 42t-21 31t-39 25t-61 24q-48 16 -83 35q-34 19 -58 45t-35 58q-11 34 -11 78q0 106 59 158t162 52q49 0 89 -10t70 -34t46 -60t16 -88v-20h-138q0 50 -18 78t-60 28q-24 0 -40 -7t-26 -19 t-12 -26q-4 -15 -4 -31q0 -33 14 -55t60 -42l111 -48q41 -18 67 -38t42 -42t21 -49q6 -27 6 -60q1 -113 -65 -165t-183 -51q-123 0 -175 53t-52 152v29h144z"/>
<glyph glyph-name="T" d="M468 714v-118h-156v-596h-144v596h-156v118h456z" unicode="T"/>
<glyph glyph-name="U" horiz-adv-x="538" unicode="U" d="M185 714v-498q-1 -28 3 -50t14 -38t26 -26t41 -10q26 0 42 10q15 10 25 26t14 38t3 50v498h144v-498q0 -68 -19 -112t-51 -71q-32 -26 -73 -35t-85 -9t-85 8q-41 9 -73 33t-51 69t-19 117v498h144z"/>
<glyph glyph-name="V" horiz-adv-x="519" unicode="V" d="M157 714l101 -528h3l106 528h149l-164 -714h-185l-164 714h154z"/>
<glyph glyph-name="W" horiz-adv-x="760" unicode="W" d="M8 714h138l79 -528h2l84 528h138l84 -528h2l79 528h138l-130 -714h-161l-80 518h-2l-80 -518h-161z"/>
<glyph glyph-name="X" horiz-adv-x="537" unicode="X" d="M20 714h159l92 -231l91 231h157l-166 -353l178 -361h-162l-103 242l-102 -242h-158l178 361z"/>
<glyph glyph-name="Y" horiz-adv-x="520" unicode="Y" d="M165 714l94 -276h2l100 276h156l-185 -433v-281h-144v281l-185 433h162z"/>
<glyph glyph-name="Z" horiz-adv-x="481" unicode="Z" d="M24 105l263 491h-245v118h411v-109l-267 -487h271v-118h-433v105z"/>
<glyph glyph-name="bracketleft" horiz-adv-x="315" unicode="[" d="M80 714h229v-100h-105v-695h105v-100h-229v895z"/>
<glyph glyph-name="backslash" horiz-adv-x="332" unicode="\" d="M0 728h109l226 -739h-112z"/>
<glyph glyph-name="bracketright" horiz-adv-x="315" unicode="]" d="M6 -81h105v695h-105v100h229v-895h-229v100z"/>
<glyph glyph-name="asciicircum" horiz-adv-x="600" unicode="^" d="M56 309l188 385h112l188 -385h-124l-120 247l-120 -247h-124z"/>
<glyph glyph-name="underscore" horiz-adv-x="500" unicode="_" d="M0 -122v50h500v-50h-500z"/>
<glyph glyph-name="grave" horiz-adv-x="222" unicode="`" d="M82 601l-95 144h135l54 -144h-94z"/>
<glyph glyph-name="a" horiz-adv-x="481" unicode="a" d="M45 373v13q0 46 15 78q14 32 40 52t60 28t74 8q62 0 100 -12t59 -34t29 -52t7 -67v-283q-1 -38 3 -59t14 -45h-132q-6 14 -10 28t-7 28h-2q-23 -42 -55 -54t-82 -13q-36 1 -61 13t-40 34t-22 50t-7 54q0 38 8 66t24 46q16 20 42 33t62 23l78 21q31 8 43 22t12 41 q-1 30 -15 48t-49 18q-32 0 -48 -19t-16 -51v-15h-124zM297 269q-14 -11 -30 -17t-29 -10q-42 -9 -60 -30t-18 -57q0 -31 12 -53t40 -22q14 0 29 4t27 15q12 10 21 26q8 16 8 38v106z"/>
<glyph glyph-name="b" horiz-adv-x="500" unicode="b" d="M184 269q0 -89 14 -133t59 -44t59 44t13 133q1 89 -13 133t-59 44t-59 -44t-14 -133zM46 714h138v-226h2q22 32 50 48t66 16q85 0 125 -66t40 -217q0 -150 -40 -215t-125 -65q-42 0 -70 15t-52 53h-2v-57h-132v714z"/>
<glyph glyph-name="c" horiz-adv-x="463" unicode="c" d="M305 344q-1 20 -3 39t-8 35t-19 24q-12 10 -32 10q-25 0 -41 -12t-24 -34t-11 -56t-3 -82q0 -50 3 -86t11 -58q8 -24 22 -34t38 -10q35 0 51 30t16 96h132q1 -106 -47 -162t-158 -55q-52 1 -90 13t-64 44t-39 88q-13 54 -13 135q0 83 16 137t45 88q29 32 69 45t88 13 q96 0 144 -56t49 -152h-132z"/>
<glyph glyph-name="d" horiz-adv-x="500" unicode="d" d="M171 269q-1 -89 13 -133t59 -44t59 44t14 133t-14 133t-59 44t-59 -44t-13 -133zM322 57h-2q-24 -38 -52 -53t-70 -15q-85 0 -125 65t-40 215q0 151 40 217t125 66q38 0 66 -16t50 -48h2v226h138v-714h-132v57z"/>
<glyph glyph-name="e" horiz-adv-x="463" unicode="e" d="M164 248v-43q0 -25 4 -47t11 -40q8 -18 21 -28t32 -10q35 0 51 25t22 76h124q-4 -94 -50 -143t-145 -49q-75 0 -117 25t-62 66q-21 41 -25 92t-4 102q0 54 8 104t30 89t64 62t112 23q60 0 98 -20t61 -54q22 -36 30 -86t8 -113v-31h-273zM305 330q-1 30 -4 54t-11 40 t-20 26q-14 8 -35 8t-35 -10t-21 -24q-7 -16 -11 -35t-4 -38v-21h141z"/>
<glyph glyph-name="f" horiz-adv-x="296" unicode="f" d="M76 444h-70v94h70v61q0 36 10 61t28 40q18 16 46 22q27 6 60 6q37 0 74 -3v-98q-5 1 -14 1h-13q-29 0 -41 -10t-12 -33v-47h80v-94h-80v-444h-138v444z"/>
<glyph glyph-name="g" horiz-adv-x="500" unicode="g" d="M449 538v-511q1 -104 -51 -156t-173 -52q-87 -1 -135 37t-48 107h132q0 -26 21 -41q9 -7 21 -11t25 -4q42 0 59 27t17 67v71h-2q-21 -30 -51 -48t-64 -18q-82 0 -124 62t-41 210q-1 47 5 96q6 48 24 88t50 65q34 25 90 25q29 0 60 -16t51 -58h2v60h132zM173 252 q1 -28 3 -53t10 -45t20 -30q14 -12 36 -12t36 12t24 31q8 21 12 49t3 62q1 98 -15 139t-57 41q-23 0 -37 -10t-22 -32t-10 -60t-3 -92z"/>
<glyph glyph-name="h" horiz-adv-x="500" unicode="h" d="M46 714h138v-231h2q40 69 131 69q65 0 101 -36t36 -117v-399h-138v371q0 43 -14 59t-45 16q-73 0 -73 -89v-357h-138v714z"/>
<glyph glyph-name="i" horiz-adv-x="240" unicode="i" d="M51 538h138v-538h-138v538zM51 722h138v-118h-138v118z"/>
<glyph glyph-name="j" horiz-adv-x="240" unicode="j" d="M51 538h138v-572q1 -34 -7 -60t-26 -44t-48 -26q-30 -9 -77 -9q-12 1 -25 1t-28 1v100q6 -2 11 -2h11q34 1 42 21t9 62v528zM51 722h138v-118h-138v118z"/>
<glyph glyph-name="k" horiz-adv-x="500" unicode="k" d="M189 714v-377h2l139 201h152l-155 -212l178 -326h-152l-115 221l-49 -64v-157h-138v714h138z"/>
<glyph glyph-name="l" horiz-adv-x="240" unicode="l" d="M51 714h138v-714h-138v714z"/>
<glyph glyph-name="m" horiz-adv-x="758" unicode="m" d="M46 538h132v-55h2q26 37 58 53t78 16q48 0 80 -22t44 -64h2q16 42 52 64t84 22q70 0 102 -42t32 -119v-391h-138v376q0 34 -12 52t-42 18q-32 0 -52 -22t-20 -70v-354h-138v376q0 34 -12 52t-42 18q-32 0 -52 -22t-20 -70v-354h-138v538z"/>
<glyph glyph-name="n" horiz-adv-x="500" unicode="n" d="M46 538h132v-63h2q22 41 57 59t80 18q65 0 101 -36t36 -117v-399h-138v371q0 43 -14 59t-45 16q-73 0 -73 -89v-357h-138v538z"/>
<glyph glyph-name="o" d="M28 269q0 69 11 122t36 89t65 54t100 18h7q58 0 96 -16q41 -18 65 -54t34 -89t10 -124q0 -69 -11 -122t-36 -89t-65 -52q-40 -17 -100 -17h-7q-57 -1 -96 15q-41 16 -65 52t-34 90t-10 123zM166 269q0 -41 2 -76t10 -60t22 -39q15 -14 40 -14q42 0 58 44t16 145t-16 145 t-58 44q-25 0 -40 -14q-14 -14 -22 -39t-10 -60t-2 -76z" unicode="o"/>
<glyph glyph-name="p" horiz-adv-x="500" unicode="p" d="M184 269q0 -89 14 -133t59 -44t59 44t13 133q1 89 -13 133t-59 44t-59 -44t-14 -133zM46 538h132v-57h2q24 39 52 55t70 16q85 0 125 -66t40 -217q0 -150 -40 -215t-125 -65q-38 1 -66 15t-50 46h-2v-223h-138v711z"/>
<glyph glyph-name="q" horiz-adv-x="500" unicode="q" d="M316 269q0 89 -14 133t-59 44t-59 -44t-13 -133q-1 -89 13 -133t59 -44t59 44t14 133zM316 50h-2q-22 -32 -50 -46t-66 -15q-85 0 -125 65t-40 215q0 151 40 217t125 66q42 0 70 -16t52 -55h2v57h132v-711h-138v223z"/>
<glyph glyph-name="r" horiz-adv-x="333" unicode="r" d="M46 538h132v-72h2q21 38 51 62t73 24h12t13 -2v-132q-11 2 -21 2h-22q-18 0 -36 -5t-33 -17t-24 -30t-9 -45v-323h-138v538z"/>
<glyph glyph-name="s" horiz-adv-x="444" unicode="s" d="M147 176v-18q1 -34 19 -56t53 -22q32 0 51 16t19 48q0 26 -15 40t-35 21l-97 35q-57 20 -86 56t-29 94q0 32 11 62t35 52q23 22 61 35t91 13q94 0 139 -40t45 -113v-22h-124q1 41 -13 61t-48 20q-26 0 -46 -14t-19 -44q1 -20 13 -36t47 -27l83 -28q65 -21 92 -57t27 -97 q0 -43 -15 -75q-16 -32 -42 -52q-26 -21 -62 -30t-81 -9q-59 0 -97 11t-60 33q-22 21 -32 53q-9 32 -9 71v19h124z"/>
<glyph glyph-name="t" horiz-adv-x="296" unicode="t" d="M76 692h138v-154h80v-94h-80v-291q0 -31 10 -45t39 -14h16t15 2v-96q-22 0 -44 -2t-46 -1q-40 -1 -66 5t-38 22q-14 16 -19 44q-5 27 -5 68v308h-70v94h70v154z"/>
<glyph glyph-name="u" horiz-adv-x="500" unicode="u" d="M322 63h-2q-22 -40 -57 -57t-80 -17q-65 1 -101 35t-36 115v399h138v-371q0 -43 14 -59t45 -16q73 0 73 89v357h138v-538h-132v63z"/>
<glyph glyph-name="v" horiz-adv-x="444" unicode="v" d="M301 538h138l-135 -538h-160l-139 538h144l77 -385h2z"/>
<glyph glyph-name="w" horiz-adv-x="704" unicode="w" d="M7 538h138l63 -382h2l67 382h150l71 -382h2l65 382h132l-116 -538h-157l-71 382h-2l-67 -382h-160z"/>
<glyph glyph-name="x" horiz-adv-x="462" unicode="x" d="M305 538h144l-140 -261l146 -277h-144l-80 176l-80 -176h-144l146 277l-140 261h144l74 -162z"/>
<glyph glyph-name="y" horiz-adv-x="444" unicode="y" d="M46 -70q18 -3 36 -3q38 0 54 20t20 53l-151 538h144l80 -372h2l70 372h138l-130 -502q-19 -66 -35 -108t-38 -64t-54 -30q-32 -7 -80 -7h-56v103z"/>
<glyph glyph-name="z" horiz-adv-x="426" unicode="z" d="M24 106l215 320h-205v112h368v-106l-215 -320h215v-112h-378v106z"/>
<glyph glyph-name="braceleft" horiz-adv-x="315" unicode="{" d="M30 306q26 0 46 23t20 58v193q0 64 26 99t78 35h89v-100h-30q-23 0 -31 -22t-8 -50v-166q0 -44 -20 -74t-52 -36v-2q32 -6 52 -36t20 -74v-163q0 -29 8 -51t31 -21h30v-100h-89q-52 0 -78 35t-26 99v190q0 35 -20 58t-46 23v82z"/>
<glyph glyph-name="bar" horiz-adv-x="222" unicode="|" d="M49 728h124v-739h-124v739z"/>
<glyph glyph-name="braceright" horiz-adv-x="315" unicode="}" d="M26 -81h30q24 -1 32 21t7 51v163q0 44 20 74t52 36v2q-32 6 -52 36t-20 74v166q1 28 -7 50t-32 22h-30v100h89q51 0 77 -35t27 -99v-193q1 -35 21 -58t45 -23v-82q-25 0 -45 -23t-21 -58v-190q-1 -64 -27 -99t-77 -35h-89v100z"/>
<glyph glyph-name="asciitilde" horiz-adv-x="600" unicode="~" d="M531 243q-20 -38 -49 -62t-74 -24q-34 -1 -62 9t-56 25q-22 11 -36 17t-24 11q-10 4 -19 5q-8 1 -16 1q-15 0 -29 -7q-14 -8 -26 -18t-22 -22q-9 -12 -13 -21l-36 106q20 38 49 62t74 24q53 0 109 -29q41 -22 62 -30t42 -9q15 0 29 7q14 8 26 18t22 22q9 12 13 21z"/>
<glyph glyph-name="nonbreakingspace" horiz-adv-x="240" unicode=" "/>
<glyph glyph-name="exclamdown" horiz-adv-x="296" unicode="¡" d="M79 56l19 283h100l19 -283v-229h-138v229zM79 538h138v-132h-138v132z"/>
<glyph glyph-name="cent" d="M222 452q-33 -12 -42 -58t-9 -123q0 -31 1 -61q2 -30 6 -56t14 -44t30 -24v366zM222 -11q-40 1 -74 13t-60 42t-40 84q-14 53 -15 137q0 57 7 107q8 50 28 88t57 63q37 24 97 29v76h52v-76q32 -2 63 -12t55 -32t40 -60q15 -38 15 -100h-132q1 16 -1 32t-6 30t-12 26 t-22 16v-366q15 10 23 24t12 31t5 35t1 33h132q0 -101 -40 -155t-133 -65v-88h-52v88z" unicode="¢"/>
<glyph glyph-name="sterling" d="M9 388h67q-45 87 -45 142q0 38 13 70t40 56t67 38t94 14q103 0 159 -49t59 -158h-132q0 23 -4 43t-13 36t-24 25t-37 9q-47 0 -65 -24t-19 -55q0 -11 6 -36t20 -54l28 -57h167v-82h-141q5 -15 5 -39q0 -44 -20 -79t-70 -77l4 -2q6 3 20 5t25 2t25 -4t30 -11t30 -11 q16 -4 29 -4q15 0 43 10t61 32l44 -94q-74 -45 -149 -45q-18 -1 -40 5t-46 12t-48 10q-24 6 -48 6t-46 -6t-52 -19l-41 83q53 34 85 80t32 97q0 21 -11 49h-102v82z" unicode="£"/>
<glyph glyph-name="currency" d="M0 169l50 50q-18 27 -28 59t-11 69q0 35 10 67t29 61l-50 50l61 62l51 -50q28 19 60 29t68 10t68 -10t60 -29l51 50l61 -62l-50 -50q19 -29 29 -61t10 -67t-10 -67t-29 -61l50 -50l-61 -62l-51 51q-28 -20 -60 -30t-68 -10q-72 0 -128 40l-51 -51zM117 347q0 -61 33 -95 t90 -34t90 34t33 95t-33 95t-90 34t-90 -34t-33 -95z" unicode="¤"/>
<glyph glyph-name="yen" d="M178 159h-142v82h142v43l-11 23h-131v82h92l-142 305h146l107 -269h2l112 269h144l-145 -305h92v-82h-131l-11 -23v-43h142v-82h-142v-159h-124v159z" unicode="¥"/>
<glyph glyph-name="brokenbar" horiz-adv-x="222" unicode="¦" d="M49 257h124v-268h-124v268zM49 728h124v-271h-124v271z"/>
<glyph glyph-name="section" horiz-adv-x="481" unicode="§" d="M170 37v-15q0 -35 20 -56t50 -21q34 0 50 21t16 43q0 27 -14 47t-50 37l-123 59q-57 26 -81 66t-25 88q0 48 24 85t66 58q-60 45 -60 114q0 45 16 76q15 31 43 51t66 29t80 9q51 0 87 -12t59 -34q24 -22 34 -51q10 -30 10 -65h-132q0 30 -14 49q-15 19 -55 19 q-29 0 -45 -16t-17 -41q1 -17 15 -35t49 -34l119 -56q46 -22 78 -60t32 -103q0 -18 -6 -39q-6 -20 -16 -40t-24 -36t-32 -27q26 -19 40 -49t14 -75q0 -88 -54 -130t-150 -42q-102 0 -152 47t-50 124v15h132zM264 218l20 -12t19 -13q27 23 37 41t10 34q0 26 -15 44t-53 38 l-96 51q-29 -17 -42 -37t-13 -38q1 -14 9 -30t25 -24z"/>
<glyph glyph-name="dieresis" horiz-adv-x="222" unicode="¨" d="M-28 728h109v-118h-109v118zM141 728h112v-118h-112v118z"/>
<glyph glyph-name="copyright" horiz-adv-x="800" unicode="©" d="M595 298q-6 -36 -23 -66t-41 -50t-54 -30t-62 -10q-48 0 -86 17t-65 47q-28 30 -42 69q-14 40 -14 85q0 46 14 86t40 69t64 46t86 17q34 0 64 -10t54 -29t40 -47t21 -67h-96q-8 29 -29 48t-59 19q-53 0 -79 -38t-26 -94q0 -27 7 -51t21 -42q14 -19 32 -29q20 -10 44 -10 q36 0 60 19t29 51h100zM141 357q-1 -55 19 -103t54 -84t82 -57t104 -21t104 21t82 57t54 84t19 103q1 55 -19 103t-54 84t-82 57t-104 21t-104 -21t-82 -57t-54 -84t-19 -103zM29 357q0 77 29 145q30 68 80 118t118 79t144 29t144 -29t118 -79t80 -118q29 -68 29 -145 t-29 -145q-30 -68 -80 -117q-50 -50 -118 -78t-144 -28t-144 28t-118 78q-50 49 -80 117q-29 68 -29 145z"/>
<glyph glyph-name="ordfeminine" horiz-adv-x="314" unicode="ª" d="M293 437q0 -23 2 -35t9 -28h-100q-5 8 -7 18t-4 17q-17 -26 -38 -34t-56 -8q-25 1 -42 9t-27 21t-16 29q-4 16 -4 33q0 48 20 70t69 32l58 12q20 5 28 13t8 21q0 37 -37 37q-20 0 -30 -11t-11 -28v-9h-94v13q0 55 38 77t99 22q44 0 70 -8t40 -20q14 -13 20 -31 q5 -18 5 -40v-172zM193 537q-7 -5 -17 -9t-18 -6q-26 -5 -37 -17t-11 -32q0 -17 8 -29t24 -13q17 1 34 11t17 36v59z"/>
<glyph glyph-name="guillemotleft" horiz-adv-x="426" unicode="«" d="M225 370l149 120v-132l-79 -69l79 -69v-132l-149 120v162zM52 370l149 120v-132l-79 -69l79 -69v-132l-149 120v162z"/>
<glyph glyph-name="logicalnot" horiz-adv-x="600" unicode="¬" d="M429 300h-382v124h506v-326h-124v202z"/>
<glyph glyph-name="registered" horiz-adv-x="800" unicode="®" d="M255 557h156q78 0 116 -32t38 -92q-1 -51 -29 -79t-70 -32l99 -165h-96l-94 161h-32v-161h-88v400zM343 388h67q29 0 48 9t19 41q0 16 -7 26q-6 10 -18 15t-26 7t-25 1h-58v-99zM29 357q0 77 29 145q30 68 80 118t118 79t144 29t144 -29t118 -79t80 -118q29 -68 29 -145 t-29 -145q-30 -68 -80 -117q-50 -50 -118 -78t-144 -28t-144 28t-118 78q-50 49 -80 117q-29 68 -29 145zM141 357q-1 -55 19 -103t54 -84t82 -57t104 -21t104 21t82 57t54 84t19 103q1 55 -19 103t-54 84t-82 57t-104 21t-104 -21t-82 -57t-54 -84t-19 -103z"/>
<glyph glyph-name="macron" horiz-adv-x="222" unicode="¯" d="M258 714v-76h-291v76h291z"/>
<glyph glyph-name="degree" horiz-adv-x="400" unicode="°" d="M52 560q0 31 12 58t31 47q20 19 47 31t58 12t58 -12t47 -31q19 -20 31 -47t12 -58t-12 -58t-31 -47q-20 -19 -47 -31t-58 -12t-58 12t-47 31q-19 20 -31 47t-12 58zM128 560q0 -30 21 -51t51 -21t51 21t21 51t-21 51t-51 21t-51 -21t-21 -51z"/>
<glyph glyph-name="plusminus" horiz-adv-x="600" unicode="±" d="M238 506h124v-108h191v-124h-191v-108h-124v108h-191v124h191v108zM47 124h506v-124h-506v124z"/>
<glyph glyph-name="twosuperior" horiz-adv-x="312" unicode="²" d="M0 280q0 56 22 102t79 86l50 36q29 22 39 40t10 41q0 19 -12 33t-31 14q-16 0 -26 -7q-9 -7 -15 -17t-8 -24q-2 -13 -2 -25h-106v25q0 60 37 92t123 32q80 0 116 -30t36 -78q0 -40 -14 -70t-52 -60l-57 -44q-26 -20 -38 -36t-15 -28h176v-82h-312z"/>
<glyph glyph-name="threesuperior" horiz-adv-x="312" unicode="³" d="M106 416q1 -28 11 -48t38 -19q25 -1 35 15t10 38q0 11 -2 22t-8 20t-18 15t-32 6h-28v70h28q30 1 42 17t12 36t-12 32t-29 12q-28 0 -37 -18t-9 -42h-100q0 69 36 103q17 17 45 25t64 8q76 0 112 -26t36 -83q0 -39 -18 -63t-52 -32v-2q46 -8 64 -34t18 -66q0 -21 -6 -44 t-24 -42t-52 -31q-33 -12 -87 -12q-75 0 -109 35t-34 98v10h106z"/>
<glyph glyph-name="acute" horiz-adv-x="222" unicode="´" d="M100 745h138l-98 -144h-94z"/>
<glyph glyph-name="mu" horiz-adv-x="500" unicode="µ" d="M316 538h138v-538h-132v63h-2q-22 -40 -52 -57t-54 -17q-11 1 -18 3t-12 5v-170h-138v711h138v-371q0 -43 14 -59t45 -16q73 0 73 89v357z"/>
<glyph glyph-name="paragraph" d="M182 335q-90 -1 -136 47t-45 139q1 57 15 95t40 59q26 23 62 31t81 8h268v-849h-106v755h-73v-755h-106v470z" unicode="¶"/>
<glyph glyph-name="periodcentered" horiz-adv-x="240" unicode="·" d="M23 282q-1 42 27 70t70 27q42 1 70 -27t27 -70q1 -42 -27 -70t-70 -27q-42 -1 -70 27t-27 70z"/>
<glyph glyph-name="cedilla" horiz-adv-x="222" unicode="¸" d="M147 0l-38 -58q9 2 17 4t16 1q15 0 30 -5q15 -4 27 -14q11 -10 19 -24t8 -31q0 -45 -32 -69t-94 -25q-32 0 -60 6t-40 13l19 46q11 -6 31 -10t38 -5q22 0 36 10t14 24q0 15 -12 25t-32 9q-10 1 -18 -1t-16 -5l-22 20l55 89h54z"/>
<glyph glyph-name="onesuperior" horiz-adv-x="312" unicode="¹" d="M115 570h-91v70h8q46 0 74 16t35 52h86v-428h-112v290z"/>
<glyph glyph-name="ordmasculine" horiz-adv-x="314" unicode="º" d="M12 537q0 83 32 127t113 44h7q38 0 64 -10q28 -10 44 -32t24 -54q6 -32 6 -75q0 -41 -7 -73t-24 -54t-45 -32q-28 -11 -69 -11h-7q-38 -1 -64 9q-28 10 -44 32t-24 54q-6 32 -6 75zM112 537q0 -46 8 -76t37 -30q25 1 35 25t10 81t-10 82t-35 25q-29 0 -37 -30t-8 -77z "/>
<glyph glyph-name="guillemotright" horiz-adv-x="426" unicode="»" d="M52 220l79 69l-79 69v132l149 -120v-162l-149 -120v132zM225 220l79 69l-79 69v132l149 -120v-162l-149 -120v132z"/>
<glyph glyph-name="onequarter" horiz-adv-x="721" unicode="¼" d="M571 304h-2l-86 -145h88v145zM401 168l152 260h124v-269h44v-82h-44v-77h-106v77h-170v91zM502 725h89l-406 -753h-89zM91 570h-91v70h8q46 0 74 16t35 52h86v-428h-112v290z"/>
<glyph glyph-name="onehalf" horiz-adv-x="721" unicode="½" d="M478 725h89l-406 -753h-89zM91 570h-91v70h8q46 0 74 16t35 52h86v-428h-112v290zM409 0q0 56 22 102t79 86l50 36q29 22 39 40t10 41q1 19 -11 33t-32 14q-16 0 -26 -7t-16 -17t-7 -24q-2 -13 -2 -25h-106v25q0 60 37 92t123 32q81 0 117 -30t35 -78q1 -40 -13 -70 t-53 -60l-57 -44q-26 -20 -38 -36t-15 -28h176v-82h-312z"/>
<glyph glyph-name="threequarters" horiz-adv-x="721" unicode="¾" d="M401 168l152 260h124v-269h44v-82h-44v-77h-106v77h-170v91zM571 159v145h-2l-86 -145h88zM541 725h89l-406 -753h-89zM106 416q1 -28 11 -48t38 -19q25 -1 35 15t10 38q0 11 -2 22t-8 20t-18 15t-32 6h-28v70h28q30 1 42 17t12 36t-12 32t-29 12q-28 0 -37 -18t-9 -42 h-100q0 69 36 103q17 17 45 25t64 8q76 0 112 -26t36 -83q0 -39 -18 -63t-52 -32v-2q46 -8 64 -34t18 -66q0 -21 -6 -44t-24 -42t-52 -31q-33 -12 -87 -12q-75 0 -109 35t-34 98v10h106z"/>
<glyph glyph-name="questiondown" horiz-adv-x="481" unicode="¿" d="M445 45v-23q-1 -42 -13 -80t-36 -64q-24 -28 -62 -44q-37 -16 -87 -15q-107 0 -159 52t-52 138q0 42 14 78t49 78l40 45q25 29 37 53t12 62v15h124v-39q0 -51 -14 -85t-48 -72l-38 -43q-22 -23 -30 -49t-8 -54q0 -38 17 -62t51 -23q38 1 54 31t17 76v25h132zM181 406v132 h138v-132h-138z"/>
<glyph glyph-name="Agrave" horiz-adv-x="556" unicode="À" d="M189 714h178l189 -714h-150l-33 151h-190l-33 -151h-150zM208 269h140l-69 321h-2zM249 756l-98 144h138l54 -144h-94z"/>
<glyph glyph-name="Aacute" horiz-adv-x="556" unicode="Á" d="M189 714h178l189 -714h-150l-33 151h-190l-33 -151h-150zM208 269h140l-69 321h-2zM267 900h138l-98 -144h-94z"/>
<glyph glyph-name="Acircumflex" horiz-adv-x="556" unicode="Â" d="M189 714h178l189 -714h-150l-33 151h-190l-33 -151h-150zM208 269h140l-69 321h-2zM206 900h144l78 -144h-106l-46 85l-48 -85h-100z"/>
<glyph glyph-name="Atilde" horiz-adv-x="556" unicode="Ã" d="M189 714h178l189 -714h-150l-33 151h-190l-33 -151h-150zM208 269h140l-69 321h-2zM121 765q7 60 31 92t62 32q28 0 43 -7l48 -21q15 -6 30 -6q14 0 21 13t7 23h72q-5 -54 -30 -89t-63 -35q-16 -1 -32 5l-32 12t-29 12q-14 6 -26 5q-24 0 -32 -36h-70z"/>
<glyph glyph-name="Adieresis" horiz-adv-x="556" unicode="Ä" d="M189 714h178l189 -714h-150l-33 151h-190l-33 -151h-150zM208 269h140l-69 321h-2zM136 883h112v-118h-112v118zM308 883h112v-118h-112v118z"/>
<glyph glyph-name="Aring" horiz-adv-x="556" unicode="Å" d="M189 714h178l189 -714h-150l-33 151h-190l-33 -151h-150zM208 269h140l-69 321h-2zM164 847q0 25 9 45t25 36t36 24q20 9 44 9t44 -9q20 -8 36 -24t25 -36t9 -45t-9 -45t-25 -36t-36 -24q-20 -9 -44 -9t-44 9q-20 8 -36 24t-25 36t-9 45zM220 847q0 -24 17 -41t41 -17 t41 17t17 41t-17 41t-41 17t-41 -17t-17 -41z"/>
<glyph glyph-name="AE" horiz-adv-x="759" unicode="Æ" d="M264 714h463v-118h-235v-168h220v-118h-220v-192h245v-118h-383v151h-159l-50 -151h-147zM354 269v333h-9l-111 -333h120z"/>
<glyph glyph-name="Ccedilla" horiz-adv-x="537" unicode="Ç" d="M261 -11q-75 3 -120 31t-69 76q-24 50 -30 116q-7 66 -7 145q-1 81 7 149t34 118q26 48 73 76q48 28 129 28q78 0 122 -25t66 -63t28 -84q6 -44 5 -83h-144q-1 77 -19 113t-67 36q-27 0 -45 -14t-27 -48q-10 -32 -14 -84t-4 -129q-1 -81 5 -131t18 -78t28 -36 q18 -10 41 -10q19 0 35 6t29 26q12 20 19 56t7 93h144q1 -54 -7 -103q-8 -50 -29 -88t-58 -62t-96 -30l-30 -48q9 2 17 4t16 1q15 0 30 -5q15 -4 27 -14q11 -10 19 -24t8 -31q0 -45 -32 -69t-94 -25q-32 0 -60 6t-40 13l19 46q11 -6 31 -10t38 -5q22 0 36 10t14 24 q0 15 -12 25t-32 9q-10 1 -18 -1t-16 -5l-22 20z"/>
<glyph glyph-name="Egrave" horiz-adv-x="481" unicode="È" d="M449 714v-118h-255v-168h240v-118h-240v-192h265v-118h-409v714h399zM224 756l-98 144h138l54 -144h-94z"/>
<glyph glyph-name="Eacute" horiz-adv-x="481" unicode="É" d="M449 714v-118h-255v-168h240v-118h-240v-192h265v-118h-409v714h399zM242 900h138l-98 -144h-94z"/>
<glyph glyph-name="Ecircumflex" horiz-adv-x="481" unicode="Ê" d="M449 714v-118h-255v-168h240v-118h-240v-192h265v-118h-409v714h399zM181 900h144l78 -144h-106l-46 85l-48 -85h-100z"/>
<glyph glyph-name="Edieresis" horiz-adv-x="481" unicode="Ë" d="M449 714v-118h-255v-168h240v-118h-240v-192h265v-118h-409v714h399zM111 883h112v-118h-112v118zM283 883h112v-118h-112v118z"/>
<glyph glyph-name="Igrave" horiz-adv-x="258" unicode="Ì" d="M57 0v714h144v-714h-144zM100 756l-98 144h138l54 -144h-94z"/>
<glyph glyph-name="Iacute" horiz-adv-x="258" unicode="Í" d="M57 0v714h144v-714h-144zM118 900h138l-98 -144h-94z"/>
<glyph glyph-name="Icircumflex" horiz-adv-x="258" unicode="Î" d="M57 0v714h144v-714h-144zM57 900h144l78 -144h-106l-46 85l-48 -85h-97z"/>
<glyph glyph-name="Idieresis" horiz-adv-x="258" unicode="Ï" d="M57 0v714h144v-714h-144zM-10 883h109v-118h-109v118zM159 883h112v-118h-112v118z"/>
<glyph glyph-name="Eth" horiz-adv-x="574" unicode="Ð" d="M57 315h-57v106h57v293h236q75 0 121 -24t72 -70t34 -110q9 -64 9 -143q1 -93 -11 -163t-40 -115t-75 -67t-119 -22h-227v315zM201 421h93v-106h-93v-209h64q38 0 61 13q22 13 36 43t18 79t5 122q0 61 -4 107q-5 46 -17 76t-36 46t-66 16h-61v-187z"/>
<glyph glyph-name="Ntilde" horiz-adv-x="574" unicode="Ñ" d="M216 714l174 -489h2v489h132v-714h-164l-176 500h-2v-500h-132v714h166zM130 765q8 60 32 92t61 32q28 0 43 -7l48 -21q15 -6 30 -6q14 0 21 13t7 23h72q-5 -54 -30 -89t-63 -35q-16 -1 -32 5q-15 6 -31 12t-30 12t-26 5q-24 0 -32 -36h-70z"/>
<glyph glyph-name="Ograve" horiz-adv-x="556" unicode="Ò" d="M35 357q-1 81 7 149t34 118q26 48 73 76q48 28 129 28t129 -28q47 -28 73 -76q26 -50 34 -118t7 -149q1 -82 -7 -150t-34 -117t-73 -75q-48 -26 -129 -26t-129 26q-47 26 -73 75t-34 117t-7 150zM179 357q-1 -73 3 -123t14 -82t30 -46t52 -14t52 14t30 46t14 82t3 123 q1 72 -3 122t-14 82q-10 33 -30 47t-52 14t-52 -14t-30 -47q-10 -32 -14 -82t-3 -122zM249 756l-98 144h138l54 -144h-94z"/>
<glyph glyph-name="Oacute" horiz-adv-x="556" unicode="Ó" d="M35 357q-1 81 7 149t34 118q26 48 73 76q48 28 129 28t129 -28q47 -28 73 -76q26 -50 34 -118t7 -149q1 -82 -7 -150t-34 -117t-73 -75q-48 -26 -129 -26t-129 26q-47 26 -73 75t-34 117t-7 150zM179 357q-1 -73 3 -123t14 -82t30 -46t52 -14t52 14t30 46t14 82t3 123 q1 72 -3 122t-14 82q-10 33 -30 47t-52 14t-52 -14t-30 -47q-10 -32 -14 -82t-3 -122zM267 900h138l-98 -144h-94z"/>
<glyph glyph-name="Ocircumflex" horiz-adv-x="556" unicode="Ô" d="M35 357q-1 81 7 149t34 118q26 48 73 76q48 28 129 28t129 -28q47 -28 73 -76q26 -50 34 -118t7 -149q1 -82 -7 -150t-34 -117t-73 -75q-48 -26 -129 -26t-129 26q-47 26 -73 75t-34 117t-7 150zM179 357q-1 -73 3 -123t14 -82t30 -46t52 -14t52 14t30 46t14 82t3 123 q1 72 -3 122t-14 82q-10 33 -30 47t-52 14t-52 -14t-30 -47q-10 -32 -14 -82t-3 -122zM206 900h144l78 -144h-106l-46 85l-48 -85h-100z"/>
<glyph glyph-name="Otilde" horiz-adv-x="556" unicode="Õ" d="M35 357q-1 81 7 149t34 118q26 48 73 76q48 28 129 28t129 -28q47 -28 73 -76q26 -50 34 -118t7 -149q1 -82 -7 -150t-34 -117t-73 -75q-48 -26 -129 -26t-129 26q-47 26 -73 75t-34 117t-7 150zM179 357q-1 -73 3 -123t14 -82t30 -46t52 -14t52 14t30 46t14 82t3 123 q1 72 -3 122t-14 82q-10 33 -30 47t-52 14t-52 -14t-30 -47q-10 -32 -14 -82t-3 -122zM121 765q7 60 31 92t62 32q28 0 43 -7l48 -21q15 -6 30 -6q14 0 21 13t7 23h72q-5 -54 -30 -89t-63 -35q-16 -1 -32 5l-32 12t-29 12q-14 6 -26 5q-24 0 -32 -36h-70z"/>
<glyph glyph-name="Odieresis" horiz-adv-x="556" unicode="Ö" d="M35 357q-1 81 7 149t34 118q26 48 73 76q48 28 129 28t129 -28q47 -28 73 -76q26 -50 34 -118t7 -149q1 -82 -7 -150t-34 -117t-73 -75q-48 -26 -129 -26t-129 26q-47 26 -73 75t-34 117t-7 150zM179 357q-1 -73 3 -123t14 -82t30 -46t52 -14t52 14t30 46t14 82t3 123 q1 72 -3 122t-14 82q-10 33 -30 47t-52 14t-52 -14t-30 -47q-10 -32 -14 -82t-3 -122zM136 883h112v-118h-112v118zM308 883h112v-118h-112v118z"/>
<glyph glyph-name="multiply" horiz-adv-x="600" unicode="×" d="M215 253l-156 155l86 86l155 -156l155 156l86 -86l-156 -155l156 -155l-86 -86l-155 156l-155 -156l-86 86z"/>
<glyph glyph-name="Oslash" horiz-adv-x="556" unicode="Ø" d="M348 586q-22 36 -70 36q-32 0 -52 -14t-30 -47q-10 -32 -14 -82t-3 -122q0 -48 1 -84t5 -64h2zM208 129q19 -37 70 -37q32 0 52 14t30 46t14 82t3 123q0 47 -1 83t-5 65h-2zM113 40q-25 24 -41 56t-23 72q-8 40 -11 88t-3 101q-1 81 7 149t34 118q26 48 73 76 q48 28 129 28q73 0 121 -24l26 61l48 -21l-30 -70q25 -24 41 -56t23 -72q8 -40 11 -88t3 -101q1 -82 -7 -150t-34 -117t-73 -75q-48 -26 -129 -26q-73 0 -121 21l-26 -58l-48 21z"/>
<glyph glyph-name="Ugrave" horiz-adv-x="538" unicode="Ù" d="M185 714v-498q-1 -28 3 -50t14 -38t26 -26t41 -10q26 0 42 10q15 10 25 26t14 38t3 50v498h144v-498q0 -68 -19 -112t-51 -71q-32 -26 -73 -35t-85 -9t-85 8q-41 9 -73 33t-51 69t-19 117v498h144zM240 756l-98 144h138l54 -144h-94z"/>
<glyph glyph-name="Uacute" horiz-adv-x="538" unicode="Ú" d="M185 714v-498q-1 -28 3 -50t14 -38t26 -26t41 -10q26 0 42 10q15 10 25 26t14 38t3 50v498h144v-498q0 -68 -19 -112t-51 -71q-32 -26 -73 -35t-85 -9t-85 8q-41 9 -73 33t-51 69t-19 117v498h144zM258 900h138l-98 -144h-94z"/>
<glyph glyph-name="Ucircumflex" horiz-adv-x="538" unicode="Û" d="M185 714v-498q-1 -28 3 -50t14 -38t26 -26t41 -10q26 0 42 10q15 10 25 26t14 38t3 50v498h144v-498q0 -68 -19 -112t-51 -71q-32 -26 -73 -35t-85 -9t-85 8q-41 9 -73 33t-51 69t-19 117v498h144zM197 900h144l78 -144h-106l-46 85l-48 -85h-100z"/>
<glyph glyph-name="Udieresis" horiz-adv-x="538" unicode="Ü" d="M185 714v-498q-1 -28 3 -50t14 -38t26 -26t41 -10q26 0 42 10q15 10 25 26t14 38t3 50v498h144v-498q0 -68 -19 -112t-51 -71q-32 -26 -73 -35t-85 -9t-85 8q-41 9 -73 33t-51 69t-19 117v498h144zM127 883h112v-118h-112v118zM299 883h112v-118h-112v118z"/>
<glyph glyph-name="Yacute" horiz-adv-x="520" unicode="Ý" d="M165 714l94 -276h2l100 276h156l-185 -433v-281h-144v281l-185 433h162zM249 900h138l-98 -144h-94z"/>
<glyph glyph-name="Thorn" horiz-adv-x="519" unicode="Þ" d="M50 714h144v-128h108q54 0 92 -18t61 -49t33 -69t10 -78q0 -55 -16 -96t-46 -67t-72 -39t-93 -13h-77v-157h-144v714zM194 263h64q44 0 70 26t26 81q0 54 -23 82t-77 28h-60v-217z"/>
<glyph glyph-name="germandbls" horiz-adv-x="500" unicode="ß" d="M41 0v527q-1 105 51 153t161 48q97 0 147 -43t50 -128q0 -28 -4 -50t-14 -40t-28 -32t-43 -25v-2q59 -10 85 -60t26 -132q0 -37 -6 -76q-6 -40 -26 -72t-55 -52t-92 -19q-17 0 -36 1t-30 2v92q9 -4 21 -4q27 0 44 10q16 10 26 29t13 46t3 61q0 55 -17 88t-63 33h-25v94 h17q36 1 51 27t15 68q0 18 -3 34t-11 28t-20 20t-32 8q-41 0 -54 -31t-13 -79v-524h-138z"/>
<glyph glyph-name="agrave" horiz-adv-x="481" unicode="à" d="M45 373v13q0 46 15 78q14 32 40 52t60 28t74 8q62 0 100 -12t59 -34t29 -52t7 -67v-283q-1 -38 3 -59t14 -45h-132q-6 14 -10 28t-7 28h-2q-23 -42 -55 -54t-82 -13q-36 1 -61 13t-40 34t-22 50t-7 54q0 38 8 66t24 46q16 20 42 33t62 23l78 21q31 8 43 22t12 41 q-1 30 -15 48t-49 18q-32 0 -48 -19t-16 -51v-15h-124zM297 269q-14 -11 -30 -17t-29 -10q-42 -9 -60 -30t-18 -57q0 -31 12 -53t40 -22q14 0 29 4t27 15q12 10 21 26q8 16 8 38v106zM212 601l-98 144h138l54 -144h-94z"/>
<glyph glyph-name="aacute" horiz-adv-x="481" unicode="á" d="M45 373v13q0 46 15 78q14 32 40 52t60 28t74 8q62 0 100 -12t59 -34t29 -52t7 -67v-283q-1 -38 3 -59t14 -45h-132q-6 14 -10 28t-7 28h-2q-23 -42 -55 -54t-82 -13q-36 1 -61 13t-40 34t-22 50t-7 54q0 38 8 66t24 46q16 20 42 33t62 23l78 21q31 8 43 22t12 41 q-1 30 -15 48t-49 18q-32 0 -48 -19t-16 -51v-15h-124zM297 269q-14 -11 -30 -17t-29 -10q-42 -9 -60 -30t-18 -57q0 -31 12 -53t40 -22q14 0 29 4t27 15q12 10 21 26q8 16 8 38v106zM230 745h138l-98 -144h-94z"/>
<glyph glyph-name="acircumflex" horiz-adv-x="481" unicode="â" d="M45 373v13q0 46 15 78q14 32 40 52t60 28t74 8q62 0 100 -12t59 -34t29 -52t7 -67v-283q-1 -38 3 -59t14 -45h-132q-6 14 -10 28t-7 28h-2q-23 -42 -55 -54t-82 -13q-36 1 -61 13t-40 34t-22 50t-7 54q0 38 8 66t24 46q16 20 42 33t62 23l78 21q31 8 43 22t12 41 q-1 30 -15 48t-49 18q-32 0 -48 -19t-16 -51v-15h-124zM297 269q-14 -11 -30 -17t-29 -10q-42 -9 -60 -30t-18 -57q0 -31 12 -53t40 -22q14 0 29 4t27 15q12 10 21 26q8 16 8 38v106zM169 745h144l78 -144h-106l-46 85l-48 -85h-100z"/>
<glyph glyph-name="atilde" horiz-adv-x="481" unicode="ã" d="M45 373v13q0 46 15 78q14 32 40 52t60 28t74 8q62 0 100 -12t59 -34t29 -52t7 -67v-283q-1 -38 3 -59t14 -45h-132q-6 14 -10 28t-7 28h-2q-23 -42 -55 -54t-82 -13q-36 1 -61 13t-40 34t-22 50t-7 54q0 38 8 66t24 46q16 20 42 33t62 23l78 21q31 8 43 22t12 41 q-1 30 -15 48t-49 18q-32 0 -48 -19t-16 -51v-15h-124zM297 269q-14 -11 -30 -17t-29 -10q-42 -9 -60 -30t-18 -57q0 -31 12 -53t40 -22q14 0 29 4t27 15q12 10 21 26q8 16 8 38v106zM84 610q8 60 32 92t61 32q28 0 43 -7l48 -21q15 -6 30 -6q14 0 21 13t7 23h72 q-5 -54 -30 -89t-63 -35q-16 0 -32 6q-15 6 -31 11t-30 11t-26 6q-24 0 -32 -36h-70z"/>
<glyph glyph-name="adieresis" horiz-adv-x="481" unicode="ä" d="M45 373v13q0 46 15 78q14 32 40 52t60 28t74 8q62 0 100 -12t59 -34t29 -52t7 -67v-283q-1 -38 3 -59t14 -45h-132q-6 14 -10 28t-7 28h-2q-23 -42 -55 -54t-82 -13q-36 1 -61 13t-40 34t-22 50t-7 54q0 38 8 66t24 46q16 20 42 33t62 23l78 21q31 8 43 22t12 41 q-1 30 -15 48t-49 18q-32 0 -48 -19t-16 -51v-15h-124zM297 269q-14 -11 -30 -17t-29 -10q-42 -9 -60 -30t-18 -57q0 -31 12 -53t40 -22q14 0 29 4t27 15q12 10 21 26q8 16 8 38v106zM99 728h112v-118h-112v118zM271 728h112v-118h-112v118z"/>
<glyph glyph-name="aring" horiz-adv-x="481" unicode="å" d="M45 373v13q0 46 15 78q14 32 40 52t60 28t74 8q62 0 100 -12t59 -34t29 -52t7 -67v-283q-1 -38 3 -59t14 -45h-132q-6 14 -10 28t-7 28h-2q-23 -42 -55 -54t-82 -13q-36 1 -61 13t-40 34t-22 50t-7 54q0 38 8 66t24 46q16 20 42 33t62 23l78 21q31 8 43 22t12 41 q-1 30 -15 48t-49 18q-32 0 -48 -19t-16 -51v-15h-124zM297 269q-14 -11 -30 -17t-29 -10q-42 -9 -60 -30t-18 -57q0 -31 12 -53t40 -22q14 0 29 4t27 15q12 10 21 26q8 16 8 38v106zM127 698q0 24 9 44q8 20 24 36t36 25t45 9t45 -9t36 -25t24 -36q9 -20 9 -44t-9 -44 q-8 -20 -24 -36t-36 -25t-45 -9t-45 9t-36 25t-24 36q-9 20 -9 44zM183 698q0 -24 17 -41t41 -17t41 17t17 41t-17 41t-41 17t-41 -17t-17 -41z"/>
<glyph glyph-name="ae" horiz-adv-x="722" unicode="æ" d="M296 269q-14 -11 -30 -17t-29 -10q-42 -9 -60 -30t-18 -57q0 -31 12 -53t40 -22q14 0 29 4q16 4 28 15q12 10 20 26t8 38v106zM563 330q-3 64 -15 96t-54 32q-20 0 -34 -10t-21 -24q-7 -16 -11 -35t-4 -38v-21h139zM44 373v13q0 46 15 78t41 52t60 28t73 8q53 0 85 -14 t54 -50q14 32 48 48t79 16q60 0 98 -20t60 -54q22 -36 30 -86t8 -113v-31h-271v-43q0 -25 4 -47t11 -40q9 -18 21 -28t31 -10q34 0 50 25t22 76h124q-5 -94 -51 -143t-143 -49q-37 1 -65 7t-46 19q-20 13 -32 29t-19 35q-15 -30 -33 -48t-38 -27t-46 -12q-25 -3 -57 -3 q-36 1 -61 13t-40 34t-22 50t-7 54q0 38 8 66q9 28 25 46q16 20 42 33t61 23l78 21q31 8 43 22t12 41q0 30 -14 48t-50 18q-32 0 -48 -19t-16 -51v-15h-124z"/>
<glyph glyph-name="ccedilla" horiz-adv-x="463" unicode="ç" d="M218 -11q-48 1 -84 15t-60 47t-36 86t-12 132q0 83 16 137t45 88q29 32 69 45t88 13q96 0 144 -56t49 -152h-132q-1 20 -3 39t-8 35t-19 24q-12 10 -32 10q-25 0 -41 -12t-24 -34t-11 -56t-3 -82q0 -50 3 -86t11 -58q8 -24 22 -34t38 -10q35 0 51 30t16 96h132 q0 -98 -38 -152t-126 -63l-31 -49l16 4t17 1q15 0 30 -5q15 -4 27 -14t20 -24t7 -31q-1 -45 -33 -69t-93 -25q-33 0 -61 6t-39 13l19 46q10 -6 30 -10t39 -5q21 0 35 10t15 24q0 15 -12 25t-32 9q-11 1 -19 -1t-15 -5l-22 20z"/>
<glyph glyph-name="egrave" horiz-adv-x="463" unicode="è" d="M164 248v-43q0 -25 4 -47t11 -40q8 -18 21 -28t32 -10q35 0 51 25t22 76h124q-4 -94 -50 -143t-145 -49q-75 0 -117 25t-62 66q-21 41 -25 92t-4 102q0 54 8 104t30 89t64 62t112 23q60 0 98 -20t61 -54q22 -36 30 -86t8 -113v-31h-273zM305 330q-1 30 -4 54t-11 40 t-20 26q-14 8 -35 8t-35 -10t-21 -24q-7 -16 -11 -35t-4 -38v-21h141zM203 601l-98 144h138l54 -144h-94z"/>
<glyph glyph-name="eacute" horiz-adv-x="463" unicode="é" d="M164 248v-43q0 -25 4 -47t11 -40q8 -18 21 -28t32 -10q35 0 51 25t22 76h124q-4 -94 -50 -143t-145 -49q-75 0 -117 25t-62 66q-21 41 -25 92t-4 102q0 54 8 104t30 89t64 62t112 23q60 0 98 -20t61 -54q22 -36 30 -86t8 -113v-31h-273zM305 330q-1 30 -4 54t-11 40 t-20 26q-14 8 -35 8t-35 -10t-21 -24q-7 -16 -11 -35t-4 -38v-21h141zM221 745h138l-98 -144h-94z"/>
<glyph glyph-name="ecircumflex" horiz-adv-x="463" unicode="ê" d="M164 248v-43q0 -25 4 -47t11 -40q8 -18 21 -28t32 -10q35 0 51 25t22 76h124q-4 -94 -50 -143t-145 -49q-75 0 -117 25t-62 66q-21 41 -25 92t-4 102q0 54 8 104t30 89t64 62t112 23q60 0 98 -20t61 -54q22 -36 30 -86t8 -113v-31h-273zM305 330q-1 30 -4 54t-11 40 t-20 26q-14 8 -35 8t-35 -10t-21 -24q-7 -16 -11 -35t-4 -38v-21h141zM160 745h144l78 -144h-106l-46 85l-48 -85h-100z"/>
<glyph glyph-name="edieresis" horiz-adv-x="463" unicode="ë" d="M164 248v-43q0 -25 4 -47t11 -40q8 -18 21 -28t32 -10q35 0 51 25t22 76h124q-4 -94 -50 -143t-145 -49q-75 0 -117 25t-62 66q-21 41 -25 92t-4 102q0 54 8 104t30 89t64 62t112 23q60 0 98 -20t61 -54q22 -36 30 -86t8 -113v-31h-273zM305 330q-1 30 -4 54t-11 40 t-20 26q-14 8 -35 8t-35 -10t-21 -24q-7 -16 -11 -35t-4 -38v-21h141zM90 728h112v-118h-112v118zM262 728h112v-118h-112v118z"/>
<glyph glyph-name="igrave" horiz-adv-x="240" unicode="ì" d="M51 538h138v-538h-138v538zM91 601l-95 144h135l54 -144h-94z"/>
<glyph glyph-name="iacute" horiz-adv-x="240" unicode="í" d="M51 538h138v-538h-138v538zM109 745h138l-98 -144h-94z"/>
<glyph glyph-name="icircumflex" horiz-adv-x="240" unicode="î" d="M51 538h138v-538h-138v538zM48 745h144l78 -144h-106l-46 85l-48 -85h-97z"/>
<glyph glyph-name="idieresis" horiz-adv-x="240" unicode="ï" d="M51 538h138v-538h-138v538zM-19 728h109v-118h-109v118zM150 728h112v-118h-112v118z"/>
<glyph glyph-name="eth" d="M166 262q0 -40 2 -74t10 -57t22 -37q15 -14 40 -14q42 0 58 42t16 140q0 92 -16 134t-58 42q-25 0 -40 -14q-14 -14 -22 -36q-8 -24 -10 -56t-2 -70zM66 625l76 45q-18 17 -34 33t-32 31l104 61q18 -15 34 -31t33 -32l75 45l43 -42l-77 -45q40 -44 70 -90t52 -96t32 -108 t10 -127t-11 -122t-36 -89t-65 -52q-40 -17 -100 -17h-7q-57 -1 -96 15q-41 16 -65 52t-34 90t-10 123q0 61 10 109t31 82t54 54q33 18 79 18q17 0 35 -6t35 -20l2 2q-18 30 -42 60t-50 60l-77 -45z" unicode="ð"/>
<glyph glyph-name="ntilde" horiz-adv-x="500" unicode="ñ" d="M46 538h132v-63h2q22 41 57 59t80 18q65 0 101 -36t36 -117v-399h-138v371q0 43 -14 59t-45 16q-73 0 -73 -89v-357h-138v538zM93 610q7 60 31 92t62 32q28 0 43 -7l48 -21q15 -6 30 -6q14 0 21 13t7 23h72q-5 -54 -30 -89t-63 -35q-16 0 -32 6t-32 11t-29 11 q-14 6 -26 6q-24 0 -32 -36h-70z"/>
<glyph glyph-name="ograve" d="M28 269q0 69 11 122t36 89t65 54t100 18h7q58 0 96 -16q41 -18 65 -54t34 -89t10 -124q0 -69 -11 -122t-36 -89t-65 -52q-40 -17 -100 -17h-7q-57 -1 -96 15q-41 16 -65 52t-34 90t-10 123zM166 269q0 -41 2 -76t10 -60t22 -39q15 -14 40 -14q42 0 58 44t16 145t-16 145 t-58 44q-25 0 -40 -14q-14 -14 -22 -39t-10 -60t-2 -76zM211 601l-98 144h138l54 -144h-94z" unicode="ò"/>
<glyph glyph-name="oacute" d="M28 269q0 69 11 122t36 89t65 54t100 18h7q58 0 96 -16q41 -18 65 -54t34 -89t10 -124q0 -69 -11 -122t-36 -89t-65 -52q-40 -17 -100 -17h-7q-57 -1 -96 15q-41 16 -65 52t-34 90t-10 123zM166 269q0 -41 2 -76t10 -60t22 -39q15 -14 40 -14q42 0 58 44t16 145t-16 145 t-58 44q-25 0 -40 -14q-14 -14 -22 -39t-10 -60t-2 -76zM229 745h138l-98 -144h-94z" unicode="ó"/>
<glyph glyph-name="ocircumflex" d="M28 269q0 69 11 122t36 89t65 54t100 18h7q58 0 96 -16q41 -18 65 -54t34 -89t10 -124q0 -69 -11 -122t-36 -89t-65 -52q-40 -17 -100 -17h-7q-57 -1 -96 15q-41 16 -65 52t-34 90t-10 123zM166 269q0 -41 2 -76t10 -60t22 -39q15 -14 40 -14q42 0 58 44t16 145t-16 145 t-58 44q-25 0 -40 -14q-14 -14 -22 -39t-10 -60t-2 -76zM168 745h144l78 -144h-106l-46 85l-48 -85h-100z" unicode="ô"/>
<glyph glyph-name="otilde" d="M28 269q0 69 11 122t36 89t65 54t100 18h7q58 0 96 -16q41 -18 65 -54t34 -89t10 -124q0 -69 -11 -122t-36 -89t-65 -52q-40 -17 -100 -17h-7q-57 -1 -96 15q-41 16 -65 52t-34 90t-10 123zM166 269q0 -41 2 -76t10 -60t22 -39q15 -14 40 -14q42 0 58 44t16 145t-16 145 t-58 44q-25 0 -40 -14q-14 -14 -22 -39t-10 -60t-2 -76zM83 610q7 60 31 92t62 32q28 0 43 -7l48 -21q15 -6 30 -6q14 0 21 13t7 23h72q-5 -54 -30 -89t-63 -35q-16 0 -32 6t-32 11t-29 11q-14 6 -26 6q-24 0 -32 -36h-70z" unicode="õ"/>
<glyph glyph-name="odieresis" d="M28 269q0 69 11 122t36 89t65 54t100 18h7q58 0 96 -16q41 -18 65 -54t34 -89t10 -124q0 -69 -11 -122t-36 -89t-65 -52q-40 -17 -100 -17h-7q-57 -1 -96 15q-41 16 -65 52t-34 90t-10 123zM166 269q0 -41 2 -76t10 -60t22 -39q15 -14 40 -14q42 0 58 44t16 145t-16 145 t-58 44q-25 0 -40 -14q-14 -14 -22 -39t-10 -60t-2 -76zM98 728h112v-118h-112v118zM270 728h112v-118h-112v118z" unicode="ö"/>
<glyph glyph-name="divide" horiz-adv-x="600" unicode="÷" d="M47 315h506v-124h-506v124zM203 465q-1 41 27 69t70 28t70 -28t27 -69q1 -41 -27 -69t-70 -28t-70 28t-27 69zM203 41q-1 41 27 69t70 28t70 -28t27 -69q1 -41 -27 -67t-70 -27q-42 1 -70 27t-27 67z"/>
<glyph glyph-name="oslash" d="M293 424q-16 34 -53 34q-25 0 -40 -14q-14 -14 -22 -39t-10 -60t-2 -76v-44v-21t2 -18h2zM186 113q17 -33 54 -33q42 0 58 44t16 145v45t-2 37h-2zM90 35q-34 34 -48 92t-14 142q0 69 11 122t36 89t65 54t100 18h6q63 0 103 -21l34 65l44 -23l-37 -70q34 -34 48 -92 t14 -142q0 -69 -11 -122t-36 -89t-65 -52q-40 -17 -100 -17h-12q-61 0 -97 18l-34 -62l-44 23z" unicode="ø"/>
<glyph glyph-name="ugrave" horiz-adv-x="500" unicode="ù" d="M322 63h-2q-22 -40 -57 -57t-80 -17q-65 1 -101 35t-36 115v399h138v-371q0 -43 14 -59t45 -16q73 0 73 89v357h138v-538h-132v63zM221 601l-98 144h138l54 -144h-94z"/>
<glyph glyph-name="uacute" horiz-adv-x="500" unicode="ú" d="M322 63h-2q-22 -40 -57 -57t-80 -17q-65 1 -101 35t-36 115v399h138v-371q0 -43 14 -59t45 -16q73 0 73 89v357h138v-538h-132v63zM239 745h138l-98 -144h-94z"/>
<glyph glyph-name="ucircumflex" horiz-adv-x="500" unicode="û" d="M322 63h-2q-22 -40 -57 -57t-80 -17q-65 1 -101 35t-36 115v399h138v-371q0 -43 14 -59t45 -16q73 0 73 89v357h138v-538h-132v63zM178 745h144l78 -144h-106l-46 85l-48 -85h-100z"/>
<glyph glyph-name="udieresis" horiz-adv-x="500" unicode="ü" d="M322 63h-2q-22 -40 -57 -57t-80 -17q-65 1 -101 35t-36 115v399h138v-371q0 -43 14 -59t45 -16q73 0 73 89v357h138v-538h-132v63zM108 728h112v-118h-112v118zM280 728h112v-118h-112v118z"/>
<glyph glyph-name="yacute" horiz-adv-x="444" unicode="ý" d="M46 -70q18 -3 36 -3q38 0 54 20t20 53l-151 538h144l80 -372h2l70 372h138l-130 -502q-19 -66 -35 -108t-38 -64t-54 -30q-32 -7 -80 -7h-56v103zM211 745h138l-98 -144h-94z"/>
<glyph glyph-name="thorn" horiz-adv-x="500" unicode="þ" d="M184 269q0 -89 14 -133t59 -44t59 44t13 133q1 89 -13 133t-59 44t-59 -44t-14 -133zM46 714h138v-233h2q18 39 46 55t70 16q85 0 125 -66t40 -217q0 -150 -40 -215t-125 -65q-38 1 -66 15t-50 46h-2v-223h-138v887z"/>
<glyph glyph-name="OE" horiz-adv-x="778" unicode="Œ" d="M748 596h-242v-168h227v-118h-227v-192h250v-118h-373v41h-2q-6 -13 -19 -23q-12 -10 -30 -16t-37 -10t-37 -3q-78 0 -123 31t-67 84t-28 121t-5 140q-1 69 7 135t31 116q23 52 65 82t113 30q38 0 75 -11t55 -41h2v38h365v-118zM179 357q0 -71 3 -121q4 -50 14 -83 t30 -47t52 -14t50 13t27 44t11 82t2 126t-2 126t-11 82t-27 44t-50 13t-52 -14t-30 -47t-14 -83q-3 -50 -3 -121z"/>
<glyph glyph-name="oe" horiz-adv-x="741" unicode="œ" d="M439 248v-43q-1 -25 3 -47t12 -40t21 -28t32 -10q35 0 51 25t22 76h124q-4 -94 -49 -143t-138 -49q-63 0 -96 23t-44 53q-14 -38 -55 -57t-93 -19q-59 1 -97 17t-61 52t-33 88q-10 53 -9 123q0 69 11 122t36 89q26 36 66 54t99 18q57 0 90 -18t53 -57q20 37 56 56t75 19 q61 0 99 -20t60 -54q22 -36 30 -86t8 -113v-31h-273zM243 80q41 0 57 44t15 145q0 101 -16 145t-58 44q-25 0 -40 -14t-23 -39t-9 -60q-2 -35 -2 -76t2 -76q1 -35 9 -60t24 -39t41 -14zM580 330q-1 30 -4 54q-2 24 -10 40t-22 26q-14 8 -34 8t-34 -10t-22 -24 q-8 -16 -12 -35t-3 -38v-21h141z"/>
<glyph glyph-name="Scaron" horiz-adv-x="519" unicode="Š" d="M166 223v-21q0 -26 4 -46t15 -34t29 -22t47 -8q33 0 59 22t27 66q-1 24 -7 42t-21 31t-39 25t-61 24q-48 16 -83 35q-34 19 -58 45t-35 58q-11 34 -11 78q0 106 59 158t162 52q49 0 89 -10t70 -34t46 -60t16 -88v-20h-138q0 50 -18 78t-60 28q-24 0 -40 -7t-26 -19 t-12 -26q-4 -15 -4 -31q0 -33 14 -55t60 -42l111 -48q41 -18 67 -38t42 -42t21 -49q6 -27 6 -60q1 -113 -65 -165t-183 -51q-123 0 -175 53t-52 152v29h144zM110 900h106l46 -85l48 85h100l-78 -144h-144z"/>
<glyph glyph-name="scaron" horiz-adv-x="444" unicode="š" d="M147 176v-18q1 -34 19 -56t53 -22q32 0 51 16t19 48q0 26 -15 40t-35 21l-97 35q-57 20 -86 56t-29 94q0 32 11 62t35 52q23 22 61 35t91 13q94 0 139 -40t45 -113v-22h-124q1 41 -13 61t-48 20q-26 0 -46 -14t-19 -44q1 -20 13 -36t47 -27l83 -28q65 -21 92 -57t27 -97 q0 -43 -15 -75q-16 -32 -42 -52q-26 -21 -62 -30t-81 -9q-59 0 -97 11t-60 33q-22 21 -32 53q-9 32 -9 71v19h124zM72 745h106l46 -85l48 85h100l-78 -144h-144z"/>
<glyph glyph-name="Ydieresis" horiz-adv-x="520" unicode="Ÿ" d="M165 714l94 -276h2l100 276h156l-185 -433v-281h-144v281l-185 433h162zM118 883h112v-118h-112v118zM290 883h112v-118h-112v118z"/>
<glyph glyph-name="circumflex" horiz-adv-x="222" unicode="ˆ" d="M39 745h144l78 -144h-106l-46 85l-48 -85h-97z"/>
<glyph glyph-name="tilde" horiz-adv-x="222" unicode="˜" d="M-43 610q8 60 30 92t60 32q28 0 43 -7l48 -21q15 -6 30 -6q14 0 21 13t7 23h72q-5 -54 -30 -89t-63 -35q-16 0 -32 6q-15 6 -31 11t-30 11t-26 6q-24 0 -32 -36h-67z"/>
<glyph glyph-name="dieresiscmb" horiz-adv-x="0" unicode="̈" d="M-248 728h110v-118h-110v118zM-78 728h111v-118h-111v118z"/>
<glyph glyph-name="uni030F" horiz-adv-x="0" unicode="̏" d="M49 745l52 -144h-92l-98 144h138zM-117 745l54 -144h-93l-98 144h137z"/>
<glyph glyph-name="pi" horiz-adv-x="657" unicode="π" d="M516 -8q-35 0 -57.5 10t-36 28t-19 43t-5.5 54v307h-150v-434h-138v434h-70v104h575v-104h-79v-275q0 -11 0.5 -22t4 -20t11 -14.5t21.5 -5.5q11 0 22 3.5t22 8.5v-94q-48 -23 -101 -23z"/>
<glyph glyph-name="uni0400" horiz-adv-x="481" unicode="Ѐ" d="M126 900h135l54 -144h-94zM50 714h399v-118h-255v-168h240v-118h-240v-192h265v-118h-409v714z"/>
<glyph glyph-name="afii10023" horiz-adv-x="481" unicode="Ё" d="M214 883v-118h-109v118h109zM386 883v-118h-112v118h112zM50 714h399v-118h-255v-168h240v-118h-240v-192h265v-118h-409v714z"/>
<glyph glyph-name="afii10051" horiz-adv-x="650" unicode="Ђ" d="M372 97q32 0 52 5t31 20t15 42.5t4 71.5q0 58 -15 87.5t-62 29.5q-35 0 -54 -14t-27.5 -36t-10 -48.5t-1.5 -50.5v-204h-143v596h-149v118h480v-118h-188v-216q7 13 20 26.5t31 24t41.5 17t52.5 6.5q82 0 126.5 -57t44.5 -160q0 -69 -10 -116t-36 -76.5t-71.5 -42.5 t-116.5 -13h-14v108z"/>
<glyph glyph-name="afii10052" horiz-adv-x="444" unicode="Ѓ" d="M358 900l-98 -144h-94l54 144h138zM54 714h381v-118h-237v-596h-144v714z"/>
<glyph glyph-name="afii10053" horiz-adv-x="537" unicode="Є" d="M268 -11q-81 0 -128 31t-70 82t-29 117t-6 135t5.5 136t29 120t72 85.5t134.5 32.5q61 0 103 -15.5t68.5 -45t38.5 -73.5t13 -101h-140q-2 69 -21.5 100t-61.5 31q-52 0 -72.5 -49t-23.5 -151h161v-116h-162q1 -54 5 -95t15 -68t29.5 -41t47.5 -14q46 0 66.5 37t21.5 130 h140q-1 -59 -11.5 -108t-36.5 -84.5t-71.5 -55.5t-116.5 -20z"/>
<glyph glyph-name="afii10054" horiz-adv-x="519" unicode="Ѕ" d="M249 -11q-122 0 -174.5 53t-52.5 152v29h144v-21q0 -25 4 -45.5t15 -34.5t29 -22t47 -8q33 0 59.5 21.5t26.5 66.5q0 24 -6.5 41.5t-21.5 31.5t-39.5 25.5t-60.5 23.5q-48 16 -83 35t-58.5 44.5t-34.5 59t-11 77.5q0 106 59 158t162 52q48 0 88.5 -10.5t70 -34t46 -60 t16.5 -87.5v-20h-138q0 51 -18 78.5t-60 27.5q-24 0 -40 -7t-25.5 -18.5t-13 -26.5t-3.5 -31q0 -33 14 -55.5t60 -41.5l111 -48q40 -18 66.5 -37.5t42 -42t21.5 -49.5t6 -60q0 -113 -65.5 -164.5t-182.5 -51.5z"/>
<glyph glyph-name="afii10055" horiz-adv-x="258" unicode="І" d="M57 714h144v-714h-144v714z"/>
<glyph glyph-name="afii10056" horiz-adv-x="258" unicode="Ї" d="M97 883v-118h-109v118h109zM269 883v-118h-112v118h112zM57 714h144v-714h-144v714z"/>
<glyph glyph-name="afii10057" horiz-adv-x="463" unicode="Ј" d="M204 -11q-57 0 -93.5 16t-58 44t-29.5 65.5t-8 80.5v31h132v-22q0 -57 12.5 -84.5t51.5 -27.5t51.5 27.5t12.5 84.5v510h144v-514q0 -114 -53 -162.5t-162 -48.5z"/>
<glyph glyph-name="afii10058" horiz-adv-x="859" unicode="Љ" d="M570 109q65 0 91.5 24.5t26.5 90.5q0 33 -7.5 54.5t-21.5 34t-35.5 17.5t-49.5 5h-44v-226h40zM62 -6q-14 0 -33.5 2t-28.5 4v123q5 -1 11.5 -1.5t8.5 -0.5q17 0 31.5 2.5t26 19t20 52.5t14 102t8.5 167.5t3 249.5h407v-270h76q55 0 97.5 -11.5t71.5 -37.5t44.5 -68 t15.5 -102q0 -61 -15.5 -104t-45 -70t-72 -39t-96.5 -12h-220v596h-127q0 -126 -3.5 -220t-11.5 -161t-22.5 -110t-36.5 -67.5t-52.5 -34t-70.5 -9.5z"/>
<glyph glyph-name="afii10059" horiz-adv-x="835" unicode="Њ" d="M546 109q65 0 91.5 24.5t26.5 90.5q0 33 -7.5 54t-21.5 33t-35.5 16.5t-49.5 4.5h-44v-223h40zM50 714h144v-273h168v273h144v-273h76q55 0 97.5 -11t71.5 -36.5t44.5 -67t15.5 -101.5q0 -61 -15.5 -104t-45 -70t-72 -39t-96.5 -12h-220v317h-168v-317h-144v714z"/>
<glyph glyph-name="afii10060" horiz-adv-x="646" unicode="Ћ" d="M161 596h-149v118h480v-118h-188v-158q22 5 45.5 7.5t46.5 2.5q109 0 159.5 -46.5t50.5 -146.5v-255h-144v242q0 29 -7.5 47t-20.5 28t-30 13.5t-36 3.5q-13 0 -30 -1.5t-34 -4.5v-328h-143v596z"/>
<glyph glyph-name="afii10061" horiz-adv-x="537" unicode="Ќ" d="M414 900l-98 -144h-94l54 144h138zM50 714h144v-286h2l182 286h156l-194 -306l216 -408h-162l-147 293l-53 -81v-212h-144v714z"/>
<glyph glyph-name="uni040D" horiz-adv-x="567" unicode="Ѝ" d="M149 900h135l54 -144h-94zM50 714h137v-458l175 458h155v-714h-137v457l-175 -457h-155v714z"/>
<glyph glyph-name="afii10062" horiz-adv-x="520" unicode="Ў" d="M267 759q-65 0 -101 37t-39 103h66q4 -30 24 -47t50 -17t50 17t24 47h66q-3 -66 -39 -103t-101 -37zM133 -4h-15h-12t-16 2q-8 0 -22 2v109q21 -3 42 -3q35 0 51 18t30 51l7 16l-196 523h160l105 -351l101 351h150l-171 -514q-17 -56 -35 -94t-41 -64q-23 -24 -56 -35 t-82 -11z"/>
<glyph glyph-name="afii10145" horiz-adv-x="556" unicode="Џ" d="M212 0h-162v714h144v-596h168v596h144v-714h-161v-141h-133v141z"/>
<glyph glyph-name="afii10017" horiz-adv-x="556" unicode="А" d="M348 269l-69 321h-2l-69 -321h140zM189 714h178l189 -714h-150l-33 151h-190l-33 -151h-150z"/>
<glyph glyph-name="afii10018" horiz-adv-x="550" unicode="Б" d="M245 110q31 0 53 5t36.5 18t21.5 35t7 57q0 61 -28.5 82.5t-85.5 21.5h-55v-219h51zM50 714h417v-118h-273v-157h88q54 0 96.5 -11t71.5 -36t44.5 -66.5t15.5 -101.5q0 -61 -16 -103.5t-47 -69.5t-75 -39t-101 -12h-221v714z"/>
<glyph glyph-name="afii10019" horiz-adv-x="556" unicode="В" d="M235 421q60 0 87.5 21.5t27.5 72.5t-25 72t-79 21h-52v-187h41zM250 106q52 0 84 23t32 85q0 31 -8.5 51.5t-23 33t-34.5 17.5t-44 5h-62v-215h56zM50 714h241q44 0 81.5 -9t64.5 -30t42 -56t15 -86q0 -58 -27 -99.5t-81 -56.5v-2q60 -8 95 -51t35 -115q0 -42 -11 -80 t-37.5 -66.5t-69 -45.5t-105.5 -17h-243v714z"/>
<glyph glyph-name="afii10020" horiz-adv-x="444" unicode="Г" d="M54 714h381v-118h-237v-596h-144v714z"/>
<glyph glyph-name="afii10021" horiz-adv-x="619" unicode="Д" d="M401 118v478h-135v-116q0 -42 -2.5 -90t-8.5 -96t-16.5 -93.5t-26.5 -82.5h189zM0 118h57q27 51 41.5 99.5t21 99.5t8 105.5t1.5 117.5v174h413v-596h67v-259h-133v141h-343v-141h-133v259z"/>
<glyph glyph-name="afii10022" horiz-adv-x="481" unicode="Е" d="M50 714h399v-118h-255v-168h240v-118h-240v-192h265v-118h-409v714z"/>
<glyph glyph-name="afii10024" horiz-adv-x="793" unicode="Ж" d="M188 412l-179 302h149l169 -293v293h139v-293l169 293h149l-179 -302l203 -412h-156l-132 287l-54 -89v-198h-139v198l-54 89l-132 -287h-156z"/>
<glyph glyph-name="afii10025" horiz-adv-x="534" unicode="З" d="M250 -11q-63 0 -106.5 13t-70.5 40.5t-39 69.5t-12 99v9h144v-7q0 -24 3 -45.5t13 -38.5t27 -27t46 -10q45 0 67.5 26.5t22.5 84.5q0 61 -24 86.5t-78 25.5h-21t-25 -1v112q5 -1 13.5 -1h13.5q59 0 84 26t25 86q0 46 -20 66t-55 20q-33 0 -56 -14.5t-28 -47.5 q-2 -11 -2.5 -19t-0.5 -22h-141v6q0 101 59 151.5t171 50.5q104 0 159.5 -48.5t55.5 -139.5q0 -26 -6.5 -52t-20 -48t-33.5 -38.5t-46 -23.5q59 -13 92 -53.5t33 -112.5q0 -114 -63.5 -168.5t-180.5 -54.5z"/>
<glyph glyph-name="afii10026" horiz-adv-x="567" unicode="И" d="M50 714h137v-458l175 458h155v-714h-137v457l-175 -457h-155v714z"/>
<glyph glyph-name="afii10027" horiz-adv-x="567" unicode="Й" d="M291 759q-65 0 -101 37t-39 103h66q4 -30 24 -47t50 -17t50 17t24 47h66q-3 -66 -39 -103t-101 -37zM50 0v714h137v-458l175 458h155v-714h-137v457l-175 -457h-155z"/>
<glyph glyph-name="afii10028" horiz-adv-x="537" unicode="К" d="M50 714h144v-286h2l182 286h156l-194 -306l216 -408h-162l-147 293l-53 -81v-212h-144v714z"/>
<glyph glyph-name="afii10029" horiz-adv-x="580" unicode="Л" d="M62 -6q-14 0 -33.5 2t-28.5 4v123q5 -1 11.5 -1.5t8.5 -0.5q17 0 31.5 2.5t26 19t20 52.5t14 102t8.5 167.5t3 249.5h407v-714h-144v596h-127q0 -126 -3.5 -220t-11.5 -161t-22.5 -110t-36.5 -67.5t-52.5 -34t-70.5 -9.5z"/>
<glyph glyph-name="afii10030" horiz-adv-x="740" unicode="М" d="M53 714h214l102 -504h2l103 504h213v-714h-132v570h-2l-127 -570h-112l-127 570h-2v-570h-132v714z"/>
<glyph glyph-name="afii10031" horiz-adv-x="556" unicode="Н" d="M50 714h144v-273h168v273h144v-714h-144v317h-168v-317h-144v714z"/>
<glyph glyph-name="afii10032" horiz-adv-x="556" unicode="О" d="M278 92q32 0 51.5 14.5t30 46t14 82t3.5 122.5t-3.5 122t-14 82t-30 46.5t-51.5 14.5t-51.5 -14.5t-30 -46.5t-14 -82t-3.5 -122t3.5 -122.5t14 -82t30 -46t51.5 -14.5zM278 -11q-81 0 -129 26.5t-73.5 75t-33 116t-7.5 150.5q0 81 7.5 149.5t33 117.5t73.5 76.5 t129 27.5t129 -27.5t73.5 -76.5t33 -117.5t7.5 -149.5q0 -83 -7.5 -150.5t-33 -116t-73.5 -75t-129 -26.5z"/>
<glyph glyph-name="afii10033" horiz-adv-x="556" unicode="П" d="M50 714h456v-714h-144v596h-168v-596h-144v714z"/>
<glyph glyph-name="afii10034" horiz-adv-x="519" unicode="Р" d="M258 391q43 0 69.5 26t26.5 81q0 54 -23 82t-77 28h-60v-217h64zM50 714h252q55 0 92.5 -18.5t60.5 -48.5t33 -68.5t10 -78.5q0 -56 -16.5 -96.5t-46 -66.5t-71.5 -39t-93 -13h-77v-285h-144v714z"/>
<glyph glyph-name="afii10035" horiz-adv-x="537" unicode="С" d="M278 -11q-81 0 -129 26.5t-73.5 75t-33 116t-7.5 150.5q0 81 7.5 149.5t33 117.5t73.5 76.5t129 27.5q77 0 121.5 -25t66.5 -63.5t27.5 -83t5.5 -83.5h-144q0 78 -18.5 113.5t-67.5 35.5q-27 0 -44.5 -14.5t-27.5 -47t-14 -85t-4 -128.5q0 -81 5.5 -131t17 -77.5t29 -37 t40.5 -9.5q19 0 35.5 6.5t28.5 26t19 55t7 93.5h144q0 -59 -9 -110.5t-33.5 -90t-69 -61t-115.5 -22.5z"/>
<glyph glyph-name="afii10036" d="M168 596h-156v118h456v-118h-156v-596h-144v596z" unicode="Т"/>
<glyph glyph-name="afii10037" horiz-adv-x="520" unicode="У" d="M133 -4h-15t-12.5 0.5t-15 1t-22.5 2.5v109q21 -3 42 -3q35 0 51 18t30 51l7 16l-196 523h160l105 -351l101 351h150l-171 -514q-18 -56 -35.5 -94.5t-40.5 -63t-56 -35.5t-82 -11z"/>
<glyph glyph-name="afii10038" horiz-adv-x="766" unicode="Ф" d="M450 194q72 0 105 46.5t33 121.5q0 37 -8 67t-25 51.5t-43 33.5t-62 12v-332zM316 526q-36 0 -62 -12t-43 -33.5t-25 -51.5t-8 -67q0 -75 33 -121.5t105 -46.5v332zM311 83q-134 0 -207.5 73.5t-73.5 205.5q0 63 19 113.5t55 86.5t88.5 55.5t118.5 19.5v91h144v-91 q66 0 118.5 -19.5t88.5 -55t55 -86.5t19 -114q0 -132 -73.5 -205.5t-207.5 -73.5v-94h-144v94z"/>
<glyph glyph-name="afii10039" horiz-adv-x="537" unicode="Х" d="M184 361l-164 353h159l92 -231l91 231h157l-166 -353l178 -361h-162l-103 242l-102 -242h-158z"/>
<glyph glyph-name="afii10040" horiz-adv-x="583" unicode="Ц" d="M440 0h-390v714h144v-596h168v596h144v-596h67v-259h-133v141z"/>
<glyph glyph-name="afii10041" horiz-adv-x="528" unicode="Ч" d="M334 278q-22 -5 -47 -7.5t-48 -2.5q-109 0 -159 46.5t-50 146.5v253h144v-240q0 -29 7.5 -47t20 -28t29.5 -13.5t36 -3.5q13 0 31.5 1.5t35.5 4.5v326h144v-714h-144v278z"/>
<glyph glyph-name="afii10042" horiz-adv-x="832" unicode="Ш" d="M50 714h144v-596h150v596h144v-596h150v596h144v-714h-732v714z"/>
<glyph glyph-name="afii10043" horiz-adv-x="859" unicode="Щ" d="M716 0h-666v714h144v-596h150v596h144v-596h150v596h144v-596h67v-259h-133v141z"/>
<glyph glyph-name="afii10044" horiz-adv-x="616" unicode="Ъ" d="M325 109q65 0 91.5 24.5t26.5 90.5q0 33 -7.5 54.5t-21.5 34t-35.5 17.5t-49.5 5h-44v-226h40zM141 596h-129v118h273v-270h76q55 0 97.5 -11.5t71.5 -37.5t44.5 -68t15.5 -102q0 -61 -15.5 -104t-45 -70t-72 -39t-96.5 -12h-220v596z"/>
<glyph glyph-name="afii10045" horiz-adv-x="752" unicode="Ы" d="M558 714h144v-714h-144v714zM234 109q65 0 91.5 24.5t26.5 90.5q0 33 -7.5 54.5t-21.5 34t-35.5 17.5t-49.5 5h-44v-226h40zM50 714h144v-270h76q55 0 97.5 -11.5t71.5 -37.5t44.5 -68t15.5 -102q0 -61 -15.5 -104t-45 -70t-72 -39t-96.5 -12h-220v714z"/>
<glyph glyph-name="afii10046" horiz-adv-x="523" unicode="Ь" d="M234 109q65 0 91.5 24.5t26.5 90.5q0 33 -7.5 54.5t-21.5 34t-35.5 17.5t-49.5 5h-44v-226h40zM50 714h144v-270h76q55 0 97.5 -11.5t71.5 -37.5t44.5 -68t15.5 -102q0 -61 -15.5 -104t-45 -70t-72 -39t-96.5 -12h-220v714z"/>
<glyph glyph-name="afii10047" horiz-adv-x="537" unicode="Э" d="M259 -11q-72 0 -116.5 20t-68.5 55.5t-32 84.5t-9 108h140q1 -93 21.5 -130t66.5 -37q29 0 47.5 14t29.5 41t15 68t5 95h-162v116h161q-3 102 -23.5 151t-72.5 49q-42 0 -61.5 -31t-21.5 -100h-140q1 57 13 101t38.5 73.5t68.5 45t103 15.5q86 0 134.5 -32.5t72 -85.5 t29 -120t5.5 -136t-5.5 -135t-29.5 -117t-73 -82t-135 -31z"/>
<glyph glyph-name="afii10048" horiz-adv-x="796" unicode="Ю" d="M518 92q32 0 51.5 14.5t30 46t14 82t3.5 122.5t-3.5 122t-14 82t-30 46.5t-51.5 14.5t-51.5 -14.5t-30 -46.5t-14 -82t-3.5 -122t3.5 -122.5t14 -82t30 -46t51.5 -14.5zM518 -11q-76 0 -123 23t-73 65.5t-36 102t-11 133.5h-81v-313h-144v714h144v-277h82q3 65 15 118.5 t38.5 92t72 59.5t116.5 21q81 0 129 -27.5t73.5 -76.5t33 -117.5t7.5 -149.5q0 -83 -7.5 -150.5t-33 -116t-73.5 -75t-129 -26.5z"/>
<glyph glyph-name="afii10049" horiz-adv-x="540" unicode="Я" d="M348 381v227h-57q-60 0 -87.5 -25.5t-27.5 -87.5q0 -65 27 -89.5t84 -24.5h61zM153 292q-58 21 -91 71t-33 132q0 58 16 99.5t45.5 68t71.5 39t93 12.5h235v-714h-143v275h-52l-136 -275h-159z"/>
<glyph glyph-name="afii10065" horiz-adv-x="481" unicode="а" d="M212 80q14 0 29 4.5t27.5 14.5t20.5 25.5t8 38.5v106q-14 -11 -30 -17.5t-29 -9.5q-42 -9 -60 -30t-18 -57q0 -31 12 -53t40 -22zM158 -11q-36 0 -61 13t-40 34.5t-22 48.5t-7 55q0 38 8 65.5t24.5 47t42 32.5t61.5 23l78 21q31 8 43 22t12 41q0 31 -14.5 48.5 t-49.5 17.5q-32 0 -48 -19t-16 -51v-15h-124v13q0 46 15 78t40.5 51.5t60 28t73.5 8.5q61 0 99.5 -12t59.5 -34t28.5 -52.5t7.5 -66.5v-283q0 -38 3.5 -59t13.5 -45h-132q-7 13 -10.5 27.5t-6.5 28.5h-2q-24 -42 -55.5 -54.5t-81.5 -12.5z"/>
<glyph glyph-name="afii10066" horiz-adv-x="486" unicode="б" d="M247 80q21 0 35 9t22.5 30.5t12 57t3.5 88.5q0 55 -4 90t-12 55.5t-22 28.5t-33 8q-20 0 -34 -8.5t-22.5 -30t-12.5 -57.5t-4 -91q0 -98 15 -139t56 -41zM241 -11q-69 0 -109.5 26t-61.5 71.5t-26.5 107.5t-5.5 133q0 67 7.5 131t29.5 116.5t60.5 88t100.5 44.5 q51 8 76 14t29 20h103q0 -42 -11 -68.5t-31.5 -41.5t-51 -22t-69.5 -11q-41 -4 -71 -13t-49.5 -27.5t-30.5 -48t-14 -75.5h4q9 27 25.5 46.5t36.5 32t43 18.5t46 6q54 0 90 -20.5t57.5 -56.5t30.5 -86t9 -110q0 -62 -9 -112.5t-33 -86.5t-66 -56t-109 -20z"/>
<glyph glyph-name="afii10067" horiz-adv-x="485" unicode="в" d="M216 324q19 0 35 1.5t27 7.5t17 17.5t6 32.5q0 20 -6 31.5t-17 17.5t-27 7.5t-36 1.5h-33v-117h34zM236 96q38 0 58 13.5t20 55.5q0 41 -18.5 55t-59.5 14h-54v-138h54zM46 538h227q35 0 65 -7t51.5 -23.5t33.5 -42.5t12 -63q0 -44 -20.5 -75.5t-62.5 -42.5 q99 -21 99 -131q0 -45 -13.5 -74.5t-38 -47t-58 -24.5t-72.5 -7h-223v538z"/>
<glyph glyph-name="afii10068" horiz-adv-x="382" unicode="г" d="M49 538h329v-104h-191v-434h-138v538z"/>
<glyph glyph-name="afii10069" horiz-adv-x="529" unicode="д" d="M326 104v330h-100v-48q0 -32 -3 -70t-9 -76t-14.5 -73.5t-19.5 -62.5h146zM0 104h45q25 54 38.5 128.5t13.5 184.5v121h363v-434h62v-229h-125v125h-272v-125h-125v229z"/>
<glyph glyph-name="afii10070" horiz-adv-x="463" unicode="е" d="M305 330q-1 31 -4 54.5t-10.5 40t-21 25t-34.5 8.5t-34.5 -9.5t-21.5 -25t-11.5 -34.5t-3.5 -38v-21h141zM234 -11q-75 0 -117 25.5t-62 66t-24.5 91.5t-4.5 102q0 54 7.5 104t30 89t64.5 62t112 23q60 0 98.5 -19.5t60.5 -55t30 -86t8 -112.5v-31h-273v-43 q0 -24 3.5 -46.5t11.5 -40t21 -28t32 -10.5q35 0 51 25t22 76h124q-4 -94 -49.5 -143t-145.5 -49z"/>
<glyph glyph-name="afii10072" horiz-adv-x="696" unicode="ж" d="M152 320l-143 218h140l133 -218v218h132v-218l133 218h140l-143 -218l155 -320h-141l-98 217l-46 -68v-149h-132v149l-46 68l-98 -217h-141z"/>
<glyph glyph-name="afii10073" horiz-adv-x="459" unicode="з" d="M221 -11q-94 0 -144.5 41.5t-50.5 137.5v10h123v-7q0 -44 16 -67.5t56 -23.5q30 0 48 20.5t18 55.5q0 42 -16 58.5t-51 16.5h-20.5t-26.5 -1v96q8 -1 23 -1h19q26 0 44.5 16.5t18.5 57.5q0 31 -16 46.5t-42 15.5q-35 0 -49 -20t-14 -54v-7h-122v9q0 45 14 76t39.5 50.5 t61 28t77.5 8.5q94 0 139 -38.5t45 -107.5q0 -20 -5 -39.5t-15 -36t-25 -28.5t-35 -18q45 -9 69.5 -40.5t24.5 -85.5q0 -43 -14.5 -75t-41.5 -53t-64.5 -31t-83.5 -10z"/>
<glyph glyph-name="afii10074" horiz-adv-x="514" unicode="и" d="M46 538h130v-339l146 339h146v-538h-131v337l-146 -337h-145v538z"/>
<glyph glyph-name="afii10075" horiz-adv-x="514" unicode="й" d="M251 604q-65 0 -101 37t-39 103h66q4 -30 24 -47t50 -17t50 17t24 47h66q-3 -66 -39 -103t-101 -37zM46 0v538h130v-339l146 339h146v-538h-131v337l-146 -337h-145z"/>
<glyph glyph-name="afii10076" horiz-adv-x="495" unicode="к" d="M46 538h138v-222l142 222h150l-154 -223l176 -315h-153l-108 208l-53 -74v-134h-138v538z"/>
<glyph glyph-name="afii10077" horiz-adv-x="525" unicode="л" d="M69 -8q-17 0 -37 2.5t-32 5.5v103q5 -1 12.5 -1.5t12.5 -0.5q14 0 25.5 3.5t20.5 18t15.5 42.5t11 76.5t6.5 121t2 175.5h373v-538h-138v434h-104q0 -147 -11 -234.5t-32 -133.5t-52.5 -60t-72.5 -14z"/>
<glyph glyph-name="afii10078" horiz-adv-x="654" unicode="м" d="M46 538h197l84 -360l84 360h197v-538h-129v382l-95 -382h-114l-95 382v-382h-129v538z"/>
<glyph glyph-name="afii10079" horiz-adv-x="500" unicode="н" d="M46 538h138v-199h132v199h138v-538h-138v229h-132v-229h-138v538z"/>
<glyph glyph-name="afii10080" d="M240 80q42 0 58 44t16 145t-16 145t-58 44q-26 0 -40.5 -14t-22 -39t-9.5 -60t-2 -76t2 -76t9.5 -60t22 -39t40.5 -14zM240 -11q-62 0 -103 17t-65 52t-34 87.5t-10 123.5q0 69 11 122t36 88.5t65.5 54t99.5 18.5q62 0 103 -18t65 -53t34 -88.5t10 -123.5t-11 -122.5 t-36 -87.5t-65.5 -52.5t-99.5 -17.5z" unicode="о"/>
<glyph glyph-name="afii10081" horiz-adv-x="500" unicode="п" d="M46 538h408v-538h-138v434h-132v-434h-138v538z"/>
<glyph glyph-name="afii10082" horiz-adv-x="500" unicode="р" d="M257 92q45 0 58.5 44.5t13.5 132.5t-13.5 132.5t-58.5 44.5q-46 0 -59.5 -44.5t-13.5 -132.5t13.5 -132.5t59.5 -44.5zM46 538h132v-57h2q23 38 51.5 54.5t70.5 16.5q85 0 125 -66.5t40 -216.5t-40 -215t-125 -65q-39 0 -66.5 14.5t-49.5 46.5h-2v-223h-138v711z"/>
<glyph glyph-name="afii10083" horiz-adv-x="463" unicode="с" d="M232 -11q-52 0 -90.5 13t-64 45t-38.5 86t-13 136q0 83 16 137.5t45 87t69 45.5t88 13q96 0 144.5 -56t48.5 -152h-132q0 19 -2.5 38.5t-9 35t-19 25t-31.5 9.5q-26 0 -41.5 -11.5t-23.5 -34t-11 -57.5t-3 -81q0 -50 3 -85.5t11 -58.5t22.5 -33.5t37.5 -10.5q35 0 51 30 t16 96h132q0 -106 -47.5 -161.5t-157.5 -55.5z"/>
<glyph glyph-name="afii10084" horiz-adv-x="419" unicode="т" d="M141 434h-137v104h411v-104h-137v-434h-137v434z"/>
<glyph glyph-name="afii10085" horiz-adv-x="444" unicode="у" d="M46 -173v103q18 -3 36 -3q38 0 54.5 20t19.5 53l-151 538h144l80 -372h2l70 372h138l-130 -502q-18 -68 -34.5 -109t-39 -63t-54 -29.5t-79.5 -7.5h-56z"/>
<glyph glyph-name="afii10086" horiz-adv-x="732" unicode="ф" d="M490 92q24 0 38 12.5t21.5 35.5t9.5 55.5t2 71.5t-1.5 71.5t-8.5 56.5t-20.5 37t-37.5 13q-23 0 -37.5 -13t-22.5 -36v-257q8 -25 22.5 -36t34.5 -11zM242 92q20 0 34.5 11t22.5 36v257q-8 23 -22.5 36t-37.5 13q-24 0 -37.5 -13t-20.5 -37t-8.5 -56.5t-1.5 -71.5 t2 -71.5t9.5 -55.5t21.5 -35.5t38 -12.5zM297 42q-20 -27 -42.5 -40t-60.5 -13q-59 0 -91.5 29t-48 72.5t-18.5 94t-3 94.5q0 42 4 90t20 88t48 66.5t88 26.5q37 0 61.5 -14t42.5 -40v218h138v-218q18 26 42.5 40t61.5 14q56 0 88 -26.5t48 -66.5t20 -88t4 -90 q0 -44 -3 -94.5t-18.5 -94t-48 -72.5t-91.5 -29q-38 0 -60.5 13t-42.5 40v-215h-138v215z"/>
<glyph glyph-name="afii10087" horiz-adv-x="462" unicode="х" d="M153 277l-140 261h144l74 -162l74 162h144l-140 -261l146 -277h-144l-80 176l-80 -176h-144z"/>
<glyph glyph-name="afii10088" horiz-adv-x="523" unicode="ц" d="M391 0h-345v538h138v-434h132v434h138v-434h62v-229h-125v125z"/>
<glyph glyph-name="afii10089" horiz-adv-x="478" unicode="ч" d="M292 205q-11 -2 -35 -6t-56 -4q-86 0 -127 38t-41 116v189h137v-185q0 -37 17 -47.5t43 -10.5q20 0 37 3t25 5v235h138v-538h-138v205z"/>
<glyph glyph-name="afii10090" horiz-adv-x="736" unicode="ш" d="M46 538h138v-434h115v434h138v-434h115v434h138v-538h-644v538z"/>
<glyph glyph-name="afii10091" horiz-adv-x="759" unicode="щ" d="M627 0h-581v538h138v-434h115v434h138v-434h115v434h138v-434h62v-229h-125v125z"/>
<glyph glyph-name="afii10092" horiz-adv-x="530" unicode="ъ" d="M296 103q42 0 59 16t17 58q0 43 -17.5 59t-55.5 16h-49v-149h46zM112 434h-108v104h246v-183h72q42 0 76 -9t58 -30t37 -54t13 -81q0 -96 -47.5 -138.5t-132.5 -42.5h-214v434z"/>
<glyph glyph-name="afii10093" horiz-adv-x="670" unicode="ы" d="M486 538h138v-538h-138v538zM230 103q42 0 59 16t17 58q0 43 -17.5 59t-55.5 16h-49v-149h46zM46 538h138v-183h72q42 0 76 -9t58 -30t37 -54t13 -81q0 -96 -47.5 -138.5t-132.5 -42.5h-214v538z"/>
<glyph glyph-name="afii10094" horiz-adv-x="464" unicode="ь" d="M230 103q42 0 59 16t17 58q0 43 -17.5 59t-55.5 16h-49v-149h46zM46 538h138v-183h72q42 0 76 -9t58 -30t37 -54t13 -81q0 -96 -47.5 -138.5t-132.5 -42.5h-214v538z"/>
<glyph glyph-name="afii10095" horiz-adv-x="463" unicode="э" d="M223 -11q-53 0 -90 12t-60.5 35.5t-34.5 59t-12 82.5h128q3 -53 19.5 -75.5t48.5 -22.5q43 0 59 38t18 112h-131v95h131q-4 75 -21.5 104t-55.5 29q-19 0 -31 -7.5t-19.5 -19.5t-10.5 -27.5t-4 -31.5h-131q6 89 53 134.5t141 45.5q67 0 109.5 -20.5t65.5 -57.5t31.5 -90 t8.5 -117q0 -60 -10 -111t-34 -88t-65 -58t-103 -21z"/>
<glyph glyph-name="afii10096" horiz-adv-x="696" unicode="ю" d="M456 80q42 0 58 44t16 145t-16 145t-58 44q-26 0 -40.5 -14t-22 -39t-9.5 -60t-2 -76t2 -76t9.5 -60t22 -39t40.5 -14zM456 -11q-57 0 -96.5 14.5t-64 44.5t-36.5 75t-14 106h-61v-229h-138v538h138v-203h62q10 106 58.5 161.5t151.5 55.5q62 0 103 -18t65 -53t34 -88.5 t10 -123.5t-11 -122.5t-36 -87.5t-65.5 -52.5t-99.5 -17.5z"/>
<glyph glyph-name="afii10097" d="M298 297v142h-56q-41 0 -61 -17t-20 -55t18 -54t56 -16h63zM127 213q-47 17 -73.5 55t-26.5 99q0 89 49.5 130t130.5 41h227v-538h-137v199h-38l-98 -199h-158z" unicode="я"/>
<glyph glyph-name="uni0450" horiz-adv-x="463" unicode="ѐ" d="M107 745h135l54 -144h-94zM305 330q-1 31 -4 54.5t-10.5 40t-21 25t-34.5 8.5t-34.5 -9.5t-21.5 -25t-11.5 -34.5t-3.5 -38v-21h141zM234 -11q-75 0 -117 25.5t-62 66t-24.5 91.5t-4.5 102q0 54 7.5 104t30 89t64.5 62t112 23q60 0 98.5 -19.5t60.5 -55t30 -86t8 -112.5 v-31h-273v-43q0 -24 3.5 -46.5t11.5 -40t21 -28t32 -10.5q35 0 51 25t22 76h124q-4 -94 -49.5 -143t-145.5 -49z"/>
<glyph glyph-name="afii10071" horiz-adv-x="463" unicode="ё" d="M205 728v-118h-109v118h109zM377 728v-118h-112v118h112zM305 330q-1 31 -4 54.5t-10.5 40t-21 25t-34.5 8.5t-34.5 -9.5t-21.5 -25t-11.5 -34.5t-3.5 -38v-21h141zM234 -11q-75 0 -117 25.5t-62 66t-24.5 91.5t-4.5 102q0 54 7.5 104t30 89t64.5 62t112 23 q60 0 98.5 -19.5t60.5 -55t30 -86t8 -112.5v-31h-273v-43q0 -24 3.5 -46.5t11.5 -40t21 -28t32 -10.5q35 0 51 25t22 76h124q-4 -94 -49.5 -143t-145.5 -49z"/>
<glyph glyph-name="afii10099" horiz-adv-x="500" unicode="ђ" d="M269 -173q-6 0 -15 0.5t-19 1t-18 1t-11 1.5v98q8 -1 17.5 -1.5t15.5 -0.5q21 0 36 6t24 21.5t13 43.5t4 72v237q0 42 -14 58.5t-45 16.5q-73 0 -73 -89v-293h-138v536h-60v94h60v84h138v-84h150v-94h-150v-117h2q40 69 131 69q66 0 101.5 -36t35.5 -117v-261 q0 -56 -6 -101.5t-25.5 -77.5t-56 -50t-97.5 -18z"/>
<glyph glyph-name="afii10100" horiz-adv-x="382" unicode="ѓ" d="M337 745l-98 -144h-94l54 144h138zM49 538h329v-104h-191v-434h-138v538z"/>
<glyph glyph-name="afii10101" horiz-adv-x="463" unicode="є" d="M239 -11q-62 0 -103 17.5t-65 52t-34 86.5t-10 122q0 64 10 117t35 90t66.5 57.5t103.5 20.5q94 0 141 -47.5t53 -132.5h-131q-1 16 -4 31.5t-10.5 27.5t-19.5 19.5t-31 7.5q-38 0 -55.5 -29t-21.5 -104h131v-95h-131q2 -74 18 -112t59 -38q32 0 48.5 22.5t19.5 75.5h128 q-2 -93 -50 -141t-147 -48z"/>
<glyph glyph-name="afii10102" horiz-adv-x="444" unicode="ѕ" d="M221 -11q-59 0 -97 11.5t-60.5 33t-31.5 52.5t-9 71v19h124v-18q0 -35 18.5 -56.5t53.5 -21.5q32 0 51 16t19 48q0 26 -15 39.5t-35 21.5l-97 35q-57 20 -86 56.5t-29 93.5q0 33 11 62.5t35 51.5t61.5 35t90.5 13q94 0 139 -40t45 -113v-22h-124q0 42 -13.5 61.5 t-47.5 19.5q-26 0 -45.5 -14.5t-19.5 -43.5q0 -20 12.5 -36t47.5 -27l83 -28q65 -22 92 -57.5t27 -96.5q0 -44 -15 -75t-41.5 -51.5t-63.5 -30t-80 -9.5z"/>
<glyph glyph-name="afii10103" horiz-adv-x="240" unicode="і" d="M51 722h138v-118h-138v118zM51 538h138v-538h-138v538z"/>
<glyph glyph-name="afii10104" horiz-adv-x="240" unicode="ї" d="M189 538v-538h-138v538h138zM88 728v-118h-109v118h109zM260 728v-118h-112v118h112z"/>
<glyph glyph-name="afii10105" horiz-adv-x="240" unicode="ј" d="M51 722h138v-118h-138v118zM31 -173q-12 0 -25 0.5t-28 1.5v100q8 -2 22 -2q34 0 42.5 20.5t8.5 62.5v528h138v-572q0 -34 -7.5 -60t-25.5 -43.5t-48.5 -26.5t-76.5 -9z"/>
<glyph glyph-name="afii10106" horiz-adv-x="759" unicode="љ" d="M525 103q42 0 59 16t17 58q0 43 -17.5 59t-55.5 16h-49v-149h46zM69 -8q-17 0 -37 2.5t-32 5.5v103q5 -1 12.5 -1.5t12.5 -0.5q14 0 25.5 3.5t20.5 18t15.5 42.5t11 76.5t6.5 121t2 175.5h373v-183h72q42 0 76 -9t58 -30t37 -54t13 -81q0 -96 -47.5 -138.5t-132.5 -42.5 h-214v434h-104q0 -147 -11 -234.5t-32 -133.5t-52.5 -60t-72.5 -14z"/>
<glyph glyph-name="afii10107" horiz-adv-x="734" unicode="њ" d="M507 103q39 0 54 17t15 54q0 38 -15.5 53t-50.5 15h-56v-139h53zM46 538h138v-199h132v199h138v-199h79q41 0 74 -8.5t56 -28t35 -51t12 -77.5q0 -93 -45.5 -133.5t-127.5 -40.5h-221v231h-132v-231h-138v538z"/>
<glyph glyph-name="afii10108" horiz-adv-x="500" unicode="ћ" d="M46 536h-60v94h60v84h138v-84h150v-94h-150v-117h2q40 69 131 69q66 0 101.5 -36t35.5 -117v-335h-138v307q0 42 -14 58.5t-45 16.5q-73 0 -73 -89v-293h-138v536z"/>
<glyph glyph-name="afii10109" horiz-adv-x="495" unicode="ќ" d="M363 745l-98 -144h-94l54 144h138zM46 538h138v-222l142 222h150l-154 -223l176 -315h-153l-108 208l-53 -74v-134h-138v538z"/>
<glyph glyph-name="uni045D" horiz-adv-x="514" unicode="ѝ" d="M132 745h135l54 -144h-94zM46 538h130v-339l146 339h146v-538h-131v337l-146 -337h-145v538z"/>
<glyph glyph-name="afii10110" horiz-adv-x="444" unicode="ў" d="M230 604q-66 0 -102 37t-38 103h66q4 -30 24 -47t50 -17t50 17t24 47h66q-2 -66 -38 -103t-102 -37zM102 -173h-56v103q18 -3 36 -3q38 0 54 20t20 53l-151 538h144l80 -372h2l70 372h138l-130 -502q-19 -68 -35 -109t-38 -63t-54 -30t-80 -7z"/>
<glyph glyph-name="afii10193" horiz-adv-x="500" unicode="џ" d="M187 0h-141v538h138v-434h132v434h138v-538h-142v-125h-125v125z"/>
<glyph glyph-name="afii10146" horiz-adv-x="584" unicode="Ѣ" d="M295 109q65 0 91.5 24.5t26.5 90.5q0 33 -7.5 54.5t-21.5 34t-35.5 17.5t-49.5 5h-44v-226h40zM111 526h-111v105h111v83h144v-83h171v-105h-171v-82h76q55 0 97.5 -11.5t71.5 -37.5t44.5 -68t15.5 -102q0 -61 -15.5 -104t-45 -70t-72 -39t-96.5 -12h-220v526z"/>
<glyph glyph-name="afii10194" horiz-adv-x="502" unicode="ѣ" d="M268 103q42 0 59 16t17 58q0 43 -17.5 59t-55.5 16h-49v-149h46zM84 444h-84v94h84v176h138v-176h137v-94h-137v-89h72q42 0 76 -9t58 -30t37 -54t13 -81q0 -96 -47.5 -138.5t-132.5 -42.5h-214v444z"/>
<glyph glyph-name="uni046A" horiz-adv-x="824" unicode="Ѫ" d="M413 445l66 161h-130l62 -161h2zM46 232q0 100 50.5 146.5t159.5 46.5h41l-142 289h514l-142 -289h41q109 0 159.5 -46.5t50.5 -146.5v-232h-144v219q0 29 -7.5 47t-20.5 28t-30 13.5t-36 3.5h-56v-311h-144v311h-56q-19 0 -36 -3.5t-30 -13.5t-20.5 -28t-7.5 -47v-219 h-144v232z"/>
<glyph glyph-name="uni046B" horiz-adv-x="728" unicode="ѫ" d="M412 444h-88l41 -118zM42 159q0 78 41 116t127 38h51l-114 225h436l-114 -225h49q86 0 127 -38t41 -116v-159h-137v155q0 37 -17 47.5t-43 10.5h-56v-213h-138v213h-56q-26 0 -43 -10.5t-17 -47.5v-155h-137v159z"/>
<glyph glyph-name="afii10147" horiz-adv-x="556" unicode="Ѳ" d="M334 392q23 0 42 17q-1 57 -5.5 97.5t-15.5 66t-29.5 37.5t-47.5 12q-28 0 -46.5 -11t-29.5 -35t-16.5 -62t-6.5 -92q9 11 19 18t21 7q14 0 30.5 -8.5t32 -19t29.5 -19t23 -8.5zM278 92q29 0 48 12t29.5 38.5t15 68.5t5.5 102q-10 -13 -20.5 -21t-21.5 -8 q-14 0 -29.5 8.5t-31.5 19t-30.5 19t-26.5 8.5q-10 0 -19.5 -6t-17.5 -16q1 -61 5.5 -103.5t15.5 -69.5t29.5 -39.5t48.5 -12.5zM278 -11q-81 0 -129 26.5t-73.5 75t-33 116t-7.5 150.5q0 81 7.5 149.5t33 117.5t73.5 76.5t129 27.5t129 -27.5t73.5 -76.5t33 -117.5 t7.5 -149.5q0 -83 -7.5 -150.5t-33 -116t-73.5 -75t-129 -26.5z"/>
<glyph glyph-name="afii10195" d="M280 291q17 0 33 28q-4 74 -20.5 106.5t-52.5 32.5q-23 0 -37 -11.5t-22 -31.5t-11 -48.5t-4 -62.5q8 14 17 23.5t20 9.5q12 0 22.5 -7t20.5 -16t18.5 -16t15.5 -7zM240 80q39 0 55.5 37t18.5 123q-9 -15 -19.5 -25.5t-22.5 -10.5q-11 0 -20.5 7t-18.5 16t-18 16t-18 7 t-16.5 -8.5t-14.5 -19.5q1 -32 4.5 -58t12 -45t22 -29t35.5 -10zM240 -11q-62 0 -103 17t-65 52t-34 87.5t-10 123.5q0 69 11 122t36 88.5t65.5 54t99.5 18.5q62 0 103 -18t65 -53t34 -88.5t10 -123.5t-11 -122.5t-36 -87.5t-65.5 -52.5t-99.5 -17.5z" unicode="ѳ"/>
<glyph glyph-name="afii10148" horiz-adv-x="544" unicode="Ѵ" d="M3 714h154l96 -528h3l63 371q8 49 23 80.5t36.5 50t49.5 25.5t64 7q14 0 33.5 -2t28.5 -4v-123q-5 1 -11.5 1.5t-8.5 0.5q-13 0 -24.5 -1t-21 -7.5t-17.5 -20t-13 -38.5l-111 -526h-185z"/>
<glyph glyph-name="afii10196" horiz-adv-x="459" unicode="ѵ" d="M5 538h144l72 -385h2l45 264q7 41 20 66.5t30.5 39.5t39.5 18.5t48 4.5q17 0 37 -2.5t32 -5.5v-103q-5 1 -12.5 1.5t-12.5 0.5q-20 0 -35 -8t-23 -42l-93 -387h-160z"/>
<glyph glyph-name="Izhitsadblgravecyrillic" horiz-adv-x="544" unicode="Ѷ" d="M3 714h154l96 -528h3l63 371q8 49 23 80.5t36.5 50t49.5 25.5t64 7q14 0 33.5 -2t28.5 -4v-123q-5 1 -11.5 1.5t-8.5 0.5q-13 0 -24.5 -1t-21 -7.5t-17.5 -20t-13 -38.5l-111 -526h-185zM403 914l52 -144h-92l-98 144h138zM237 914l54 -144h-93l-98 144h137z"/>
<glyph glyph-name="izhitsadblgravecyrillic" horiz-adv-x="459" unicode="ѷ" d="M5 538h144l72 -385h2l45 264q7 41 20 66.5t30.5 39.5t39.5 18.5t48 4.5q17 0 37 -2.5t32 -5.5v-103q-5 1 -12.5 1.5t-12.5 0.5q-20 0 -35 -8t-23 -42l-93 -387h-160zM365 743l52 -144h-92l-98 144h138zM199 743l54 -144h-93l-98 144h137z"/>
<glyph glyph-name="uni048C" horiz-adv-x="584" unicode="Ҍ" d="M295 109q65 0 91.5 24.5t26.5 90.5q0 33 -7.5 54.5t-21.5 34t-35.5 17.5t-49.5 5h-44v-226h40zM111 609h-111v105h111v106h144v-106h121v-105h-121v-165h76q55 0 97.5 -11.5t71.5 -37.5t44.5 -68t15.5 -102q0 -61 -15.5 -104t-45 -70t-72 -39t-96.5 -12h-220v609z"/>
<glyph glyph-name="uni048D" horiz-adv-x="502" unicode="ҍ" d="M268 103q42 0 59 16t17 58q0 43 -17.5 59t-55.5 16h-49v-149h46zM84 422h-90v94h90v109h138v-109h117v-94h-117v-67h72q42 0 76 -9t58 -30t37 -54t13 -81q0 -96 -47.5 -138.5t-132.5 -42.5h-214v422z"/>
<glyph glyph-name="afii10050" horiz-adv-x="444" unicode="Ґ" d="M54 714h248v139h133v-257h-237v-596h-144v714z"/>
<glyph glyph-name="afii10098" horiz-adv-x="382" unicode="ґ" d="M49 538h204v144h125v-248h-191v-434h-138v538z"/>
<glyph glyph-name="uni0492" horiz-adv-x="490" unicode="Ғ" d="M100 310h-95v118h95v286h381v-118h-237v-168h166v-118h-166v-310h-144v310z"/>
<glyph glyph-name="uni0493" horiz-adv-x="410" unicode="ғ" d="M77 225h-73v104h73v209h329v-104h-191v-105h129v-104h-129v-225h-138v225z"/>
<glyph glyph-name="uni0496" horiz-adv-x="817" unicode="Җ" d="M684 0h-32l-132 287l-54 -89v-198h-139v198l-54 89l-132 -287h-156l203 412l-179 302h149l169 -293v293h139v-293l169 293h149l-179 -302l145 -294h67v-259h-133v141z"/>
<glyph glyph-name="uni0497" horiz-adv-x="706" unicode="җ" d="M586 0h-28l-98 217l-46 -68v-149h-132v149l-46 68l-98 -217h-141l155 320l-143 218h140l133 -218v218h132v-218l133 218h140l-143 -218l105 -216h62v-229h-125v125z"/>
<glyph glyph-name="uni0498" horiz-adv-x="534" unicode="Ҙ" d="M240 -221q-33 0 -60.5 6t-39.5 13l19 46q11 -6 30.5 -10.5t38.5 -4.5q21 0 35.5 10t14.5 24q0 15 -12 24.5t-32 9.5q-11 0 -18.5 -1.5t-15.5 -4.5l-22 20l48 79q-48 2 -83 12q-43 13 -70 40.5t-39 69.5t-12 99v9h144v-7q0 -24 3 -45.5t13 -38.5t27 -27t46 -10 q45 0 67.5 26.5t22.5 84.5q0 61 -24 86.5t-78 25.5h-21q-15 0 -25 -1v112q5 -1 13 -1h14q59 0 84 26t25 86q0 46 -20 66t-55 20q-33 0 -56 -14.5t-28 -47.5q-2 -11 -2.5 -19t-0.5 -22h-141v6q0 101 59 151.5t171 50.5q104 0 159.5 -48.5t55.5 -139.5q0 -26 -6.5 -52t-20 -48 t-33.5 -38.5t-46 -23.5q59 -13 92 -53.5t33 -112.5q0 -114 -64 -169q-55 -46 -150 -53l-31 -48q9 2 16.5 3.5t16.5 1.5q15 0 30 -5t27 -14.5t19.5 -23t7.5 -31.5q0 -45 -32.5 -69.5t-93.5 -24.5z"/>
<glyph glyph-name="uni0499" horiz-adv-x="459" unicode="ҙ" d="M210 -221q-33 0 -60.5 6t-39.5 13l19 46q11 -6 30.5 -10.5t38.5 -4.5q21 0 35.5 10t14.5 24q0 15 -12 24.5t-32 9.5q-11 0 -18.5 -1.5t-15.5 -4.5l-22 20l48 79q-76 5 -120 40q-50 42 -50 138v10h123v-7q0 -44 16 -67.5t56 -23.5q30 0 48 20.5t18 55.5q0 42 -16 58.5 t-51 16.5h-21q-15 0 -26 -1v96q8 -1 23 -1h19q26 0 44.5 16.5t18.5 57.5q0 31 -16 46.5t-42 15.5q-35 0 -49 -20t-14 -54v-7h-122v9q0 45 14 76t39.5 50.5t61 28t77.5 8.5q94 0 139 -38.5t45 -107.5q0 -20 -5 -39.5t-15 -36t-25 -28.5t-35 -18q45 -9 69.5 -40.5t24.5 -85.5 q0 -43 -14.5 -75t-41.5 -53t-65 -31q-25 -6 -54 -9l-31 -48q9 2 16.5 3.5t16.5 1.5q15 0 30 -5t27 -14.5t19.5 -23t7.5 -31.5q0 -45 -32.5 -69.5t-93.5 -24.5z"/>
<glyph glyph-name="uni049A" horiz-adv-x="551" unicode="Қ" d="M428 0h-34l-147 293l-53 -81v-212h-144v714h144v-286h2l182 286h156l-194 -306l154 -290h67v-259h-133v141z"/>
<glyph glyph-name="uni049B" horiz-adv-x="502" unicode="қ" d="M377 0h-32l-108 208l-53 -74v-134h-138v538h138v-222l142 222h150l-154 -223l118 -211h62v-229h-125v125z"/>
<glyph glyph-name="uni049C" horiz-adv-x="581" unicode="Ҝ" d="M50 714h144v-273h34v132h60v-132h7l145 273h149l-188 -328l200 -386h-162l-150 317h-1v-144h-60v144h-34v-317h-144v714z"/>
<glyph glyph-name="uni049D" horiz-adv-x="542" unicode="ҝ" d="M46 538h138v-199h30v96h50v-96h4l116 199h150l-155 -241l166 -297h-164l-114 229h-3v-109h-50v109h-30v-229h-138v538z"/>
<glyph glyph-name="uni04A0" horiz-adv-x="628" unicode="Ҡ" d="M141 596h-129v118h273v-286h2l182 286h156l-194 -306l216 -408h-162l-147 293l-53 -81v-212h-144v596z"/>
<glyph glyph-name="uni04A1" horiz-adv-x="561" unicode="ҡ" d="M112 434h-108v104h246v-222l142 222h150l-154 -223l176 -315h-153l-108 208l-53 -74v-134h-138v434z"/>
<glyph glyph-name="uni04A2" horiz-adv-x="556" unicode="Ң" d="M440 0h-78v317h-168v-317h-144v714h144v-273h168v273h144v-596h67v-259h-133v141z"/>
<glyph glyph-name="uni04A3" horiz-adv-x="500" unicode="ң" d="M391 0h-75v229h-132v-229h-138v538h138v-199h132v199h138v-434h62v-229h-125v125z"/>
<glyph glyph-name="uni04A4" horiz-adv-x="752" unicode="Ҥ" d="M50 714h144v-273h168v273h381v-118h-237v-596h-144v317h-168v-317h-144v714z"/>
<glyph glyph-name="uni04A5" horiz-adv-x="649" unicode="ҥ" d="M46 538h138v-199h132v199h329v-104h-191v-434h-138v229h-132v-229h-138v538z"/>
<glyph glyph-name="uni04AA" horiz-adv-x="537" unicode="Ҫ" d="M255 -221q-33 0 -60.5 6t-39.5 13l19 46q11 -6 30.5 -10.5t38.5 -4.5q21 0 35.5 10t14.5 24q0 15 -12 24.5t-32 9.5q-11 0 -18.5 -1.5t-15.5 -4.5l-22 20l49 80q-56 4 -93 24q-48 27 -73.5 75.5t-33 116t-7.5 150.5q0 81 7.5 149.5t33 117.5t73.5 76.5t129 27.5 q77 0 121.5 -25t66.5 -63.5t27.5 -83t5.5 -83.5h-144q0 78 -18.5 113.5t-67.5 35.5q-27 0 -44.5 -14.5t-27.5 -47t-14 -85t-4 -128.5q0 -81 5.5 -131t17 -77.5t29 -37t40.5 -9.5q19 0 35.5 6.5t28.5 26t19 55t7 93.5h144q0 -59 -9 -110.5t-33.5 -90t-69.5 -61.5 q-39 -19 -98 -22l-31 -47q9 2 16.5 3.5t16.5 1.5q15 0 30 -5t27 -14.5t19.5 -23t7.5 -31.5q0 -45 -32.5 -69.5t-93.5 -24.5z"/>
<glyph glyph-name="uni04AB" horiz-adv-x="463" unicode="ҫ" d="M216 -221q-33 0 -60.5 6t-39.5 13l19 46q11 -6 30.5 -10.5t38.5 -4.5q21 0 35.5 10t14.5 24q0 15 -12 24.5t-32 9.5q-11 0 -18.5 -1.5t-15.5 -4.5l-22 20l49 79q-34 3 -62 12q-38 13 -63.5 45t-38.5 86t-13 136q0 83 16 137.5t45 87t69 45.5t88 13q96 0 144.5 -56 t48.5 -152h-132q0 19 -2.5 38.5t-9 35t-19 25t-31.5 9.5q-26 0 -41.5 -11.5t-23.5 -34t-11 -57.5t-3 -81q0 -50 3 -85.5t11 -58.5t22.5 -33.5t37.5 -10.5q35 0 51 30t16 96h132q0 -106 -48 -162q-42 -49 -133 -54l-31 -48q9 2 16.5 3.5t16.5 1.5q15 0 30 -5t27 -14.5 t19.5 -23t7.5 -31.5q0 -45 -32.5 -69.5t-93.5 -24.5z"/>
<glyph glyph-name="uni04AE" horiz-adv-x="520" unicode="Ү" d="M188 281l-185 433h162l94 -276h2l100 276h156l-185 -433v-281h-144v281z"/>
<glyph glyph-name="uni04AF" horiz-adv-x="444" unicode="ү" d="M155 13l-150 525h144l77 -367h2l73 367h138l-146 -525v-186h-138v186z"/>
<glyph glyph-name="uni04B0" horiz-adv-x="520" unicode="Ұ" d="M188 134h-115v105h115v42l-185 433h162l94 -276h2l100 276h156l-185 -433v-42h113v-105h-113v-134h-144v134z"/>
<glyph glyph-name="uni04B1" horiz-adv-x="444" unicode="ұ" d="M155 -103h-85v95h85v21l-150 525h144l77 -367h2l73 367h138l-146 -525v-21h86v-95h-86v-70h-138v70z"/>
<glyph glyph-name="uni04B2" horiz-adv-x="537" unicode="Ҳ" d="M407 0h-38l-103 242l-102 -242h-158l178 361l-164 353h159l92 -231l91 231h157l-166 -353l120 -243h67v-259h-133v141z"/>
<glyph glyph-name="uni04B3" horiz-adv-x="462" unicode="ҳ" d="M337 0h-26l-80 176l-80 -176h-144l146 277l-140 261h144l74 -162l74 162h144l-140 -261l91 -173h62v-229h-125v125z"/>
<glyph glyph-name="uni04B6" horiz-adv-x="555" unicode="Ҷ" d="M412 0h-78v278q-22 -5 -47 -7.5t-48 -2.5q-109 0 -159 46.5t-50 146.5v253h144v-240q0 -29 7.5 -47t20 -28t29.5 -13.5t36 -3.5q13 0 31.5 1.5t35.5 4.5v326h144v-596h67v-259h-133v141z"/>
<glyph glyph-name="uni04B7" horiz-adv-x="499" unicode="ҷ" d="M367 0h-75v205q-11 -2 -35 -6t-56 -4q-86 0 -127 38t-41 116v189h137v-185q0 -37 17 -47.5t43 -10.5q20 0 37 3t25 5v235h138v-434h62v-229h-125v125z"/>
<glyph glyph-name="uni04B8" horiz-adv-x="538" unicode="Ҹ" d="M344 278q-11 -2 -23.5 -4t-26.5 -3v-148h-60v145q-107 1 -155.5 47t-48.5 146v253h144v-240q0 -45 17 -64.5t43 -24.5v138h60v-141q12 1 25.5 2.5t24.5 3.5v326h144v-714h-144v278z"/>
<glyph glyph-name="uni04B9" horiz-adv-x="496" unicode="ҹ" d="M312 205q-5 -2 -17 -3t-27 -3v-109h-50v105h-17q-86 0 -127 38t-41 116v189h137v-185q0 -32 13 -44t35 -14v110h50v-108q14 2 26.5 3.5t17.5 2.5v235h138v-538h-138v205z"/>
<glyph glyph-name="uni04BA" horiz-adv-x="528" unicode="Һ" d="M50 714h144v-268q22 5 47 7.5t48 2.5q109 0 159 -46.5t50 -146.5v-263h-144v250q0 29 -7.5 47t-20 28t-29.5 13.5t-36 3.5q-13 0 -31.5 -1.5t-35.5 -4.5v-336h-144v714z"/>
<glyph glyph-name="uni04BB" horiz-adv-x="500" unicode="һ" d="M46 714h138v-231h2q40 69 131 69q66 0 101.5 -36t35.5 -117v-399h-138v371q0 42 -14 58.5t-45 16.5q-73 0 -73 -89v-357h-138v714z"/>
<glyph glyph-name="uni04C0" horiz-adv-x="258" unicode="Ӏ" d="M57 714h144v-714h-144v714z"/>
<glyph glyph-name="uni04C1" horiz-adv-x="793" unicode="Ӂ" d="M396 759q-66 0 -102 37t-38 103h66q4 -30 24 -47t50 -17t50 17t24 47h66q-2 -66 -38 -103t-102 -37zM-15 0l203 412l-179 302h149l169 -293v293h139v-293l169 293h149l-179 -302l203 -412h-156l-132 287l-54 -89v-198h-139v198l-54 89l-132 -287h-156z"/>
<glyph glyph-name="uni04C2" horiz-adv-x="696" unicode="ӂ" d="M346 604q-66 0 -102 37t-38 103h66q4 -30 24 -47t50 -17t50 17t24 47h66q-2 -66 -38 -103t-102 -37zM-3 0l155 320l-143 218h140l133 -218v218h132v-218l133 218h140l-143 -218l155 -320h-141l-98 217l-46 -68v-149h-132v149l-46 68l-98 -217h-141z"/>
<glyph glyph-name="uni04D0" horiz-adv-x="556" unicode="Ӑ" d="M202 900q3 -29 24 -47t50 -18t50 18t24 47h65q0 -20 -6.5 -44.5t-22.5 -46t-43 -36t-67 -14.5t-67 14.5t-41.5 36t-21 46t-6.5 44.5h62zM348 269l-69 321h-2l-69 -321h140zM189 714h178l189 -714h-150l-33 151h-190l-33 -151h-150z"/>
<glyph glyph-name="uni04D1" horiz-adv-x="481" unicode="ӑ" d="M165 745q3 -29 24 -47t50 -18t50 18t24 47h65q0 -20 -6.5 -44.5t-22.5 -46t-43 -36t-67 -14.5t-67 14.5t-41.5 36t-21 46t-6.5 44.5h62zM212 80q14 0 29 4.5t27.5 14.5t20.5 25.5t8 38.5v106q-14 -11 -30 -17.5t-29 -9.5q-42 -9 -60 -30t-18 -57q0 -31 12 -53t40 -22z M158 -11q-36 0 -61 13t-40 34.5t-22 48.5t-7 55q0 38 8 65.5t24.5 47t42 32.5t61.5 23l78 21q31 8 43 22t12 41q0 31 -14.5 48.5t-49.5 17.5q-32 0 -48 -19t-16 -51v-15h-124v13q0 46 15 78t40.5 51.5t60 28t73.5 8.5q61 0 99.5 -12t59.5 -34t28.5 -52.5t7.5 -66.5v-283 q0 -38 3.5 -59t13.5 -45h-132q-7 13 -10.5 27.5t-6.5 28.5h-2q-24 -42 -55.5 -54.5t-81.5 -12.5z"/>
<glyph glyph-name="uni04D2" horiz-adv-x="556" unicode="Ӓ" d="M246 883v-118h-109v118h109zM418 883v-118h-112v118h112zM348 269l-69 321h-2l-69 -321h140zM189 714h178l189 -714h-150l-33 151h-190l-33 -151h-150z"/>
<glyph glyph-name="uni04D3" horiz-adv-x="481" unicode="ӓ" d="M209 728v-118h-109v118h109zM381 728v-118h-112v118h112zM212 80q14 0 29 4.5t27.5 14.5t20.5 25.5t8 38.5v106q-14 -11 -30 -17.5t-29 -9.5q-42 -9 -60 -30t-18 -57q0 -31 12 -53t40 -22zM158 -11q-36 0 -61 13t-40 34.5t-22 48.5t-7 55q0 38 8 65.5t24.5 47t42 32.5 t61.5 23l78 21q31 8 43 22t12 41q0 31 -14.5 48.5t-49.5 17.5q-32 0 -48 -19t-16 -51v-15h-124v13q0 46 15 78t40.5 51.5t60 28t73.5 8.5q61 0 99.5 -12t59.5 -34t28.5 -52.5t7.5 -66.5v-283q0 -38 3.5 -59t13.5 -45h-132q-7 13 -10.5 27.5t-6.5 28.5h-2 q-24 -42 -55.5 -54.5t-81.5 -12.5z"/>
<glyph glyph-name="uni04D4" horiz-adv-x="759" unicode="Ӕ" d="M354 269v333h-9l-111 -333h120zM264 714h463v-118h-235v-168h220v-118h-220v-192h245v-118h-383v151h-159l-50 -151h-147z"/>
<glyph glyph-name="uni04D5" horiz-adv-x="722" unicode="ӕ" d="M563 330q-2 63 -14.5 95.5t-54.5 32.5q-20 0 -33.5 -9.5t-21.5 -25t-11.5 -34.5t-3.5 -38v-21h139zM211 80q14 0 29 4.5t27.5 14.5t20.5 25.5t8 38.5v106q-14 -11 -30 -17.5t-29 -9.5q-42 -9 -60 -30t-18 -57q0 -31 12 -53t40 -22zM157 -11q-36 0 -61 13t-40 34.5 t-22 48.5t-7 55q0 38 8 65.5t24.5 47t42 32.5t61.5 23l78 21q31 8 43 22t12 41q0 31 -14.5 48.5t-49.5 17.5q-32 0 -48 -19t-16 -51v-15h-124v13q0 46 15 78t40.5 51.5t60 28t73.5 8.5q54 0 85.5 -13.5t53.5 -50.5q15 31 48.5 47.5t78.5 16.5q60 0 98 -19.5t60 -55t30 -86 t8 -112.5v-31h-271v-43q0 -24 3.5 -46.5t11.5 -40t20.5 -28t31.5 -10.5q34 0 50 25t22 76h124q-4 -94 -50.5 -143t-143.5 -49q-74 0 -111 26t-51 64q-16 -30 -33.5 -48t-38 -27t-45.5 -12t-57 -3z"/>
<glyph glyph-name="uni04D6" horiz-adv-x="481" unicode="Ӗ" d="M261 759q-65 0 -101 37t-39 103h66q4 -30 24 -47t50 -17t50 17t24 47h66q-3 -66 -39 -103t-101 -37zM50 0v714h399v-118h-255v-168h240v-118h-240v-192h265v-118h-409z"/>
<glyph glyph-name="uni04D7" horiz-adv-x="463" unicode="ӗ" d="M156 745q3 -29 24 -47t50 -18t50 18t24 47h65q0 -20 -6.5 -44.5t-22.5 -46t-43 -36t-67 -14.5t-67 14.5t-41.5 36t-21 46t-6.5 44.5h62zM305 330q-1 31 -4 54.5t-10.5 40t-21 25t-34.5 8.5t-34.5 -9.5t-21.5 -25t-11.5 -34.5t-3.5 -38v-21h141zM234 -11q-75 0 -117 25.5 t-62 66t-24.5 91.5t-4.5 102q0 54 7.5 104t30 89t64.5 62t112 23q60 0 98.5 -19.5t60.5 -55t30 -86t8 -112.5v-31h-273v-43q0 -24 3.5 -46.5t11.5 -40t21 -28t32 -10.5q35 0 51 25t22 76h124q-4 -94 -49.5 -143t-145.5 -49z"/>
<glyph glyph-name="uni04D8" horiz-adv-x="549" unicode="Ә" d="M271 90q29 0 47.5 12t29.5 38.5t15.5 67.5t5.5 100h-190q1 -59 4.5 -100t13.5 -67.5t27.5 -38.5t46.5 -12zM271 -11q-75 0 -121.5 26t-72 71.5t-34 107.5t-8.5 134v45.5t2 45.5h332q-2 53 -7 91.5t-16 64t-29 37.5t-46 12q-45 0 -63 -31.5t-25 -97.5h-143q6 53 19.5 96 t39.5 73.5t67.5 47t104.5 16.5q81 0 129 -27.5t73.5 -76.5t33 -117.5t7.5 -149.5q0 -83 -7.5 -150.5t-33 -116t-73.5 -75t-129 -26.5z"/>
<glyph glyph-name="afii10846" horiz-adv-x="467" unicode="ә" d="M230 84q21 0 34.5 9.5t21.5 25t11.5 34.5t3.5 38v21h-141q1 -31 4 -54.5t10.5 -40t21 -25t34.5 -8.5zM225 -10q-60 0 -98.5 19.5t-60.5 55t-30 86t-8 112.5v31h273v43q0 24 -3.5 46.5t-11.5 40t-21 28t-32 10.5q-35 0 -51 -25t-22 -76h-124q4 94 49.5 143t145.5 49 q75 0 117 -25.5t62 -66t24.5 -91.5t4.5 -102q0 -54 -7.5 -104t-30 -89t-64.5 -62t-112 -23z"/>
<glyph glyph-name="Schwadieresiscyrillic" horiz-adv-x="549" unicode="Ӛ" d="M271 90q29 0 47.5 12t29.5 38.5t15.5 67.5t5.5 100h-190q1 -59 4.5 -100t13.5 -67.5t27.5 -38.5t46.5 -12zM271 -11q-75 0 -121.5 26t-72 71.5t-34 107.5t-8.5 134v45.5t2 45.5h332q-2 53 -7 91.5t-16 64t-29 37.5t-46 12q-45 0 -63 -31.5t-25 -97.5h-143q6 53 19.5 96 t39.5 73.5t67.5 47t104.5 16.5q81 0 129 -27.5t73.5 -76.5t33 -117.5t7.5 -149.5q0 -83 -7.5 -150.5t-33 -116t-73.5 -75t-129 -26.5zM133 896h110v-118h-110v118zM303 896h111v-118h-111v118z"/>
<glyph glyph-name="schwadieresiscyrillic" horiz-adv-x="467" unicode="ӛ" d="M230 84q21 0 34.5 9.5t21.5 25t11.5 34.5t3.5 38v21h-141q1 -31 4 -54.5t10.5 -40t21 -25t34.5 -8.5zM225 -10q-60 0 -98.5 19.5t-60.5 55t-30 86t-8 112.5v31h273v43q0 24 -3.5 46.5t-11.5 40t-21 28t-32 10.5q-35 0 -51 -25t-22 -76h-124q4 94 49.5 143t145.5 49 q75 0 117 -25.5t62 -66t24.5 -91.5t4.5 -102q0 -54 -7.5 -104t-30 -89t-64.5 -62t-112 -23zM92 726h110v-118h-110v118zM262 726h111v-118h-111v118z"/>
<glyph glyph-name="uni04DC" horiz-adv-x="793" unicode="Ӝ" d="M365 883v-118h-109v118h109zM537 883v-118h-112v118h112zM188 412l-179 302h149l169 -293v293h139v-293l169 293h149l-179 -302l203 -412h-156l-132 287l-54 -89v-198h-139v198l-54 89l-132 -287h-156z"/>
<glyph glyph-name="uni04DD" horiz-adv-x="696" unicode="ӝ" d="M316 728v-118h-109v118h109zM488 728v-118h-112v118h112zM152 320l-143 218h140l133 -218v218h132v-218l133 218h140l-143 -218l155 -320h-141l-98 217l-46 -68v-149h-132v149l-46 68l-98 -217h-141z"/>
<glyph glyph-name="uni04DE" horiz-adv-x="534" unicode="Ӟ" d="M235 883v-118h-109v118h109zM407 883v-118h-112v118h112zM250 -11q-63 0 -106.5 13t-70.5 40.5t-39 69.5t-12 99v9h144v-7q0 -24 3 -45.5t13 -38.5t27 -27t46 -10q45 0 67.5 26.5t22.5 84.5q0 61 -24 86.5t-78 25.5h-21t-25 -1v112q5 -1 13.5 -1h13.5q59 0 84 26t25 86 q0 46 -20 66t-55 20q-33 0 -56 -14.5t-28 -47.5q-2 -11 -2.5 -19t-0.5 -22h-141v6q0 101 59 151.5t171 50.5q104 0 159.5 -48.5t55.5 -139.5q0 -26 -6.5 -52t-20 -48t-33.5 -38.5t-46 -23.5q59 -13 92 -53.5t33 -112.5q0 -114 -63.5 -168.5t-180.5 -54.5z"/>
<glyph glyph-name="uni04DF" horiz-adv-x="459" unicode="ӟ" d="M198 728v-118h-109v118h109zM370 728v-118h-112v118h112zM221 -11q-94 0 -144.5 41.5t-50.5 137.5v10h123v-7q0 -44 16 -67.5t56 -23.5q30 0 48 20.5t18 55.5q0 42 -16 58.5t-51 16.5h-20.5t-26.5 -1v96q8 -1 23 -1h19q26 0 44.5 16.5t18.5 57.5q0 31 -16 46.5t-42 15.5 q-35 0 -49 -20t-14 -54v-7h-122v9q0 45 14 76t39.5 50.5t61 28t77.5 8.5q94 0 139 -38.5t45 -107.5q0 -20 -5 -39.5t-15 -36t-25 -28.5t-35 -18q45 -9 69.5 -40.5t24.5 -85.5q0 -43 -14.5 -75t-41.5 -53t-64.5 -31t-83.5 -10z"/>
<glyph glyph-name="uni04E2" horiz-adv-x="567" unicode="Ӣ" d="M429 793h-291v76h291v-76zM50 714h137v-458l175 458h155v-714h-137v457l-175 -457h-155v714z"/>
<glyph glyph-name="uni04E3" horiz-adv-x="514" unicode="ӣ" d="M402 638h-291v76h291v-76zM46 538h130v-339l146 339h146v-538h-131v337l-146 -337h-145v538z"/>
<glyph glyph-name="uni04E4" horiz-adv-x="567" unicode="Ӥ" d="M252 883v-118h-109v118h109zM424 883v-118h-112v118h112zM50 714h137v-458l175 458h155v-714h-137v457l-175 -457h-155v714z"/>
<glyph glyph-name="uni04E5" horiz-adv-x="514" unicode="ӥ" d="M225 728v-118h-109v118h109zM397 728v-118h-112v118h112zM46 538h130v-339l146 339h146v-538h-131v337l-146 -337h-145v538z"/>
<glyph glyph-name="uni04E6" horiz-adv-x="556" unicode="Ӧ" d="M246 883v-118h-109v118h109zM418 883v-118h-112v118h112zM278 92q32 0 51.5 14.5t30 46t14 82t3.5 122.5t-3.5 122t-14 82t-30 46.5t-51.5 14.5t-51.5 -14.5t-30 -46.5t-14 -82t-3.5 -122t3.5 -122.5t14 -82t30 -46t51.5 -14.5zM278 -11q-81 0 -129 26.5t-73.5 75 t-33 116t-7.5 150.5q0 81 7.5 149.5t33 117.5t73.5 76.5t129 27.5t129 -27.5t73.5 -76.5t33 -117.5t7.5 -149.5q0 -83 -7.5 -150.5t-33 -116t-73.5 -75t-129 -26.5z"/>
<glyph glyph-name="uni04E7" d="M208 728v-118h-109v118h109zM380 728v-118h-112v118h112zM240 80q42 0 58 44t16 145t-16 145t-58 44q-26 0 -40.5 -14t-22 -39t-9.5 -60t-2 -76t2 -76t9.5 -60t22 -39t40.5 -14zM240 -11q-62 0 -103 17t-65 52t-34 87.5t-10 123.5q0 69 11 122t36 88.5t65.5 54t99.5 18.5 q62 0 103 -18t65 -53t34 -88.5t10 -123.5t-11 -122.5t-36 -87.5t-65.5 -52.5t-99.5 -17.5z" unicode="ӧ"/>
<glyph glyph-name="uni04E8" horiz-adv-x="556" unicode="Ө" d="M376 423q-3 106 -23 152.5t-75 46.5q-28 0 -46.5 -11t-29.5 -35t-16 -62t-6 -91h196zM278 92q29 0 48 12t29.5 39t15 69.5t5.5 102.5h-197q1 -60 5.5 -102.5t15.5 -69.5t29.5 -39t48.5 -12zM278 -11q-81 0 -129 26.5t-73.5 75t-33 116t-7.5 150.5q0 81 7.5 149.5 t33 117.5t73.5 76.5t129 27.5t129 -27.5t73.5 -76.5t33 -117.5t7.5 -149.5q0 -83 -7.5 -150.5t-33 -116t-73.5 -75t-129 -26.5z"/>
<glyph glyph-name="uni04E9" d="M312 325q-4 71 -20.5 102t-51.5 31q-42 0 -56.5 -36.5t-16.5 -96.5h145zM240 80q38 0 54.5 35.5t18.5 118.5h-147q1 -35 4 -63t11 -48.5t22 -31.5t37 -11zM240 -11q-62 0 -103 17t-65 52t-34 87.5t-10 123.5q0 69 11 122t36 88.5t65.5 54t99.5 18.5q62 0 103 -18t65 -53 t34 -88.5t10 -123.5t-11 -122.5t-36 -87.5t-65.5 -52.5t-99.5 -17.5z" unicode="ө"/>
<glyph glyph-name="Obarreddieresiscyrillic" horiz-adv-x="556" unicode="Ӫ" d="M376 423q-3 106 -23 152.5t-75 46.5q-28 0 -46.5 -11t-29.5 -35t-16 -62t-6 -91h196zM278 92q29 0 48 12t29.5 39t15 69.5t5.5 102.5h-197q1 -60 5.5 -102.5t15.5 -69.5t29.5 -39t48.5 -12zM278 -11q-81 0 -129 26.5t-73.5 75t-33 116t-7.5 150.5q0 81 7.5 149.5 t33 117.5t73.5 76.5t129 27.5t129 -27.5t73.5 -76.5t33 -117.5t7.5 -149.5q0 -83 -7.5 -150.5t-33 -116t-73.5 -75t-129 -26.5zM137 896h110v-118h-110v118zM307 896h111v-118h-111v118z"/>
<glyph glyph-name="obarreddieresiscyrillic" d="M312 325q-4 71 -20.5 102t-51.5 31q-42 0 -56.5 -36.5t-16.5 -96.5h145zM240 80q38 0 54.5 35.5t18.5 118.5h-147q1 -35 4 -63t11 -48.5t22 -31.5t37 -11zM240 -11q-62 0 -103 17t-65 52t-34 87.5t-10 123.5q0 69 11 122t36 88.5t65.5 54t99.5 18.5q62 0 103 -18t65 -53 t34 -88.5t10 -123.5t-11 -122.5t-36 -87.5t-65.5 -52.5t-99.5 -17.5zM99 725h110v-118h-110v118zM269 725h111v-118h-111v118z" unicode="ӫ"/>
<glyph glyph-name="uni04EC" horiz-adv-x="537" unicode="Ӭ" d="M259 -11q-72 0 -116.5 20t-68.5 55.5t-32 84.5t-9 108h140q1 -93 21.5 -130t66.5 -37q29 0 47.5 14t29.5 41t15 68t5 95h-162v116h161q-3 102 -23.5 151t-72.5 49q-42 0 -61.5 -31t-21.5 -100h-140q1 57 13 101t38.5 73.5t68.5 45t103 15.5q86 0 134.5 -32.5t72 -85.5 t29 -120t5.5 -136t-5.5 -135t-29.5 -117t-73 -82t-135 -31zM126 896h110v-118h-110v118zM296 896h111v-118h-111v118z"/>
<glyph glyph-name="uni04ED" horiz-adv-x="463" unicode="ӭ" d="M223 -11q-53 0 -90 12t-60.5 35.5t-34.5 59t-12 82.5h128q3 -53 19.5 -75.5t48.5 -22.5q43 0 59 38t18 112h-131v95h131q-4 75 -21.5 104t-55.5 29q-19 0 -31 -7.5t-19.5 -19.5t-10.5 -27.5t-4 -31.5h-131q6 89 53 134.5t141 45.5q67 0 109.5 -20.5t65.5 -57.5t31.5 -90 t8.5 -117q0 -60 -10 -111t-34 -88t-65 -58t-103 -21zM89 725h110v-118h-110v118zM259 725h111v-118h-111v118z"/>
<glyph glyph-name="uni04EE" horiz-adv-x="520" unicode="Ӯ" d="M405 793h-291v76h291v-76zM133 -4h-15t-12.5 0.5t-15 1t-22.5 2.5v109q21 -3 42 -3q35 0 51 18t30 51l7 16l-196 523h160l105 -351l101 351h150l-171 -514q-18 -56 -35.5 -94.5t-40.5 -63t-56 -35.5t-82 -11z"/>
<glyph glyph-name="uni04EF" horiz-adv-x="444" unicode="ӯ" d="M367 638h-291v76h291v-76zM46 -173v103q18 -3 36 -3q38 0 54.5 20t19.5 53l-151 538h144l80 -372h2l70 372h138l-130 -502q-18 -68 -34.5 -109t-39 -63t-54 -29.5t-79.5 -7.5h-56z"/>
<glyph glyph-name="uni04F0" horiz-adv-x="520" unicode="Ӱ" d="M228 883v-118h-109v118h109zM400 883v-118h-112v118h112zM133 -4h-15t-12.5 0.5t-15 1t-22.5 2.5v109q21 -3 42 -3q35 0 51 18t30 51l7 16l-196 523h160l105 -351l101 351h150l-171 -514q-18 -56 -35.5 -94.5t-40.5 -63t-56 -35.5t-82 -11z"/>
<glyph glyph-name="uni04F1" horiz-adv-x="444" unicode="ӱ" d="M190 728v-118h-109v118h109zM362 728v-118h-112v118h112zM46 -173v103q18 -3 36 -3q38 0 54.5 20t19.5 53l-151 538h144l80 -372h2l70 372h138l-130 -502q-18 -68 -34.5 -109t-39 -63t-54 -29.5t-79.5 -7.5h-56z"/>
<glyph glyph-name="uni04F2" horiz-adv-x="520" unicode="Ӳ" d="M325 900l-98 -144h-91l51 144h138zM491 900l-98 -144h-94l54 144h138zM133 -4h-15t-12.5 0.5t-15 1t-22.5 2.5v109q21 -3 42 -3q35 0 51 18t30 51l7 16l-196 523h160l105 -351l101 351h150l-171 -514q-18 -56 -35.5 -94.5t-40.5 -63t-56 -35.5t-82 -11z"/>
<glyph glyph-name="uni04F3" horiz-adv-x="444" unicode="ӳ" d="M265 745l-98 -144h-91l51 144h138zM431 745l-98 -144h-94l54 144h138zM46 -173v103q18 -3 36 -3q38 0 54.5 20t19.5 53l-151 538h144l80 -372h2l70 372h138l-130 -502q-18 -68 -34.5 -109t-39 -63t-54 -29.5t-79.5 -7.5h-56z"/>
<glyph glyph-name="uni04F4" horiz-adv-x="528" unicode="Ӵ" d="M232 883v-118h-109v118h109zM404 883v-118h-112v118h112zM334 278q-22 -5 -47 -7.5t-48 -2.5q-109 0 -159 46.5t-50 146.5v253h144v-240q0 -29 7.5 -47t20 -28t29.5 -13.5t36 -3.5q13 0 31.5 1.5t35.5 4.5v326h144v-714h-144v278z"/>
<glyph glyph-name="uni04F5" horiz-adv-x="478" unicode="ӵ" d="M207 728v-118h-109v118h109zM379 728v-118h-112v118h112zM292 205q-11 -2 -35 -6t-56 -4q-86 0 -127 38t-41 116v189h137v-185q0 -37 17 -47.5t43 -10.5q20 0 37 3t25 5v235h138v-538h-138v205z"/>
<glyph glyph-name="uni04F8" horiz-adv-x="752" unicode="Ӹ" d="M344 883v-118h-109v118h109zM516 883v-118h-112v118h112zM558 714h144v-714h-144v714zM234 109q65 0 91.5 24.5t26.5 90.5q0 33 -7.5 54.5t-21.5 34t-35.5 17.5t-49.5 5h-44v-226h40zM50 714h144v-270h76q55 0 97.5 -11.5t71.5 -37.5t44.5 -68t15.5 -102 q0 -61 -15.5 -104t-45 -70t-72 -39t-96.5 -12h-220v714z"/>
<glyph glyph-name="uni04F9" horiz-adv-x="670" unicode="ӹ" d="M303 728v-118h-109v118h109zM475 728v-118h-112v118h112zM486 538h138v-538h-138v538zM230 103q42 0 59 16t17 58q0 43 -17.5 59t-55.5 16h-49v-149h46zM46 538h138v-183h72q42 0 76 -9t58 -30t37 -54t13 -81q0 -96 -47.5 -138.5t-132.5 -42.5h-214v538z"/>
<glyph glyph-name="afii61664" horiz-adv-x="0" unicode="‌"/>
<glyph glyph-name="afii301" horiz-adv-x="0" unicode="‍"/>
<glyph glyph-name="endash" horiz-adv-x="500" unicode="–" d="M0 345h500v-112h-500v112z"/>
<glyph glyph-name="emdash" horiz-adv-x="1000" unicode="—" d="M0 345h1000v-112h-1000v112z"/>
<glyph glyph-name="quoteleft" horiz-adv-x="260" unicode="‘" d="M64 523q0 39 6 73t20 58t40 40t66 20v-70q-26 -5 -39 -28t-13 -51v-16h52v-156h-132v130z"/>
<glyph glyph-name="quotesinglbase" horiz-adv-x="260" unicode="‚" d="M196 156v-130q0 -36 -6 -70t-20 -58t-40 -40t-66 -20v70q26 5 39 28t13 51v13h-52v156h132z"/>
<glyph glyph-name="quotedblleft" horiz-adv-x="463" unicode="“" d="M263 523q-1 39 5 73t21 58t41 40t65 20v-70q-26 -5 -39 -28t-13 -51v-16h52v-156h-132v130zM68 523q0 39 6 73t20 58t40 40t66 20v-70q-26 -5 -39 -28t-13 -51v-16h52v-156h-132v130z"/>
<glyph glyph-name="quotedblright" horiz-adv-x="463" unicode="”" d="M68 714h132v-130q0 -40 -6 -74t-20 -58t-40 -40t-66 -19v70q26 5 39 28t13 51v16h-52v156zM263 714h132v-130q1 -40 -5 -74t-21 -58t-41 -40t-65 -19v70q26 5 39 28t13 51v16h-52v156z"/>
<glyph glyph-name="dagger" d="M171 714h138v-198h168v-112h-168v-539h-138v539h-168v112h168v198z" unicode="†"/>
<glyph glyph-name="daggerdbl" d="M171 52h-168v112h168v248h-168v112h168v190h138v-190h168v-112h-168v-248h168v-112h-168v-187h-138v187z" unicode="‡"/>
<glyph glyph-name="ellipsis" horiz-adv-x="1000" unicode="…" d="M233 156v-156h-132v156h132zM566 156v-156h-132v156h132zM899 156v-156h-132v156h132z"/>
<glyph glyph-name="perthousand" horiz-adv-x="1093" unicode="‰" d="M872 181q0 -59 7 -89t37 -30t37 30t7 89q0 55 -7 83t-37 28t-37 -28t-7 -83zM766 177q0 48 6 84t22 60q16 23 46 35t76 12q47 0 76 -12q30 -12 46 -35q16 -24 22 -60t6 -84q0 -49 -6 -85t-22 -58q-16 -24 -46 -34q-29 -10 -76 -11q-46 1 -76 11t-46 34t-22 58 q-6 36 -6 85zM27 517q0 48 6 84q7 36 23 60q16 23 46 35t75 12q47 0 76 -12t45 -35q16 -24 23 -60q6 -36 6 -84t-6 -84q-7 -36 -23 -60q-16 -23 -45 -35t-76 -12q-45 0 -75 12t-46 35q-16 24 -23 60q-6 36 -6 84zM133 521q0 -59 7 -89t37 -30t37 30t7 89q0 55 -7 83t-37 28 t-37 -28t-7 -83zM428 177q0 48 6 84t22 60q16 23 46 35t76 12q47 0 76 -12q30 -12 46 -35q16 -24 22 -60t6 -84q0 -49 -6 -85t-22 -58q-16 -24 -46 -34q-29 -10 -76 -11q-46 1 -76 11t-46 34t-22 58q-6 36 -6 85zM534 181q0 -59 7 -89t37 -30t37 30t7 89q0 55 -7 83t-37 28 t-37 -28t-7 -83zM534 725h89l-406 -753h-89z"/>
<glyph glyph-name="guilsinglleft" horiz-adv-x="241" unicode="‹" d="M46 370l149 120v-132l-79 -69l79 -69v-132l-149 120v162z"/>
<glyph glyph-name="guilsinglright" horiz-adv-x="241" unicode="›" d="M46 220l79 69l-79 69v132l149 -120v-162l-149 -120v132z"/>
<glyph glyph-name="fraction" horiz-adv-x="167" unicode="⁄" d="M242 725h89l-403 -753h-89z"/>
<glyph glyph-name="Euro" d="M479 661l-46 -100q-48 51 -99 51q-57 0 -78 -49q-13 -30 -17 -98h168l-29 -78h-142v-51h132l-29 -78h-101q3 -78 13 -108q19 -61 76 -61q52 0 129 67v-125q-77 -42 -151 -42q-203 0 -210 269h-69l29 78h38l1 51h-68l30 78h41q21 246 228 246q89 0 154 -50z" unicode="€"/>
<glyph glyph-name="trademark" horiz-adv-x="990" unicode="™" d="M842 584h-2l-95 -284h-100l-95 284h-2v-284h-106v414h169l83 -250h2l83 250h169v-414h-106v284zM143 620h-112v94h336v-94h-112v-320h-112v320z"/>
<glyph glyph-name="partialdiff" horiz-adv-x="552" unicode="∂" d="M256 86q34 0 57 17.5t37.5 46t21 66t6.5 77.5q-22 24 -50.5 39.5t-61.5 15.5q-29 0 -50 -11t-35.5 -29.5t-21.5 -43t-7 -50.5q0 -24 6 -47t19 -41t32.5 -29t46.5 -11zM254 -11q-51 0 -93 17t-72.5 48t-47 73.5t-16.5 93.5q0 48 16 89t45.5 71t70 47t88.5 17 q38 0 70.5 -12.5t63.5 -35.5v15q0 33 -6 69.5t-22 68t-42.5 52t-66.5 20.5q-37 0 -65.5 -15t-55.5 -38l-70 80q42 35 88 54.5t103 19.5q78 0 130 -31.5t83 -82.5t44 -116t13 -132q0 -65 -10.5 -131t-39 -119.5t-79 -87.5t-129.5 -34z"/>
<glyph glyph-name="product" horiz-adv-x="728" unicode="∏" d="M50 786h628v-1000h-144v876h-341v-876h-143v1000z"/>
<glyph glyph-name="summation" horiz-adv-x="638" unicode="∑" d="M20 -114l299 406l-286 395v99h584v-124h-403l262 -369l-280 -384h432v-123h-608v100z"/>
<glyph glyph-name="minus" horiz-adv-x="600" unicode="−" d="M47 315h506v-124h-506v124z"/>
<glyph glyph-name="radical" horiz-adv-x="549" unicode="√" d="M138 96l-52 -25l-45 97l160 73l123 -264l165 809h127l-214 -1000h-114z"/>
<glyph glyph-name="infinity" horiz-adv-x="802" unicode="∞" d="M596 182q37 0 56.5 23t19.5 58t-21 59.5t-58 24.5q-19 0 -37.5 -8.5t-35 -21t-31 -28t-26.5 -28.5q13 -15 27.5 -29t31 -25t35 -18t39.5 -7zM208 182q19 0 37.5 7.5t35.5 19t31.5 25.5t26.5 28q-12 13 -27.5 28t-32.5 28t-36 21t-38 8q-35 0 -55.5 -25.5t-20.5 -58.5 q0 -35 21.5 -58t57.5 -23zM209 75q-41 0 -74.5 14.5t-56.5 40t-35.5 60.5t-12.5 75q0 39 12 73.5t34.5 60t55 40t73.5 14.5q34 0 61.5 -10t50.5 -26.5t43.5 -38.5t40.5 -46q19 24 40 45.5t44 38.5t50.5 27t60.5 10q41 0 74 -14.5t55.5 -39.5t34.5 -59t12 -74t-12 -75 t-35 -60.5t-55.5 -40.5t-74.5 -15q-32 0 -59 9.5t-50.5 25t-44.5 36t-40 43.5q-19 -23 -40 -43.5t-44 -36t-50 -25t-58 -9.5z"/>
<glyph glyph-name="approxequal" horiz-adv-x="549" unicode="≈" d="M15 270q3 33 13 66t28.5 58.5t46.5 41.5t66 16q30 0 61.5 -10t63.5 -21.5t64 -21.5t62 -10q27 0 41.5 19t18.5 44h78q-3 -35 -13 -67.5t-28 -58t-45.5 -41t-67.5 -15.5q-29 0 -62.5 10.5t-67.5 22.5t-65 22.5t-55 10.5q-27 0 -42 -21t-19 -45h-78zM15 52q3 33 13 66 t28.5 58.5t46.5 41.5t66 16q30 0 61.5 -10t63.5 -21.5t64 -21.5t62 -10q27 0 41.5 19t18.5 44h78q-3 -35 -13 -67.5t-28 -58t-45.5 -41t-67.5 -15.5q-29 0 -62.5 10.5t-67.5 22.5t-65 22.5t-55 10.5q-27 0 -42 -21t-19 -45h-78z"/>
<glyph glyph-name="notequal" horiz-adv-x="549" unicode="≠" d="M58 -23l53 105h-99v124h161l48 94h-209v124h271l79 157l103 -52l-53 -105h106v-124h-168l-48 -94h216v-124h-278l-79 -157z"/>
<glyph glyph-name="lessequal" horiz-adv-x="549" unicode="≤" d="M12 278v118l506 171v-123l-343 -107l343 -105v-123zM12 79h506v-119h-506v119z"/>
<glyph glyph-name="greaterequal" horiz-adv-x="549" unicode="≥" d="M12 109v123l343 105l-343 107v123l506 -171v-118zM12 -40v119h506v-119h-506z"/>
<glyph glyph-name="lozenge" horiz-adv-x="600" unicode="◊" d="M415 347l-115 264l-115 -264l115 -265zM60 347l180 382h120l181 -382l-181 -382h-120z"/>
</font>
</defs>
</svg>
